<?xml version="1.0" encoding="utf-8"?>
<!-- Generator: Adobe Illustrator 27.5.0, SVG Export Plug-In . SVG Version: 6.00 Build 0)  -->
<svg version="1.1" id="Capa_2" xmlns="http://www.w3.org/2000/svg" xmlns:xlink="http://www.w3.org/1999/xlink" x="0px" y="0px"
	 viewBox="0 0 2372 1898" style="enable-background:new 0 0 2372 1898;" xml:space="preserve">
<rect x="0" style="fill:#F296AA;" width="2371.708" height="1897.367"/>
<g>
	<path style="fill:#231014;" d="M1945.146,891.364h-550.596c-20.158,0-36.498,16.341-36.498,36.5v780.131
		c0,20.159,16.34,36.5,36.498,36.5h550.596c20.156,0,36.5-16.341,36.5-36.5V927.864
		C1981.646,907.705,1965.303,891.364,1945.146,891.364z"/>
	<path style="fill:#422428;" d="M1945.146,874.765h-550.596c-20.158,0-36.498,16.341-36.498,36.5v780.131
		c0,20.159,16.34,36.5,36.498,36.5h550.596c20.156,0,36.5-16.341,36.5-36.5V911.265
		C1981.646,891.106,1965.303,874.765,1945.146,874.765z"/>
	<rect x="1382.462" y="932.374" style="fill:#FEEFE9;" width="574.773" height="771.11"/>
	<rect x="1568.52" y="856.992" style="fill:#DADADA;" width="202.655" height="31.151"/>
	<rect x="1568.52" y="888.143" style="fill:#C6C6C6;" width="202.655" height="31.148"/>
	<rect x="1568.52" y="919.291" style="fill:#878787;" width="202.655" height="31.151"/>
	<path style="fill:#DADADA;" d="M1669.848,819.248c-20.846,0-37.746,16.899-37.746,37.745c0,7.704,2.32,14.861,6.282,20.832
		c1.183-0.3,2.457-0.482,3.849-0.482h59.372c3.774-5.876,5.989-12.848,5.989-20.349
		C1707.594,836.146,1690.695,819.248,1669.848,819.248z M1669.848,850.034c-4.718,0-8.542-3.827-8.542-8.545
		c0-4.718,3.824-8.542,8.542-8.542c4.72,0,8.543,3.824,8.543,8.542C1678.391,846.207,1674.567,850.034,1669.848,850.034z"/>
	<path style="fill:#422428;" d="M1907.186,1659.441v-1.435h-474.479V984.627h473.044v674.815H1907.186v-1.435V1659.441h1.436
		v-676.25c0-0.379-0.152-0.749-0.421-1.015c-0.267-0.269-0.636-0.421-1.015-0.421h-475.914c-0.379,0-0.749,0.152-1.015,0.421
		c-0.268,0.267-0.421,0.636-0.421,1.015v676.25c0,0.378,0.153,0.749,0.421,1.015c0.266,0.267,0.636,0.421,1.015,0.421h475.914
		c0.379,0,0.749-0.154,1.015-0.421c0.269-0.266,0.421-0.636,0.421-1.015H1907.186z"/>
	<path style="fill:#422428;" d="M1467.186,1019.318h175.903c0.792,0,1.435-0.642,1.435-1.436c0-0.793-0.643-1.435-1.435-1.435
		h-175.903c-0.793,0-1.435,0.642-1.435,1.435C1465.75,1018.676,1466.392,1019.318,1467.186,1019.318"/>
	<path style="fill:#422428;" d="M1467.186,1036.906h175.903c0.792,0,1.435-0.642,1.435-1.435c0-0.791-0.643-1.436-1.435-1.436
		h-175.903c-0.793,0-1.435,0.645-1.435,1.436C1465.75,1036.265,1466.392,1036.906,1467.186,1036.906"/>
	<path style="fill:#422428;" d="M1467.186,1604.739h175.903c0.792,0,1.435-0.642,1.435-1.435c0-0.794-0.643-1.436-1.435-1.436
		h-175.903c-0.793,0-1.435,0.642-1.435,1.436C1465.75,1604.097,1466.392,1604.739,1467.186,1604.739"/>
	<path style="fill:#422428;" d="M1467.186,1622.327h175.903c0.792,0,1.435-0.642,1.435-1.435c0-0.794-0.643-1.436-1.435-1.436
		h-175.903c-0.793,0-1.435,0.642-1.435,1.436C1465.75,1621.685,1466.392,1622.327,1467.186,1622.327"/>
	<path style="fill:#422428;" d="M1467.186,1054.498h145.364c0.792,0,1.435-0.642,1.435-1.435c0-0.791-0.643-1.436-1.435-1.436
		h-145.364c-0.793,0-1.435,0.645-1.435,1.436C1465.75,1053.855,1466.392,1054.498,1467.186,1054.498"/>
	<path style="fill:#422428;" d="M1467.186,1226.249h405.553c0.793,0,1.435-0.642,1.435-1.436c0-0.793-0.642-1.435-1.435-1.435
		h-405.553c-0.793,0-1.435,0.642-1.435,1.435C1465.75,1225.607,1466.392,1226.249,1467.186,1226.249"/>
	<path style="fill:#422428;" d="M1467.186,1245.306h405.553c0.793,0,1.435-0.642,1.435-1.435c0-0.793-0.642-1.435-1.435-1.435
		h-405.553c-0.793,0-1.435,0.642-1.435,1.435C1465.75,1244.663,1466.392,1245.306,1467.186,1245.306"/>
	<path style="fill:#422428;" d="M1467.186,1264.36h405.553c0.793,0,1.435-0.642,1.435-1.435c0-0.791-0.642-1.436-1.435-1.436
		h-405.553c-0.793,0-1.435,0.645-1.435,1.436C1465.75,1263.718,1466.392,1264.36,1467.186,1264.36"/>
	<path style="fill:#422428;" d="M1467.186,1283.418h405.553c0.793,0,1.435-0.642,1.435-1.436c0-0.793-0.642-1.435-1.435-1.435
		h-405.553c-0.793,0-1.435,0.642-1.435,1.435C1465.75,1282.776,1466.392,1283.418,1467.186,1283.418"/>
	<path style="fill:#422428;" d="M1467.186,1302.472h405.553c0.793,0,1.435-0.642,1.435-1.435c0-0.79-0.642-1.435-1.435-1.435
		h-405.553c-0.793,0-1.435,0.645-1.435,1.435C1465.75,1301.83,1466.392,1302.472,1467.186,1302.472"/>
	<path style="fill:#422428;" d="M1467.186,1321.529h405.553c0.793,0,1.435-0.642,1.435-1.435c0-0.794-0.642-1.436-1.435-1.436
		h-405.553c-0.793,0-1.435,0.642-1.435,1.436C1465.75,1320.887,1466.392,1321.529,1467.186,1321.529"/>
	<path style="fill:#422428;" d="M1467.186,1340.586h405.553c0.793,0,1.435-0.642,1.435-1.435c0-0.793-0.642-1.435-1.435-1.435
		h-405.553c-0.793,0-1.435,0.642-1.435,1.435C1465.75,1339.944,1466.392,1340.586,1467.186,1340.586"/>
	<path style="fill:#422428;" d="M1467.186,1359.641h405.553c0.793,0,1.435-0.642,1.435-1.435c0-0.791-0.642-1.435-1.435-1.435
		h-405.553c-0.793,0-1.435,0.644-1.435,1.435C1465.75,1358.999,1466.392,1359.641,1467.186,1359.641"/>
	<path style="fill:#422428;" d="M1467.186,1378.698h405.553c0.793,0,1.435-0.642,1.435-1.436c0-0.793-0.642-1.435-1.435-1.435
		h-405.553c-0.793,0-1.435,0.642-1.435,1.435C1465.75,1378.056,1466.392,1378.698,1467.186,1378.698"/>
	<path style="fill:#422428;" d="M1467.186,1397.752h382.1c0.793,0,1.435-0.642,1.435-1.435c0-0.79-0.642-1.435-1.435-1.435h-382.1
		c-0.793,0-1.435,0.645-1.435,1.435C1465.75,1397.11,1466.392,1397.752,1467.186,1397.752"/>
	<path style="fill:#422428;" d="M1467.186,1416.81h382.1c0.793,0,1.435-0.642,1.435-1.435c0-0.791-0.642-1.436-1.435-1.436h-382.1
		c-0.793,0-1.435,0.645-1.435,1.436C1465.75,1416.168,1466.392,1416.81,1467.186,1416.81"/>
	<path style="fill:#422428;" d="M1467.186,1435.867h382.1c0.793,0,1.435-0.641,1.435-1.435c0-0.793-0.642-1.435-1.435-1.435h-382.1
		c-0.793,0-1.435,0.642-1.435,1.435C1465.75,1435.225,1466.392,1435.867,1467.186,1435.867"/>
	<path style="fill:#010202;" d="M1945.259,1727.896h-550.593c-20.159,0-36.5-16.341-36.5-36.5v16.599
		c0,20.159,16.341,36.5,36.5,36.5h550.593c20.159,0,36.5-16.341,36.5-36.5v-16.599
		C1981.759,1711.555,1965.418,1727.896,1945.259,1727.896z"/>
	<path style="fill:#231014;" d="M1957.347,1703.485h-574.77v-350.073c-8.514-11.721-16.659-23.722-24.412-36.004v373.988
		c0,20.159,16.341,36.5,36.5,36.5h550.593c20.159,0,36.5-16.341,36.5-36.5v-64.819c-8.099,0.707-16.229,1.315-24.412,1.73V1703.485z
		"/>
	<path style="fill:#FCDDCD;" d="M1905.866,1658.006v-29.057c-186.913-4.743-354.702-86.33-473.045-214.314v243.371H1905.866z
		 M1467.299,1601.868h175.903c0.793,0,1.435,0.642,1.435,1.436c0,0.793-0.642,1.435-1.435,1.435h-175.903
		c-0.792,0-1.435-0.642-1.435-1.435C1465.864,1602.51,1466.507,1601.868,1467.299,1601.868z M1467.299,1619.456h175.903
		c0.793,0,1.435,0.642,1.435,1.436c0,0.793-0.642,1.435-1.435,1.435h-175.903c-0.792,0-1.435-0.642-1.435-1.435
		C1465.864,1620.098,1466.507,1619.456,1467.299,1619.456z"/>
	<path style="fill:#FCDDCD;" d="M1957.347,1703.485v-75.178c-11.332,0.572-22.738,0.864-34.215,0.864
		c-4.813,0-9.607-0.081-14.395-0.182v30.453c0,0.378-0.154,0.749-0.421,1.015c-0.267,0.267-0.636,0.421-1.015,0.421h-475.915
		c-0.377,0-0.747-0.154-1.015-0.421c-0.268-0.266-0.42-0.636-0.42-1.015v-247.891c-16.851-18.455-32.655-37.873-47.373-58.139
		v350.073H1957.347z"/>
	<path style="fill:#422428;" d="M1430.37,1660.456c0.268,0.267,0.638,0.421,1.015,0.421h475.915c0.379,0,0.749-0.154,1.015-0.421
		c0.266-0.266,0.421-0.636,0.421-1.015v-30.453c-0.956-0.022-1.918-0.014-2.871-0.039v29.057h-473.045v-243.371
		c-0.953-1.029-1.923-2.047-2.871-3.084v247.891C1429.95,1659.819,1430.103,1660.19,1430.37,1660.456z"/>
	<path style="fill:#422428;" d="M1467.299,1604.739h175.903c0.793,0,1.435-0.642,1.435-1.435c0-0.794-0.642-1.436-1.435-1.436
		h-175.903c-0.792,0-1.435,0.642-1.435,1.436C1465.864,1604.097,1466.507,1604.739,1467.299,1604.739z"/>
	<path style="fill:#422428;" d="M1467.299,1622.327h175.903c0.793,0,1.435-0.642,1.435-1.435c0-0.794-0.642-1.436-1.435-1.436
		h-175.903c-0.792,0-1.435,0.642-1.435,1.436C1465.864,1621.685,1466.507,1622.327,1467.299,1622.327z"/>
</g>
<g>
	<path style="fill:#FEDDAE;" d="M2158.785,767.547h-781.367c-12.738,0-23.064-10.326-23.064-23.063V201.093
		c0-12.737,10.326-23.063,23.064-23.063h781.367c12.737,0,23.062,10.326,23.062,23.063v543.391
		C2181.847,757.221,2171.521,767.547,2158.785,767.547z"/>
	<path style="fill:#F296AA;" d="M1406.142,203.587c0,8.37-6.786,15.157-15.156,15.157c-8.371,0-15.156-6.787-15.156-15.157
		c0-8.37,6.785-15.155,15.156-15.155C1399.355,188.432,1406.142,195.217,1406.142,203.587z"/>
	<path style="fill:#422428;" d="M1406.142,201.211c-6.315-0.002-12.01-2.553-16.151-6.69c-4.138-4.141-6.69-9.836-6.691-16.152
		c0.001-6.315,2.553-12.01,6.691-16.15c4.141-4.137,9.836-6.688,16.151-6.69c6.315,0.001,12.01,2.552,16.151,6.69
		c4.137,4.14,6.688,9.836,6.69,16.15c0,1.313,1.064,2.376,2.376,2.376c1.312,0,2.376-1.064,2.376-2.376
		c-0.002-15.241-12.353-27.59-27.593-27.592c-15.24,0.001-27.593,12.351-27.594,27.592c0.002,15.243,12.354,27.593,27.594,27.594
		c1.312,0,2.376-1.064,2.376-2.376C1408.518,202.275,1407.453,201.211,1406.142,201.211L1406.142,201.211z"/>
	<path style="fill:#F296AA;" d="M1479.988,203.587c0,8.37-6.786,15.157-15.156,15.157c-8.37,0-15.156-6.787-15.156-15.157
		c0-8.37,6.786-15.155,15.156-15.155C1473.202,188.432,1479.988,195.217,1479.988,203.587z"/>
	<path style="fill:#422428;" d="M1479.988,201.211c-6.315-0.002-12.011-2.553-16.152-6.69c-4.137-4.141-6.689-9.836-6.691-16.152
		c0.002-6.315,2.554-12.01,6.691-16.15c4.141-4.137,9.837-6.688,16.152-6.69c6.315,0.001,12.01,2.552,16.151,6.69
		c4.138,4.14,6.69,9.836,6.691,16.15c0,1.313,1.064,2.376,2.376,2.376s2.376-1.064,2.376-2.376
		c-0.002-15.241-12.354-27.59-27.594-27.592c-15.24,0.001-27.593,12.351-27.595,27.592c0.002,15.243,12.354,27.593,27.595,27.594
		c1.312,0,2.375-1.064,2.375-2.376C1482.364,202.275,1481.3,201.211,1479.988,201.211L1479.988,201.211z"/>
	<path style="fill:#F296AA;" d="M1553.834,203.587c0,8.37-6.785,15.157-15.156,15.157c-8.37,0-15.156-6.787-15.156-15.157
		c0-8.37,6.786-15.155,15.156-15.155C1547.05,188.432,1553.834,195.217,1553.834,203.587z"/>
	<path style="fill:#422428;" d="M1553.834,201.211c-6.315-0.002-12.01-2.553-16.151-6.69c-4.137-4.141-6.688-9.836-6.69-16.152
		c0.002-6.315,2.553-12.01,6.69-16.15c4.141-4.137,9.836-6.688,16.151-6.69c6.315,0.001,12.01,2.552,16.151,6.69
		c4.137,4.14,6.689,9.836,6.691,16.15c0,1.313,1.064,2.376,2.376,2.376c1.312,0,2.376-1.064,2.376-2.376
		c-0.002-15.241-12.354-27.59-27.594-27.592c-15.24,0.001-27.592,12.351-27.593,27.592c0.001,15.243,12.353,27.593,27.593,27.594
		c1.312,0,2.376-1.064,2.376-2.376C1556.21,202.275,1555.146,201.211,1553.834,201.211L1553.834,201.211z"/>
	<path style="fill:#F296AA;" d="M1627.68,203.587c0,8.37-6.784,15.157-15.156,15.157c-8.37,0-15.156-6.787-15.156-15.157
		c0-8.37,6.786-15.155,15.156-15.155C1620.896,188.432,1627.68,195.217,1627.68,203.587z"/>
	<path style="fill:#422428;" d="M1627.68,201.211c-6.315-0.002-12.01-2.553-16.151-6.69c-4.137-4.141-6.689-9.836-6.69-16.152
		c0.001-6.315,2.553-12.01,6.69-16.15c4.141-4.137,9.836-6.688,16.151-6.69c6.316,0.001,12.011,2.552,16.152,6.69
		c4.137,4.14,6.688,9.836,6.69,16.15c0,1.313,1.064,2.376,2.376,2.376c1.312,0,2.376-1.064,2.376-2.376
		c-0.002-15.241-12.353-27.59-27.594-27.592c-15.24,0.001-27.592,12.351-27.593,27.592c0.001,15.243,12.352,27.593,27.593,27.594
		c1.312,0,2.376-1.064,2.376-2.376C1630.057,202.275,1628.992,201.211,1627.68,201.211L1627.68,201.211z"/>
	<path style="fill:#F296AA;" d="M1701.528,203.587c0,8.37-6.786,15.157-15.156,15.157c-8.371,0-15.156-6.787-15.156-15.157
		c0-8.37,6.785-15.155,15.156-15.155C1694.742,188.432,1701.528,195.217,1701.528,203.587z"/>
	<path style="fill:#422428;" d="M1701.528,201.211c-6.316-0.002-12.011-2.553-16.152-6.69c-4.138-4.141-6.689-9.836-6.691-16.152
		c0.002-6.315,2.553-12.01,6.69-16.15c4.141-4.137,9.837-6.688,16.152-6.69c6.315,0.001,12.01,2.552,16.151,6.69
		c4.137,4.14,6.689,9.836,6.69,16.15c0,1.313,1.064,2.376,2.376,2.376c1.313,0,2.376-1.064,2.376-2.376
		c-0.002-15.241-12.353-27.59-27.593-27.592c-15.241,0.001-27.593,12.351-27.594,27.592c0.001,15.243,12.353,27.593,27.594,27.594
		c1.312,0,2.376-1.064,2.376-2.376C1703.904,202.275,1702.84,201.211,1701.528,201.211L1701.528,201.211z"/>
	<path style="fill:#F296AA;" d="M1775.374,203.587c0,8.37-6.785,15.157-15.157,15.157c-8.37,0-15.155-6.787-15.155-15.157
		c0-8.37,6.785-15.155,15.155-15.155C1768.589,188.432,1775.374,195.217,1775.374,203.587z"/>
	<path style="fill:#422428;" d="M1775.374,201.211c-6.315-0.002-12.011-2.553-16.152-6.69c-4.137-4.141-6.689-9.836-6.691-16.152
		c0.002-6.315,2.554-12.01,6.691-16.15c4.141-4.137,9.837-6.688,16.152-6.69c6.315,0.001,12.01,2.552,16.151,6.69
		c4.138,4.14,6.689,9.836,6.691,16.15c0,1.313,1.064,2.376,2.376,2.376c1.312,0,2.376-1.064,2.376-2.376
		c-0.002-15.241-12.354-27.59-27.594-27.592c-15.24,0.001-27.593,12.351-27.594,27.592c0.001,15.243,12.354,27.593,27.594,27.594
		c1.312,0,2.376-1.064,2.376-2.376C1777.75,202.275,1776.686,201.211,1775.374,201.211L1775.374,201.211z"/>
	<path style="fill:#F296AA;" d="M1849.219,203.587c0,8.37-6.785,15.157-15.155,15.157c-8.37,0-15.155-6.787-15.155-15.157
		c0-8.37,6.785-15.155,15.155-15.155C1842.434,188.432,1849.219,195.217,1849.219,203.587z"/>
	<path style="fill:#422428;" d="M1849.219,201.211c-6.315-0.002-12.01-2.553-16.15-6.69c-4.137-4.141-6.688-9.836-6.689-16.152
		c0.001-6.315,2.552-12.01,6.689-16.15c4.141-4.137,9.835-6.688,16.15-6.69c6.316,0.001,12.012,2.552,16.152,6.69
		c4.137,4.14,6.688,9.835,6.69,16.15c0,1.313,1.064,2.376,2.376,2.376c1.312,0,2.376-1.064,2.376-2.376
		c-0.001-15.241-12.352-27.59-27.594-27.592c-15.24,0.001-27.591,12.351-27.592,27.592c0.001,15.243,12.351,27.593,27.592,27.594
		c1.312,0,2.376-1.064,2.376-2.376C1851.595,202.275,1850.531,201.211,1849.219,201.211L1849.219,201.211z"/>
	<path style="fill:#F296AA;" d="M1923.067,203.587c0,8.37-6.785,15.157-15.155,15.157c-8.372,0-15.157-6.787-15.157-15.157
		c0-8.37,6.785-15.155,15.157-15.155C1916.282,188.432,1923.067,195.217,1923.067,203.587z"/>
	<path style="fill:#422428;" d="M1923.067,201.211c-6.315-0.002-12.011-2.553-16.152-6.69c-4.137-4.141-6.689-9.836-6.691-16.152
		c0.002-6.315,2.554-12.01,6.691-16.15c4.141-4.137,9.837-6.688,16.152-6.69c6.315,0.001,12.01,2.552,16.151,6.69
		c4.138,4.14,6.69,9.836,6.691,16.15c0,1.313,1.064,2.376,2.376,2.376c1.312,0,2.376-1.064,2.376-2.376
		c-0.002-15.241-12.355-27.59-27.594-27.592c-15.24,0.001-27.593,12.351-27.594,27.592c0.002,15.243,12.354,27.593,27.594,27.594
		c1.312,0,2.376-1.064,2.376-2.376C1925.442,202.275,1924.379,201.211,1923.067,201.211L1923.067,201.211z"/>
	<path style="fill:#F296AA;" d="M1996.914,203.587c0,8.37-6.787,15.157-15.157,15.157c-8.37,0-15.155-6.787-15.155-15.157
		c0-8.37,6.785-15.155,15.155-15.155C1990.127,188.432,1996.914,195.217,1996.914,203.587z"/>
	<path style="fill:#422428;" d="M1996.914,201.211c-6.315-0.002-12.011-2.553-16.152-6.69c-4.137-4.141-6.689-9.836-6.691-16.152
		c0.002-6.315,2.554-12.01,6.691-16.15c4.141-4.137,9.837-6.688,16.152-6.69c6.315,0.001,12.01,2.552,16.15,6.69
		c4.137,4.14,6.688,9.835,6.69,16.15c0,1.313,1.064,2.376,2.376,2.376c1.312,0,2.376-1.064,2.376-2.376
		c-0.002-15.241-12.352-27.59-27.592-27.592c-15.241,0.001-27.593,12.351-27.594,27.592c0.001,15.243,12.354,27.593,27.594,27.594
		c1.312,0,2.376-1.064,2.376-2.376C1999.29,202.275,1998.226,201.211,1996.914,201.211L1996.914,201.211z"/>
	<path style="fill:#F296AA;" d="M2070.759,203.587c0,8.37-6.784,15.157-15.155,15.157c-8.37,0-15.157-6.787-15.157-15.157
		c0-8.37,6.787-15.155,15.157-15.155C2063.975,188.432,2070.759,195.217,2070.759,203.587z"/>
	<path style="fill:#422428;" d="M2070.759,201.211c-6.315-0.002-12.01-2.553-16.151-6.69c-4.138-4.141-6.69-9.836-6.691-16.152
		c0.001-6.315,2.553-12.01,6.691-16.15c4.141-4.137,9.836-6.688,16.151-6.69c6.315,0.001,12.011,2.552,16.152,6.69
		c4.137,4.14,6.689,9.836,6.691,16.15c0,1.313,1.064,2.376,2.376,2.376c1.312,0,2.375-1.064,2.375-2.376
		c-0.002-15.241-12.354-27.59-27.594-27.592c-15.24,0.001-27.593,12.351-27.594,27.592c0.002,15.243,12.355,27.593,27.594,27.594
		c1.312,0,2.376-1.064,2.376-2.376C2073.135,202.275,2072.071,201.211,2070.759,201.211L2070.759,201.211z"/>
	<path style="fill:#F296AA;" d="M2144.607,203.587c0,8.37-6.785,15.157-15.157,15.157c-8.37,0-15.155-6.787-15.155-15.157
		c0-8.37,6.785-15.155,15.155-15.155C2137.822,188.432,2144.607,195.217,2144.607,203.587z"/>
	<path style="fill:#422428;" d="M2144.607,201.211c-6.315-0.002-12.011-2.553-16.152-6.69c-4.137-4.141-6.689-9.836-6.691-16.152
		c0.001-6.315,2.553-12.01,6.691-16.15c4.141-4.137,9.837-6.688,16.152-6.69c6.315,0.001,12.01,2.552,16.152,6.69
		c4.137,4.14,6.689,9.836,6.69,16.15c0,1.313,1.064,2.376,2.376,2.376s2.376-1.064,2.376-2.376
		c-0.002-15.241-12.354-27.59-27.594-27.592c-15.24,0.001-27.593,12.351-27.594,27.592c0.002,15.243,12.354,27.593,27.594,27.594
		c1.312,0,2.376-1.064,2.376-2.376C2146.983,202.275,2145.919,201.211,2144.607,201.211L2144.607,201.211z"/>
	<rect x="1398.843" y="273.358" style="fill:#FFFFFF;" width="527.51" height="32.961"/>
	<rect x="1926.353" y="273.358" style="fill:#F296AA;" width="211.005" height="455.982"/>
	<path style="fill:#422428;" d="M2137.358,307.331v-1.782h-736.733V275.14h734.95v32.191H2137.358v-1.782V307.331h1.782v-33.973
		c0-0.471-0.19-0.928-0.522-1.26c-0.332-0.332-0.789-0.522-1.26-0.522h-738.515c-0.47,0-0.928,0.19-1.26,0.522
		c-0.333,0.332-0.522,0.789-0.522,1.26v33.973c0,0.469,0.19,0.928,0.522,1.26c0.332,0.332,0.79,0.522,1.26,0.522h738.515
		c0.471,0,0.928-0.19,1.26-0.522c0.332-0.332,0.522-0.792,0.522-1.26H2137.358z"/>
	<path style="fill:#422428;" d="M1504.346,412.834v-1.782h-103.722V309.113h101.94v103.721H1504.346v-1.782V412.834h1.782V307.331
		c0-0.471-0.19-0.928-0.522-1.26c-0.332-0.332-0.792-0.522-1.26-0.522h-105.503c-0.47,0-0.928,0.19-1.26,0.522
		c-0.333,0.332-0.522,0.789-0.522,1.26v105.503c0,0.468,0.19,0.928,0.522,1.26c0.332,0.332,0.79,0.522,1.26,0.522h105.503
		c0.469,0,0.928-0.19,1.26-0.522c0.332-0.332,0.522-0.792,0.522-1.26H1504.346z"/>
	<path style="fill:#422428;" d="M1609.847,412.834v-1.782h-103.719V309.113h101.937v103.721H1609.847v-1.782V412.834h1.782V307.331
		c0-0.471-0.19-0.928-0.522-1.26c-0.331-0.332-0.791-0.522-1.26-0.522h-105.502c-0.47,0-0.928,0.19-1.26,0.522
		c-0.333,0.332-0.522,0.789-0.522,1.26v105.503c0,0.468,0.19,0.928,0.522,1.26c0.332,0.332,0.79,0.522,1.26,0.522h105.502
		c0.469,0,0.928-0.19,1.26-0.522c0.332-0.332,0.522-0.792,0.522-1.26H1609.847z"/>
	<path style="fill:#422428;" d="M1715.349,412.834v-1.782h-103.722V309.113h101.939v103.721H1715.349v-1.782V412.834h1.782V307.331
		c0-0.471-0.19-0.928-0.522-1.26c-0.332-0.332-0.791-0.522-1.26-0.522h-105.502c-0.47,0-0.928,0.19-1.26,0.522
		c-0.333,0.332-0.522,0.789-0.522,1.26v105.503c0,0.468,0.19,0.928,0.522,1.26c0.332,0.332,0.79,0.522,1.26,0.522h105.502
		c0.469,0,0.928-0.19,1.26-0.522c0.332-0.332,0.522-0.792,0.522-1.26H1715.349z"/>
	<path style="fill:#422428;" d="M1820.852,412.834v-1.782h-103.721V309.113h101.938v103.721H1820.852v-1.782V412.834h1.782V307.331
		c0-0.471-0.19-0.928-0.522-1.26c-0.332-0.332-0.792-0.522-1.26-0.522h-105.503c-0.47,0-0.928,0.19-1.26,0.522
		c-0.333,0.332-0.522,0.789-0.522,1.26v105.503c0,0.468,0.191,0.928,0.522,1.26c0.332,0.332,0.79,0.522,1.26,0.522h105.503
		c0.469,0,0.928-0.19,1.26-0.522c0.332-0.332,0.522-0.792,0.522-1.26H1820.852z"/>
	<path style="fill:#422428;" d="M1926.353,412.834v-1.782h-103.718V309.113h101.936v103.721H1926.353v-1.782V412.834h1.782V307.331
		c0-0.471-0.19-0.928-0.522-1.26c-0.332-0.332-0.789-0.522-1.26-0.522h-105.5c-0.469,0-0.928,0.19-1.26,0.522
		c-0.332,0.332-0.522,0.789-0.522,1.26v105.503c0,0.468,0.19,0.928,0.522,1.26c0.332,0.332,0.792,0.522,1.26,0.522h105.5
		c0.471,0,0.928-0.19,1.26-0.522c0.332-0.332,0.522-0.792,0.522-1.26H1926.353z"/>
	<path style="fill:#422428;" d="M2031.855,412.834v-1.782h-103.72V309.113h101.938v103.721H2031.855v-1.782V412.834h1.782V307.331
		c0-0.471-0.19-0.928-0.522-1.26c-0.331-0.332-0.789-0.522-1.26-0.522h-105.502c-0.469,0-0.928,0.19-1.26,0.522
		c-0.332,0.332-0.522,0.789-0.522,1.26v105.503c0,0.468,0.19,0.928,0.522,1.26c0.332,0.332,0.791,0.522,1.26,0.522h105.502
		c0.471,0,0.929-0.19,1.26-0.522c0.332-0.332,0.522-0.792,0.522-1.26H2031.855z"/>
	<path style="fill:#422428;" d="M2137.358,412.834v-1.782h-103.721V309.113h101.938v103.721H2137.358v-1.782V412.834h1.782V307.331
		c0-0.471-0.19-0.928-0.522-1.26c-0.332-0.332-0.789-0.522-1.26-0.522h-105.503c-0.469,0-0.928,0.19-1.259,0.522
		c-0.332,0.332-0.522,0.789-0.522,1.26v105.503c0,0.468,0.19,0.928,0.522,1.26c0.331,0.332,0.791,0.522,1.259,0.522h105.503
		c0.471,0,0.928-0.19,1.26-0.522c0.332-0.332,0.522-0.792,0.522-1.26H2137.358z"/>
	<path style="fill:#422428;" d="M1504.346,518.334v-1.782h-103.722V414.616h101.94v103.718H1504.346v-1.782V518.334h1.782v-105.5
		c0-0.471-0.19-0.928-0.522-1.26c-0.332-0.332-0.792-0.522-1.26-0.522h-105.503c-0.47,0-0.928,0.19-1.26,0.522
		c-0.333,0.332-0.522,0.789-0.522,1.26v105.5c0,0.469,0.19,0.928,0.522,1.26c0.332,0.332,0.79,0.522,1.26,0.522h105.503
		c0.469,0,0.928-0.19,1.26-0.522s0.522-0.791,0.522-1.26H1504.346z"/>
	<path style="fill:#422428;" d="M1609.847,518.334v-1.782h-103.719V414.616h101.937v103.718H1609.847v-1.782V518.334h1.782v-105.5
		c0-0.471-0.19-0.928-0.522-1.26c-0.331-0.332-0.791-0.522-1.26-0.522h-105.502c-0.47,0-0.928,0.19-1.26,0.522
		c-0.333,0.332-0.522,0.789-0.522,1.26v105.5c0,0.469,0.19,0.928,0.522,1.26s0.79,0.522,1.26,0.522h105.502
		c0.469,0,0.928-0.19,1.26-0.522c0.332-0.332,0.522-0.791,0.522-1.26H1609.847z"/>
	<path style="fill:#422428;" d="M1715.349,518.334v-1.782h-103.722V414.616h101.939v103.718H1715.349v-1.782V518.334h1.782v-105.5
		c0-0.471-0.19-0.928-0.522-1.26c-0.332-0.332-0.791-0.522-1.26-0.522h-105.502c-0.47,0-0.928,0.19-1.26,0.522
		c-0.333,0.332-0.522,0.789-0.522,1.26v105.5c0,0.469,0.19,0.928,0.522,1.26s0.79,0.522,1.26,0.522h105.502
		c0.469,0,0.928-0.19,1.26-0.522s0.522-0.791,0.522-1.26H1715.349z"/>
	<path style="fill:#422428;" d="M1820.852,518.334v-1.782H1717.13V414.616h101.94v103.718H1820.852v-1.782V518.334h1.782v-105.5
		c0-0.471-0.19-0.928-0.522-1.26c-0.332-0.332-0.792-0.522-1.26-0.522h-105.503c-0.47,0-0.928,0.19-1.26,0.522
		c-0.333,0.332-0.522,0.789-0.522,1.26v105.5c0,0.469,0.191,0.928,0.522,1.26c0.332,0.332,0.79,0.522,1.26,0.522h105.503
		c0.469,0,0.928-0.19,1.26-0.522s0.522-0.791,0.522-1.26H1820.852z"/>
	<path style="fill:#422428;" d="M1926.353,518.334v-1.782h-103.718V414.616h101.936v103.718H1926.353v-1.782V518.334h1.782v-105.5
		c0-0.471-0.19-0.928-0.522-1.26c-0.332-0.332-0.789-0.522-1.26-0.522h-105.5c-0.469,0-0.928,0.19-1.26,0.522
		c-0.332,0.332-0.522,0.789-0.522,1.26v105.5c0,0.469,0.19,0.928,0.522,1.26s0.792,0.522,1.26,0.522h105.5
		c0.471,0,0.928-0.19,1.26-0.522s0.522-0.791,0.522-1.26H1926.353z"/>
	<path style="fill:#422428;" d="M2031.855,518.334v-1.782h-103.72V414.616h101.938v103.718H2031.855v-1.782V518.334h1.782v-105.5
		c0-0.471-0.19-0.928-0.522-1.26c-0.331-0.332-0.789-0.522-1.26-0.522h-105.502c-0.469,0-0.928,0.19-1.26,0.522
		c-0.332,0.332-0.522,0.789-0.522,1.26v105.5c0,0.469,0.19,0.928,0.522,1.26s0.791,0.522,1.26,0.522h105.502
		c0.471,0,0.929-0.19,1.26-0.522c0.332-0.332,0.522-0.791,0.522-1.26H2031.855z"/>
	<path style="fill:#422428;" d="M2137.358,518.334v-1.782h-103.721V414.616h101.938v103.718H2137.358v-1.782V518.334h1.782v-105.5
		c0-0.471-0.19-0.928-0.522-1.26c-0.332-0.332-0.789-0.522-1.26-0.522h-105.503c-0.469,0-0.928,0.19-1.259,0.522
		c-0.332,0.332-0.522,0.789-0.522,1.26v105.5c0,0.469,0.19,0.928,0.522,1.26c0.331,0.332,0.791,0.522,1.259,0.522h105.503
		c0.471,0,0.928-0.19,1.26-0.522c0.332-0.332,0.522-0.791,0.522-1.26H2137.358z"/>
	<path style="fill:#422428;" d="M1504.346,623.836v-1.782h-103.722V520.116h101.94v103.721H1504.346v-1.782V623.836h1.782V518.334
		c0-0.469-0.19-0.928-0.522-1.26c-0.332-0.332-0.792-0.522-1.26-0.522h-105.503c-0.47,0-0.928,0.19-1.26,0.522
		c-0.333,0.331-0.522,0.791-0.522,1.26v105.503c0,0.469,0.19,0.928,0.522,1.26c0.332,0.332,0.79,0.522,1.26,0.522h105.503
		c0.469,0,0.928-0.19,1.26-0.522c0.332-0.332,0.522-0.791,0.522-1.26H1504.346z"/>
	<path style="fill:#422428;" d="M1609.847,623.836v-1.782h-103.719V520.116h101.937v103.721H1609.847v-1.782V623.836h1.782V518.334
		c0-0.469-0.19-0.928-0.522-1.26c-0.331-0.332-0.791-0.522-1.26-0.522h-105.502c-0.47,0-0.928,0.19-1.26,0.522
		c-0.333,0.331-0.522,0.791-0.522,1.26v105.503c0,0.469,0.19,0.928,0.522,1.26c0.332,0.332,0.79,0.522,1.26,0.522h105.502
		c0.469,0,0.928-0.19,1.26-0.522c0.332-0.332,0.522-0.791,0.522-1.26H1609.847z"/>
	<path style="fill:#422428;" d="M1715.349,623.836v-1.782h-103.722V520.116h101.939v103.721H1715.349v-1.782V623.836h1.782V518.334
		c0-0.469-0.19-0.928-0.522-1.26c-0.332-0.332-0.791-0.522-1.26-0.522h-105.502c-0.47,0-0.928,0.19-1.26,0.522
		c-0.333,0.331-0.522,0.791-0.522,1.26v105.503c0,0.469,0.19,0.928,0.522,1.26c0.332,0.332,0.79,0.522,1.26,0.522h105.502
		c0.469,0,0.928-0.19,1.26-0.522c0.332-0.332,0.522-0.791,0.522-1.26H1715.349z"/>
	<path style="fill:#422428;" d="M1820.852,623.836v-1.782h-103.721V520.116h101.938v103.721H1820.852v-1.782V623.836h1.782V518.334
		c0-0.469-0.19-0.928-0.522-1.26c-0.332-0.332-0.792-0.522-1.26-0.522h-105.503c-0.47,0-0.928,0.19-1.26,0.522
		c-0.333,0.331-0.522,0.791-0.522,1.26v105.503c0,0.469,0.191,0.928,0.522,1.26c0.332,0.332,0.79,0.522,1.26,0.522h105.503
		c0.469,0,0.928-0.19,1.26-0.522c0.332-0.332,0.522-0.791,0.522-1.26H1820.852z"/>
	<path style="fill:#422428;" d="M1926.353,623.836v-1.782h-103.718V520.116h101.936v103.721H1926.353v-1.782V623.836h1.782V518.334
		c0-0.469-0.19-0.928-0.522-1.26c-0.332-0.332-0.789-0.522-1.26-0.522h-105.5c-0.469,0-0.928,0.19-1.26,0.522
		c-0.332,0.331-0.522,0.791-0.522,1.26v105.503c0,0.469,0.19,0.928,0.522,1.26c0.332,0.332,0.792,0.522,1.26,0.522h105.5
		c0.471,0,0.928-0.19,1.26-0.522c0.332-0.332,0.522-0.791,0.522-1.26H1926.353z"/>
	<path style="fill:#422428;" d="M2031.855,623.836v-1.782h-103.72V520.116h101.938v103.721H2031.855v-1.782V623.836h1.782V518.334
		c0-0.469-0.19-0.928-0.522-1.26c-0.331-0.332-0.789-0.522-1.26-0.522h-105.502c-0.469,0-0.928,0.19-1.26,0.522
		c-0.332,0.331-0.522,0.791-0.522,1.26v105.503c0,0.469,0.19,0.928,0.522,1.26c0.332,0.332,0.791,0.522,1.26,0.522h105.502
		c0.471,0,0.929-0.19,1.26-0.522c0.332-0.332,0.522-0.791,0.522-1.26H2031.855z"/>
	<path style="fill:#422428;" d="M2137.358,623.836v-1.782h-103.721V520.116h101.938v103.721H2137.358v-1.782V623.836h1.782V518.334
		c0-0.469-0.19-0.928-0.522-1.26c-0.332-0.332-0.789-0.522-1.26-0.522h-105.503c-0.469,0-0.928,0.19-1.259,0.522
		c-0.332,0.331-0.522,0.791-0.522,1.26v105.503c0,0.469,0.19,0.928,0.522,1.26c0.331,0.332,0.791,0.522,1.259,0.522h105.503
		c0.471,0,0.928-0.19,1.26-0.522c0.332-0.332,0.522-0.791,0.522-1.26H2137.358z"/>
	<path style="fill:#422428;" d="M1504.346,729.339v-1.782h-103.722V625.619h101.94v103.721H1504.346v-1.782V729.339h1.782V623.836
		c0-0.469-0.19-0.928-0.522-1.26s-0.792-0.522-1.26-0.522h-105.503c-0.47,0-0.928,0.19-1.26,0.522
		c-0.333,0.332-0.522,0.792-0.522,1.26v105.503c0,0.469,0.19,0.928,0.522,1.26c0.332,0.332,0.79,0.522,1.26,0.522h105.503
		c0.469,0,0.928-0.19,1.26-0.522c0.332-0.332,0.522-0.792,0.522-1.26H1504.346z"/>
	<path style="fill:#422428;" d="M1609.847,729.339v-1.782h-103.719V625.619h101.937v103.721H1609.847v-1.782V729.339h1.782V623.836
		c0-0.469-0.19-0.928-0.522-1.26c-0.331-0.332-0.791-0.522-1.26-0.522h-105.502c-0.47,0-0.928,0.19-1.26,0.522
		c-0.333,0.332-0.522,0.792-0.522,1.26v105.503c0,0.469,0.19,0.928,0.522,1.26c0.332,0.332,0.79,0.522,1.26,0.522h105.502
		c0.469,0,0.928-0.19,1.26-0.522c0.332-0.332,0.522-0.792,0.522-1.26H1609.847z"/>
	<path style="fill:#422428;" d="M1715.349,729.339v-1.782h-103.722V625.619h101.939v103.721H1715.349v-1.782V729.339h1.782V623.836
		c0-0.469-0.19-0.928-0.522-1.26s-0.791-0.522-1.26-0.522h-105.502c-0.47,0-0.928,0.19-1.26,0.522
		c-0.333,0.332-0.522,0.792-0.522,1.26v105.503c0,0.469,0.19,0.928,0.522,1.26c0.332,0.332,0.79,0.522,1.26,0.522h105.502
		c0.469,0,0.928-0.19,1.26-0.522c0.332-0.332,0.522-0.792,0.522-1.26H1715.349z"/>
	<path style="fill:#422428;" d="M1820.852,729.339v-1.782h-103.721V625.619h101.938v103.721H1820.852v-1.782V729.339h1.782V623.836
		c0-0.469-0.19-0.928-0.522-1.26s-0.792-0.522-1.26-0.522h-105.503c-0.47,0-0.928,0.19-1.26,0.522
		c-0.333,0.332-0.522,0.792-0.522,1.26v105.503c0,0.469,0.191,0.928,0.522,1.26c0.332,0.332,0.79,0.522,1.26,0.522h105.503
		c0.469,0,0.928-0.19,1.26-0.522c0.332-0.332,0.522-0.792,0.522-1.26H1820.852z"/>
	<path style="fill:#422428;" d="M1926.353,729.339v-1.782h-103.718V625.619h101.936v103.721H1926.353v-1.782V729.339h1.782V623.836
		c0-0.469-0.19-0.928-0.522-1.26s-0.789-0.522-1.26-0.522h-105.5c-0.469,0-0.928,0.19-1.26,0.522s-0.522,0.792-0.522,1.26v105.503
		c0,0.469,0.19,0.928,0.522,1.26c0.332,0.332,0.792,0.522,1.26,0.522h105.5c0.471,0,0.928-0.19,1.26-0.522
		c0.332-0.332,0.522-0.792,0.522-1.26H1926.353z"/>
	<path style="fill:#422428;" d="M2031.855,729.339v-1.782h-103.72V625.619h101.938v103.721H2031.855v-1.782V729.339h1.782V623.836
		c0-0.469-0.19-0.928-0.522-1.26c-0.331-0.332-0.789-0.522-1.26-0.522h-105.502c-0.469,0-0.928,0.19-1.26,0.522
		s-0.522,0.792-0.522,1.26v105.503c0,0.469,0.19,0.928,0.522,1.26c0.332,0.332,0.791,0.522,1.26,0.522h105.502
		c0.471,0,0.929-0.19,1.26-0.522c0.332-0.332,0.522-0.792,0.522-1.26H2031.855z"/>
	<path style="fill:#422428;" d="M2137.358,729.339v-1.782h-103.721V625.619h101.938v103.721H2137.358v-1.782V729.339h1.782V623.836
		c0-0.469-0.19-0.928-0.522-1.26c-0.332-0.332-0.789-0.522-1.26-0.522h-105.503c-0.469,0-0.928,0.19-1.259,0.522
		c-0.332,0.332-0.522,0.792-0.522,1.26v105.503c0,0.469,0.19,0.928,0.522,1.26c0.331,0.332,0.791,0.522,1.259,0.522h105.503
		c0.471,0,0.928-0.19,1.26-0.522c0.332-0.332,0.522-0.792,0.522-1.26H2137.358z"/>
	<path style="fill:#422428;" d="M1506.128,307.331v-33.973c0-0.986-0.798-1.782-1.782-1.782c-0.985,0-1.782,0.796-1.782,1.782
		v33.973c0,0.984,0.797,1.782,1.782,1.782C1505.33,309.113,1506.128,308.315,1506.128,307.331"/>
	<path style="fill:#422428;" d="M1611.629,307.331v-33.973c0-0.986-0.798-1.782-1.782-1.782c-0.985,0-1.782,0.796-1.782,1.782
		v33.973c0,0.984,0.797,1.782,1.782,1.782C1610.831,309.113,1611.629,308.315,1611.629,307.331"/>
	<path style="fill:#422428;" d="M1717.132,307.331v-33.973c0-0.986-0.798-1.782-1.782-1.782c-0.985,0-1.782,0.796-1.782,1.782
		v33.973c0,0.984,0.797,1.782,1.782,1.782C1716.333,309.113,1717.132,308.315,1717.132,307.331"/>
	<path style="fill:#422428;" d="M1822.634,307.331v-33.973c0-0.986-0.798-1.782-1.782-1.782c-0.984,0-1.782,0.796-1.782,1.782
		v33.973c0,0.984,0.798,1.782,1.782,1.782C1821.836,309.113,1822.634,308.315,1822.634,307.331"/>
	<path style="fill:#422428;" d="M1928.135,307.331v-33.973c0-0.986-0.798-1.782-1.782-1.782c-0.984,0-1.782,0.796-1.782,1.782
		v33.973c0,0.984,0.798,1.782,1.782,1.782C1927.337,309.113,1928.135,308.315,1928.135,307.331"/>
	<path style="fill:#422428;" d="M2033.637,307.331v-33.973c0-0.986-0.798-1.782-1.782-1.782c-0.983,0-1.782,0.796-1.782,1.782
		v33.973c0,0.984,0.798,1.782,1.782,1.782C2032.839,309.113,2033.637,308.315,2033.637,307.331"/>
	<path style="fill:#E9485B;" d="M1624.33,429.835l74.018,74.017c0.695,0.696,1.824,0.696,2.52,0c0.696-0.696,0.696-1.824,0-2.52
		l-74.018-74.017c-0.696-0.696-1.825-0.696-2.52,0C1623.634,428.009,1623.634,429.139,1624.33,429.835"/>
	<path style="fill:#E9485B;" d="M1698.348,427.316l-74.018,74.017c-0.696,0.696-0.696,1.824,0,2.52c0.695,0.696,1.824,0.696,2.52,0
		l74.018-74.017c0.696-0.696,0.696-1.826,0-2.52C1700.172,426.62,1699.043,426.62,1698.348,427.316"/>
	<path style="fill:#E9485B;" d="M1835.334,536.897l74.017,74.017c0.696,0.696,1.824,0.696,2.52,0c0.696-0.696,0.696-1.824,0-2.52
		l-74.017-74.017c-0.696-0.696-1.824-0.696-2.52,0C1834.638,535.071,1834.638,536.201,1835.334,536.897"/>
	<path style="fill:#E9485B;" d="M1909.351,534.377l-74.017,74.017c-0.696,0.696-0.696,1.824,0,2.52c0.696,0.696,1.824,0.696,2.52,0
		l74.017-74.017c0.696-0.696,0.696-1.826,0-2.52C1911.175,533.681,1910.047,533.681,1909.351,534.377"/>
</g>
<g>
	<polygon style="fill:none;" points="2121.674,940.602 2088.647,940.602 2049.586,940.602 2143.094,940.602 	"/>
	<polygon style="fill:#1D71B8;" points="2140.793,869.467 2140.793,831.677 2102.555,841.839 2102.555,869.467 2121.674,869.467 	
		"/>
	<path style="fill:#B3B3B3;" d="M2121.674,940.602h21.42h50.667c0,0-39.061-11.75-39.061-71.135h-13.908h-19.119h-19.119h-13.908
		c0,59.385-39.061,71.135-39.061,71.135h39.061H2121.674z"/>
	<polygon style="fill:#808080;" points="2068.532,944.89 2113.521,944.89 2113.521,944.89 2193.762,944.89 2193.762,940.602 
		2143.094,940.602 2049.586,940.602 2049.586,944.89 2068.532,944.89 	"/>
	<path style="fill:#1D71B8;" d="M2193.762,944.89h-80.241v782.039l0,0v8.203c-4.362-0.028-8.603-0.079-12.694-0.149
		c6.601,0.114,13.597,0.176,20.847,0.176c39.813,0.001,72.088-1.848,72.088-4.128L2193.762,944.89z"/>
	<path style="fill:#1D71B8;" d="M2094.114,1734.845c-1.573-0.037-3.109-0.078-4.624-0.122
		C2091.003,1734.767,2092.542,1734.807,2094.114,1734.845z"/>
	<path style="fill:#1D71B8;" d="M2087.94,1734.678c-1.369-0.041-2.711-0.085-4.027-0.132
		C2085.227,1734.593,2086.571,1734.636,2087.94,1734.678z"/>
	<path style="fill:#1D71B8;" d="M2082.134,1734.481c-1.126-0.042-2.232-0.086-3.313-0.132
		C2079.901,1734.395,2081.009,1734.439,2082.134,1734.481z"/>
	<path style="fill:#1D71B8;" d="M2076.637,1734.252c-0.703-0.032-1.391-0.065-2.072-0.099
		C2075.245,1734.187,2075.934,1734.219,2076.637,1734.252z"/>
	<path style="fill:#1D71B8;" d="M2071.523,1733.994c-0.502-0.029-0.997-0.057-1.485-0.085
		C2070.525,1733.938,2071.021,1733.966,2071.523,1733.994z"/>
	<path style="fill:#1D71B8;" d="M2100.533,1734.978c-1.826-0.032-3.61-0.069-5.37-0.109
		C2096.922,1734.908,2098.709,1734.945,2100.533,1734.978z"/>
	<path style="fill:#1D71B8;" d="M2068.532,1728.236V944.89h-18.947v786.14c0,1.075,7.184,2.054,18.947,2.789v-2.789V1728.236z"/>
	<path style="fill:#4CA2DB;" d="M2113.521,1726.928L2113.521,1726.928V944.89l0,0h-44.989l0,0v783.346v2.794v2.789v0.004
		c0.48,0.03,1.011,0.057,1.505,0.087c0.488,0.028,0.983,0.056,1.485,0.085c0.989,0.054,2,0.108,3.041,0.159
		c0.682,0.033,1.369,0.066,2.072,0.099c0.72,0.033,1.441,0.066,2.184,0.098c1.081,0.045,2.187,0.089,3.313,0.132
		c0.59,0.022,1.178,0.044,1.779,0.065c1.316,0.046,2.658,0.09,4.027,0.132c0.514,0.016,1.03,0.031,1.551,0.045
		c1.514,0.044,3.051,0.084,4.624,0.122c0.347,0.008,0.699,0.016,1.049,0.023c1.76,0.04,3.545,0.077,5.37,0.109
		c0.097,0.002,0.196,0.003,0.293,0.004c4.091,0.07,8.332,0.121,12.694,0.149V1726.928z"/>
</g>
<g>
	<polygon style="fill:#FFEDD5;" points="320.961,152.806 177.946,295.823 177.946,1746.59 1282.071,1746.59 1282.071,152.806 	"/>
	<polygon style="fill:#FFF5E9;" points="177.946,295.823 320.408,295.823 320.408,152.806 	"/>
	<rect x="306.306" y="455.963" style="fill:#E8BB89;" width="363.642" height="363.639"/>
	<path style="fill:#E8BB89;" d="M735.956,462.687h428.848c1.947,0,3.525-1.578,3.525-3.525c0-1.948-1.579-3.526-3.525-3.526H735.956
		c-1.948,0-3.526,1.578-3.526,3.526C732.43,461.109,734.008,462.687,735.956,462.687"/>
	<path style="fill:#E8BB89;" d="M735.956,502.335h428.848c1.947,0,3.525-1.578,3.525-3.526c0-1.947-1.579-3.525-3.525-3.525H735.956
		c-1.948,0-3.526,1.578-3.526,3.525C732.43,500.756,734.008,502.335,735.956,502.335"/>
	<path style="fill:#E8BB89;" d="M735.956,541.986h428.848c1.947,0,3.525-1.579,3.525-3.526c0-1.947-1.579-3.525-3.525-3.525H735.956
		c-1.948,0-3.526,1.578-3.526,3.525C732.43,540.408,734.008,541.986,735.956,541.986"/>
	<path style="fill:#E8BB89;" d="M735.956,581.633h428.848c1.947,0,3.525-1.578,3.525-3.525c0-1.947-1.579-3.525-3.525-3.525H735.956
		c-1.948,0-3.526,1.578-3.526,3.525C732.43,580.054,734.008,581.633,735.956,581.633"/>
	<path style="fill:#E8BB89;" d="M735.956,621.28h428.848c1.947,0,3.525-1.579,3.525-3.525c0-1.948-1.579-3.526-3.525-3.526H735.956
		c-1.948,0-3.526,1.578-3.526,3.526C732.43,619.701,734.008,621.28,735.956,621.28"/>
	<path style="fill:#E8BB89;" d="M735.956,660.932h428.848c1.947,0,3.525-1.579,3.525-3.526c0-1.947-1.579-3.525-3.525-3.525H735.956
		c-1.948,0-3.526,1.578-3.526,3.525C732.43,659.353,734.008,660.932,735.956,660.932"/>
	<path style="fill:#E8BB89;" d="M735.956,700.578h428.848c1.947,0,3.525-1.578,3.525-3.525c0-1.947-1.579-3.525-3.525-3.525H735.956
		c-1.948,0-3.526,1.578-3.526,3.525C732.43,699,734.008,700.578,735.956,700.578"/>
	<path style="fill:#E8BB89;" d="M735.956,740.23h428.848c1.947,0,3.525-1.579,3.525-3.525c0-1.947-1.579-3.525-3.525-3.525H735.956
		c-1.948,0-3.526,1.578-3.526,3.525C732.43,738.651,734.008,740.23,735.956,740.23"/>
	<path style="fill:#E8BB89;" d="M735.956,779.877h428.848c1.947,0,3.525-1.579,3.525-3.525c0-1.948-1.579-3.526-3.525-3.526H735.956
		c-1.948,0-3.526,1.578-3.526,3.526C732.43,778.299,734.008,779.877,735.956,779.877"/>
	<path style="fill:#E8BB89;" d="M735.956,819.529h428.848c1.947,0,3.525-1.578,3.525-3.526c0-1.947-1.579-3.525-3.525-3.525H735.956
		c-1.948,0-3.526,1.578-3.526,3.525C732.43,817.95,734.008,819.529,735.956,819.529"/>
	<path style="fill:#E8BB89;" d="M307.107,869.132h857.696c1.947,0,3.525-1.578,3.525-3.525c0-1.947-1.579-3.525-3.525-3.525H307.107
		c-1.947,0-3.525,1.578-3.525,3.525C303.582,867.554,305.16,869.132,307.107,869.132"/>
	<path style="fill:#E8BB89;" d="M307.107,908.784h857.696c1.947,0,3.525-1.579,3.525-3.525c0-1.948-1.579-3.526-3.525-3.526H307.107
		c-1.947,0-3.525,1.578-3.525,3.526C303.582,907.205,305.16,908.784,307.107,908.784"/>
	<path style="fill:#E8BB89;" d="M307.107,948.431h857.696c1.947,0,3.525-1.579,3.525-3.526c0-1.947-1.579-3.525-3.525-3.525H307.107
		c-1.947,0-3.525,1.578-3.525,3.525C303.582,946.852,305.16,948.431,307.107,948.431"/>
	<path style="fill:#E8BB89;" d="M307.107,988.078h857.696c1.947,0,3.525-1.578,3.525-3.525c0-1.947-1.579-3.525-3.525-3.525H307.107
		c-1.947,0-3.525,1.578-3.525,3.525C303.582,986.499,305.16,988.078,307.107,988.078"/>
	<path style="fill:#E8BB89;" d="M307.107,1027.729h857.696c1.947,0,3.525-1.579,3.525-3.525c0-1.947-1.579-3.525-3.525-3.525
		H307.107c-1.947,0-3.525,1.578-3.525,3.525C303.582,1026.151,305.16,1027.729,307.107,1027.729"/>
	<path style="fill:#E8BB89;" d="M307.107,1067.376h857.696c1.947,0,3.525-1.579,3.525-3.525c0-1.948-1.579-3.526-3.525-3.526
		H307.107c-1.947,0-3.525,1.578-3.525,3.526C303.582,1065.798,305.16,1067.376,307.107,1067.376"/>
	<path style="fill:#E8BB89;" d="M307.107,1107.028h857.696c1.947,0,3.525-1.579,3.525-3.526c0-1.947-1.579-3.525-3.525-3.525
		H307.107c-1.947,0-3.525,1.578-3.525,3.525C303.582,1105.449,305.16,1107.028,307.107,1107.028"/>
	<path style="fill:#E8BB89;" d="M307.107,1146.675h857.696c1.947,0,3.525-1.579,3.525-3.525c0-1.947-1.579-3.525-3.525-3.525
		H307.107c-1.947,0-3.525,1.578-3.525,3.525C303.582,1145.096,305.16,1146.675,307.107,1146.675"/>
	<path style="fill:#E8BB89;" d="M307.107,1186.326h857.696c1.947,0,3.525-1.579,3.525-3.525c0-1.947-1.579-3.525-3.525-3.525
		H307.107c-1.947,0-3.525,1.578-3.525,3.525C303.582,1184.748,305.16,1186.326,307.107,1186.326"/>
	<path style="fill:#E8BB89;" d="M307.107,1225.974h857.696c1.947,0,3.525-1.579,3.525-3.525c0-1.948-1.579-3.526-3.525-3.526
		H307.107c-1.947,0-3.525,1.578-3.525,3.526C303.582,1224.395,305.16,1225.974,307.107,1225.974"/>
	<path style="fill:#E8BB89;" d="M730.008,1435.597h434.795c1.947,0,3.525-1.578,3.525-3.526s-1.579-3.525-3.525-3.525H730.008
		c-1.947,0-3.525,1.578-3.525,3.525S728.061,1435.597,730.008,1435.597"/>
	<path style="fill:#E8BB89;" d="M730.008,1475.244h434.795c1.947,0,3.525-1.578,3.525-3.525c0-1.948-1.579-3.525-3.525-3.525
		H730.008c-1.947,0-3.525,1.577-3.525,3.525C726.483,1473.666,728.061,1475.244,730.008,1475.244"/>
	<path style="fill:#E8BB89;" d="M730.008,1514.896h434.795c1.947,0,3.525-1.578,3.525-3.525c0-1.948-1.579-3.526-3.525-3.526
		H730.008c-1.947,0-3.525,1.578-3.525,3.526C726.483,1513.317,728.061,1514.896,730.008,1514.896"/>
</g>
</svg>
