<?xml version="1.0" encoding="utf-8"?>
<!-- Generator: Adobe Illustrator 27.5.0, SVG Export Plug-In . SVG Version: 6.00 Build 0)  -->
<svg version="1.1" xmlns="http://www.w3.org/2000/svg" xmlns:xlink="http://www.w3.org/1999/xlink" x="0px" y="0px"
	 viewBox="0 0 750 500" style="enable-background:new 0 0 750 500;" xml:space="preserve">
<g id="BACKGROUND">
	<rect style="fill:#D5D9F2;" width="750" height="500"/>
</g>
<g id="OBJECTS">
	<g>
		<g>
			<g>
				<g>
					<path style="fill:#BFC5EB;" d="M720.065,106.985H613.954c-0.207,0-0.375-0.168-0.375-0.375c0-0.207,0.168-0.375,0.375-0.375
						h106.111c0.207,0,0.375,0.168,0.375,0.375C720.44,106.817,720.272,106.985,720.065,106.985z"/>
				</g>
				<g>
					<rect x="687.056" y="25.52" style="fill:#BFC5EB;" width="21.374" height="81.09"/>
				</g>
				<g>
					<rect x="668.996" y="39.244" style="fill:#BFC5EB;" width="8.768" height="67.366"/>
				</g>
				<g>
					<rect x="650.64" y="55.953" style="fill:#BFC5EB;" width="11.845" height="50.658"/>
				</g>
				<g>
					<rect x="624.046" y="71.465" style="fill:#BFC5EB;" width="19.378" height="35.146"/>
				</g>
			</g>
			<g>
				<g>
					<path style="fill:#BFC5EB;" d="M81.847,93.083c-17.542,0-31.813-14.271-31.813-31.813s14.271-31.813,31.813-31.813
						c17.542,0,31.813,14.272,31.813,31.813S99.389,93.083,81.847,93.083z M81.847,31.457c-16.439,0-29.813,13.374-29.813,29.813
						c0,16.439,13.374,29.813,29.813,29.813c16.439,0,29.813-13.374,29.813-29.813C111.66,44.831,98.286,31.457,81.847,31.457z"/>
				</g>
				<g>
					<path style="fill:#BFC5EB;" d="M81.847,88.294c-14.9,0-27.023-12.123-27.023-27.023c0-14.901,12.123-27.023,27.023-27.023
						c14.901,0,27.023,12.123,27.023,27.023C108.87,76.171,96.748,88.294,81.847,88.294z M81.847,35.247
						c-14.349,0-26.023,11.674-26.023,26.023s11.674,26.023,26.023,26.023c14.35,0,26.023-11.674,26.023-26.023
						S96.196,35.247,81.847,35.247z"/>
				</g>
				<g>
					<path style="fill:#BFC5EB;" d="M95.918,74.447c-0.17,0-0.342-0.043-0.5-0.134L79.53,65.118
						c-0.451-0.261-0.626-0.826-0.402-1.296l9.613-20.16c0.239-0.499,0.837-0.709,1.333-0.473c0.499,0.238,0.71,0.835,0.473,1.333
						L81.331,63.85l15.089,8.731c0.478,0.277,0.641,0.889,0.365,1.367C96.599,74.268,96.263,74.447,95.918,74.447z"/>
				</g>
			</g>
			<g>
				<path style="fill:#BFC5EB;" d="M35.815,154.97h50.511c6.649,0,11.229-7.116,8.026-12.942
					c-3.171-5.769-11.875-6.701-16.553,0.947c2.752-22.687-32.928-31.566-34.295,0c-5.419-11.71-17.793-5.925-16.551,4.365
					C27.484,151.743,31.38,154.97,35.815,154.97z"/>
			</g>
			<g>
				<g>
					<g>
						<g>
							<g>
								<g>
									<g>
										<path style="fill:#BFC5EB;" d="M284.172,412.672c-0.821-3.092-1.34-6.199-1.647-9.377
											c-0.307-3.178-0.076-6.455,1.154-9.419c1.066-2.569,2.834-4.801,4.558-7.016c4.813-6.183,9.445-12.496,13.888-18.931
											c0.65,5.892,1.18,11.838,0.97,17.759c-0.156,4.382-0.564,8.829-2.212,12.918
											C298.137,405.424,291.528,410.825,284.172,412.672z"/>
									</g>
								</g>
							</g>
						</g>
						<g>
							<g>
								<g>
									<g>
										<path style="fill:#A4ACE3;" d="M282.353,428.092c-1.385-10.461,2.948-20.821,7.371-29.576
											c0.755-1.495,1.53-2.988,2.307-4.482c3.937-7.58,8.008-15.419,9.428-23.833l0.597,0.093
											c-1.436,8.502-5.528,16.38-9.485,23.999c-0.776,1.493-1.55,2.984-2.305,4.477c-4.383,8.678-8.679,18.939-7.315,29.248
											L282.353,428.092z"/>
									</g>
								</g>
							</g>
						</g>
					</g>
					<g>
						<g>
							<g>
								<g>
									<g>
										<path style="fill:#BFC5EB;" d="M271.826,404.656c-1.137-4.396-3.617-8.234-5.342-12.449
											c-1.725-4.215-2.994-8.796-2.143-13.251c0.502-2.625,1.714-5.068,2.915-7.475c4.785-9.596,9.57-19.192,14.355-28.788
											c2.429,5.462,5.091,10.743,6.546,16.516c1.456,5.773,1.893,11.894,0.301,17.634c-1.25,4.506-3.693,8.61-6.208,12.596
											C279.014,394.565,275.383,399.731,271.826,404.656z"/>
									</g>
								</g>
							</g>
						</g>
						<g>
							<g>
								<g>
									<g>
										<path style="fill:#A4ACE3;" d="M273.039,427.684l-0.601-0.044c0.421-5.315-0.011-10.741-0.428-15.988
											c-0.394-4.947-0.801-10.063-0.498-15.1c0.475-7.88,2.691-15.689,4.833-23.241c2.722-9.596,5.537-19.519,4.705-29.508
											l0.601-0.046c0.842,10.089-1.987,20.062-4.724,29.707c-2.135,7.523-4.341,15.302-4.812,23.121
											c-0.302,4.997,0.104,10.094,0.495,15.022C273.031,416.877,273.465,422.324,273.039,427.684z"/>
									</g>
								</g>
							</g>
						</g>
					</g>
					<g>
						<g>
							<g>
								<g>
									<g>
										<path style="fill:#BFC5EB;" d="M263.062,410.234c1.809-7.344,2.919-15.307-0.161-22.249
											c-2.075-4.676-5.855-8.424-9.553-12.056c-5.67-5.57-11.34-11.139-17.011-16.709c-0.749,8.395-0.651,16.809,0.246,25.191
											c0.532,4.976,1.424,10.102,4.31,14.263c2.35,3.388,5.88,5.894,9.68,7.693
											C254.373,408.165,258.995,409.099,263.062,410.234z"/>
									</g>
								</g>
							</g>
						</g>
						<g>
							<g>
								<g>
									<g>
										<path style="fill:#A4ACE3;" d="M264.699,426.511l-0.601-0.044c0.732-9.191-1.103-18.429-5.307-26.715
											c-2.458-4.842-5.732-9.351-8.899-13.712c-1.03-1.418-2.058-2.836-3.063-4.267c-3.828-5.453-7.942-12.016-9.427-19.355
											l0.592-0.111c1.465,7.237,5.541,13.738,9.335,19.142c1.003,1.429,2.031,2.844,3.058,4.26
											c3.18,4.379,6.468,8.908,8.946,13.789C263.585,407.876,265.441,417.218,264.699,426.511z"/>
									</g>
								</g>
							</g>
						</g>
					</g>
				</g>
				<g>
					<g>
						<g>
							<g>
								<g>
									<path style="fill:#BFC5EB;" d="M284.165,470.029h-22.44c0,0-12.524-23.586-6.039-47.172h34.517
										c0.604,2.195,1.039,4.378,1.328,6.55c0.23,1.58,0.375,3.136,0.447,4.68C292.994,453.4,284.165,470.029,284.165,470.029z"/>
								</g>
							</g>
						</g>
					</g>
					<g>
						<g>
							<g>
								<g>
									<path style="fill:#A4ACE3;" d="M291.979,434.087l-27.138-4.68h26.691C291.762,430.987,291.907,432.543,291.979,434.087z"/>
								</g>
							</g>
						</g>
					</g>
				</g>
			</g>
			<g>
				<g>
					<g>
						<g>
							<g>
								<polygon style="fill:#BFC5EB;" points="508.455,470.029 488.884,470.029 474.392,421.475 522.947,421.475 								"/>
							</g>
						</g>
					</g>
					<g>
						<g>
							<g>
								<polygon style="fill:#A4ACE3;" points="520.877,428.41 490.208,428.41 518.873,435.122 								"/>
							</g>
						</g>
					</g>
					<g>
						<g>
							<g>
								<g>
									<path style="fill:#BFC5EB;" d="M488.426,421.48h-12.202c-8.406-16.217-12.985-34.492-13.985-52.708
										c6.71,7.652,11.797,16.594,15.884,25.898C481.992,403.481,485.441,412.364,488.426,421.48z"/>
								</g>
							</g>
						</g>
						<g>
							<g>
								<g>
									<path style="fill:#BFC5EB;" d="M501.426,421.48h-12.71c-3.681-23.608-0.696-48.013,7.29-70.534
										C501.049,374.032,503.339,397.93,501.426,421.48z"/>
								</g>
							</g>
						</g>
						<g>
							<g>
								<g>
									<path style="fill:#BFC5EB;" d="M526.976,368.163c-2.044,18.434-6.768,36.651-14.884,53.317h-10.565
										C504.469,401.756,513.745,383.104,526.976,368.163z"/>
								</g>
							</g>
						</g>
						<g>
							<g>
								<g>
									<path style="fill:#BFC5EB;" d="M539.903,394.293c-4.29,10.087-10.492,19.347-18.159,27.188h-9.594
										C518.31,409.915,528.295,400.423,539.903,394.293z"/>
								</g>
							</g>
						</g>
					</g>
				</g>
				<g>
					<g>
						<g>
							<path style="fill:#A4ACE3;" d="M522.946,421.836h-48.554c-0.2,0-0.362-0.163-0.362-0.362c0-0.2,0.163-0.362,0.362-0.362
								h48.554c0.2,0,0.362,0.163,0.362,0.362C523.308,421.674,523.146,421.836,522.946,421.836z"/>
						</g>
					</g>
				</g>
			</g>
			<g>
				<path style="fill:#BFC5EB;" d="M371.38,385.359v-5.781h-2.844c-0.258-0.971-0.639-1.889-1.131-2.738l2.01-2.01l-4.081-4.093
					l-2.015,2.015c-0.847-0.493-1.764-0.874-2.734-1.133v-2.847h-5.781v2.845c-0.973,0.259-1.893,0.642-2.744,1.137l-0.002-0.002
					l-2.015-2.015l-4.081,4.093l2.003,2.003l0.009,0.01c-0.493,0.849-0.874,1.766-1.132,2.736h-2.845v5.781h2.847
					c0.259,0.97,0.64,1.886,1.133,2.734l-2.015,2.015l4.081,4.081l2.015-2.015l0,0c0.851,0.495,1.772,0.877,2.746,1.136v2.857h5.781
					v-2.859c0.97-0.258,1.888-0.639,2.735-1.132l0.01,0.011l2.003,2.003l4.081-4.081l-2.003-2.003l-0.01-0.011
					c0.492-0.848,0.874-1.765,1.132-2.735H371.38z M365.28,382.462c0,4.2-3.391,7.591-7.591,7.591c-4.184,0-7.591-3.391-7.591-7.591
					c0-4.184,3.407-7.591,7.591-7.591C361.889,374.871,365.28,378.278,365.28,382.462z"/>
			</g>
			<g>
				<path style="fill:#BFC5EB;" d="M723.478,171.93v-6.354h-3.126c-0.283-1.067-0.702-2.076-1.243-3.009l2.21-2.21l-4.485-4.499
					l-2.214,2.215c-0.931-0.542-1.939-0.961-3.004-1.245v-3.129h-6.354v3.127c-1.069,0.285-2.081,0.706-3.016,1.25l-0.002-0.002
					l-2.215-2.215l-4.485,4.499l2.201,2.201l0.011,0.01c-0.542,0.933-0.961,1.941-1.244,3.007h-3.127v6.354h3.129
					c0.284,1.065,0.704,2.073,1.245,3.004l-2.215,2.215l4.485,4.485l2.215-2.215l0,0c0.936,0.544,1.948,0.964,3.018,1.249v3.14
					h6.354v-3.142c1.066-0.284,2.074-0.703,3.006-1.244l0.011,0.012l2.201,2.201l4.485-4.485l-2.201-2.201l-0.011-0.012
					c0.541-0.932,0.96-1.94,1.244-3.006H723.478z M716.773,168.745c0,4.616-3.727,8.344-8.343,8.344
					c-4.599,0-8.343-3.727-8.343-8.344c0-4.599,3.744-8.343,8.343-8.343C713.046,160.402,716.773,164.146,716.773,168.745z"/>
			</g>
			<g>
				<path style="fill:#BFC5EB;" d="M60.096,339.202v-6.354H56.97c-0.283-1.067-0.702-2.076-1.243-3.009l2.21-2.21l-4.485-4.499
					l-2.215,2.215c-0.931-0.542-1.939-0.961-3.004-1.245v-3.129h-6.354v3.127c-1.069,0.285-2.081,0.706-3.016,1.25l-0.002-0.002
					l-2.215-2.215l-4.485,4.499l2.201,2.201l0.011,0.01c-0.542,0.933-0.961,1.941-1.244,3.007H30v6.354h3.129
					c0.284,1.065,0.704,2.073,1.245,3.004l-2.215,2.215l4.485,4.485l2.215-2.215l0,0c0.936,0.544,1.948,0.964,3.018,1.249v3.14
					h6.354v-3.142c1.066-0.284,2.075-0.703,3.006-1.244l0.011,0.012l2.201,2.201l4.485-4.485l-2.201-2.201l-0.011-0.012
					c0.541-0.932,0.96-1.94,1.244-3.006H60.096z M53.391,336.018c0,4.616-3.727,8.343-8.344,8.343c-4.599,0-8.343-3.727-8.343-8.343
					c0-4.599,3.744-8.343,8.343-8.343C49.664,327.675,53.391,331.419,53.391,336.018z"/>
			</g>
			<g>
				<path style="fill:#BFC5EB;" d="M425.327,416.237v-10.444h-5.138c-0.466-1.753-1.154-3.412-2.044-4.946l3.632-3.632l-7.372-7.395
					l-3.64,3.64c-1.531-0.89-3.187-1.579-4.938-2.046v-5.143h-10.444v5.139c-1.758,0.468-3.42,1.16-4.957,2.054l-0.003-0.003
					l-3.641-3.641l-7.372,7.395l3.618,3.618l0.017,0.017c-0.89,1.533-1.579,3.191-2.045,4.943h-5.139v10.444h5.143
					c0.467,1.751,1.156,3.408,2.046,4.938l-3.64,3.64l7.372,7.372l3.641-3.64l0,0c1.538,0.894,3.201,1.585,4.96,2.052v5.161h10.444
					v-5.165c1.753-0.467,3.41-1.155,4.941-2.044l0.019,0.019l3.618,3.618l7.372-7.372l-3.618-3.618l-0.019-0.019
					c0.889-1.532,1.578-3.189,2.045-4.941H425.327z M414.308,411.004c0,7.587-6.126,13.714-13.714,13.714
					c-7.559,0-13.713-6.126-13.713-13.714c0-7.559,6.154-13.713,13.713-13.713C408.181,397.29,414.308,403.445,414.308,411.004z"/>
			</g>
			<g>
				<path style="fill:#BFC5EB;" d="M692.879,355.594c-1.675-0.379-3.271-1.147-4.618-2.221l1.246-1.565
					c1.112,0.888,2.431,1.522,3.813,1.834L692.879,355.594z M698,355.588l-0.443-1.949c1.379-0.315,2.696-0.95,3.81-1.84
					l1.248,1.563C701.266,354.438,699.672,355.208,698,355.588z M685.059,349.376c-0.758-1.565-1.143-3.244-1.147-4.993l2-0.004
					c0.003,1.446,0.321,2.834,0.947,4.126L685.059,349.376z M705.807,349.358l-1.801-0.869c0.623-1.292,0.939-2.681,0.939-4.127
					l2-0.042v0.042C706.945,346.111,706.562,347.791,705.807,349.358z M686.843,340.251l-1.803-0.865
					c0.741-1.547,1.843-2.934,3.185-4.011l1.252,1.561C688.368,337.827,687.457,338.973,686.843,340.251z M703.99,340.203
					c-0.621-1.275-1.538-2.416-2.653-3.301l1.242-1.566c1.349,1.068,2.458,2.449,3.21,3.992L703.99,340.203z M693.285,335.088
					l-0.449-1.949c0.843-0.194,1.711-0.293,2.581-0.293c0.811-0.016,1.711,0.093,2.541,0.279l-0.438,1.951
					c-0.682-0.153-1.386-0.23-2.091-0.23c-0.004,0-0.008,0-0.012,0C694.698,334.846,693.981,334.927,693.285,335.088z"/>
			</g>
			<g>
				<path style="fill:#BFC5EB;" d="M333.319,30.809c-1.673-0.379-3.27-1.146-4.618-2.219l1.245-1.565
					c1.114,0.886,2.433,1.52,3.815,1.833L333.319,30.809z M338.441,30.804l-0.445-1.95c1.38-0.315,2.698-0.951,3.81-1.84
					l1.249,1.563C341.708,29.652,340.112,30.422,338.441,30.804z M325.5,24.592c-0.758-1.564-1.144-3.244-1.147-4.992l2-0.004
					c0.002,1.445,0.321,2.833,0.947,4.124L325.5,24.592z M346.248,24.571l-1.802-0.868c0.623-1.292,0.939-2.681,0.939-4.127l2-0.043
					v0.043C347.385,21.326,347.002,23.006,346.248,24.571z M327.283,15.466l-1.804-0.864c0.742-1.547,1.843-2.934,3.185-4.011
					l1.252,1.559C328.807,13.04,327.896,14.187,327.283,15.466z M344.429,15.415c-0.621-1.274-1.538-2.416-2.654-3.3l1.243-1.567
					c1.348,1.069,2.457,2.45,3.208,3.991L344.429,15.415z M333.723,10.303l-0.448-1.949c1.669-0.385,3.447-0.389,5.12-0.016
					l-0.437,1.952C336.576,9.98,335.103,9.985,333.723,10.303z"/>
			</g>
			<g>
				<g>
					<rect x="719" y="385.274" style="fill:#BFC5EB;" width="2" height="10.056"/>
				</g>
				<g>
					<rect x="714.972" y="389.301" style="fill:#BFC5EB;" width="10.056" height="2"/>
				</g>
			</g>
			<g>
				<g>
					<rect x="154.105" y="25.52" style="fill:#BFC5EB;" width="2" height="10.056"/>
				</g>
				<g>
					<rect x="150.077" y="29.548" style="fill:#BFC5EB;" width="10.056" height="2"/>
				</g>
			</g>
			<g>
				<g>
					<rect x="597.495" y="20.493" style="fill:#BFC5EB;" width="2" height="10.056"/>
				</g>
				<g>
					<rect x="593.466" y="24.52" style="fill:#BFC5EB;" width="10.057" height="2"/>
				</g>
			</g>
			<g>
				<g>
					<rect x="56.653" y="385.258" style="fill:#BFC5EB;" width="2" height="10.056"/>
				</g>
				<g>
					<rect x="52.625" y="389.285" style="fill:#BFC5EB;" width="10.056" height="2"/>
				</g>
			</g>
		</g>
		<g>
			<path style="fill:#A4ACE3;" d="M720,470.5H30c-0.276,0-0.5-0.224-0.5-0.5s0.224-0.5,0.5-0.5H720c0.276,0,0.5,0.224,0.5,0.5
				S720.276,470.5,720,470.5z"/>
		</g>
	</g>
	<g>
		<g>
			<g>
				<path style="fill:#FFFFFF;" d="M571.058,340.946H178.942c-5.523,0-10-4.477-10-10V66.588c0-5.523,4.477-10,10-10h392.115
					c5.523,0,10,4.477,10,10v264.358C581.058,336.469,576.58,340.946,571.058,340.946z"/>
			</g>
			<g>
				<path style="fill:#2C2F37;" d="M581.06,66.585v11.27H168.94v-11.27c0-5.52,4.48-10,10-10h392.12
					C576.58,56.585,581.06,61.065,581.06,66.585z"/>
			</g>
		</g>
		<g>
			<g>
				<g>
					<path style="fill:#5B5D63;" d="M194.983,56.588h-3c0-6.691,5.444-12.135,12.135-12.135v3
						C199.08,47.453,194.983,51.551,194.983,56.588z"/>
				</g>
				<g>
					<path style="fill:#5B5D63;" d="M204.117,68.723c-0.829,0-1.5-0.671-1.5-1.5s0.671-1.5,1.5-1.5c5.037,0,9.135-4.098,9.135-9.135
						s-4.098-9.135-9.135-9.135c-0.829,0-1.5-0.671-1.5-1.5c0-0.829,0.671-1.5,1.5-1.5c6.691,0,12.135,5.444,12.135,12.135
						C216.253,63.279,210.809,68.723,204.117,68.723z"/>
				</g>
			</g>
			<g>
				<g>
					<path style="fill:#5B5D63;" d="M229.159,56.588h-3c0-6.691,5.444-12.135,12.135-12.135v3
						C233.257,47.453,229.159,51.551,229.159,56.588z"/>
				</g>
				<g>
					<path style="fill:#5B5D63;" d="M238.294,68.723c-0.829,0-1.5-0.671-1.5-1.5s0.671-1.5,1.5-1.5c5.037,0,9.135-4.098,9.135-9.135
						s-4.098-9.135-9.135-9.135c-0.829,0-1.5-0.671-1.5-1.5c0-0.829,0.671-1.5,1.5-1.5c6.691,0,12.135,5.444,12.135,12.135
						C250.429,63.279,244.985,68.723,238.294,68.723z"/>
				</g>
			</g>
			<g>
				<g>
					<path style="fill:#5B5D63;" d="M263.336,56.588h-3c0-6.691,5.444-12.135,12.135-12.135v3
						C267.433,47.453,263.336,51.551,263.336,56.588z"/>
				</g>
				<g>
					<path style="fill:#5B5D63;" d="M272.47,68.723c-0.829,0-1.5-0.671-1.5-1.5s0.671-1.5,1.5-1.5c5.037,0,9.135-4.098,9.135-9.135
						s-4.098-9.135-9.135-9.135c-0.829,0-1.5-0.671-1.5-1.5c0-0.829,0.671-1.5,1.5-1.5c6.691,0,12.135,5.444,12.135,12.135
						C284.606,63.279,279.162,68.723,272.47,68.723z"/>
				</g>
			</g>
			<g>
				<g>
					<path style="fill:#5B5D63;" d="M297.512,56.588h-3c0-6.691,5.444-12.135,12.135-12.135v3
						C301.61,47.453,297.512,51.551,297.512,56.588z"/>
				</g>
				<g>
					<path style="fill:#5B5D63;" d="M306.647,68.723c-0.829,0-1.5-0.671-1.5-1.5s0.671-1.5,1.5-1.5c5.037,0,9.135-4.098,9.135-9.135
						s-4.098-9.135-9.135-9.135c-0.829,0-1.5-0.671-1.5-1.5c0-0.829,0.671-1.5,1.5-1.5c6.691,0,12.135,5.444,12.135,12.135
						C318.782,63.279,313.338,68.723,306.647,68.723z"/>
				</g>
			</g>
			<g>
				<g>
					<path style="fill:#5B5D63;" d="M331.689,56.588h-3c0-6.691,5.444-12.135,12.135-12.135v3
						C335.786,47.453,331.689,51.551,331.689,56.588z"/>
				</g>
				<g>
					<path style="fill:#5B5D63;" d="M340.823,68.723c-0.829,0-1.5-0.671-1.5-1.5s0.671-1.5,1.5-1.5c5.037,0,9.135-4.098,9.135-9.135
						s-4.098-9.135-9.135-9.135c-0.829,0-1.5-0.671-1.5-1.5c0-0.829,0.671-1.5,1.5-1.5c6.691,0,12.135,5.444,12.135,12.135
						C352.959,63.279,347.515,68.723,340.823,68.723z"/>
				</g>
			</g>
			<g>
				<g>
					<path style="fill:#5B5D63;" d="M365.865,56.588h-3c0-6.691,5.444-12.135,12.135-12.135v3
						C369.963,47.453,365.865,51.551,365.865,56.588z"/>
				</g>
				<g>
					<path style="fill:#5B5D63;" d="M375,68.723c-0.829,0-1.5-0.671-1.5-1.5s0.671-1.5,1.5-1.5c5.038,0,9.135-4.098,9.135-9.135
						s-4.098-9.135-9.135-9.135c-0.829,0-1.5-0.671-1.5-1.5c0-0.829,0.671-1.5,1.5-1.5c6.691,0,12.135,5.444,12.135,12.135
						C387.135,63.279,381.691,68.723,375,68.723z"/>
				</g>
			</g>
			<g>
				<g>
					<path style="fill:#5B5D63;" d="M400.042,56.588h-3c0-6.691,5.443-12.135,12.135-12.135v3
						C404.139,47.453,400.042,51.551,400.042,56.588z"/>
				</g>
				<g>
					<path style="fill:#5B5D63;" d="M409.176,68.723c-0.828,0-1.5-0.671-1.5-1.5s0.672-1.5,1.5-1.5c5.037,0,9.135-4.098,9.135-9.135
						s-4.098-9.135-9.135-9.135c-0.828,0-1.5-0.671-1.5-1.5c0-0.829,0.672-1.5,1.5-1.5c6.691,0,12.135,5.444,12.135,12.135
						C421.311,63.279,415.868,68.723,409.176,68.723z"/>
				</g>
			</g>
			<g>
				<g>
					<path style="fill:#5B5D63;" d="M434.218,56.588h-3c0-6.691,5.443-12.135,12.135-12.135v3
						C438.316,47.453,434.218,51.551,434.218,56.588z"/>
				</g>
				<g>
					<path style="fill:#5B5D63;" d="M443.353,68.723c-0.828,0-1.5-0.671-1.5-1.5s0.672-1.5,1.5-1.5c5.037,0,9.135-4.098,9.135-9.135
						s-4.098-9.135-9.135-9.135c-0.828,0-1.5-0.671-1.5-1.5c0-0.829,0.672-1.5,1.5-1.5c6.691,0,12.135,5.444,12.135,12.135
						C455.488,63.279,450.045,68.723,443.353,68.723z"/>
				</g>
			</g>
			<g>
				<g>
					<path style="fill:#5B5D63;" d="M468.394,56.588h-3c0-6.691,5.444-12.135,12.136-12.135v3
						C472.493,47.453,468.394,51.551,468.394,56.588z"/>
				</g>
				<g>
					<path style="fill:#5B5D63;" d="M477.53,68.723c-0.828,0-1.5-0.671-1.5-1.5s0.672-1.5,1.5-1.5c5.037,0,9.135-4.098,9.135-9.135
						s-4.098-9.135-9.135-9.135c-0.828,0-1.5-0.671-1.5-1.5c0-0.829,0.672-1.5,1.5-1.5c6.691,0,12.135,5.444,12.135,12.135
						C489.665,63.279,484.221,68.723,477.53,68.723z"/>
				</g>
			</g>
			<g>
				<g>
					<path style="fill:#5B5D63;" d="M502.571,56.588h-3c0-6.691,5.443-12.135,12.135-12.135v3
						C506.669,47.453,502.571,51.551,502.571,56.588z"/>
				</g>
				<g>
					<path style="fill:#5B5D63;" d="M511.706,68.723c-0.828,0-1.5-0.671-1.5-1.5s0.672-1.5,1.5-1.5c5.037,0,9.136-4.098,9.136-9.135
						s-4.099-9.135-9.136-9.135c-0.828,0-1.5-0.671-1.5-1.5c0-0.829,0.672-1.5,1.5-1.5c6.691,0,12.136,5.444,12.136,12.135
						C523.841,63.279,518.397,68.723,511.706,68.723z"/>
				</g>
			</g>
			<g>
				<g>
					<path style="fill:#5B5D63;" d="M536.748,56.588h-3c0-6.691,5.443-12.135,12.135-12.135v3
						C540.845,47.453,536.748,51.551,536.748,56.588z"/>
				</g>
				<g>
					<path style="fill:#5B5D63;" d="M545.883,68.723c-0.828,0-1.5-0.671-1.5-1.5s0.672-1.5,1.5-1.5c5.037,0,9.135-4.098,9.135-9.135
						s-4.098-9.135-9.135-9.135c-0.828,0-1.5-0.671-1.5-1.5c0-0.829,0.672-1.5,1.5-1.5c6.691,0,12.135,5.444,12.135,12.135
						C558.017,63.279,552.574,68.723,545.883,68.723z"/>
				</g>
			</g>
		</g>
		<g>
			<g>
				<path style="fill:#518F60;" d="M357.861,93.079v53.605h-53.605C304.256,117.073,328.259,93.079,357.861,93.079z"/>
			</g>
			<g>
				<path style="fill:#EBB044;" d="M411.465,146.684c0,14.805-6.001,28.2-15.703,37.902l-37.902-37.902l37.902-37.902
					C405.464,118.475,411.465,131.878,411.465,146.684z"/>
			</g>
			<g>
				<path style="fill:#D82F3C;" d="M395.763,108.782l-37.902,37.902V93.079C372.666,93.079,386.069,99.08,395.763,108.782z"/>
			</g>
			<g>
				<path style="fill:#5766CC;" d="M395.763,184.585c-9.693,9.702-23.097,15.703-37.902,15.703
					c-29.602,0-53.605-24.003-53.605-53.605h53.605L395.763,184.585z"/>
			</g>
		</g>
		<g>
			<g>
				<g>
					<g>
						<g>
							<path style="fill:#D82F3C;" d="M457.058,101.143c4.705,0,9.016,1.704,12.326,4.545l5.459-6.385
								c-4.78-4.1-10.992-6.57-17.784-6.57c-5.138,0-9.942,1.408-14.055,3.878l4.31,7.213
								C450.167,102.118,453.489,101.143,457.058,101.143z"/>
						</g>
					</g>
					<g>
						<g>
							<path style="fill:#518F60;" d="M470.149,133.883c-3.396,3.248-8.015,5.236-13.091,5.236c-7.212,0-13.487-4.014-16.71-9.942
								l-7.398,4.002c4.644,8.546,13.696,14.351,24.108,14.351c7.336,0,13.981-2.877,18.884-7.571L470.149,133.883z"/>
						</g>
					</g>
				</g>
				<g>
					<g>
						<path style="fill:#5766CC;" d="M484.451,120.125c0,7.806-3.26,14.857-8.509,19.835l-5.792-6.076
							c3.631-3.458,5.891-8.336,5.891-13.758c0-5.78-2.581-10.955-6.657-14.438l5.459-6.385
							C480.721,104.317,484.451,111.789,484.451,120.125z"/>
					</g>
				</g>
				<g>
					<g>
						<path style="fill:#D82F3C;" d="M438.063,120.125c0,3.285,0.828,6.361,2.285,9.053l-7.398,4.002
							c-2.1-3.878-3.298-8.324-3.298-13.054c0-9.991,5.348-18.735,13.351-23.515l4.31,7.213
							C441.768,107.145,438.063,113.197,438.063,120.125z"/>
					</g>
				</g>
			</g>
			<g>
				<g>
					<g>
						<g>
							<path style="fill:#518F60;" d="M532.142,100.643c4.706,0,9.016,1.704,12.326,4.545l5.459-6.385
								c-4.78-4.1-10.992-6.57-17.784-6.57c-5.138,0-9.942,1.408-14.055,3.878l4.31,7.213
								C525.25,101.618,528.573,100.643,532.142,100.643z"/>
						</g>
					</g>
					<g>
						<g>
							<path style="fill:#D82F3C;" d="M545.233,133.383c-3.396,3.248-8.015,5.236-13.091,5.236c-7.213,0-13.487-4.014-16.71-9.942
								l-7.398,4.001c4.644,8.546,13.697,14.351,24.108,14.351c7.336,0,13.981-2.878,18.884-7.571L545.233,133.383z"/>
						</g>
					</g>
				</g>
				<g>
					<g>
						<path style="fill:#EBB044;" d="M559.535,119.625c0,7.805-3.26,14.857-8.509,19.835l-5.792-6.076
							c3.631-3.458,5.891-8.337,5.891-13.758c0-5.78-2.581-10.955-6.657-14.438l5.459-6.385
							C555.805,103.817,559.535,111.289,559.535,119.625z"/>
					</g>
				</g>
				<g>
					<g>
						<path style="fill:#EBB044;" d="M513.147,119.625c0,3.285,0.828,6.36,2.285,9.053l-7.398,4.001
							c-2.1-3.878-3.298-8.324-3.298-13.054c0-9.992,5.348-18.735,13.351-23.515l4.31,7.213
							C516.852,106.645,513.147,112.697,513.147,119.625z"/>
					</g>
				</g>
			</g>
		</g>
		<g>
			<g>
				<path style="fill:#E8EBFC;" d="M194.836,138.322v180.687h148.049v-76.367c0.415-6.118-2.126-12.61-6.563-16.841
					c-4.437-4.232-10.798-6.362-16.889-5.658c-6.599,0.764-12.379,4.558-18.29,7.59c-5.91,3.032-12.857,5.395-19.098,3.121
					c-7.681-2.798-11.459-11.712-11.746-19.882c-0.288-8.17,2.001-16.217,2.345-24.385c0.763-18.132-8.895-36.34-24.334-45.878
					C232.87,131.172,212.983,138.322,194.836,138.322z"/>
			</g>
			<g>
				<g>
					<g>
						<rect x="186.971" y="318.509" style="fill:#A4ACE3;" width="169.747" height="1"/>
					</g>
					<g>
						<g>
							<polygon style="fill:#A4ACE3;" points="354.726,320.704 356.422,319.009 354.726,317.314 356.165,317.314 357.861,319.009 
								356.165,320.704 							"/>
						</g>
					</g>
				</g>
				<g>
					<g>
						<rect x="194.336" y="117.002" style="fill:#A4ACE3;" width="1" height="210.924"/>
					</g>
					<g>
						<g>
							<polygon style="fill:#A4ACE3;" points="196.531,118.994 194.836,117.298 193.141,118.994 193.141,117.555 194.836,115.859 
								196.531,117.555 							"/>
						</g>
					</g>
				</g>
			</g>
			<g>
				<g>
					<rect x="222.502" y="124.67" style="fill:#A4ACE3;" width="1" height="194.447"/>
				</g>
				<g>
					<rect x="250.749" y="134.384" style="fill:#A4ACE3;" width="1" height="184.732"/>
				</g>
				<g>
					<rect x="278.956" y="211.449" style="fill:#A4ACE3;" width="1" height="107.668"/>
				</g>
				<g>
					<rect x="307.162" y="214.27" style="fill:#A4ACE3;" width="1" height="104.847"/>
				</g>
				<g>
					<rect x="335.369" y="217.816" style="fill:#A4ACE3;" width="1" height="101.301"/>
				</g>
			</g>
		</g>
		<g>
			<g>
				<g>
					<g>
						<polygon style="fill:#A4ACE3;" points="562.447,259.489 368.535,259.489 368.535,258.489 561.447,258.489 561.447,152.816 
							562.447,152.816 						"/>
					</g>
				</g>
				<g>
					<g>
						<g>
							<polygon style="fill:#A4ACE3;" points="560.252,154.807 561.947,153.111 563.642,154.807 563.642,153.368 561.947,151.673 
								560.252,153.368 							"/>
						</g>
					</g>
				</g>
				<g>
					<g>
						<g>
							<polygon style="fill:#A4ACE3;" points="370.527,257.293 368.831,258.988 370.527,260.684 369.087,260.684 367.392,258.988 
								369.087,257.293 							"/>
						</g>
					</g>
				</g>
			</g>
			<g>
				<g>
					<path style="fill:#A4ACE3;" d="M373.452,241.145l-0.618-0.786l31.558-24.825c0.179-0.142,0.431-0.144,0.611-0.005
						l27.005,20.458l33.429-55.716c0.081-0.135,0.221-0.224,0.378-0.24c0.155-0.014,0.311,0.042,0.418,0.158l49.706,53.835
						l34.813-70.351l0.896,0.443l-35.136,71.002c-0.073,0.147-0.214,0.249-0.377,0.273c-0.16,0.026-0.328-0.035-0.438-0.156
						l-49.747-53.878l-33.371,55.622c-0.073,0.121-0.194,0.206-0.334,0.233c-0.139,0.027-0.283-0.007-0.396-0.092l-27.142-20.561
						L373.452,241.145z"/>
				</g>
				<g>
					<g>
						<circle style="fill:#EBB044;" cx="404.701" cy="215.926" r="3"/>
					</g>
					<g>
						<circle style="fill:#EBB044;" cx="432.15" cy="236.721" r="3"/>
					</g>
					<g>
						<circle style="fill:#EBB044;" cx="465.83" cy="180.607" r="3"/>
					</g>
					<g>
						<circle style="fill:#EBB044;" cx="515.681" cy="233.721" r="3"/>
					</g>
				</g>
			</g>
		</g>
		<g>
			<g>
				<g>
					<rect x="367.392" y="277.619" style="fill:#518F60;" width="13.426" height="13.425"/>
				</g>
				<g>
					<rect x="367.392" y="304.922" style="fill:#D82F3C;" width="13.426" height="13.426"/>
				</g>
				<g>
					
						<rect x="391.195" y="280.832" transform="matrix(-1 -1.224647e-16 1.224647e-16 -1 847.7326 568.6632)" style="fill:#A4ACE3;" width="65.342" height="7"/>
				</g>
				<g>
					
						<rect x="391.195" y="308.135" transform="matrix(-1 -1.224647e-16 1.224647e-16 -1 847.7326 623.2698)" style="fill:#A4ACE3;" width="65.342" height="7"/>
				</g>
			</g>
			<g>
				<g>
					<rect x="472.302" y="277.619" style="fill:#5766CC;" width="13.426" height="13.425"/>
				</g>
				<g>
					<rect x="472.302" y="304.922" style="fill:#EBB044;" width="13.426" height="13.426"/>
				</g>
				<g>
					
						<rect x="496.105" y="280.832" transform="matrix(-1 -1.224647e-16 1.224647e-16 -1 1057.5521 568.6632)" style="fill:#A4ACE3;" width="65.342" height="7"/>
				</g>
				<g>
					
						<rect x="496.105" y="308.135" transform="matrix(-1 -1.224647e-16 1.224647e-16 -1 1057.5521 623.2698)" style="fill:#A4ACE3;" width="65.342" height="7"/>
				</g>
			</g>
		</g>
	</g>
	<g>
		<g>
			<g>
				<g>
					<path style="fill:#2C2F37;" d="M672.537,445.968h-14.32c-2.604,4.707-18.225,18.225-21.53,20.128
						c-3.305,1.903-2.303,3.904-2.303,3.904h20.428c3.505-1.801,12.217-6.908,13.719-8.31l3.104,8.31h5.608
						c0,0-1.342-22.338-2.203-24.032C674.327,444.564,672.794,445.201,672.537,445.968z"/>
				</g>
				<g>
					<path style="fill:#C96742;" d="M642.548,461.59c9.04,2.35,26.59-9.02,29.99-15.62h-14.32
						C656.428,449.21,648.418,456.66,642.548,461.59z"/>
				</g>
				<g>
					<polygon style="fill:#C96742;" points="672.538,445.97 672.538,432.104 657.543,431.805 658.4,445.97 					"/>
				</g>
			</g>
			<g>
				<g>
					<path style="fill:#2C2F37;" d="M632.191,434.604l-13.808,3.793c-1.264,5.228-12.747,22.402-15.429,25.112
						c-2.683,2.71-1.187,4.375-1.187,4.375l19.699-5.411c2.903-2.665,9.951-9.897,11.028-11.647l5.195,7.191l5.407-1.485
						c0,0-7.211-21.185-8.49-22.59C633.545,432.776,632.235,433.796,632.191,434.604z"/>
				</g>
				<g>
					<path style="fill:#C96742;" d="M607.411,457.611c9.339-0.129,23.251-15.741,24.781-23.006l-13.809,3.793
						C617.516,441.997,611.765,451.302,607.411,457.611z"/>
				</g>
				<g>
					<polygon style="fill:#C96742;" points="632.192,434.605 628.519,421.235 613.981,424.918 618.559,438.35 					"/>
				</g>
			</g>
			<g>
				<g>
					<g>
						<path style="fill:#2C2F37;" d="M616.178,252.24c-4.111,12.825-17.316,68.234-22.145,88.652
							c-1.183,5.002-1.227,10.191-0.131,15.213c4.163,19.073,14.94,68.141,18.048,79.28l22.961-6.207
							c-0.459-10.676-8.405-64.306-13.37-78.458c6.455-7.697,22.594-42.705,25.325-50.402V250L616.178,252.24z"/>
					</g>
					<g>
						<path style="fill:#2C2F37;" d="M660.708,252.24c6.913,13.731,16.864,66.947,8.339,103.445
							c8.854,20.111,8.57,57.002,7.223,85.658h-20.526c-5.402-25.573-24.483-135.966-24.253-154.386v-33.814L660.708,252.24z"/>
					</g>
				</g>
				<g>
					<g>
						<path style="fill:#5B5D63;" d="M635.982,326.536c-0.184,0-0.344-0.134-0.371-0.32c-3.05-20.713-4.563-33.923-4.496-39.264
							v-33.809c0-0.207,0.168-0.375,0.375-0.375c0.207,0,0.375,0.168,0.375,0.375v33.813c-0.066,5.306,1.444,18.476,4.488,39.15
							c0.03,0.205-0.111,0.395-0.316,0.426C636.018,326.535,636,326.536,635.982,326.536z"/>
					</g>
					<g>
						<path style="fill:#5B5D63;" d="M602.289,349.6c-3.397,0-6.774-0.725-9.879-2.132c-0.188-0.086-0.271-0.308-0.187-0.497
							c0.087-0.188,0.306-0.272,0.497-0.187c3.646,1.653,7.679,2.33,11.67,1.97c0.221-0.011,0.389,0.134,0.407,0.339
							c0.02,0.206-0.133,0.389-0.339,0.407C603.736,349.567,603.012,349.6,602.289,349.6z"/>
					</g>
					<g>
						<path style="fill:#5B5D63;" d="M642.68,355.685c-0.942,0-1.883-0.053-2.814-0.157c-0.206-0.023-0.353-0.209-0.331-0.415
							c0.024-0.205,0.219-0.346,0.415-0.331c3.214,0.365,6.547,0.076,9.646-0.831c0.199-0.054,0.407,0.057,0.466,0.255
							c0.058,0.199-0.057,0.407-0.255,0.466C647.511,355.343,645.091,355.685,642.68,355.685z"/>
					</g>
					<g>
						<path style="fill:#5B5D63;" d="M632.087,428.423c-0.192,0-0.356-0.146-0.373-0.342c-2.3-25.517-7.453-51.847-15.318-78.259
							c-0.035-0.118-0.011-0.245,0.066-0.341c6.451-8.105,12.159-16.87,16.964-26.049c0.096-0.183,0.322-0.254,0.506-0.158
							s0.255,0.322,0.158,0.506c-4.796,9.163-10.488,17.915-16.92,26.015c7.848,26.397,12.992,52.714,15.29,78.22
							c0.019,0.206-0.133,0.388-0.34,0.406C632.109,428.423,632.097,428.423,632.087,428.423z"/>
					</g>
					<g>
						<path style="fill:#5B5D63;" d="M672.993,439.373c-0.006,0-0.012,0-0.018,0c-0.206-0.01-0.366-0.186-0.357-0.393
							c1.163-25.346-0.094-62.098-7.462-82.255c-0.023-0.066-0.029-0.138-0.015-0.206c6.092-28.933,4.717-59.162-3.977-87.421
							c-0.061-0.198,0.05-0.408,0.248-0.469c0.199-0.063,0.407,0.051,0.469,0.248c8.72,28.346,10.108,58.667,4.016,87.691
							c7.374,20.283,8.635,57.072,7.471,82.446C673.358,439.216,673.192,439.373,672.993,439.373z"/>
					</g>
				</g>
			</g>
		</g>
		<g>
			<g>
				<g>
					<g>
						<path style="fill:#C96742;" d="M551.984,206.761l-4.554,8.301c-3.129-0.737-10.917-3.494-10.917-3.494l5.094-11.722
							C544.528,200.473,549.817,204.415,551.984,206.761z"/>
					</g>
					<g>
						<path style="fill:#C96742;" d="M541.607,199.846c-2.147-0.53-13.414-1.931-13.816-0.401c-0.403,1.53,10.54,3.932,12.193,4.185
							L541.607,199.846z"/>
					</g>
					<g>
						<g>
							<path style="fill:#C96742;" d="M537.013,202.628c-1.293-0.284-2.519,1.887-1.461,3.014c-1.634,0.525-1.549,2.105-0.653,3.007
								c-1.412,0.49-0.994,2.232,0.1,2.806c1.094,0.575,5.463,1.269,6.365,1.363c0.903,0.093,1.572-1.472,0.563-2.014
								c0.966-0.076,1.997-1.654,0.927-2.153c1.507-0.186,1.594-1.827,0.5-2.402C542.26,205.675,538.388,202.93,537.013,202.628z"/>
						</g>
						<g>
							<g>
								<path style="fill:#9E401C;" d="M541.444,213.197c-0.038,0-0.078-0.002-0.117-0.006c-0.91-0.094-5.345-0.796-6.502-1.404
									c-0.183-0.096-0.254-0.323-0.157-0.506c0.098-0.184,0.325-0.252,0.507-0.158c1.003,0.527,5.272,1.223,6.229,1.322
									c0.295,0.025,0.527-0.261,0.615-0.547c0.049-0.16,0.121-0.554-0.269-0.764c-0.146-0.079-0.224-0.245-0.189-0.407
									c0.034-0.163,0.172-0.284,0.338-0.297c0.425-0.033,0.942-0.538,1.025-0.999c0.039-0.216-0.029-0.347-0.228-0.44
									c-0.151-0.07-0.238-0.233-0.212-0.398c0.025-0.165,0.158-0.293,0.324-0.314c0.498-0.061,0.825-0.32,0.896-0.708
									c0.06-0.325-0.08-0.756-0.523-0.989c-0.361-0.19-1-0.598-1.739-1.07c-1.534-0.981-3.636-2.325-4.509-2.516
									c-0.202-0.044-0.33-0.244-0.286-0.446c0.044-0.202,0.241-0.331,0.446-0.286c1.005,0.22,3.083,1.549,4.753,2.617
									c0.725,0.463,1.35,0.863,1.683,1.038c0.676,0.355,1.043,1.073,0.913,1.788c-0.091,0.499-0.408,0.896-0.873,1.125
									c0.107,0.213,0.142,0.464,0.093,0.735c-0.102,0.564-0.528,1.105-1.039,1.396c0.196,0.326,0.242,0.735,0.112,1.158
									C542.565,212.671,542.074,213.197,541.444,213.197z"/>
							</g>
							<g>
								<path style="fill:#9E401C;" d="M541.927,211.179c-0.036,0-0.073-0.005-0.11-0.017l-7.028-2.155
									c-0.197-0.061-0.309-0.27-0.248-0.468c0.061-0.198,0.267-0.31,0.469-0.249l7.028,2.155c0.197,0.061,0.309,0.27,0.248,0.468
									C542.236,211.076,542.087,211.179,541.927,211.179z"/>
							</g>
							<g>
								<path style="fill:#9E401C;" d="M542.854,209.026c-0.048,0-0.096-0.009-0.142-0.028l-7.303-3.009
									c-0.191-0.079-0.283-0.298-0.204-0.49c0.079-0.191,0.298-0.282,0.489-0.204l7.303,3.009c0.191,0.079,0.283,0.298,0.204,0.49
									C543.141,208.939,543.002,209.026,542.854,209.026z"/>
							</g>
						</g>
					</g>
					<g>
						<g>
							<path style="fill:#C96742;" d="M551.984,206.761c-0.658-1.11-5.583-6.542-7.067-6.461c-1.484,0.081-8.361,2.654-8.27,3.852
								c0.091,1.199,4.657,1.029,5.627,0.362c0.603,1.91,4.18,5.087,6.429,4.607L551.984,206.761z"/>
						</g>
						<g>
							<path style="fill:#9E401C;" d="M548.244,209.543c-2.251,0-5.282-2.604-6.171-4.516c-1.241,0.46-3.938,0.564-5.112,0.002
								c-0.534-0.255-0.669-0.602-0.688-0.848c-0.124-1.623,6.595-3.799,7.556-4.052c0.203-0.054,0.406,0.067,0.458,0.268
								c0.053,0.2-0.066,0.405-0.267,0.458c-2.91,0.765-6.9,2.634-6.999,3.278c0.005,0.057,0.105,0.144,0.263,0.219
								c1.129,0.539,4.141,0.291,4.777-0.147c0.099-0.067,0.223-0.083,0.335-0.045c0.112,0.039,0.2,0.128,0.235,0.242
								c0.564,1.79,4.016,4.777,5.993,4.353c0.207-0.043,0.402,0.086,0.445,0.289c0.043,0.202-0.086,0.401-0.289,0.445
								C548.608,209.525,548.428,209.542,548.244,209.543z"/>
						</g>
					</g>
				</g>
				<g>
					<g>
						<path style="fill:#518F60;" d="M610.42,187.265c-4.767,4.138-21.178,25.698-22.931,29.895
							c-5.577-3.132-36.328-13.488-36.328-13.488l-5.736,13.488c8.126,4.675,34.416,19.645,42.701,20.206
							c8.285,0.562,27.935-16.805,27.935-16.805l4.355-23.9L610.42,187.265z"/>
					</g>
					<g>
						<path style="fill:#2F703E;" d="M592.64,221.956c-0.112,0-0.225-0.051-0.298-0.148c-1.421-1.863-3.257-3.443-5.311-4.572
							c-0.143-0.079-0.219-0.24-0.188-0.4c0.031-0.16,0.162-0.281,0.324-0.301c1.572-0.187,3.181-0.076,4.413,0.305
							c0.198,0.061,0.309,0.271,0.248,0.469c-0.062,0.197-0.273,0.308-0.469,0.248c-0.834-0.257-1.857-0.382-2.929-0.358
							c1.725,1.11,3.267,2.53,4.506,4.155c0.126,0.165,0.094,0.4-0.07,0.526C592.799,221.931,592.719,221.956,592.64,221.956z"/>
					</g>
					<g>
						<path style="fill:#2F703E;" d="M579.995,235.051c-0.089,0-0.178-0.031-0.249-0.095c-0.155-0.138-0.169-0.375-0.031-0.53
							c2.277-2.558,5.546-4.111,8.967-4.263c3.432-0.156,6.814,1.108,9.309,3.455c0.151,0.142,0.158,0.379,0.017,0.53
							c-0.143,0.151-0.379,0.159-0.53,0.016c-2.314-2.176-5.602-3.392-8.762-3.251c-3.173,0.141-6.327,1.641-8.439,4.013
							C580.201,235.009,580.098,235.051,579.995,235.051z"/>
					</g>
				</g>
			</g>
			<g>
				<g>
					<path style="fill:#FFFFFF;" d="M669.208,204.7c-0.59,5.08-7.69,42.99-8.5,47.54c0,1.5-9.97,2.71-22.27,2.71
						c-12.29,0-22.26-1.21-22.26-2.71c0.61-7.74,0.66-15.63,0.13-23.37c-2.12-0.2-4.15-1.21-5.58-2.78
						c-1.44-1.57-2.26-3.68-2.27-5.81c-0.03-6.25,6.61-11.21,6.98-17.45c-6.04-3.23-6.89-14.04-5.02-15.57s19.48-7.06,23.27-7.89
						c0,0-1.81,12.57,4.57,12.57c10.75,0,13.36-12.57,13.36-12.57c2.62,0.66,22.27,7.12,23.72,8.4S682.398,202.49,669.208,204.7z"/>
				</g>
				<g>
					<path style="fill:#C8C3CA;" d="M618.936,229.367c-0.978,0-1.955-0.064-2.925-0.194c-0.205-0.027-0.35-0.216-0.322-0.421
						c0.028-0.204,0.212-0.352,0.422-0.322c3.592,0.478,7.294,0.033,10.703-1.292c1.591-0.617,3.361-0.676,4.984-0.167
						c3.757,1.181,7.09,1.65,10.188,1.438c4.632-0.318,8.821-2.213,11.494-5.197c0.139-0.155,0.376-0.167,0.529-0.029
						c0.154,0.138,0.168,0.375,0.029,0.529c-2.802,3.129-7.176,5.114-12.002,5.445c-3.189,0.219-6.614-0.261-10.463-1.47
						c-1.463-0.459-3.056-0.407-4.488,0.15C624.478,228.85,621.707,229.367,618.936,229.367z"/>
				</g>
			</g>
			<g>
				<g>
					<path style="fill:#518F60;" d="M677.76,281.795c-7.21,3.81-28.97,5.72-35.23,5.02c-0.69-11.84-0.92-22.41-0.78-31.89
						c0.55-38.11,6.92-58.85,12.01-74.92c5.85,1.81,20.34,6.68,21.58,7.77c1.45,1.28,7.06,14.72-6.13,16.93
						C666.77,231.315,673.2,267.425,677.76,281.795z"/>
				</g>
				<g>
					<g>
						<path style="fill:#2F703E;" d="M643.424,229.011c-0.185,0-0.346-0.136-0.371-0.323c-0.029-0.205,0.114-0.395,0.319-0.423
							c4.113-0.573,7.702-2.367,10.107-5.053c0.139-0.155,0.376-0.167,0.529-0.029c0.154,0.138,0.168,0.375,0.029,0.529
							c-2.522,2.818-6.274,4.699-10.563,5.296C643.459,229.01,643.441,229.011,643.424,229.011z"/>
					</g>
					<g>
						<path style="fill:#2F703E;" d="M673.38,282.38c-0.158,0-0.306-0.101-0.356-0.259c-7.923-24.4-10.488-50.761-7.419-76.234
							c0.024-0.205,0.204-0.356,0.417-0.327c0.205,0.024,0.352,0.211,0.327,0.417c-3.056,25.365-0.501,51.615,7.388,75.912
							c0.064,0.197-0.044,0.409-0.24,0.473C673.458,282.374,673.419,282.38,673.38,282.38z"/>
					</g>
					<g>
						<path style="fill:#2F703E;" d="M671.289,268.222c-0.046,0-0.092-0.009-0.138-0.026c-7.638-3.007-13.334-10.199-14.512-18.324
							c-0.029-0.205,0.112-0.395,0.317-0.425c0.209-0.032,0.395,0.112,0.425,0.317c1.14,7.862,6.652,14.823,14.045,17.734
							c0.192,0.075,0.287,0.293,0.211,0.486C671.58,268.132,671.438,268.222,671.289,268.222z"/>
					</g>
					<g>
						<path style="fill:#2F703E;" d="M644.901,282.773c-0.201,0-0.368-0.159-0.375-0.362c-0.007-0.207,0.155-0.38,0.362-0.388
							c10.509-0.365,21.04-1.716,31.299-4.015c0.204-0.045,0.402,0.082,0.448,0.284c0.045,0.202-0.082,0.402-0.284,0.448
							c-10.305,2.308-20.882,3.665-31.438,4.032C644.91,282.773,644.905,282.773,644.901,282.773z"/>
					</g>
				</g>
			</g>
			<g>
				<g>
					<path style="fill:#518F60;" d="M625.04,285.435c-6.2,1.04-19.02-1.73-21.44-4.33c3.98-12.63,12.44-38.92,12.46-52.26v-0.04
						l-0.12,0.02c-1.99-0.27-3.86-1.25-5.21-2.73c-1.44-1.57-2.26-3.68-2.27-5.81c-0.03-6.25,6.61-11.21,6.98-17.45
						c-6.04-3.23-6.89-14.04-5.02-15.57c1.62-1.32,15.04-5.65,21.07-7.32c-3.58,15.21-7.08,44.82-7.43,74.37
						C623.93,264.915,624.21,275.515,625.04,285.435z"/>
				</g>
				<g>
					<path style="fill:#2F703E;" d="M610.73,226.47c-0.102,0-0.202-0.041-0.276-0.122c-1.494-1.629-2.358-3.838-2.369-6.062
						c-0.016-3.318,1.791-6.288,3.538-9.161c1.606-2.642,3.269-5.374,3.443-8.313c0.012-0.206,0.165-0.364,0.396-0.353
						c0.206,0.012,0.364,0.19,0.352,0.396c-0.185,3.126-1.896,5.939-3.551,8.66c-1.771,2.911-3.443,5.661-3.429,8.767
						c0.011,2.039,0.802,4.065,2.172,5.559c0.14,0.152,0.13,0.39-0.022,0.53C610.912,226.437,610.821,226.47,610.73,226.47z"/>
				</g>
				<g>
					<path style="fill:#2F703E;" d="M613.954,208.154c-0.167,0-0.319-0.112-0.363-0.281c-0.386-1.492-0.927-2.951-1.606-4.337
						c-0.091-0.186-0.014-0.411,0.172-0.502c0.185-0.091,0.41-0.014,0.502,0.172c0.701,1.431,1.259,2.938,1.658,4.479
						c0.052,0.201-0.068,0.405-0.27,0.457C614.016,208.15,613.985,208.154,613.954,208.154z"/>
				</g>
				<g>
					<g>
						<path style="fill:#2F703E;" d="M618.911,229.364c-0.975,0-1.944-0.063-2.899-0.191c-0.205-0.027-0.35-0.216-0.322-0.421
							c0.028-0.204,0.212-0.352,0.422-0.322c2.817,0.375,5.778,0.174,8.562-0.586c0.201-0.055,0.406,0.064,0.46,0.263
							c0.055,0.2-0.063,0.406-0.263,0.46C622.934,229.096,620.914,229.364,618.911,229.364z"/>
					</g>
					<g>
						<path style="fill:#2F703E;" d="M622.904,282.391c-0.009,0-0.017,0-0.027-0.001c-5.877-0.424-11.599-1.025-16.994-3.679
							c-0.186-0.092-0.262-0.316-0.171-0.503c0.093-0.186,0.317-0.259,0.503-0.171c5.273,2.596,10.916,3.186,16.717,3.604
							c0.206,0.015,0.361,0.194,0.347,0.401C623.263,282.241,623.099,282.391,622.904,282.391z"/>
					</g>
				</g>
			</g>
			<g>
				<g>
					<g>
						<path style="fill:#C96742;" d="M692.619,284.244l9.404-1.274c1.58,6.482,2.356,20.141,2.171,21.464
							c-0.185,1.323-1.444,1.156-1.629,0.034c-0.184-1.122-1.206-7.316-1.206-7.316s-0.129,8.381-0.24,9.546
							c-0.111,1.166-1.342,1.834-1.693,0.112c-0.351-1.722-0.723-9.133-0.723-9.133s-0.288,9.522-0.468,10.364
							c-0.181,0.842-1.374,1.384-1.677-0.152c-0.303-1.536-0.703-10.233-0.703-10.233s-0.791,8.069-0.949,8.952
							c-0.158,0.883-1.336,1.257-1.564-0.532C693.115,304.286,692.319,287.262,692.619,284.244z"/>
					</g>
					<g>
						<path style="fill:#C96742;" d="M692.619,284.244c-1.467,1.555-4.689,6.386-5.038,7.798c-0.349,1.412-0.281,7.113,0.829,7.201
							c1.11,0.088,2.043-2.597,1.745-4.614c1.676-0.538,3.991-1.849,5.075-3.766C696.314,288.946,692.619,284.244,692.619,284.244z"
							/>
					</g>
					<g>
						<path style="fill:#9E401C;" d="M697.392,298.114c-1.138,0-2.289-0.131-3.385-0.399c-0.201-0.05-0.324-0.252-0.275-0.453
							c0.049-0.201,0.256-0.322,0.453-0.275c2.949,0.723,6.312,0.398,8.568-0.827c0.182-0.099,0.41-0.031,0.508,0.15
							c0.1,0.182,0.032,0.409-0.15,0.508C701.547,297.667,699.494,298.114,697.392,298.114z"/>
					</g>
				</g>
				<g>
					<g>
						<path style="fill:#518F60;" d="M675.34,187.775c12.687,13.507,22.725,37.884,25.275,49.197
							c2.549,11.313,3.983,49.986,3.983,49.986h-16.252c-0.956-6.01-5.417-38.354-4.78-43.772
							c-3.665-3.824-17.642-24.218-19.417-36.168C662.375,195.068,675.34,187.775,675.34,187.775z"/>
					</g>
					<g>
						<g>
							<path style="fill:#2F703E;" d="M669.045,221.004c-0.138,0-0.27-0.076-0.336-0.208c-2.735-5.499-4.394-10.117-4.931-13.723
								c-0.297-2.009-0.203-4.019,0.281-5.975c0.051-0.2,0.252-0.323,0.454-0.274c0.201,0.05,0.324,0.253,0.274,0.455
								c-0.461,1.86-0.551,3.773-0.267,5.684c0.524,3.528,2.159,8.07,4.86,13.499c0.092,0.186,0.017,0.411-0.169,0.503
								C669.158,220.991,669.101,221.004,669.045,221.004z"/>
						</g>
						<g>
							<path style="fill:#2F703E;" d="M683.384,243.545c-0.113,0-0.223-0.051-0.295-0.143c-0.1-0.126-0.107-0.303-0.019-0.437
								c0.763-1.162,1.673-2.358,3.155-3.227c0.178-0.104,0.408-0.045,0.513,0.133c0.105,0.179,0.045,0.409-0.134,0.513
								c-0.972,0.57-1.682,1.308-2.27,2.082c2.075-0.618,4.219-0.914,6.396-0.888c0.207,0.003,0.373,0.173,0.37,0.38
								c-0.002,0.208-0.137,0.373-0.38,0.37c-2.459-0.027-4.891,0.371-7.212,1.196C683.469,243.538,683.426,243.545,683.384,243.545
								z"/>
						</g>
						<g>
							<path style="fill:#2F703E;" d="M701.379,247.608c-0.046,0-0.093-0.008-0.138-0.026c-3.638-1.439-6.418-4.86-7.083-8.714
								c-0.667-3.854,0.805-8.01,3.747-10.586c0.155-0.136,0.394-0.121,0.529,0.035c0.137,0.156,0.121,0.393-0.035,0.529
								c-2.75,2.408-4.125,6.292-3.503,9.894c0.622,3.603,3.221,6.799,6.62,8.145c0.193,0.076,0.287,0.294,0.211,0.487
								C701.67,247.518,701.529,247.608,701.379,247.608z"/>
						</g>
					</g>
				</g>
			</g>
		</g>
		<g>
			<g>
				<path style="fill:#2C2F37;" d="M622.532,143.123c-0.574-2.49-0.907-5.092-0.405-7.598c0.502-2.506,1.942-4.919,4.203-6.111
					c2.261-1.191,5.361-0.88,7.014,1.069c2.411-3.114,6.486-4.709,10.424-4.621c5.147,0.115,10.295,2.536,13.298,6.717
					c3.003,4.181,3.598,10.096,1.091,14.592l8.037,27.957h-50.865L622.532,143.123z"/>
			</g>
			<g>
				<g>
					<path style="fill:#C96742;" d="M633.274,171.141c2.539,0.016,4.996-0.599,7.165-1.765c2.163-1.155,4.037-2.806,5.443-4.882
						l2.266-3.345v-20.077c0-4.19-3.443-7.562-7.628-7.47l-6.876,0.158c-4.065,0.087-5.781,3.699-7.301,7.464
						c-1.841,4.544-0.36,7.421-0.512,12.302c-0.016,0.561-0.054,1.144-0.12,1.749c-0.027,0.24-0.06,0.485-0.093,0.736
						c-0.016,0.12-0.038,0.245-0.055,0.37c-0.033,0.223-0.076,0.452-0.12,0.686c-0.038,0.218-0.076,0.425-0.104,0.632
						c-0.016,0.087-0.033,0.169-0.044,0.256c-0.071,0.496-0.131,0.97-0.169,1.433c-0.044,0.441-0.065,0.877-0.076,1.291
						C624.823,168.717,629.896,171.125,633.274,171.141z"/>
				</g>
				<g>
					<g>
						<path style="fill:#C96742;" d="M633.685,179.365c0,0-1.81,12.57,4.572,12.57c10.755,0,13.362-12.57,13.362-12.57
							l-3.468-18.218l-13.102,8.359l-0.255,1.562l-0.482,3.262L633.685,179.365z"/>
					</g>
					<g>
						<path style="fill:#2C2F37;" d="M634.312,174.33c2.476-0.521,4.804-1.672,6.759-3.313c1.924-1.609,3.454-3.691,4.416-5.993
							c-1.341,1.83-3.076,3.297-5.047,4.353c-1.735,0.931-3.643,1.514-5.646,1.688L634.312,174.33z"/>
					</g>
				</g>
				<g>
					<g>
						<path style="fill:#C96742;" d="M645.025,157.07c0,2.761,2.238,4.999,4.999,4.999c2.761,0,5-2.238,5-4.999
							c0-2.761-2.238-4.999-5-4.999C647.264,152.07,645.025,154.309,645.025,157.07z"/>
					</g>
					<g>
						<g>
							<path style="fill:#9E401C;" d="M647.164,160.118c-0.008,0-0.016,0-0.023-0.001c-0.207-0.013-0.364-0.191-0.351-0.397
								c0.092-1.466,0.836-2.886,1.989-3.798c1.152-0.912,2.704-1.307,4.155-1.059c0.204,0.035,0.341,0.229,0.306,0.433
								c-0.035,0.203-0.227,0.336-0.433,0.306c-1.24-0.214-2.575,0.127-3.564,0.908c-0.989,0.783-1.627,2-1.706,3.257
								C647.525,159.965,647.36,160.118,647.164,160.118z"/>
						</g>
						<g>
							<path style="fill:#9E401C;" d="M652.186,159.41c-0.161,0-0.311-0.105-0.359-0.268c-0.399-1.332-1.528-2.335-2.876-2.557
								c-0.204-0.034-0.343-0.227-0.31-0.431c0.033-0.204,0.217-0.345,0.431-0.31c1.629,0.268,2.992,1.477,3.474,3.082
								c0.06,0.198-0.054,0.407-0.252,0.467C652.258,159.405,652.221,159.41,652.186,159.41z"/>
						</g>
					</g>
				</g>
				<g>
					<g>
						<path style="fill:#2C2F37;" d="M634.136,157.551c-0.052,0-0.104-0.01-0.153-0.033c-0.433-0.194-0.922-0.413-1.297-0.809
							c-0.382-0.402-0.647-1.08-0.38-1.685c0.13-0.295,0.354-0.501,0.552-0.684l0.159-0.151c0.531-0.532,0.754-1.264,0.847-1.785
							c0.124-0.696,0.105-1.437,0.088-2.153c-0.005-0.207,0.158-0.379,0.365-0.384c0.004,0,0.007,0,0.01,0
							c0.203,0,0.37,0.162,0.375,0.366c0.019,0.753,0.038,1.532-0.1,2.303c-0.16,0.898-0.524,1.653-1.054,2.183
							c-0.06,0.059-0.121,0.116-0.183,0.172c-0.157,0.145-0.307,0.283-0.374,0.436c-0.127,0.288,0.035,0.651,0.239,0.866
							c0.273,0.288,0.672,0.467,1.059,0.64c0.189,0.085,0.273,0.307,0.189,0.496C634.417,157.468,634.279,157.551,634.136,157.551z"
							/>
					</g>
					<g>
						<g>
							<g>
								<path style="fill:#2C2F37;" d="M632.02,146.572c0.028,0.277-0.033,0.563-0.17,0.805c-0.137,0.242-0.346,0.433-0.598,0.552
									c-0.538-0.357-1.1-0.725-1.741-0.809c-0.586-0.078-1.185,0.094-1.702,0.38c-0.518,0.286-1,0.676-1.433,1.078
									c-0.165-0.011-0.309-0.161-0.313-0.326c0.497-1.009,1.485-1.871,2.61-2.196C629.797,145.732,631.025,145.954,632.02,146.572
									z"/>
							</g>
							<g>
								<path style="fill:#2C2F37;" d="M631.493,152.435c-0.148,0-0.288-0.088-0.348-0.234c-0.302-0.744-0.931-1.137-1.816-1.137
									c-0.85,0-1.58,0.435-1.954,1.163c-0.096,0.184-0.32,0.256-0.506,0.162c-0.184-0.095-0.256-0.321-0.162-0.505
									c0.506-0.983,1.486-1.57,2.622-1.57c1.199,0,2.091,0.57,2.512,1.605c0.078,0.192-0.015,0.411-0.206,0.489
									C631.587,152.427,631.54,152.435,631.493,152.435z"/>
							</g>
						</g>
						<g>
							<g>
								<path style="fill:#2C2F37;" d="M636.501,146.572c-0.028,0.277,0.032,0.563,0.17,0.805c0.137,0.242,0.346,0.433,0.598,0.552
									c0.538-0.357,1.101-0.725,1.741-0.809c0.586-0.078,1.185,0.094,1.702,0.38c0.518,0.286,1,0.676,1.433,1.078
									c0.165-0.011,0.309-0.161,0.313-0.326c-0.497-1.009-1.485-1.871-2.609-2.196
									C638.724,145.732,637.496,145.954,636.501,146.572z"/>
							</g>
							<g>
								<path style="fill:#2C2F37;" d="M637.028,152.435c-0.047,0-0.095-0.009-0.142-0.027c-0.191-0.078-0.284-0.297-0.206-0.489
									c0.421-1.035,1.313-1.605,2.512-1.605c1.136,0,2.116,0.587,2.622,1.57c0.094,0.184,0.021,0.41-0.162,0.505
									c-0.188,0.094-0.41,0.022-0.506-0.162c-0.374-0.728-1.104-1.163-1.954-1.163c-0.886,0-1.515,0.393-1.816,1.137
									C637.316,152.347,637.175,152.435,637.028,152.435z"/>
							</g>
						</g>
					</g>
					<g>
						<g>
							<g>
								<path style="fill:#9E301C;" d="M638.257,157.07c0,0.472,1.152,0.854,2.572,0.854c1.421,0,2.572-0.383,2.572-0.854
									c0-0.472-1.152-0.854-2.572-0.854C639.408,156.215,638.257,156.598,638.257,157.07z"/>
							</g>
						</g>
						<g>
							<g>
								<path style="fill:#9E301C;" d="M625.341,157.7c0.458,0.142,1.063,0.223,1.727,0.223c1.422,0,2.572-0.381,2.572-0.855
									c0-0.469-1.15-0.85-2.572-0.85c-0.561,0-1.079,0.06-1.504,0.163c-0.033,0.223-0.076,0.452-0.12,0.686
									C625.406,157.286,625.368,157.493,625.341,157.7z"/>
							</g>
						</g>
					</g>
					<g>
						<path style="fill:#FFFFFF;" d="M631.734,163.132c0.432,0.52,1.334,0.647,1.959,0.76c0.7,0.126,1.439,0.153,2.139,0.009
							c1.226-0.253,2.511-1.076,2.852-2.35c0.18-0.67,0.028-1.397-0.533-1.84c-0.507-0.401-1.212-0.446-1.809-0.256
							c-0.662,0.211-1.178,0.676-1.69,1.126c-0.131,0.115-0.269,0.231-0.412,0.342c-0.504,0.356-1.264,0.251-1.834,0.452
							C631.678,161.632,631.17,162.453,631.734,163.132z"/>
					</g>
				</g>
			</g>
			<g>
				<path style="fill:#2C2F37;" d="M652.19,141.265l-1.36,10.88c-0.26-0.05-0.53-0.07-0.81-0.07c-1.93,0-3.59,1.09-4.42,2.68
					c-0.54-0.46-0.89-1.18-0.95-1.9c-0.09-1.12,0.34-2.22,0.81-3.25c0.47-1.02,0.99-2.06,1.09-3.19c0.09-1.12-0.36-2.38-1.38-2.87
					c-0.7-0.34-1.53-0.25-2.31-0.16c-1.77,0.23-3.56,0.48-5.34,0.31c-1.77-0.18-3.57-0.83-4.77-2.15c-1.2-1.33-1.66-3.4-0.79-4.96
					c-3.09,1.33-5.72,3.85-7.14,6.91l2.22-7.99l5.94-3.1l12.51,0.5L652.19,141.265z"/>
			</g>
		</g>
	</g>
	<g>
		<g>
			<g>
				<g>
					<g>
						<polygon style="fill:#C96742;" points="148.265,441.94 152.07,460.801 162.984,460.801 162.625,442.707 						"/>
					</g>
					<g>
						<path style="fill:#FFFFFF;" d="M189.95,467.49H145.63c-0.126-1.336,0.832-4.966,1.79-6.277
							c0.05-1.966,0.462-6.696,3.382-6.696c2.92,0,4.181,4.226,7.055,4.226s3.277-4.84,6.454-4.84s5.092,3.529,5.092,3.529
							l14.153,4.038C186.538,462.32,188.921,464.565,189.95,467.49L189.95,467.49z"/>
					</g>
					<g>
						<path style="fill:#2C2F37;" d="M145.383,470h44.814c0.262,0,0.474-0.212,0.474-0.474v-1.562c0-0.262-0.212-0.474-0.474-0.474
							h-44.814c-0.262,0-0.474,0.212-0.474,0.474v1.562C144.909,469.788,145.121,470,145.383,470z"/>
					</g>
				</g>
				<g>
					<g>
						<polygon style="fill:#C96742;" points="93.722,441.94 95.559,460.801 106.473,460.801 108.082,442.707 						"/>
					</g>
					<g>
						<path style="fill:#FFFFFF;" d="M133.439,467.49H89.119c-0.126-1.336,0.832-4.966,1.79-6.277
							c0.05-1.966,0.462-6.696,3.382-6.696c2.92,0,4.181,4.226,7.055,4.226s3.277-4.84,6.454-4.84s5.092,3.529,5.092,3.529
							l14.153,4.038C130.027,462.32,132.41,464.565,133.439,467.49L133.439,467.49z"/>
					</g>
					<g>
						<path style="fill:#2C2F37;" d="M88.872,470h44.814c0.262,0,0.474-0.212,0.474-0.474v-1.562c0-0.262-0.212-0.474-0.474-0.474
							H88.872c-0.262,0-0.474,0.212-0.474,0.474v1.562C88.398,469.788,88.61,470,88.872,470z"/>
					</g>
				</g>
			</g>
			<g>
				<g>
					<g>
						<path style="fill:#2C2F37;" d="M153.033,269.95c3.829,13.894,13.048,151.912,13.048,175.821h-21.326
							c-3.829-18.72-18.543-111.384-20.321-132.316v-42.588L153.033,269.95z"/>
					</g>
					<g>
						<path style="fill:#2C2F37;" d="M94.213,269.547c-5.251,26.04-4.907,159.052-4.063,176.224h22.898
							c3.318-25.357,15.462-117.08,16.747-135.547v-39.69L94.213,269.547z"/>
					</g>
				</g>
				<g>
					<g>
						<path style="fill:#5B5D63;" d="M126.966,336.4c-0.015,0-0.031-0.001-0.046-0.003c-0.206-0.025-0.352-0.213-0.326-0.418
							c1.573-12.758,2.524-21.432,2.827-25.78l-0.001-39.663c0-0.207,0.168-0.375,0.375-0.375c0.207,0,0.375,0.168,0.375,0.375
							v39.689c-0.305,4.388-1.257,13.074-2.832,25.846C127.315,336.261,127.153,336.4,126.966,336.4z"/>
					</g>
					<g>
						<path style="fill:#5B5D63;" d="M129.9,299.399h-7.278c-0.207,0-0.375-0.168-0.375-0.375c0-0.207,0.168-0.375,0.375-0.375
							h7.278c3.516,0,6.376-2.86,6.376-6.376v-21.405c0-0.207,0.168-0.375,0.375-0.375s0.375,0.168,0.375,0.375v21.405
							C137.026,296.203,133.829,299.399,129.9,299.399z"/>
					</g>
					<g>
						<path style="fill:#5B5D63;" d="M93.171,292.736c-0.137,0-0.268-0.074-0.334-0.204c-0.094-0.185-0.021-0.411,0.163-0.505
							c3.775-1.927,7.007-5.018,9.102-8.701c2.095-3.684,3.098-8.041,2.824-12.272c-0.014-0.207,0.143-0.385,0.35-0.398
							c0.205-0.019,0.385,0.143,0.398,0.35c0.284,4.375-0.754,8.882-2.92,12.691c-2.167,3.81-5.509,7.005-9.413,8.998
							C93.286,292.723,93.228,292.736,93.171,292.736z"/>
					</g>
					<g>
						<path style="fill:#5B5D63;" d="M155.105,290.68c-0.09,0-0.18-0.032-0.251-0.097c-5.388-4.875-8.627-11.836-8.886-19.098
							c-0.007-0.207,0.155-0.381,0.362-0.389c0.212-0.007,0.381,0.155,0.388,0.361c0.248,6.957,3.478,13.898,8.639,18.568
							c0.154,0.14,0.165,0.376,0.027,0.53C155.309,290.638,155.207,290.68,155.105,290.68z"/>
					</g>
					<g>
						<path style="fill:#5B5D63;" d="M155.346,363.027c-2.188,0-4.374-0.272-6.496-0.815c-0.201-0.052-0.322-0.256-0.271-0.456
							c0.052-0.201,0.263-0.318,0.456-0.27c4.011,1.025,8.261,1.056,12.289,0.083c0.196-0.054,0.403,0.074,0.453,0.276
							c0.048,0.201-0.075,0.404-0.277,0.452C159.484,362.784,157.415,363.027,155.346,363.027z"/>
					</g>
					<g>
						<path style="fill:#5B5D63;" d="M118.739,365.165c-2.95,0-5.899-0.456-8.709-1.358c-0.197-0.064-0.306-0.275-0.242-0.472
							c0.063-0.197,0.274-0.304,0.472-0.243c4.177,1.343,8.674,1.673,13.003,0.951c0.207-0.027,0.397,0.104,0.432,0.309
							c0.034,0.204-0.104,0.397-0.309,0.432C121.851,365.038,120.295,365.165,118.739,365.165z"/>
					</g>
					<g>
						<path style="fill:#5B5D63;" d="M145.486,438.363c-0.177,0-0.334-0.125-0.368-0.306c-4.878-25.802-8.747-52.129-12.489-77.59
							c-1.257-8.553-2.515-17.112-3.813-25.677c-0.031-0.205,0.11-0.397,0.314-0.428c0.203-0.03,0.396,0.11,0.427,0.314
							c1.298,8.566,2.556,17.127,3.813,25.682c3.74,25.452,7.608,51.772,12.484,77.56c0.038,0.203-0.096,0.399-0.299,0.438
							C145.532,438.361,145.508,438.363,145.486,438.363z"/>
					</g>
					<g>
						<path style="fill:#5B5D63;" d="M93.649,437.499c-0.202,0-0.368-0.16-0.375-0.362c-1.54-47.277-0.933-95.196,1.805-142.425
							c0.012-0.207,0.188-0.379,0.396-0.352c0.207,0.012,0.365,0.188,0.353,0.395c-2.736,47.207-3.343,95.103-1.804,142.357
							c0.006,0.206-0.156,0.38-0.363,0.387C93.656,437.499,93.652,437.499,93.649,437.499z"/>
					</g>
				</g>
			</g>
		</g>
		<g>
			<g>
				<g>
					<g>
						<path style="fill:#C96742;" d="M171.49,237.128c0.778,3.716,0.074,17.068-10.584,17.068c-7.336,0-20.102-44.705-19.45-49.467
							c0.652-4.762,13.333-11.876,17.228-7.643S170.358,231.722,171.49,237.128z"/>
					</g>
					<g>
						<path style="fill:#C96742;" d="M185.312,213.918l14.88-2.992c-4.894,6.767-24.697,43.254-38.694,43.254
							c-6.674,0-5.285-16.493-0.448-20.744C165.886,229.184,179.952,219.038,185.312,213.918z"/>
					</g>
					<g>
						<g>
							<path style="fill:#9E401C;" d="M161.049,233.81c-0.104,0-0.208-0.043-0.282-0.127c-0.137-0.156-0.122-0.393,0.034-0.529
								c1.664-1.462,5.018-4.316,8.784-6.999c0.169-0.121,0.404-0.081,0.523,0.087c0.121,0.169,0.081,0.403-0.087,0.523
								c-3.739,2.664-7.071,5.499-8.724,6.952C161.226,233.78,161.137,233.81,161.049,233.81z"/>
						</g>
						<g>
							<path style="fill:#9E401C;" d="M163.549,228.623c-0.187,0-0.348-0.139-0.372-0.329c-0.026-0.206,0.12-0.393,0.326-0.419
								l4.59-0.573c0.207-0.023,0.393,0.12,0.418,0.326c0.026,0.206-0.12,0.393-0.326,0.419l-4.59,0.573
								C163.581,228.622,163.565,228.623,163.549,228.623z"/>
						</g>
					</g>
				</g>
				<g>
					<path style="fill:#5766CC;" d="M155.18,186.244c4.191,3.875,13.41,29.196,13.838,33.079c-0.893,3.211-11.78,9.641-17.128,8.999
						l-6.626-32.62L155.18,186.244z"/>
				</g>
			</g>
			<g>
				<g>
					<path style="fill:#5766CC;" d="M149.139,198.241c5.871-1.276,8.594-10.295,6.041-11.997
						c-2.553-1.702-20.421-6.467-23.909-6.879h-17.935c-2.997,0.327-22.329,4.156-23.946,6.709
						c-1.617,2.553-4.747,14.634,2.06,16.421c1.472,6.29-3.164,64.367,0.862,70.468c4.026,6.1,59.785,5.124,62.591,0.854
						C157.71,269.547,152.648,207.706,149.139,198.241z"/>
				</g>
				<g>
					<g>
						<path style="fill:#2837A1;" d="M122.924,188.727c-5.28,0-10.031-2.804-12.379-7.423c-0.094-0.185-0.02-0.41,0.165-0.504
							c0.186-0.094,0.41-0.02,0.504,0.165c2.957,5.818,8.95,7.38,13.181,6.936c4.536-0.467,7.989-3.098,9.011-6.865
							c0.055-0.199,0.26-0.317,0.46-0.264c0.2,0.054,0.318,0.26,0.264,0.46c-1.105,4.074-4.806,6.915-9.658,7.415
							C123.953,188.701,123.436,188.727,122.924,188.727z"/>
					</g>
					<g>
						<path style="fill:#2837A1;" d="M95.806,271.242c-0.174,0-0.33-0.121-0.367-0.299c-2.611-12.52-1.479-25.506-0.385-38.064
							c0.742-8.518,1.509-17.327,1.11-25.937c-0.01-0.207,0.15-0.383,0.357-0.392c0.197-0.012,0.383,0.15,0.392,0.357
							c0.402,8.661-0.368,17.494-1.112,26.037c-1.09,12.505-2.216,25.435,0.372,37.847c0.042,0.202-0.088,0.401-0.291,0.443
							C95.858,271.24,95.832,271.242,95.806,271.242z"/>
					</g>
					<g>
						<g>
							<path style="fill:#2837A1;" d="M153.129,224.428c-0.19,0-0.352-0.143-0.372-0.337c-1.356-13.198-2.803-22.573-3.969-25.72
								c-0.072-0.194,0.027-0.41,0.221-0.482c0.195-0.071,0.411,0.027,0.482,0.221c1.188,3.204,2.649,12.645,4.012,25.904
								c0.021,0.206-0.129,0.39-0.335,0.411C153.155,224.428,153.142,224.428,153.129,224.428z"/>
						</g>
						<g>
							<path style="fill:#2837A1;" d="M150.563,204.585c-0.045,0-0.091-0.008-0.136-0.025c-0.193-0.075-0.289-0.292-0.213-0.486
								c0.782-2.009,1.398-4.099,1.831-6.211c0.042-0.203,0.238-0.335,0.442-0.292c0.203,0.042,0.334,0.24,0.292,0.442
								c-0.441,2.153-1.069,4.284-1.866,6.333C150.854,204.494,150.712,204.585,150.563,204.585z"/>
						</g>
					</g>
				</g>
			</g>
			<g>
				<g>
					<path style="fill:#C96742;" d="M65.923,240.667c-2.774,3.075-21.229,7.769-16.608-9.837
						c2.208-8.411,30.713-36.298,35.214-37.986c4.5-1.688,16.783,6.094,14.908,11.533C97.562,209.814,71.076,234.955,65.923,240.667
						z"/>
				</g>
				<g>
					<g>
						<path style="fill:#5766CC;" d="M103.217,197.064c-1.042-2.618-7.102-14.888-12.529-11.959
							c-7.768,4.192-16.381,11.674-26.04,23.951c1.572,5.892,11.836,15.997,17.199,18.309
							C88.227,221.632,105.923,203.858,103.217,197.064z"/>
					</g>
					<g>
						<g>
							<path style="fill:#2837A1;" d="M81.847,227.74c-0.103,0-0.205-0.042-0.279-0.124c-0.139-0.154-0.126-0.391,0.028-0.529
								c3.972-3.569,13.219-12.868,17.624-19.21c0.118-0.17,0.351-0.212,0.522-0.094c0.17,0.118,0.212,0.352,0.094,0.522
								c-4.439,6.394-13.744,15.751-17.739,19.34C82.026,227.708,81.936,227.74,81.847,227.74z"/>
						</g>
					</g>
				</g>
			</g>
		</g>
		<g>
			<g>
				<g>
					
						<rect x="122.45" y="134.028" transform="matrix(0.4399 0.898 -0.898 0.4399 277.4237 1.372)" style="fill:#EBB044;" width="30.324" height="178.154"/>
				</g>
				<g>
					<path style="fill:#2C2F37;" d="M55.807,281.096l-14.156-28.894c-0.478-0.977-0.075-2.156,0.902-2.635l5.353-2.622
						c0.977-0.478,2.156-0.075,2.635,0.902l14.156,28.894c0.478,0.977,0.075,2.156-0.902,2.635l-5.353,2.622
						C57.465,282.477,56.286,282.073,55.807,281.096z"/>
				</g>
				<g>
					<path style="fill:#DF646E;" d="M55.4,280.265l-13.341-27.232l-7.071,3.464c-6.487,3.178-9.17,11.013-5.992,17.5l1.832,3.74
						c3.178,6.487,11.013,9.17,17.501,5.992L55.4,280.265z"/>
				</g>
				<g>
					<polygon style="fill:#EBD7B3;" points="224.275,197.532 248.557,168.752 210.935,170.3 					"/>
				</g>
				<g>
					<polygon style="fill:#2C2F37;" points="236.654,169.242 240.943,177.997 248.557,168.752 					"/>
				</g>
				<g>
					
						<rect x="217.23" y="168.754" transform="matrix(0.898 -0.4399 0.4399 0.898 -58.7226 114.4896)" style="fill:#2C2F37;" width="0.75" height="30.324"/>
				</g>
				<g>
					
						<rect x="48.569" y="222.8" transform="matrix(0.898 -0.4399 0.4399 0.898 -84.1488 83.316)" style="fill:#2C2F37;" width="178.154" height="0.75"/>
				</g>
				<g>
					
						<rect x="44.064" y="213.604" transform="matrix(0.898 -0.4399 0.4399 0.898 -80.5626 80.3963)" style="fill:#2C2F37;" width="178.154" height="0.75"/>
				</g>
				<g>
					
						<rect x="53.006" y="231.856" transform="matrix(0.8981 -0.4398 0.4398 0.8981 -87.6631 86.1638)" style="fill:#2C2F37;" width="178.154" height="0.75"/>
				</g>
			</g>
			<g>
				<g>
					<g>
						<path style="fill:#C96742;" d="M107.682,243.455l-3.055,10.391c7.041,2.897,22.32,6.121,23.844,6.14
							c1.524,0.019,1.553-1.431,0.319-1.831c-1.234-0.401-8.048-2.619-8.048-2.619s9.478,1.296,10.812,1.371
							c1.334,0.075,2.3-1.199,0.417-1.891c-1.883-0.692-10.18-2.386-10.18-2.386s10.793,1.313,11.774,1.254
							c0.981-0.059,1.798-1.312,0.117-1.918c-1.681-0.606-11.425-2.553-11.425-2.553s9.24,0.495,10.264,0.468
							c1.023-0.027,1.648-1.292-0.331-1.856C130.21,247.461,111.139,243.636,107.682,243.455z"/>
					</g>
					<g>
						<path style="fill:#C96742;" d="M107.682,243.455c2.007-1.388,8.011-4.192,9.664-4.343c1.653-0.151,8.074,0.906,7.982,2.174
							c-0.092,1.268-3.282,1.859-5.506,1.176c-0.896,1.798-2.772,4.185-5.121,5.079
							C112.352,248.434,107.682,243.455,107.682,243.455z"/>
					</g>
					<g>
						<path style="fill:#9E401C;" d="M119.723,257.573c-0.079,0-0.158-0.024-0.226-0.076c-0.165-0.125-0.197-0.36-0.072-0.525
							c1.778-2.345,2.727-6.098,2.418-9.561c-0.019-0.206,0.134-0.388,0.34-0.407c0.196-0.023,0.388,0.133,0.407,0.34
							c0.325,3.638-0.682,7.595-2.567,10.081C119.949,257.522,119.837,257.573,119.723,257.573z"/>
					</g>
					<g>
						<path style="fill:#9E401C;" d="M118.107,245.554c-0.033,0-0.067-0.004-0.101-0.014c-2.668-0.743-5.413-1.325-8.16-1.73
							c-0.205-0.03-0.347-0.221-0.316-0.426c0.03-0.205,0.216-0.348,0.426-0.316c2.778,0.41,5.554,0.999,8.252,1.75
							c0.2,0.056,0.316,0.262,0.261,0.462C118.422,245.446,118.272,245.554,118.107,245.554z"/>
					</g>
				</g>
				<g>
					<g>
						<path style="fill:#C96742;" d="M107.682,243.455l-3.055,10.391c-8.264-1.206-46.336-5.4-53.757-12.029
							c-5.874-5.247,7.737-15.045,13.744-12.726C70.622,231.411,100.663,241.075,107.682,243.455z"/>
					</g>
					<g>
						<path style="fill:#9E401C;" d="M67.268,232.979c-0.156,0-0.301-0.098-0.355-0.253c-0.067-0.196,0.037-0.409,0.232-0.477
							c1.865-0.643,3.909-0.82,5.866-0.522c-0.992-0.918-2.144-1.561-3.38-1.881c-0.201-0.052-0.321-0.257-0.27-0.457
							c0.052-0.201,0.259-0.32,0.457-0.27c1.74,0.45,3.32,1.478,4.572,2.972c0.104,0.125,0.117,0.303,0.03,0.441
							c-0.087,0.138-0.255,0.202-0.411,0.163c-2.16-0.557-4.511-0.464-6.619,0.263C67.35,232.973,67.309,232.979,67.268,232.979z"/>
					</g>
				</g>
			</g>
			<g>
				<g>
					<path style="fill:#C96742;" d="M186.971,215.638c4.482,1.089,14.77-3.819,16.416-6.18c1.646-2.361-0.583-8.644-0.814-9.779
						c-0.232-1.135-2.571-1.012-2.497,0.51c0.074,1.522-0.19,4.321-0.19,4.321s-0.85-4.7-1.222-5.984
						c-0.372-1.284-2.509-0.821-2.476,0.86c0.033,1.681,0.36,7.547,0.36,7.547s-1.08-4.997-1.588-6.036
						c-0.508-1.039-2.403-0.77-2.453,1.014c-0.05,1.783,0.699,7.187,0.699,7.187s-1.221-4.243-1.76-5.434
						c-0.539-1.19-2.364-0.286-2.218,2.167c0.146,2.453,0.437,7.063,0.437,7.063C188.554,213.24,187.473,214.064,186.971,215.638z"
						/>
				</g>
				<g>
					<g>
						<path style="fill:#9E401C;" d="M188.423,216.166c-0.564,0-1.082-0.052-1.541-0.163c-0.202-0.049-0.325-0.252-0.276-0.453
							c0.049-0.202,0.251-0.326,0.453-0.276c2.94,0.713,8.967-1.359,13.096-3.777c0.179-0.105,0.409-0.044,0.513,0.134
							c0.105,0.179,0.044,0.408-0.134,0.513C196.93,214.255,191.842,216.166,188.423,216.166z"/>
					</g>
					<g>
						<path style="fill:#9E401C;" d="M193.464,211.107c-0.182,0-0.341-0.132-0.37-0.318l-0.302-1.953
							c-0.032-0.205,0.109-0.396,0.313-0.428c0.202-0.03,0.396,0.108,0.428,0.314l0.302,1.953c0.032,0.205-0.109,0.396-0.314,0.428
							C193.503,211.106,193.483,211.107,193.464,211.107z"/>
					</g>
					<g>
						<path style="fill:#9E401C;" d="M196.913,208.716c-0.179,0-0.337-0.128-0.369-0.311l-0.419-2.395
							c-0.036-0.204,0.101-0.398,0.305-0.434c0.202-0.034,0.398,0.101,0.434,0.305l0.419,2.395c0.036,0.204-0.101,0.398-0.305,0.434
							C196.956,208.714,196.934,208.716,196.913,208.716z"/>
					</g>
					<g>
						<path style="fill:#9E401C;" d="M200.227,206.558c-0.188,0-0.35-0.141-0.372-0.333l-0.277-2.434
							c-0.023-0.206,0.125-0.392,0.33-0.415c0.209-0.019,0.392,0.124,0.415,0.33l0.277,2.434c0.023,0.206-0.125,0.392-0.33,0.415
							C200.255,206.557,200.241,206.558,200.227,206.558z"/>
					</g>
				</g>
			</g>
		</g>
		<g>
			<g>
				<path style="fill:#2C2F37;" d="M142.178,143.298c-0.201,3.17-1.656,6.244-3.981,8.409c-0.264-2.95-0.362-5.773-0.159-8.728
					C139.465,142.94,140.756,143.18,142.178,143.298z"/>
			</g>
			<g>
				<g>
					<path style="fill:#C96742;" d="M131.682,171.141c-2.539,0.016-4.996-0.599-7.165-1.765c-2.163-1.155-4.037-2.806-5.443-4.882
						l-2.266-3.345v-20.077c0-4.19,3.443-7.562,7.628-7.47l6.876,0.158c4.064,0.087,5.781,3.699,7.301,7.464
						c1.842,4.544,0.36,7.421,0.512,12.302c0.016,0.561,0.055,1.144,0.12,1.749c0.027,0.24,0.06,0.485,0.093,0.736
						c0.016,0.12,0.038,0.245,0.055,0.37c0.033,0.223,0.076,0.452,0.12,0.686c0.038,0.218,0.076,0.425,0.104,0.632
						c0.016,0.087,0.033,0.169,0.044,0.256c0.071,0.496,0.131,0.97,0.169,1.433c0.044,0.441,0.065,0.877,0.076,1.291
						C140.133,168.717,135.06,171.125,131.682,171.141z"/>
				</g>
				<g>
					<g>
						<path style="fill:#C96742;" d="M131.272,179.365c0,0-2.392,4.359-8.774,4.359c-6.102,0-9.161-4.359-9.161-4.359l3.468-18.218
							l13.102,8.359l0.255,1.562l0.482,3.262L131.272,179.365z"/>
					</g>
					<g>
						<path style="fill:#2C2F37;" d="M130.644,174.33c-2.476-0.521-4.804-1.672-6.759-3.313c-1.924-1.609-3.454-3.691-4.416-5.993
							c1.341,1.83,3.076,3.297,5.047,4.353c1.735,0.931,3.643,1.514,5.646,1.688L130.644,174.33z"/>
					</g>
				</g>
				<g>
					<g>
						<path style="fill:#C96742;" d="M119.931,157.07c0,2.761-2.238,4.999-4.999,4.999c-2.761,0-5-2.238-5-4.999
							c0-2.761,2.238-4.999,5-4.999C117.693,152.07,119.931,154.309,119.931,157.07z"/>
					</g>
					<g>
						<g>
							<path style="fill:#9E401C;" d="M117.792,160.118c-0.196,0-0.361-0.153-0.373-0.351c-0.08-1.258-0.718-2.476-1.706-3.258
								c-0.989-0.781-2.322-1.122-3.563-0.908c-0.204,0.032-0.398-0.102-0.433-0.306c-0.035-0.204,0.102-0.398,0.306-0.433
								c1.448-0.248,3.002,0.147,4.155,1.059c1.153,0.912,1.896,2.332,1.989,3.798c0.013,0.207-0.144,0.385-0.35,0.398
								C117.808,160.118,117.8,160.118,117.792,160.118z"/>
						</g>
						<g>
							<path style="fill:#9E401C;" d="M112.77,159.41c-0.036,0-0.072-0.005-0.108-0.016c-0.198-0.06-0.311-0.269-0.251-0.467
								c0.481-1.605,1.845-2.814,3.474-3.082c0.209-0.032,0.397,0.105,0.431,0.31c0.034,0.204-0.105,0.397-0.31,0.431
								c-1.348,0.221-2.477,1.225-2.877,2.557C113.08,159.305,112.931,159.41,112.77,159.41z"/>
						</g>
					</g>
				</g>
				<g>
					<g>
						<path style="fill:#2C2F37;" d="M130.82,157.551c-0.143,0-0.28-0.083-0.342-0.222c-0.084-0.189,0-0.411,0.189-0.496
							c0.387-0.173,0.787-0.353,1.058-0.64c0.205-0.215,0.366-0.578,0.239-0.866c-0.067-0.152-0.216-0.289-0.373-0.435
							c-0.062-0.057-0.124-0.114-0.183-0.174c-0.529-0.53-0.894-1.285-1.054-2.183c-0.138-0.771-0.118-1.55-0.099-2.304
							c0.005-0.207,0.133-0.362,0.385-0.365c0.207,0.005,0.371,0.178,0.365,0.385c-0.019,0.716-0.038,1.456,0.087,2.152
							c0.093,0.52,0.315,1.253,0.847,1.785l0.161,0.153c0.197,0.182,0.421,0.388,0.55,0.682c0.268,0.605,0.002,1.283-0.38,1.686
							c-0.373,0.394-0.863,0.614-1.296,0.808C130.924,157.54,130.872,157.551,130.82,157.551z"/>
					</g>
					<g>
						<g>
							<g>
								<path style="fill:#2C2F37;" d="M132.936,146.572c-0.028,0.277,0.033,0.563,0.17,0.805c0.137,0.242,0.346,0.433,0.598,0.552
									c0.538-0.357,1.1-0.725,1.741-0.809c0.586-0.078,1.185,0.094,1.702,0.38c0.518,0.286,1,0.676,1.433,1.078
									c0.165-0.011,0.309-0.161,0.313-0.326c-0.497-1.009-1.485-1.871-2.61-2.196
									C135.159,145.732,133.931,145.954,132.936,146.572z"/>
							</g>
							<g>
								<path style="fill:#2C2F37;" d="M133.464,152.435c-0.047,0-0.095-0.009-0.141-0.027c-0.192-0.078-0.284-0.297-0.206-0.489
									c0.42-1.035,1.312-1.605,2.512-1.605c1.136,0,2.116,0.587,2.622,1.57c0.095,0.184,0.022,0.41-0.162,0.505
									c-0.184,0.096-0.411,0.022-0.505-0.162c-0.374-0.728-1.105-1.163-1.955-1.163c-0.887,0-1.515,0.393-1.816,1.137
									C133.752,152.347,133.611,152.435,133.464,152.435z"/>
							</g>
							<g>
								<path style="fill:#2C2F37;" d="M134.727,151.999c0,0.723,0.429,1.309,0.957,1.309c0.529,0,0.957-0.586,0.957-1.309
									c0-0.723-0.428-1.309-0.957-1.309C135.156,150.689,134.727,151.276,134.727,151.999z"/>
							</g>
						</g>
						<g>
							<g>
								<path style="fill:#2C2F37;" d="M128.455,146.572c0.028,0.277-0.033,0.563-0.17,0.805c-0.137,0.242-0.346,0.433-0.598,0.552
									c-0.538-0.357-1.1-0.725-1.741-0.809c-0.586-0.078-1.185,0.094-1.702,0.38c-0.518,0.286-1,0.676-1.433,1.078
									c-0.165-0.011-0.309-0.161-0.313-0.326c0.497-1.009,1.485-1.871,2.609-2.196
									C126.232,145.732,127.461,145.954,128.455,146.572z"/>
							</g>
							<g>
								<path style="fill:#2C2F37;" d="M127.928,152.435c-0.148,0-0.289-0.088-0.348-0.234c-0.302-0.744-0.93-1.137-1.816-1.137
									c-0.85,0-1.58,0.435-1.955,1.163c-0.095,0.184-0.32,0.258-0.505,0.162c-0.184-0.095-0.257-0.321-0.162-0.505
									c0.505-0.983,1.485-1.57,2.622-1.57c1.2,0,2.092,0.57,2.512,1.605c0.078,0.192-0.015,0.411-0.206,0.489
									C128.023,152.427,127.975,152.435,127.928,152.435z"/>
							</g>
							<g>
								<path style="fill:#2C2F37;" d="M124.75,151.999c0,0.723,0.428,1.309,0.957,1.309c0.529,0,0.957-0.586,0.957-1.309
									c0-0.723-0.429-1.309-0.957-1.309C125.178,150.689,124.75,151.276,124.75,151.999z"/>
							</g>
						</g>
					</g>
					<g>
						<g>
							<g>
								<path style="fill:#9E301C;" d="M126.7,157.07c0,0.472-1.152,0.854-2.572,0.854c-1.421,0-2.572-0.383-2.572-0.854
									c0-0.472,1.152-0.854,2.572-0.854C125.548,156.215,126.7,156.598,126.7,157.07z"/>
							</g>
						</g>
						<g>
							<g>
								<path style="fill:#9E301C;" d="M139.615,157.7c-0.458,0.142-1.063,0.223-1.727,0.223c-1.422,0-2.572-0.381-2.572-0.855
									c0-0.469,1.15-0.85,2.572-0.85c0.561,0,1.079,0.06,1.504,0.163c0.033,0.223,0.076,0.452,0.12,0.686
									C139.55,157.286,139.588,157.493,139.615,157.7z"/>
							</g>
						</g>
					</g>
				</g>
				<g>
					<path style="fill:#FFFFFF;" d="M126.516,162.014c3.022-1.315,6.561-1.394,9.639-0.215c-0.773,1.833-2.71,3.175-4.698,3.234
						C129.47,165.093,127.397,163.797,126.516,162.014z"/>
				</g>
			</g>
			<g>
				<path style="fill:#2C2F37;" d="M108.588,143.16c0.57,3.42,2.03,6.62,3.65,9.7c0.77-0.5,1.7-0.79,2.69-0.79
					c2.01,0,3.74,1.19,4.54,2.9c0.46-0.12,0.87-0.48,1.11-0.9c0.33-0.61,0.39-1.33,0.42-2.03c0.15-3.09,0.05-6.18-0.06-9.28
					c1.63-1.71,3.85-2.91,6.18-3.27c2.33-0.35,4.78,0.09,6.84,1.24c1.99,1.11,3.58,2.84,5.6,3.89c2.12,1.11,4.64,1.41,6.96,0.83
					c1.17-0.29,2.35-0.85,2.99-1.87c0.92-1.46,0.44-3.5-0.75-4.75c-1.2-1.25-2.93-1.83-4.64-2.09c1.28-0.41,2.54-1,3.26-2.13
					c0.71-1.12,0.65-2.82-0.43-3.61c-0.54-0.39-1.22-0.5-1.89-0.56c-2.18-0.18-4.41,0.16-6.44,0.98c0.63-0.6,1.18-1.35,1.63-2.1
					s0.7-1.66,0.46-2.5c-0.22-0.8-0.85-1.43-1.58-1.8c-0.73-0.37-1.57-0.49-2.39-0.49c-2.06-0.01-4.07,0.7-5.85,1.74
					c-1.78,1.04-3.35,2.4-4.88,3.78c0.69-1.01,0.69-2.48,0.12-3.56c-0.58-1.09-1.77-1.81-3-1.81c-0.98,0-1.92,0.43-2.68,1.05
					c-0.76,0.61-1.36,1.4-1.9,2.22c-2.15,3.23-3.53,6.9-4.89,10.54c-0.48-0.96-2.07-1.28-3.07-0.9c-1.01,0.38-1.7,1.35-1.98,2.38
					C108.338,141.01,108.418,142.1,108.588,143.16z"/>
			</g>
		</g>
	</g>
</g>
</svg>
