<?xml version="1.0" encoding="utf-8"?>
<!-- Generator: Adobe Illustrator 27.5.0, SVG Export Plug-In . SVG Version: 6.00 Build 0)  -->
<svg version="1.1" xmlns="http://www.w3.org/2000/svg" xmlns:xlink="http://www.w3.org/1999/xlink" x="0px" y="0px"
	 viewBox="0 0 750 500" style="enable-background:new 0 0 750 500;" xml:space="preserve">
<g id="BACKGROUND">
	<rect style="fill:#FFE1CC;" width="750" height="500"/>
</g>
<g id="OBJECTS">
	<path style="fill:#FFEEE3;" d="M181.522,383.566c-43.152-22.465-80.273-54.397-97.713-100.254
		c-16.934-44.525-13.635-96.759,12.304-136.98c25.94-40.221,75.098-66.311,123.737-62.02c64.388,5.681,117.63,59.564,182.282,59.858
		c34.319,0.156,66.431-14.992,97.992-28.094c31.561-13.102,66.252-24.624,99.642-16.915c25.358,5.855,47.318,22.731,61.268,44.131
		c13.95,21.399,20.247,47.005,20.441,72.338c1.525,199.862-266.432,242.067-419.974,198.76
		C234.612,406.805,207.014,396.837,181.522,383.566z"/>
	<g>
		<g>
			<path style="fill:#FFB552;" d="M692.158,340.542c-2.483-4.238-8.795-4.731-13.09-2.347c-4.294,2.383-6.563,6.678-10.812,10.403
				c12.033-13.559,24.223-27.349,32.073-43.69c1.638-3.409,3.105-7.058,2.935-10.836c-0.17-3.778-2.394-7.701-6.029-8.744
				c-4.609-1.323-9.109,2.224-12.349,5.758c-3.752,4.092-7.153,8.114-10.109,12.611c8.555-14.596,15.433-30.175,20.413-46.344
				c1.82-5.908,3.404-12.034,2.929-18.197c-0.474-6.163-2.98-12.095-8.294-15.253c-6.122-0.854-11.785,2.211-16.006,6.727
				c-4.221,4.516-6.812,10.288-9.083,16.038c-6.214,15.736-10.578,32.197-13.018,48.939c0.502-5.357,0.359-10.622-0.013-16.162
				c-0.321-4.784-1.619-10.365-6.044-12.212c-3.49-1.457-7.678,0.216-10.171,3.06s-3.628,6.61-4.479,10.294
				c-4.081,17.663-3.18,36.047-2.256,54.152c-0.99-5.563-0.078-10.334-1.941-14.878c-1.864-4.544-7.1-8.103-11.687-6.346
				c-2.756,1.056-4.616,3.757-5.415,6.598c-0.799,2.841-0.698,5.847-0.585,8.796c0.735,19.296,1.665,38.584,2.791,57.861
				c-0.322-3.77-1.151-7.982-3.253-11.129c-2.102-3.146-6.528-5.086-9.793-3.175c-3.331,1.95-3.769,6.539-3.522,10.391
				c1.127,17.587,10.151,33.753,22.425,46.398c17.484-2.204,34.63-9.188,46.499-22.215c2.599-2.853,5.125-6.71,3.742-10.314
				c-1.355-3.533-6.023-4.784-9.63-3.64c-3.607,1.143-6.886,3.914-9.493,6.657c12.923-14.348,25.701-28.826,38.332-43.433
				c1.93-2.232,3.888-4.516,5.039-7.233C693.414,346.36,693.65,343.089,692.158,340.542z"/>
			<path style="fill:#F78721;" d="M692.222,340.675c-5.542,5.43-11.236,10.706-17.104,15.783
				c-8.822,7.632-17.999,14.854-27.492,21.633c-4.924,3.516-9.943,6.898-15.032,10.172l15.244-43.448
				c0.072-0.018,0.144-0.052,0.214-0.11c9.222-7.629,18.104-15.668,26.608-24.091c8.448-8.368,16.525-17.112,24.199-26.195
				c1.182-1.399,2.33-2.826,3.492-4.241c-0.156-0.358-0.33-0.705-0.523-1.041c-4.57,5.58-9.272,11.052-14.14,16.375
				c-8.021,8.771-16.432,17.186-25.201,25.21c-4.561,4.174-9.23,8.228-13.979,12.187l41.674-118.775
				c-0.12-0.076-0.233-0.157-0.356-0.23c-0.227-0.032-0.453-0.047-0.679-0.068l-41.583,118.517
				c-1.214-5.978-2.312-11.98-3.253-18.008c-1.833-11.744-3.142-23.569-3.925-35.429c-0.473-7.169-0.725-14.35-0.808-21.534
				c-0.361,0.146-0.713,0.318-1.058,0.505c0.024,1.796,0.027,3.592,0.075,5.388c0.316,11.887,1.159,23.76,2.527,35.572
				c1.377,11.89,3.289,23.715,5.722,35.434c0.005,0.022,0.017,0.035,0.023,0.055l-15.233,43.417
				c-1.903-5.672-3.688-11.382-5.317-17.139c-3.176-11.224-5.829-22.597-7.948-34.068c-1.404-7.6-2.549-15.245-3.482-22.916
				c-0.355,0.152-0.693,0.331-1.017,0.535c0.313,2.558,0.63,5.116,0.996,7.667c1.662,11.587,3.866,23.097,6.601,34.479
				c2.685,11.172,5.893,22.215,9.585,33.096c-0.015,0.037-0.031,0.073-0.037,0.112l-11.148,31.774
				c-1.99-3.866-3.88-7.782-5.635-11.76c-3.401-7.709-6.353-15.617-8.83-23.671c-1.436-4.669-2.693-9.391-3.809-14.146
				c-0.359,0.009-0.715,0.053-1.066,0.126c0.293,1.251,0.569,2.507,0.885,3.753c2.073,8.18,4.623,16.24,7.629,24.125
				c2.994,7.854,6.448,15.529,10.331,22.983l-2.108,6.008c0.172,0.18,0.338,0.367,0.512,0.545c0.153-0.019,0.306-0.046,0.459-0.066
				l2.119-6.038c0.025-0.007,0.048-0.005,0.073-0.016c7.716-3.402,15.234-7.249,22.503-11.525c7.273-4.279,14.301-8.978,21.03-14.07
				c1.043-0.789,2.06-1.611,3.088-2.418c-0.234-0.273-0.492-0.522-0.773-0.75c-3.853,3.024-7.795,5.934-11.845,8.691
				c-6.966,4.741-14.212,9.07-21.684,12.965c-3.907,2.036-7.882,3.939-11.906,5.734l11.099-31.633
				c0.116-0.076,0.206-0.187,0.249-0.325c9.681-6.189,19.086-12.806,28.163-19.852c9.247-7.178,18.159-14.787,26.696-22.796
				c1.907-1.789,3.78-3.614,5.65-5.442C692.566,341.357,692.409,341.01,692.222,340.675z"/>
		</g>
		<g>
			<g>
				<path style="fill:#5FC5A9;" d="M148.611,208.157c-4.954,6.1-12.635,9.875-20.087,10.546c-0.339,0.048-0.673,0.072-1,0.088
					c-0.031-0.134-0.061-0.253-0.092-0.387c-1.718-7.756,0.563-16.646,5.929-23.024c5.284-6.292,13.421-9.953,21.143-9.577
					c0.238,0.01,0.477,0.02,0.717,0.045c0.027,0.226,0.062,0.46,0.072,0.673C156.157,194.111,153.625,201.982,148.611,208.157z"/>
				<path style="fill:#33896E;" d="M150.366,191.561c-7.997,8.451-15.291,17.538-21.842,27.142c-0.339,0.048-0.673,0.072-1,0.088
					c-0.031-0.134-0.061-0.253-0.092-0.387c7.949-11.691,17.011-22.642,27.072-32.601c0.238,0.01,0.477,0.02,0.717,0.045
					c0.027,0.226,0.062,0.46,0.072,0.673C153.622,188.174,151.978,189.862,150.366,191.561z"/>
			</g>
			<g>
				<path style="fill:#5FC5A9;" d="M153.846,233.02c-4.954,6.1-12.635,9.875-20.087,10.546c-0.339,0.048-0.673,0.072-1,0.088
					c-0.031-0.134-0.061-0.253-0.092-0.387c-1.718-7.756,0.563-16.646,5.929-23.024c5.284-6.292,13.421-9.953,21.143-9.577
					c0.238,0.01,0.477,0.02,0.717,0.045c0.027,0.227,0.062,0.46,0.072,0.673C161.393,218.974,158.861,226.844,153.846,233.02z"/>
				<path style="fill:#33896E;" d="M155.602,216.424c-7.997,8.451-15.291,17.538-21.842,27.142c-0.339,0.048-0.673,0.072-1,0.088
					c-0.031-0.134-0.061-0.253-0.092-0.387c7.949-11.691,17.011-22.642,27.072-32.601c0.238,0.01,0.477,0.02,0.717,0.045
					c0.027,0.227,0.062,0.46,0.072,0.673C158.858,213.037,157.214,214.725,155.602,216.424z"/>
			</g>
			<g>
				<path style="fill:#5FC5A9;" d="M161.514,256.329c-4.955,6.1-12.635,9.875-20.087,10.546c-0.339,0.048-0.673,0.072-1,0.088
					c-0.031-0.134-0.061-0.253-0.092-0.387c-1.718-7.756,0.563-16.646,5.929-23.024c5.284-6.292,13.421-9.953,21.143-9.577
					c0.239,0.01,0.477,0.02,0.717,0.045c0.027,0.226,0.062,0.459,0.072,0.673C169.061,242.282,166.529,250.153,161.514,256.329z"/>
				<path style="fill:#33896E;" d="M163.27,239.732c-7.997,8.451-15.291,17.538-21.842,27.142c-0.339,0.048-0.673,0.072-1,0.088
					c-0.031-0.134-0.061-0.253-0.092-0.387c7.949-11.691,17.011-22.642,27.072-32.601c0.239,0.01,0.477,0.02,0.717,0.045
					c0.027,0.226,0.062,0.459,0.072,0.673C166.526,236.345,164.882,238.033,163.27,239.732z"/>
			</g>
			<g>
				<path style="fill:#5FC5A9;" d="M172.226,279.49c-4.955,6.1-12.635,9.875-20.087,10.546c-0.339,0.048-0.673,0.072-1,0.088
					c-0.031-0.134-0.061-0.253-0.092-0.387c-1.718-7.756,0.563-16.646,5.929-23.024c5.284-6.292,13.422-9.953,21.143-9.577
					c0.238,0.01,0.477,0.02,0.717,0.045c0.027,0.226,0.062,0.46,0.072,0.673C179.772,265.443,177.24,273.314,172.226,279.49z"/>
				<path style="fill:#33896E;" d="M173.982,262.894c-7.997,8.451-15.291,17.539-21.842,27.142c-0.339,0.048-0.673,0.072-1,0.088
					c-0.031-0.134-0.061-0.253-0.092-0.387c7.949-11.691,17.012-22.642,27.072-32.601c0.238,0.01,0.477,0.02,0.717,0.045
					c0.027,0.226,0.062,0.46,0.072,0.673C177.238,259.507,175.594,261.194,173.982,262.894z"/>
			</g>
			<g>
				<path style="fill:#5FC5A9;" d="M184.872,299.664c-4.955,6.1-12.635,9.875-20.087,10.546c-0.339,0.048-0.673,0.072-1,0.088
					c-0.031-0.134-0.061-0.253-0.092-0.387c-1.718-7.756,0.563-16.646,5.929-23.024c5.284-6.292,13.421-9.953,21.143-9.577
					c0.238,0.01,0.477,0.02,0.717,0.045c0.027,0.227,0.062,0.46,0.072,0.673C192.418,285.618,189.886,293.488,184.872,299.664z"/>
				<path style="fill:#33896E;" d="M186.627,283.068c-7.997,8.451-15.291,17.539-21.842,27.142c-0.339,0.048-0.673,0.072-1,0.088
					c-0.031-0.134-0.061-0.253-0.092-0.387c7.949-11.691,17.012-22.642,27.072-32.601c0.238,0.01,0.477,0.02,0.717,0.045
					c0.027,0.227,0.062,0.46,0.072,0.673C189.883,279.681,188.239,281.368,186.627,283.068z"/>
			</g>
			<g>
				<path style="fill:#5FC5A9;" d="M200.081,319.499c-4.954,6.1-12.635,9.875-20.087,10.546c-0.339,0.048-0.673,0.072-1,0.088
					c-0.031-0.134-0.061-0.253-0.092-0.387c-1.718-7.756,0.563-16.646,5.929-23.024c5.284-6.292,13.421-9.953,21.143-9.577
					c0.239,0.01,0.477,0.02,0.717,0.045c0.027,0.226,0.062,0.46,0.072,0.673C207.627,305.453,205.095,313.323,200.081,319.499z"/>
				<path style="fill:#33896E;" d="M201.836,302.903c-7.997,8.451-15.291,17.538-21.842,27.142c-0.339,0.048-0.673,0.072-1,0.088
					c-0.031-0.134-0.061-0.253-0.092-0.387c7.949-11.691,17.012-22.642,27.072-32.601c0.239,0.01,0.477,0.02,0.717,0.045
					c0.027,0.226,0.062,0.46,0.072,0.673C205.092,299.516,203.448,301.204,201.836,302.903z"/>
			</g>
			<g>
				<path style="fill:#5FC5A9;" d="M215.311,335.257c-4.955,6.1-12.635,9.875-20.087,10.546c-0.339,0.048-0.673,0.072-1,0.088
					c-0.031-0.134-0.061-0.253-0.092-0.387c-1.718-7.756,0.563-16.646,5.929-23.024c5.284-6.292,13.421-9.953,21.143-9.577
					c0.238,0.01,0.477,0.02,0.717,0.045c0.027,0.226,0.062,0.46,0.072,0.673C222.857,321.211,220.325,329.082,215.311,335.257z"/>
				<path style="fill:#33896E;" d="M217.066,318.661c-7.997,8.451-15.291,17.539-21.842,27.142c-0.339,0.048-0.673,0.072-1,0.088
					c-0.031-0.134-0.061-0.253-0.092-0.387c7.949-11.691,17.011-22.641,27.072-32.601c0.238,0.01,0.477,0.02,0.717,0.045
					c0.027,0.226,0.062,0.46,0.072,0.673C220.322,315.274,218.678,316.962,217.066,318.661z"/>
			</g>
			<g>
				<path style="fill:#5FC5A9;" d="M233.173,350.586c-4.955,6.1-12.635,9.875-20.087,10.546c-0.339,0.048-0.673,0.072-1,0.088
					c-0.031-0.134-0.061-0.253-0.092-0.387c-1.718-7.756,0.563-16.646,5.929-23.024c5.284-6.292,13.421-9.953,21.143-9.577
					c0.238,0.01,0.477,0.02,0.717,0.045c0.027,0.227,0.062,0.46,0.072,0.673C240.72,336.54,238.188,344.41,233.173,350.586z"/>
				<path style="fill:#33896E;" d="M234.929,333.99c-7.997,8.451-15.291,17.539-21.842,27.142c-0.339,0.048-0.673,0.072-1,0.088
					c-0.031-0.134-0.061-0.253-0.092-0.387c7.949-11.691,17.011-22.642,27.072-32.601c0.238,0.01,0.477,0.02,0.717,0.045
					c0.027,0.227,0.062,0.46,0.072,0.673C238.185,330.603,236.541,332.291,234.929,333.99z"/>
			</g>
			<g>
				<path style="fill:#5FC5A9;" d="M103.896,213.32c6.948,3.671,15.494,4.135,22.613,1.832c0.33-0.089,0.647-0.197,0.954-0.311
					c-0.024-0.136-0.043-0.257-0.067-0.392c-1.459-7.809-7.041-15.094-14.476-18.86c-7.327-3.718-16.248-3.898-23.205-0.527
					c-0.215,0.102-0.431,0.205-0.642,0.322c0.064,0.219,0.123,0.447,0.197,0.647C91.449,203.354,96.862,209.603,103.896,213.32z"/>
				<path style="fill:#33896E;" d="M95.777,198.739c10.669,4.642,20.94,10.145,30.731,16.413c0.33-0.089,0.647-0.197,0.954-0.311
					c-0.024-0.136-0.043-0.257-0.067-0.392c-11.894-7.641-24.523-14.165-37.681-19.386c-0.215,0.102-0.431,0.205-0.642,0.322
					c0.064,0.219,0.123,0.447,0.197,0.647C91.454,196.898,93.628,197.807,95.777,198.739z"/>
			</g>
			<g>
				<path style="fill:#5FC5A9;" d="M109.101,239.027c6.949,3.671,15.494,4.135,22.613,1.832c0.33-0.089,0.647-0.197,0.954-0.311
					c-0.024-0.136-0.043-0.257-0.067-0.392c-1.459-7.809-7.041-15.094-14.476-18.86c-7.327-3.718-16.248-3.898-23.205-0.527
					c-0.215,0.103-0.431,0.205-0.642,0.322c0.064,0.219,0.123,0.447,0.197,0.647C96.654,229.061,102.068,235.31,109.101,239.027z"/>
				<path style="fill:#33896E;" d="M100.983,224.446c10.669,4.642,20.94,10.145,30.731,16.413c0.33-0.089,0.647-0.197,0.954-0.311
					c-0.024-0.136-0.043-0.257-0.067-0.392c-11.894-7.641-24.523-14.165-37.681-19.386c-0.215,0.103-0.431,0.205-0.642,0.322
					c0.064,0.219,0.123,0.447,0.197,0.647C96.66,222.606,98.834,223.514,100.983,224.446z"/>
			</g>
			<g>
				<path style="fill:#5FC5A9;" d="M117.796,265.846c6.948,3.671,15.494,4.135,22.613,1.832c0.33-0.089,0.647-0.197,0.954-0.311
					c-0.024-0.136-0.043-0.257-0.067-0.392c-1.459-7.809-7.041-15.094-14.476-18.86c-7.327-3.718-16.248-3.898-23.205-0.527
					c-0.215,0.103-0.431,0.205-0.642,0.322c0.064,0.219,0.123,0.447,0.197,0.647C105.349,255.88,110.762,262.129,117.796,265.846z"
					/>
				<path style="fill:#33896E;" d="M109.678,251.265c10.669,4.642,20.94,10.145,30.731,16.413c0.33-0.089,0.647-0.197,0.954-0.311
					c-0.024-0.136-0.043-0.257-0.067-0.392c-11.894-7.641-24.523-14.165-37.681-19.386c-0.215,0.103-0.431,0.205-0.642,0.322
					c0.064,0.219,0.123,0.447,0.197,0.647C105.355,249.424,107.529,250.333,109.678,251.265z"/>
			</g>
			<g>
				<path style="fill:#5FC5A9;" d="M128.432,293.206c7.516,2.296,15.995,1.142,22.553-2.461c0.308-0.149,0.598-0.315,0.879-0.485
					c-0.049-0.129-0.091-0.244-0.14-0.372c-2.904-7.394-9.758-13.497-17.77-15.795c-7.896-2.271-16.692-0.767-22.889,3.855
					c-0.192,0.141-0.385,0.283-0.57,0.438c0.104,0.203,0.205,0.416,0.315,0.599C114.33,285.763,120.824,290.88,128.432,293.206z"/>
				<path style="fill:#33896E;" d="M117.712,280.415c11.353,2.549,22.477,6.018,33.273,10.329c0.308-0.149,0.598-0.315,0.879-0.485
					c-0.049-0.129-0.091-0.244-0.14-0.372c-13.121-5.264-26.753-9.292-40.659-11.94c-0.192,0.141-0.385,0.283-0.57,0.438
					c0.104,0.203,0.205,0.416,0.315,0.599C113.119,279.422,115.426,279.905,117.712,280.415z"/>
			</g>
			<g>
				<path style="fill:#5FC5A9;" d="M141.92,317.188c7.748,1.312,16.009-0.921,22.051-5.335c0.286-0.188,0.553-0.39,0.809-0.594
					c-0.065-0.121-0.121-0.23-0.186-0.352c-3.829-6.96-11.41-12.133-19.65-13.384c-8.122-1.239-16.652,1.381-22.205,6.76
					c-0.173,0.165-0.345,0.33-0.509,0.507c0.129,0.188,0.257,0.386,0.39,0.553C126.98,311.616,134.077,315.858,141.92,317.188z"/>
				<path style="fill:#33896E;" d="M129.648,305.879c11.586,1.071,23.063,3.083,34.323,5.974c0.286-0.188,0.553-0.39,0.809-0.594
					c-0.065-0.121-0.121-0.23-0.186-0.352c-13.688-3.536-27.724-5.782-41.855-6.623c-0.173,0.165-0.345,0.33-0.509,0.507
					c0.129,0.188,0.257,0.386,0.39,0.553C124.966,305.483,127.315,305.666,129.648,305.879z"/>
			</g>
			<g>
				<path style="fill:#5FC5A9;" d="M159.641,340.382c7.833,0.63,15.868-2.316,21.5-7.241c0.269-0.212,0.517-0.436,0.754-0.662
					c-0.075-0.115-0.141-0.219-0.216-0.334c-4.422-6.599-12.426-11.09-20.744-11.615c-8.199-0.525-16.468,2.831-21.529,8.674
					c-0.158,0.179-0.315,0.359-0.463,0.55c0.145,0.176,0.289,0.362,0.436,0.517C144.271,336.137,151.712,339.743,159.641,340.382z"
					/>
				<path style="fill:#33896E;" d="M146.427,330.189c11.635,0.054,23.244,1.057,34.714,2.952c0.269-0.212,0.517-0.436,0.754-0.662
					c-0.075-0.115-0.141-0.219-0.216-0.334c-13.944-2.327-28.123-3.337-42.274-2.941c-0.158,0.179-0.315,0.359-0.463,0.55
					c0.145,0.176,0.289,0.362,0.436,0.517C141.729,330.203,144.085,330.181,146.427,330.189z"/>
			</g>
			<g>
				<path style="fill:#5FC5A9;" d="M178.022,361.385c7.736-1.383,14.757-6.276,18.951-12.472c0.206-0.273,0.389-0.554,0.561-0.832
					c-0.102-0.092-0.192-0.176-0.294-0.268c-5.955-5.257-14.838-7.565-23.017-5.957c-8.063,1.578-15.206,6.926-18.615,13.865
					c-0.107,0.213-0.214,0.427-0.308,0.649c0.185,0.133,0.372,0.277,0.554,0.389C162.078,361.189,170.191,362.783,178.022,361.385z"
					/>
				<path style="fill:#33896E;" d="M162.65,354.888c11.266-2.907,22.748-4.891,34.323-5.974c0.206-0.273,0.389-0.554,0.561-0.832
					c-0.102-0.092-0.192-0.176-0.294-0.268c-14.078,1.297-28.047,3.926-41.631,7.908c-0.107,0.213-0.214,0.427-0.308,0.649
					c0.185,0.133,0.372,0.277,0.554,0.389C158.11,356.097,160.383,355.476,162.65,354.888z"/>
			</g>
			<g>
				<path style="fill:#5FC5A9;" d="M197.623,379.024c6.882-3.793,11.96-10.682,13.943-17.896c0.107-0.325,0.19-0.649,0.264-0.968
					c-0.126-0.055-0.238-0.105-0.365-0.159c-7.328-3.067-16.482-2.4-23.711,1.749c-7.13,4.083-12.177,11.442-13.177,19.108
					c-0.033,0.236-0.065,0.473-0.083,0.714c0.218,0.067,0.441,0.143,0.649,0.191C182.46,383.958,190.655,382.863,197.623,379.024z"
					/>
				<path style="fill:#33896E;" d="M180.978,377.806c9.736-6.37,19.974-11.936,30.588-16.679c0.107-0.325,0.19-0.649,0.264-0.968
					c-0.126-0.055-0.238-0.105-0.365-0.159c-12.916,5.748-25.301,12.723-36.888,20.857c-0.033,0.236-0.065,0.473-0.083,0.714
					c0.218,0.067,0.441,0.143,0.649,0.191C177.067,380.41,179.02,379.091,180.978,377.806z"/>
			</g>
			<g>
				<path style="fill:#5FC5A9;" d="M135.482,179.085c-0.118,7.857-3.805,15.575-9.244,20.713c-0.236,0.247-0.484,0.473-0.731,0.688
					c-0.108-0.086-0.204-0.161-0.312-0.247c-6.148-5.031-9.868-13.425-9.599-21.756c0.269-8.223,4.386-16.134,10.695-20.616
					c0.193-0.14,0.387-0.269,0.58-0.398c0.172,0.161,0.333,0.322,0.484,0.495C132.731,163.392,135.611,171.142,135.482,179.085z"/>
				<path style="fill:#33896E;" d="M281.765,397.074c-2.279-0.699-4.536-1.419-6.793-2.182
					c-18.391-6.256-35.934-14.995-52.057-25.819c-16.027-10.749-30.688-23.562-43.437-38.051
					c-13.361-15.178-24.583-32.182-33.247-50.466c-9.008-19.004-15.296-39.287-18.671-60.044
					c-1.096-6.718-1.881-13.479-2.365-20.273c-1-14.113-0.645-28.313,1.096-42.372c0.193-0.14,0.387-0.269,0.58-0.398
					c0.172,0.161,0.333,0.322,0.484,0.495c-0.29,2.332-0.548,4.665-0.763,6.997c-1.043,11.587-1.161,23.239-0.355,34.837
					c0.645,9.352,1.881,18.671,3.698,27.872c4.063,20.606,11.007,40.652,20.67,59.302c9.137,17.628,20.713,33.945,34.3,48.424
					c13.178,14.06,28.195,26.399,44.533,36.632c16.392,10.254,34.107,18.381,52.605,24.003
					C282.711,396.236,282.421,397.268,281.765,397.074z"/>
			</g>
		</g>
		<g>
			<path style="fill:#FFB552;" d="M199.674,344.503c-0.77,1.071-1.26,1.59-1.26,1.59s-1.03-0.414-2.742-1.321
				c-11.871-6.212-56.488-34.85-22.989-100.048c0.53-1.056,1.097-2.122,1.695-3.234c0.682,0.493,1.364,0.987,1.961,1.46
				C237.926,288.493,206.629,335.509,199.674,344.503z"/>
			<path style="fill:#F78721;" d="M207.242,332.05c-0.975,0.586-1.967,1.146-2.977,1.671c-2.422,1.259-4.935,2.337-7.518,3.221
				l-3.389-14.751c0.005-0.002,0.009-0.001,0.014-0.004c7.995-3.816,15.019-9.576,20.406-16.599
				c0.013-0.582,0.017-1.169,0.013-1.759c-3.669,5.048-8.18,9.487-13.31,13.037c-2.339,1.618-4.803,3.046-7.363,4.283l-3.405-14.819
				c0.036-0.016,0.073-0.025,0.109-0.05c8.342-6.045,15.215-14.079,19.945-23.228c-0.17-0.439-0.353-0.88-0.535-1.321
				c-3.322,6.648-7.744,12.74-13.099,17.909c-2.093,2.02-4.324,3.89-6.667,5.612l-4.152-18.068c0.006-0.005,0.013-0.006,0.019-0.011
				c6.472-5.954,11.419-13.5,14.394-21.771c-0.251-0.33-0.496-0.66-0.755-0.99c-2.027,5.866-5.049,11.388-8.939,16.231
				c-1.531,1.906-3.207,3.692-4.988,5.366l-3.997-17.393c0.037-0.03,0.076-0.056,0.107-0.1c3.35-4.689,5.803-9.969,7.295-15.515
				c-0.287-0.269-0.577-0.538-0.87-0.807c-1.385,5.367-3.691,10.484-6.843,15.068l-5.834-25.392
				c-0.175-0.127-0.347-0.253-0.523-0.381c-0.152,0.282-0.295,0.554-0.443,0.831l5.744,24.997c-4.75-2.734-8.985-6.289-12.52-10.452
				c-0.147,0.373-0.284,0.74-0.426,1.11c3.746,4.32,8.234,7.987,13.267,10.741l4.002,17.414c-2.259-0.715-4.475-1.567-6.616-2.582
				c-5.62-2.663-10.754-6.316-15.142-10.715c-0.089,0.411-0.166,0.814-0.247,1.221c6.241,6.102,13.923,10.707,22.276,13.253
				l4.158,18.094c-2.789-0.523-5.543-1.217-8.241-2.099c-7.081-2.315-13.725-5.871-19.62-10.408c0.029,0.48,0.064,0.956,0.103,1.428
				c8.229,6.154,17.893,10.377,28.011,12.183l3.408,14.83c-2.777-0.006-5.55-0.211-8.295-0.636
				c-6.167-0.955-12.165-2.981-17.671-5.923c0.254,0.533,0.513,1.059,0.779,1.577c7.86,3.941,16.628,6.054,25.428,6.027l3.394,14.77
				c-2.646,0.315-5.312,0.437-7.976,0.364c-1.146-0.031-2.289-0.103-3.43-0.206c0.489,0.391,0.971,0.764,1.45,1.128
				c3.394,0.209,6.806,0.133,10.189-0.27l1.75,7.615c0.454,0.208,0.705,0.309,0.705,0.309s0.124-0.132,0.344-0.397l-1.778-7.738
				c3.273-1.12,6.433-2.547,9.442-4.24C206.697,333.178,206.97,332.621,207.242,332.05z"/>
		</g>
		<g>
			<path style="fill:#5FC5A9;" d="M619.786,429.443c-1.315-0.098-2.014-0.245-2.014-0.245s-0.184-1.094-0.304-3.028
				c-0.896-13.368,0.248-66.372,73.346-71.823c1.177-0.1,2.382-0.171,3.643-0.242c-0.065,0.84-0.13,1.679-0.222,2.434
				C687.526,432.843,631.087,430.682,619.786,429.443z"/>
			<path style="fill:#33896E;" d="M634.358,429.4c-1.009-0.526-2.004-1.079-2.98-1.667c-2.338-1.409-4.569-2.99-6.67-4.732
				l10.814-10.589c0.004,0.003,0.006,0.007,0.01,0.01c7.428,4.829,16.006,7.814,24.809,8.745c0.503-0.293,1.006-0.595,1.507-0.908
				c-6.221-0.495-12.361-2.026-18.067-4.55c-2.601-1.15-5.104-2.508-7.496-4.046l10.864-10.639c0.033,0.023,0.059,0.05,0.099,0.067
				c9.51,3.961,19.95,5.631,30.223,4.891c0.286-0.374,0.566-0.76,0.848-1.146c-7.404,0.636-14.909,0.043-22.113-1.828
				c-2.815-0.731-5.575-1.658-8.267-2.758l13.246-12.971c0.008,0.002,0.012,0.008,0.019,0.01c8.457,2.413,17.475,2.696,26.083,0.916
				c0.151-0.386,0.304-0.767,0.451-1.161c-6.062,1.332-12.349,1.636-18.511,0.845c-2.425-0.311-4.823-0.809-7.18-1.455
				l12.751-12.486c0.045,0.016,0.087,0.035,0.141,0.039c5.748,0.411,11.532-0.252,17.042-1.874c0.08-0.385,0.157-0.773,0.234-1.163
				c-5.301,1.62-10.87,2.323-16.425,2.026l18.615-18.228c0.017-0.215,0.035-0.428,0.052-0.645c-0.32,0.018-0.627,0.037-0.94,0.056
				l-18.326,17.945c-0.147-5.479,0.675-10.947,2.382-16.135c-0.395,0.069-0.78,0.144-1.169,0.216
				c-1.73,5.45-2.516,11.192-2.238,16.922L661.4,385.611c-0.569-2.3-0.998-4.635-1.251-6.991
				c-0.662-6.184-0.224-12.469,1.238-18.508c-0.397,0.139-0.781,0.284-1.171,0.426c-1.948,8.509-1.867,17.464,0.32,25.918
				l-13.265,12.989c-1.009-2.652-1.855-5.363-2.51-8.125c-1.72-7.248-2.155-14.771-1.361-22.167
				c-0.394,0.275-0.782,0.553-1.164,0.833c-0.955,10.231,0.487,20.679,4.226,30.252l-10.872,10.646
				c-1.444-2.372-2.716-4.845-3.786-7.408c-2.404-5.759-3.806-11.933-4.17-18.165c-0.323,0.495-0.636,0.99-0.939,1.488
				c0.74,8.761,3.514,17.343,8.129,24.836l-10.828,10.603c-1.649-2.093-3.145-4.303-4.473-6.613
				c-0.571-0.994-1.107-2.007-1.615-3.033c-0.078,0.621-0.145,1.227-0.205,1.825c1.593,3.004,3.439,5.875,5.548,8.551l-5.583,5.467
				c0.059,0.496,0.104,0.763,0.104,0.763s0.177,0.037,0.518,0.086l5.673-5.555c2.663,2.208,5.53,4.158,8.544,5.841
				C633.111,429.523,633.729,429.466,634.358,429.4z"/>
		</g>
	</g>
	<g>
		<g>
			<path style="fill:#7B85E8;" d="M636.626,429.823H503.951c-3.43,0-6.21-2.78-6.21-6.21V237.423c0-3.43,2.78-6.21,6.21-6.21
				h132.676c3.43,0,6.21,2.781,6.21,6.21v186.189C642.837,427.042,640.056,429.823,636.626,429.823z"/>
			<path style="fill:#FFFFFF;" d="M628.984,422.002H511.593c-3.301,0-5.977-2.676-5.977-5.977V243.639
				c0-3.301,2.676-5.977,5.977-5.977h117.392c3.301,0,5.977,2.676,5.977,5.977v172.385
				C634.962,419.326,632.286,422.002,628.984,422.002z"/>
			<path style="fill:#4D52A8;" d="M605.101,224.582h-15.755c-0.787-5.32-5.359-9.406-10.897-9.406h-2.336
				c0.498-0.931,0.807-1.978,0.807-3.108c0-3.662-2.969-6.631-6.631-6.631c-3.662,0-6.631,2.969-6.631,6.631
				c0,1.13,0.309,2.177,0.807,3.108h-2.336c-5.539,0-10.11,4.086-10.897,9.406h-15.755c-4.745,0-8.592,3.847-8.592,8.592v7.887
				h86.809v-7.887C613.693,228.429,609.846,224.582,605.101,224.582z"/>
			<g>
				<g>
					<rect x="552.501" y="258.508" style="fill:#CDD7FF;" width="72.221" height="3.961"/>
					<rect x="552.501" y="269.909" style="fill:#CDD7FF;" width="72.221" height="3.961"/>
					<rect x="552.501" y="281.311" style="fill:#CDD7FF;" width="72.221" height="3.961"/>
					<rect x="515.855" y="258.508" style="fill:#CDD7FF;" width="26.764" height="26.764"/>
				</g>
				<g>
					<rect x="515.855" y="300.888" style="fill:#CDD7FF;" width="108.866" height="3.961"/>
					<rect x="515.855" y="312.879" style="fill:#CDD7FF;" width="108.866" height="3.961"/>
					<rect x="515.855" y="324.871" style="fill:#CDD7FF;" width="108.866" height="3.961"/>
					<rect x="515.855" y="336.862" style="fill:#CDD7FF;" width="108.866" height="3.961"/>
					<rect x="515.855" y="348.853" style="fill:#CDD7FF;" width="108.866" height="3.961"/>
					<rect x="515.855" y="360.845" style="fill:#CDD7FF;" width="108.866" height="3.961"/>
					<rect x="515.855" y="372.836" style="fill:#CDD7FF;" width="108.866" height="3.961"/>
					<rect x="515.855" y="384.828" style="fill:#CDD7FF;" width="108.866" height="3.961"/>
					<rect x="515.855" y="396.819" style="fill:#CDD7FF;" width="108.866" height="3.961"/>
					<rect x="515.855" y="408.811" style="fill:#CDD7FF;" width="108.866" height="3.961"/>
				</g>
			</g>
		</g>
		<g>
			<path style="fill:none;stroke:#383D84;stroke-width:7;stroke-miterlimit:10;" d="M212.589,315.821h-53.941v-12.509
				c0-5.22,4.232-9.451,9.451-9.451h35.038c5.22,0,9.451,4.232,9.451,9.451V315.821z"/>
			<path style="fill:#7B85E8;" d="M265.164,429.823H106.072c-4.007,0-7.255-3.248-7.255-7.255v-103.94
				c0-4.007,3.248-7.255,7.255-7.255h159.091c4.007,0,7.255,3.248,7.255,7.255v103.94
				C272.419,426.574,269.171,429.823,265.164,429.823z"/>
			<path style="fill:#6265CE;" d="M270.794,376.759H100.442c-3.384,0-6.128-2.744-6.128-6.128V316.22
				c0-3.384,2.744-6.128,6.128-6.128h170.352c3.384,0,6.128,2.744,6.128,6.128v54.411
				C276.922,374.015,274.179,376.759,270.794,376.759z"/>
			<rect x="124.537" y="310.092" style="fill:#4D52A8;" width="12.832" height="119.731"/>
			
				<rect x="233.868" y="310.092" transform="matrix(-1 -1.224647e-16 1.224647e-16 -1 480.5667 739.9144)" style="fill:#4D52A8;" width="12.832" height="119.731"/>
			<g>
				<rect x="180.108" y="326.863" style="fill:#FFFFFF;" width="11.021" height="33.125"/>
				
					<rect x="180.108" y="326.863" transform="matrix(-1.836970e-16 1 -1 -1.836970e-16 529.0435 157.8074)" style="fill:#FFFFFF;" width="11.021" height="33.125"/>
			</g>
		</g>
	</g>
	<g>
		<g>
			<path style="fill:#D35D57;" d="M524.945,254.85l-0.008-0.001c1.964-7.418,3.023-15.205,3.023-23.241
				c0-50.022-40.551-90.573-90.573-90.573c-30.172,0-56.88,14.766-73.34,37.452c-16.46-22.686-43.168-37.452-73.34-37.452
				c-50.022,0-90.573,40.551-90.573,90.573c0,8.036,1.059,15.823,3.023,23.241l-0.008,0.001c0.092,0.332,0.196,0.658,0.289,0.989
				c0.296,1.068,0.597,2.133,0.93,3.185C236.363,364.665,364.047,431.15,364.047,431.15s127.683-66.484,159.678-172.124
				c0.335-1.055,0.637-2.123,0.933-3.194C524.75,255.503,524.854,255.179,524.945,254.85z"/>
			<g>
				<path style="fill:#BF4340;" d="M407.247,403.74c-0.134-0.56-0.283-1.117-0.462-1.669c-1.895-5.835-7.226-11.036-13.35-10.685
					c-6.021,0.345-11.388,5.774-17.272,4.449c-4.692-1.056-7.463-6.214-7.621-11.02c-0.157-4.806,1.631-9.428,2.969-14.047
					c1.862-6.427,2.881-13.286,1.389-19.809c-1.492-6.523-5.86-12.658-12.16-14.912c-13.412-4.798-27.426,9.042-41.444,6.509
					c-6.67-1.205-12.053-5.916-17.778-9.544c-9.53-6.04-21.026-9.344-32.219-7.921c-8.292,1.054-16.319,4.899-22.097,10.859
					c49.159,59.945,116.846,95.201,116.846,95.201S382.56,421.504,407.247,403.74z"/>
				<path style="fill:#BF4340;" d="M204.905,202.527c1.9,0.387,3.847,0.551,5.808,0.444c7.429-0.406,14.286-4.002,21.562-5.555
					s16.255-0.247,19.829,6.278c2.598,4.744,1.387,10.827-1.535,15.378c-2.922,4.551-7.298,7.933-11.473,11.372
					c-7.841,6.457-15.614,13.996-18.133,23.836c-2.519,9.841,2.538,22.227,12.518,24.126c5.809,1.105,11.641-1.44,17.535-1.91
					c8.715-0.695,17.168,3.189,24.462,8.009s13.929,10.675,21.674,14.731c7.745,4.056,17.136,6.159,25.241,2.882
					s13.682-13.308,9.92-21.2c-3.198-6.707-11.152-9.341-18.12-11.918c-6.969-2.577-14.672-6.979-15.478-14.366
					c-0.97-8.889,8.59-15.1,17.119-17.786c8.529-2.686,18.558-5.013,22.525-13.027c4.205-8.495-0.978-18.718-7.533-25.565
					c-6.555-6.846-14.814-12.552-18.624-21.231c-3.683-8.389-2.52-18.058-4.447-27.016c-0.584-2.713-1.699-5.463-3.213-7.922
					c-4.51-0.692-9.129-1.051-13.833-1.051C250.858,141.036,217.02,166.771,204.905,202.527z"/>
				<path style="fill:#BF4340;" d="M460.983,333.681c-0.497-9.42-9.184-16.772-10.151-26.156
					c-1.513-14.685,16.14-26.564,13.765-41.134c-1.648-10.111-13.312-16.365-23.422-14.707
					c-10.109,1.658-18.328,9.319-23.737,18.019c-4.729,7.607-8.368,16.785-16.389,20.774c-7.382,3.671-17.598,2.399-22.545,8.994
					c-3.498,4.664-2.583,11.182-1.321,16.873c1.491,6.724,3.297,13.526,7.059,19.295c3.695,5.667,10.731,11.898,17.953,10.282
					c8.018-1.794,12.803-7.593,21.829-4.713c6.511,2.078,11.726,7.497,18.448,8.734C451.76,351.651,461.481,343.112,460.983,333.681
					z"/>
				<path style="fill:#BF4340;" d="M524.658,255.831c0.092-0.328,0.196-0.652,0.287-0.981l-0.008-0.001
					c1.964-7.418,3.023-15.205,3.023-23.241c0-2.07-0.076-4.122-0.213-6.158c-3.176-2.094-6.559-3.837-10.172-5.061
					c-9.138-3.096-19.921-2.459-27.594,3.391c-7.673,5.85-11.046,17.428-6.149,25.742c2.261,3.839,5.899,6.627,8.986,9.84
					c3.087,3.212,5.792,7.345,5.373,11.781c-0.658,6.969-8.28,10.912-11.762,16.984c-4.241,7.395-1.573,17.197,4.034,23.618
					c1.529,1.752,3.237,3.303,5.062,4.715c11.955-17.504,21.923-36.712,28.199-57.436
					C524.059,257.97,524.361,256.902,524.658,255.831z"/>
				<path style="fill:#BF4340;" d="M378.617,236.174c2.961,4.578,8.02,7.493,13.299,8.86c19.452,5.035,31.88-5.472,40.228-22.332
					c6.564-13.258,15.25-43.252,33.977-24.503c4.647,4.653,11.835,8.26,18.739,6.408c8.409-2.255,12.111-11.674,15.818-18.642
					c2.066-3.885,4.398-7.785,7.537-10.804c-16.596-20.796-42.154-34.124-70.828-34.124c-25.815,0-49.088,10.816-65.583,28.147
					c3.623,7.88,8.213,20.203,8.458,21.93C382.356,205.839,369.611,222.249,378.617,236.174z"/>
			</g>
		</g>
		<g>
			<g>
				<path style="fill:#A9B3FF;" d="M372.689,248.282h-17.283c-12.237,0-22.817-8.301-25.729-20.186l-21.241-86.691
					c-0.802-3.271-0.069-6.667,2.01-9.317c2.079-2.65,5.203-4.17,8.571-4.17h5.013c1.095,0,1.983,0.888,1.983,1.983
					c0,1.095-0.888,1.983-1.983,1.983h-5.013c-2.142,0-4.129,0.966-5.451,2.652c-1.322,1.685-1.788,3.845-1.279,5.925l21.241,86.691
					c2.476,10.106,11.473,17.164,21.878,17.164h17.283c10.405,0,19.401-7.058,21.878-17.164l21.24-86.691
					c0.509-2.08,0.044-4.24-1.278-5.925c-1.322-1.685-3.309-2.652-5.451-2.652h-5.013c-1.095,0-1.983-0.888-1.983-1.983
					c0-1.095,0.888-1.983,1.983-1.983h5.013c3.368,0,6.492,1.52,8.572,4.17c2.079,2.65,2.811,6.046,2.009,9.317l-21.24,86.691
					C395.506,239.982,384.925,248.282,372.689,248.282z"/>
				<path style="fill:#252A5E;" d="M372.689,250.265h-17.283c-13.153,0-24.525-8.922-27.655-21.698
					c-0.521-2.127,0.781-4.274,2.909-4.796c2.128-0.518,4.274,0.781,4.796,2.909c2.258,9.216,10.462,15.653,19.951,15.653h17.283
					c9.489,0,17.693-6.437,19.952-15.653c0.522-2.127,2.668-3.426,4.796-2.908c2.127,0.521,3.429,2.669,2.908,4.796
					C397.214,241.343,385.841,250.265,372.689,250.265z"/>
				<path style="fill:#252A5E;" d="M332.512,123.389c-2.252,0-4.237,1.143-5.406,2.881c-0.721-0.313-1.533-0.507-2.409-0.507
					c-2.83,0-5.125,1.853-5.125,4.138c0,2.286,2.294,4.138,5.125,4.138c0.876,0,1.688-0.194,2.409-0.507
					c1.169,1.738,3.154,2.881,5.406,2.881c3.597,0,3.881-2.916,3.881-6.512C336.392,126.305,336.108,123.389,332.512,123.389z"/>
				<path style="fill:#252A5E;" d="M395.583,123.389c2.252,0,4.237,1.143,5.406,2.881c0.721-0.313,1.533-0.507,2.41-0.507
					c2.83,0,5.125,1.853,5.125,4.138c0,2.286-2.294,4.138-5.125,4.138c-0.876,0-1.688-0.194-2.41-0.507
					c-1.169,1.738-3.154,2.881-5.406,2.881c-3.597,0-3.881-2.916-3.881-6.512C391.702,126.305,391.986,123.389,395.583,123.389z"/>
			</g>
			<path style="fill:#252A5E;" d="M492.806,270.387H378.403c-5.729,0-10.39-4.661-10.39-10.391v-13.697
				c0-2.19-1.776-3.966-3.966-3.966c-2.19,0-3.966,1.776-3.966,3.966v13.697c0,10.103,8.219,18.322,18.322,18.322h114.402
				c14.062,0,25.501,11.44,25.501,25.501c0,14.061-11.44,25.502-25.501,25.502h-6.651c-2.079,2.691-4.199,5.334-6.353,7.932h13.005
				c18.435,0,33.433-14.999,33.433-33.434C526.238,285.385,511.241,270.387,492.806,270.387z"/>
		</g>
		<g>
			<path style="fill:#252A5E;" d="M364.047,316.297c-2.19,0-3.966,1.776-3.966,3.966v23.676c0,8.464-6.886,15.35-15.351,15.35
				h-94.843c-6.076,0-11.018-4.943-11.018-11.018c0-5.567,4.155-10.171,9.525-10.904c-1.833-2.208-3.643-4.444-5.422-6.72
				c-7.035,2.771-12.034,9.618-12.034,17.624c0,10.449,8.501,18.95,18.95,18.95h94.843c12.838,0,23.283-10.444,23.283-23.282
				v-23.676C368.013,318.073,366.237,316.297,364.047,316.297z"/>
			<g>
				
					<ellipse transform="matrix(0.7071 -0.7071 0.7071 0.7071 -115.3609 349.3705)" style="fill:#A9B3FF;" cx="364.047" cy="313.938" rx="25.736" ry="25.736"/>
				
					<ellipse transform="matrix(0.161 -0.987 0.987 0.161 -4.4053 622.6943)" style="fill:#7B85E8;" cx="364.047" cy="313.938" rx="16.193" ry="16.194"/>
			</g>
		</g>
	</g>
	<g>
		<g>
			<path style="fill:#FFB552;" d="M432.332,429.823h-48.369c-2.788,0-5.047-2.26-5.047-5.047V334.4c0-2.788,2.26-5.047,5.047-5.047
				h48.369c2.788,0,5.047,2.26,5.047,5.047v90.376C437.38,427.563,435.12,429.823,432.332,429.823z"/>
			<g>
				<path style="fill:#4D52A8;" d="M439.508,334.237h-62.719c-1.096,0-1.984-0.888-1.984-1.984v-21.244
					c0-1.096,0.888-1.984,1.984-1.984h62.719c1.096,0,1.984,0.888,1.984,1.984v21.244
					C441.491,333.349,440.603,334.237,439.508,334.237z"/>
				<g>
					<rect x="407.446" y="311.285" style="fill:#383D84;" width="1.404" height="20.692"/>
					<rect x="404.031" y="311.285" style="fill:#383D84;" width="1.404" height="20.692"/>
					<rect x="400.615" y="311.285" style="fill:#383D84;" width="1.404" height="20.692"/>
					<rect x="397.199" y="311.285" style="fill:#383D84;" width="1.404" height="20.692"/>
					<rect x="393.784" y="311.285" style="fill:#383D84;" width="1.404" height="20.692"/>
					<rect x="390.368" y="311.285" style="fill:#383D84;" width="1.404" height="20.692"/>
					<rect x="386.952" y="311.285" style="fill:#383D84;" width="1.404" height="20.692"/>
					<rect x="383.537" y="311.285" style="fill:#383D84;" width="1.404" height="20.692"/>
					<rect x="380.121" y="311.285" style="fill:#383D84;" width="1.404" height="20.692"/>
					<rect x="376.706" y="311.285" style="fill:#383D84;" width="1.404" height="20.692"/>
					
						<rect x="410.862" y="311.285" transform="matrix(-1 -1.224647e-16 1.224647e-16 -1 823.1275 643.2622)" style="fill:#383D84;" width="1.404" height="20.692"/>
					
						<rect x="414.277" y="311.285" transform="matrix(-1 -1.224647e-16 1.224647e-16 -1 829.9587 643.2622)" style="fill:#383D84;" width="1.404" height="20.692"/>
					
						<rect x="417.693" y="311.285" transform="matrix(-1 -1.224647e-16 1.224647e-16 -1 836.7901 643.2622)" style="fill:#383D84;" width="1.404" height="20.692"/>
					
						<rect x="421.109" y="311.285" transform="matrix(-1 -1.224647e-16 1.224647e-16 -1 843.6213 643.2622)" style="fill:#383D84;" width="1.404" height="20.692"/>
					
						<rect x="424.525" y="311.285" transform="matrix(-1 -1.224647e-16 1.224647e-16 -1 850.4527 643.2622)" style="fill:#383D84;" width="1.404" height="20.692"/>
					
						<rect x="427.94" y="311.285" transform="matrix(-1 -1.224647e-16 1.224647e-16 -1 857.2839 643.2622)" style="fill:#383D84;" width="1.404" height="20.692"/>
					
						<rect x="431.356" y="311.285" transform="matrix(-1 -1.224647e-16 1.224647e-16 -1 864.1151 643.2622)" style="fill:#383D84;" width="1.404" height="20.692"/>
					
						<rect x="434.771" y="311.285" transform="matrix(-1 -1.224647e-16 1.224647e-16 -1 870.9465 643.2622)" style="fill:#383D84;" width="1.404" height="20.692"/>
					
						<rect x="438.187" y="311.285" transform="matrix(-1 -1.224647e-16 1.224647e-16 -1 877.7777 643.2622)" style="fill:#383D84;" width="1.404" height="20.692"/>
				</g>
			</g>
			<g>
				<rect x="405.434" y="348.936" style="fill:#FFFFFF;" width="31.945" height="8.141"/>
				<rect x="405.434" y="368.609" style="fill:#FFFFFF;" width="31.945" height="46.267"/>
			</g>
		</g>
		<g>
			<g>
				<path style="fill:#5FC5A9;" d="M485.49,352.757v-6.844h-16.039v6.844c0,2.751-1.66,5.23-4.204,6.277l-4.196,1.727
					c-4.203,1.73-6.946,5.826-6.946,10.372v49.787c0,4.917,3.986,8.902,8.902,8.902h28.926c4.917,0,8.902-3.986,8.902-8.902v-49.787
					c0-4.545-2.743-8.641-6.946-10.371l-4.196-1.727C487.15,357.987,485.49,355.508,485.49,352.757z"/>
				<g>
					<rect x="454.105" y="373.479" style="fill:#252A5E;" width="46.731" height="42.839"/>
					<g>
						<rect x="471.451" y="378.93" style="fill:#FFB552;" width="29.385" height="5.507"/>
						<rect x="471.451" y="390.677" style="fill:#FFB552;" width="29.385" height="20.191"/>
					</g>
				</g>
			</g>
			<g>
				<rect x="464.967" y="337.915" style="fill:#383D84;" width="25.006" height="12.727"/>
				<g>
					<rect x="476.694" y="339.159" style="fill:#252A5E;" width="1.552" height="10.423"/>
					<rect x="473.296" y="339.159" style="fill:#252A5E;" width="1.552" height="10.423"/>
					<rect x="469.899" y="339.159" style="fill:#252A5E;" width="1.552" height="10.423"/>
					<rect x="466.501" y="339.159" style="fill:#252A5E;" width="1.552" height="10.423"/>
					
						<rect x="480.091" y="339.159" transform="matrix(-1 -1.224647e-16 1.224647e-16 -1 961.7354 688.742)" style="fill:#252A5E;" width="1.552" height="10.423"/>
					
						<rect x="483.489" y="339.159" transform="matrix(-1 -1.224647e-16 1.224647e-16 -1 968.5307 688.742)" style="fill:#252A5E;" width="1.552" height="10.423"/>
					
						<rect x="486.887" y="339.159" transform="matrix(-1 -1.224647e-16 1.224647e-16 -1 975.326 688.742)" style="fill:#252A5E;" width="1.552" height="10.423"/>
				</g>
			</g>
		</g>
		<g>
			<g>
				<path style="fill:#5FC5A9;" d="M91.614,385.171c0.354,0.051,0.548,0.052,0.548,0.052s0.113-0.279,0.257-0.785
					c1.017-3.491,3.807-17.607-15.25-23.317c-0.306-0.095-0.622-0.184-0.952-0.277c-0.032,0.226-0.064,0.453-0.083,0.658
					C73.461,382.12,88.546,384.84,91.614,385.171z"/>
				<path style="fill:#33896E;" d="M76.134,361.504l15.48,23.668c0.354,0.051,0.548,0.052,0.548,0.052s0.113-0.279,0.257-0.785
					l-15.25-23.317c-0.306-0.095-0.622-0.184-0.952-0.277C76.186,361.072,76.154,361.298,76.134,361.504z"/>
			</g>
			<path style="fill:#D35D57;" d="M78.432,380.026c8.735,0,13.732,4.575,13.732,4.575s4.997-4.575,13.732-4.575
				s15.792,6.383,11.466,29.376c-3.22,17.117-15.836,20.399-18.874,20.419c-2.925,0.019-6.048-0.913-6.324-0.99
				c-0.276,0.077-3.399,1.009-6.324,0.99c-3.038-0.02-15.654-3.302-18.874-20.419C62.64,386.409,69.697,380.026,78.432,380.026z"/>
		</g>
		<g>
			<g>
				<path style="fill:#5FC5A9;" d="M282.423,389.044c-0.353,0.051-0.546,0.052-0.546,0.052s-0.112-0.278-0.256-0.782
					c-1.014-3.478-3.793-17.543,15.195-23.232c0.305-0.095,0.619-0.184,0.948-0.276c0.032,0.226,0.063,0.451,0.083,0.656
					C300.511,386.004,285.48,388.714,282.423,389.044z"/>
				<path style="fill:#33896E;" d="M297.847,365.462l-15.424,23.582c-0.353,0.051-0.546,0.052-0.546,0.052s-0.112-0.278-0.256-0.782
					l15.195-23.232c0.305-0.095,0.619-0.184,0.948-0.276C297.795,365.032,297.827,365.257,297.847,365.462z"/>
			</g>
			
				<ellipse transform="matrix(0.3877 -0.9218 0.9218 0.3877 -203.7536 510.0345)" style="fill:#FFB552;" cx="282.053" cy="408.393" rx="21.429" ry="21.429"/>
		</g>
	</g>
	<g>
		<g>
			<path style="fill:#BF4340;" d="M349.27,85.681l-13.654,13.655c-2.282,2.282-5.983,2.282-8.265,0l0,0
				c-2.282-2.282-2.282-5.983,0-8.265l13.655-13.655c2.282-2.282,5.982-2.282,8.265,0l0,0
				C351.553,79.698,351.553,83.399,349.27,85.681z"/>
			<path style="fill:#FFFFFF;" d="M341.006,77.416l-6.827,6.827l8.265,8.265l6.827-6.827c2.282-2.282,2.282-5.982,0-8.265
				C346.988,75.134,343.288,75.134,341.006,77.416z"/>
		</g>
		<g>
			<path style="fill:#BF4340;" d="M703.417,369.226l14.363,12.908c2.4,2.157,2.598,5.852,0.44,8.253l0,0
				c-2.157,2.401-5.852,2.598-8.253,0.44l-14.362-12.908c-2.401-2.157-2.598-5.852-0.44-8.253l0,0
				C697.322,367.266,701.017,367.068,703.417,369.226z"/>
			<path style="fill:#FFFFFF;" d="M695.605,377.919l7.181,6.454l7.813-8.693l-7.181-6.454c-2.401-2.157-6.096-1.96-8.253,0.44
				C693.007,372.067,693.204,375.762,695.605,377.919z"/>
		</g>
		<g>
			<path style="fill:#6265CE;" d="M176.182,154.116V139.22c0-2.49,2.018-4.508,4.508-4.508l0,0c2.49,0,4.508,2.018,4.508,4.508
				v14.896c0,2.49-2.018,4.508-4.508,4.508l0,0C178.2,158.624,176.182,156.605,176.182,154.116z"/>
			<path style="fill:#FFFFFF;" d="M185.198,154.116v-7.448h-9.016v7.448c0,2.49,2.018,4.508,4.508,4.508
				C183.18,158.624,185.198,156.605,185.198,154.116z"/>
		</g>
		<g>
			<path style="fill:#6265CE;" d="M694.19,392.314v12.971c0,2.168-1.758,3.926-3.926,3.926h0c-2.168,0-3.926-1.758-3.926-3.926
				v-12.971c0-2.168,1.758-3.926,3.926-3.926l0,0C692.432,388.389,694.19,390.146,694.19,392.314z"/>
			<path style="fill:#FFFFFF;" d="M686.339,392.314v6.486h7.851v-6.486c0-2.168-1.758-3.926-3.926-3.926
				C688.096,388.389,686.339,390.146,686.339,392.314z"/>
		</g>
		<g>
			<path style="fill:#5FC5A9;" d="M75.824,255.479l-10.241-10.241c-1.712-1.712-1.712-4.487,0-6.199v0
				c1.712-1.712,4.487-1.712,6.199,0l10.241,10.241c1.712,1.712,1.712,4.487,0,6.199h0
				C80.311,257.191,77.535,257.191,75.824,255.479z"/>
			<path style="fill:#FFFFFF;" d="M82.022,249.28l-5.12-5.12l-6.199,6.199l5.12,5.12c1.712,1.712,4.487,1.712,6.199,0
				C83.734,253.767,83.734,250.992,82.022,249.28z"/>
		</g>
		<g>
			<path style="fill:#5FC5A9;" d="M666.699,187.438l-10.241,10.241c-1.712,1.712-4.487,1.712-6.198,0l0,0
				c-1.712-1.712-1.712-4.487,0-6.199l10.241-10.241c1.712-1.712,4.487-1.712,6.198,0l0,0
				C668.41,182.951,668.41,185.726,666.699,187.438z"/>
			<path style="fill:#FFFFFF;" d="M660.5,181.239l-5.12,5.12l6.199,6.199l5.12-5.12c1.712-1.712,1.712-4.487,0-6.199
				C664.987,179.528,662.212,179.528,660.5,181.239z"/>
		</g>
		<path style="fill:none;stroke:#D35D57;stroke-miterlimit:10;" d="M228.731,111.21L228.731,111.21
			c0.263-0.996,0.399-2.043,0.385-3.125c-0.078-6.214-5.146-11.326-11.359-11.453c-3.965-0.081-7.486,1.828-9.638,4.795
			c-2.153-2.967-5.674-4.877-9.639-4.795c-6.213,0.127-11.281,5.239-11.359,11.453c-0.014,1.082,0.123,2.129,0.386,3.125l-0.001,0
			c0.012,0.042,0.025,0.084,0.037,0.127c0.038,0.137,0.077,0.273,0.119,0.408c3.15,10.4,13.539,17.838,18.181,20.725
			c1.394,0.867,3.156,0.867,4.55,0c4.642-2.887,15.031-10.324,18.181-20.725c0.043-0.135,0.081-0.272,0.119-0.409
			C228.706,111.293,228.719,111.252,228.731,111.21z"/>
		<path style="fill:none;stroke:#D35D57;stroke-miterlimit:10;" d="M58.822,341.099L58.822,341.099
			c0.114-0.434,0.174-0.89,0.168-1.361c-0.034-2.706-2.241-4.931-4.946-4.987c-1.726-0.035-3.259,0.796-4.197,2.088
			c-0.937-1.292-2.47-2.123-4.197-2.088c-2.705,0.055-4.912,2.281-4.946,4.987c-0.006,0.471,0.053,0.927,0.168,1.361h0
			c0.005,0.019,0.011,0.037,0.016,0.055c0.016,0.06,0.033,0.119,0.052,0.178c1.371,4.528,5.895,7.767,7.916,9.024
			c0.607,0.377,1.374,0.377,1.981,0c2.021-1.257,6.545-4.495,7.916-9.024c0.019-0.059,0.036-0.118,0.052-0.178
			C58.812,341.136,58.817,341.118,58.822,341.099z"/>
		<path style="fill:none;stroke:#D35D57;stroke-miterlimit:10;" d="M723.311,269.694L723.311,269.694
			c0.157-0.597,0.239-1.224,0.231-1.872c-0.047-3.723-3.083-6.786-6.806-6.862c-2.375-0.049-4.485,1.095-5.775,2.873
			c-1.29-1.778-3.399-2.922-5.775-2.873c-3.722,0.076-6.759,3.139-6.806,6.862c-0.008,0.648,0.073,1.276,0.231,1.872h-0.001
			c0.007,0.026,0.015,0.051,0.022,0.076c0.023,0.082,0.046,0.164,0.071,0.244c1.887,6.231,8.112,10.688,10.893,12.417
			c0.835,0.519,1.891,0.519,2.726,0c2.781-1.729,9.006-6.186,10.893-12.417c0.026-0.081,0.049-0.163,0.072-0.245
			C723.297,269.745,723.304,269.72,723.311,269.694z"/>
		<polygon style="fill:#FFFFFF;" points="481.542,189.133 474.916,189.133 474.916,182.508 468.309,182.508 468.309,189.133 
			461.684,189.133 461.684,195.74 468.309,195.74 468.309,202.366 474.916,202.366 474.916,195.74 481.542,195.74 		"/>
		<polygon style="fill:#FFFFFF;" points="236.202,232.29 226.832,232.29 226.832,222.919 217.488,222.919 217.488,232.29 
			208.118,232.29 208.118,241.633 217.488,241.633 217.488,251.004 226.832,251.004 226.832,241.633 236.202,241.633 		"/>
		<polygon style="fill:#FFFFFF;" points="516.716,155.74 506.119,155.74 506.119,145.144 495.552,145.144 495.552,155.74 
			484.956,155.74 484.956,166.307 495.552,166.307 495.552,176.904 506.119,176.904 506.119,166.307 516.716,166.307 		"/>
		<polygon style="fill:#D35D57;" points="398.603,68.718 391.026,68.718 391.026,61.14 383.469,61.14 383.469,68.718 
			375.892,68.718 375.892,76.274 383.469,76.274 383.469,83.852 391.026,83.852 391.026,76.274 398.603,76.274 		"/>
		<polygon style="fill:#D35D57;" points="624.722,125.383 611.248,125.383 611.248,111.909 597.811,111.909 597.811,125.383 
			584.337,125.383 584.337,138.82 597.811,138.82 597.811,152.294 611.248,152.294 611.248,138.82 624.722,138.82 		"/>
		<polygon style="fill:#D35D57;" points="79.721,281.154 71.414,281.154 71.414,272.847 63.13,272.847 63.13,281.154 
			54.823,281.154 54.823,289.438 63.13,289.438 63.13,297.745 71.414,297.745 71.414,289.438 79.721,289.438 		"/>
	</g>
</g>
</svg>
