<?xml version="1.0" encoding="utf-8"?>
<!-- Generator: Adobe Illustrator 27.5.0, SVG Export Plug-In . SVG Version: 6.00 Build 0)  -->
<svg version="1.1" id="Ñëîé_1" xmlns="http://www.w3.org/2000/svg" xmlns:xlink="http://www.w3.org/1999/xlink" x="0px" y="0px"
	 viewBox="0 0 700 500" style="enable-background:new 0 0 700 500;" xml:space="preserve">
<linearGradient id="SVGID_1_" gradientUnits="userSpaceOnUse" x1="-1.846842e-05" y1="250" x2="700" y2="250">
	<stop  offset="0" style="stop-color:#6594F0"/>
	<stop  offset="1" style="stop-color:#77C9F7"/>
</linearGradient>
<rect x="0" style="fill:url(#SVGID_1_);" width="700" height="500"/>
<linearGradient id="SVGID_00000128482576213033351230000016568886594466055580_" gradientUnits="userSpaceOnUse" x1="216.245" y1="324.3098" x2="838.7146" y2="210.3156">
	<stop  offset="0" style="stop-color:#80BCF5"/>
	<stop  offset="1" style="stop-color:#A6D0F9"/>
</linearGradient>
<path style="fill:url(#SVGID_00000128482576213033351230000016568886594466055580_);" d="M501.716,460.815
	c33.939-36.782,54.681-85.925,54.681-139.918C556.397,206.907,463.99,114.5,350,114.5s-206.397,92.407-206.397,206.397
	c0,53.994,20.742,103.136,54.681,139.918H501.716z"/>
<g>
	
		<linearGradient id="SVGID_00000171714705262052044870000007448616114024155026_" gradientUnits="userSpaceOnUse" x1="151.3669" y1="325.447" x2="503.8495" y2="268.4498">
		<stop  offset="0" style="stop-color:#80BCF5"/>
		<stop  offset="1" style="stop-color:#A6D0F9"/>
	</linearGradient>
	<path style="fill:url(#SVGID_00000171714705262052044870000007448616114024155026_);" d="M528.967,464.563H171.033l-0.901-1.159
		c-31.277-40.246-47.809-88.506-47.809-139.563c0-60.814,23.683-117.99,66.685-160.992C232.011,119.847,289.185,96.164,350,96.164
		c60.814,0,117.989,23.683,160.991,66.685c43.003,43.002,66.686,100.177,66.686,160.992c0,51.056-16.532,99.316-47.809,139.563
		L528.967,464.563z M173.975,458.563h352.05c29.872-38.95,45.651-85.5,45.651-134.722c0-122.233-99.443-221.677-221.677-221.677
		c-122.233,0-221.676,99.444-221.676,221.677C128.324,373.063,144.103,419.612,173.975,458.563z"/>
</g>
<circle style="opacity:0.24;fill:#FFFFFF;" cx="563.332" cy="225.331" r="14.345"/>
<ellipse transform="matrix(0.2298 -0.9732 0.9732 0.2298 223.1784 492.6291)" style="opacity:0.24;fill:#FFFFFF;" cx="422.821" cy="105.316" rx="16.863" ry="16.863"/>
<linearGradient id="SVGID_00000090258895015061646410000007066039554362615692_" gradientUnits="userSpaceOnUse" x1="44.7442" y1="470.7753" x2="556.2178" y2="457.276">
	<stop  offset="0" style="stop-color:#5185D6"/>
	<stop  offset="1" style="stop-color:#73A8F0"/>
</linearGradient>
<rect x="100.261" y="458.229" style="fill:url(#SVGID_00000090258895015061646410000007066039554362615692_);" width="498" height="9.018"/>
<polygon style="fill:#6593F0;" points="393.928,454.562 306.928,454.562 311.928,417.562 388.928,417.562 "/>
<path style="fill:#80BCF5;stroke:#FFFFFF;stroke-width:2;stroke-miterlimit:10;" d="M507.805,419.562h-315.61
	c-3.204,0-5.801-2.597-5.801-5.801V184.363c0-3.204,2.597-5.801,5.801-5.801h315.61c3.204,0,5.801,2.597,5.801,5.801v229.398
	C513.606,416.965,511.009,419.562,507.805,419.562z"/>
<path style="fill:#FFFFFF;" d="M186.394,385.562v28.199c0,3.204,2.597,5.801,5.801,5.801h315.61c3.204,0,5.801-2.597,5.801-5.801
	v-28.199H186.394z"/>
<rect x="196.928" y="189.562" style="fill:#1CA2E5;" width="305" height="185"/>
<circle style="fill:#91D4E0;" cx="350.428" cy="405.062" r="7.5"/>
<path style="fill:#FFFFFF;" d="M401.928,458.229h-106l0,0c0-5.523,4.477-10,10-10h86
	C397.451,448.229,401.928,452.706,401.928,458.229L401.928,458.229z"/>
<circle style="fill:none;stroke:#FFFFFF;stroke-width:2;stroke-miterlimit:10;" cx="350.428" cy="184.399" r="2.333"/>
<ellipse transform="matrix(0.2325 -0.9726 0.9726 0.2325 -178.4579 337.1234)" style="opacity:0.24;fill:#FFFFFF;" cx="124.377" cy="281.635" rx="27.638" ry="27.638"/>
<circle style="opacity:0.24;fill:#FFFFFF;" cx="49.073" cy="401.831" r="13.819"/>
<circle style="opacity:0.24;fill:#FFFFFF;" cx="653.21" cy="268.164" r="9.397"/>
<circle style="fill:#5685E5;" cx="66.669" cy="239.675" r="10.407"/>
<g>
	<defs>
		<rect id="SVGID_00000075869598464419942920000003437655373497440420_" x="66.669" width="130.258" height="66.164"/>
	</defs>
	<clipPath id="SVGID_00000151540225549728368080000006064151692009479329_">
		<use xlink:href="#SVGID_00000075869598464419942920000003437655373497440420_"  style="overflow:visible;"/>
	</clipPath>
	
		<ellipse transform="matrix(0.2314 -0.9729 0.9729 0.2314 83.1821 114.1508)" style="opacity:0.24;clip-path:url(#SVGID_00000151540225549728368080000006064151692009479329_);fill:#FFFFFF;" cx="113.836" cy="4.43" rx="16.863" ry="16.863"/>
</g>
<g>
	<defs>
		<rect id="SVGID_00000072980731574085610940000006231838894082545083_" x="563.332" y="412.562" width="136.668" height="45.667"/>
	</defs>
	<clipPath id="SVGID_00000131369286088439125030000017186549972105886592_">
		<use xlink:href="#SVGID_00000072980731574085610940000006231838894082545083_"  style="overflow:visible;"/>
	</clipPath>
	
		<ellipse transform="matrix(0.7071 -0.7071 0.7071 0.7071 -135.4485 589.4566)" style="clip-path:url(#SVGID_00000131369286088439125030000017186549972105886592_);fill:#8BC3F6;" cx="643.813" cy="458.229" rx="27.638" ry="27.638"/>
</g>
<g>
	<polygon style="fill:#F2EB27;" points="282.845,114.32 144.236,114.32 144.236,185.518 239.925,185.518 271.929,206.056 
		257.493,185.518 282.845,185.518 	"/>
</g>
<polygon style="fill:#FEFEFE;" points="466.201,287.659 466.201,292.159 448.927,292.159 466.201,307.091 466.201,350.326 
	533.534,350.326 533.534,287.659 "/>
<g>
	<path style="fill:#AEE6FD;" d="M495.761,336.409c0-2.27,1.577-3.91,3.721-3.91c2.271,0,3.722,1.64,3.722,3.91
		c0,2.207-1.451,3.909-3.722,3.909C497.275,340.318,495.761,338.616,495.761,336.409z M497.339,327.391l-0.883-30.272h6.054
		l-0.883,30.272H497.339z"/>
</g>
<rect x="328.061" y="230.352" style="fill:#FEFDFE;" width="33.06" height="37.812"/>
<rect x="328.061" y="230.352" style="fill:#DAF7FB;" width="33.06" height="25.642"/>
<ellipse transform="matrix(0.2298 -0.9732 0.9732 0.2298 143.2945 432.0248)" style="fill:#0682B8;" cx="344.591" cy="125.482" rx="28.198" ry="28.198"/>
<path style="fill:#0591C4;" d="M378.337,228.489c-42.346,1.299-23.908-1.407-66.255-0.108l-14.026-39.333
	c-11.71-32.839,11.592-68.217,46.438-69.331c0.597-0.019,1.196-0.029,1.797-0.029h0c1.183,0,2.358,0.037,3.522,0.111
	c34.275,2.158,54.598,39.269,39.087,69.909C382.368,202.613,376.089,218.479,378.337,228.489z"/>
<path style="fill:#FEFEFE;" d="M345.262,247.295L345.262,247.295c-8.559,0-16.364-3.644-22.884-8.761
	c-12.194-9.572-19.288-24.245-19.871-39.737l-0.262-6.972c-0.969-25.756,18.572-47.193,43.017-47.193h0
	c24.446,0,43.986,21.437,43.017,47.193l-0.208,5.522c-0.519,13.791-5.799,27.084-15.314,37.081
	C365.772,241.765,356.674,247.295,345.262,247.295z"/>
<path style="fill:#0591C4;" d="M312.609,180.898c0,0,11.34-4.79,17.337-2.576c1.199,0.443,2.52-0.3,2.52-1.461l0,0
	c0-0.81-0.672-1.491-1.57-1.591C327.037,174.84,317.081,174.436,312.609,180.898z"/>
<path style="fill:#0591C4;" d="M379.31,180.898c0,0-11.34-4.79-17.337-2.576c-1.199,0.443-2.52-0.3-2.52-1.461l0,0
	c0-0.81,0.671-1.491,1.57-1.591C364.882,174.84,374.837,174.436,379.31,180.898z"/>
<g style="opacity:0.08;">
	<g>
		<g>
			<circle style="fill:#FFFFFF;" cx="442.777" cy="193.174" r="3.534"/>
			<circle style="fill:#FFFFFF;" cx="454.716" cy="193.174" r="3.534"/>
			<circle style="fill:#FFFFFF;" cx="466.655" cy="193.174" r="3.534"/>
			<circle style="fill:#FFFFFF;" cx="478.594" cy="193.174" r="3.534"/>
			<circle style="fill:#FFFFFF;" cx="490.533" cy="193.174" r="3.534"/>
		</g>
		<g>
			<circle style="fill:#FFFFFF;" cx="442.777" cy="205.065" r="3.534"/>
			<circle style="fill:#FFFFFF;" cx="454.716" cy="205.065" r="3.534"/>
			<circle style="fill:#FFFFFF;" cx="466.655" cy="205.065" r="3.534"/>
			<circle style="fill:#FFFFFF;" cx="478.594" cy="205.065" r="3.534"/>
			<circle style="fill:#FFFFFF;" cx="490.533" cy="205.065" r="3.534"/>
		</g>
		<g>
			<circle style="fill:#FFFFFF;" cx="442.777" cy="216.955" r="3.534"/>
			<circle style="fill:#FFFFFF;" cx="454.716" cy="216.955" r="3.534"/>
			<circle style="fill:#FFFFFF;" cx="466.655" cy="216.955" r="3.534"/>
			<circle style="fill:#FFFFFF;" cx="478.594" cy="216.955" r="3.534"/>
			<circle style="fill:#FFFFFF;" cx="490.533" cy="216.955" r="3.534"/>
		</g>
		<g>
			<path style="fill:#FFFFFF;" d="M446.311,228.845c0,1.952-1.582,3.534-3.534,3.534s-3.534-1.582-3.534-3.534
				c0-1.952,1.582-3.534,3.534-3.534S446.311,226.894,446.311,228.845z"/>
			<path style="fill:#FFFFFF;" d="M458.25,228.845c0,1.952-1.582,3.534-3.534,3.534s-3.534-1.582-3.534-3.534
				c0-1.952,1.582-3.534,3.534-3.534S458.25,226.894,458.25,228.845z"/>
			<path style="fill:#FFFFFF;" d="M470.189,228.845c0,1.952-1.582,3.534-3.534,3.534c-1.952,0-3.534-1.582-3.534-3.534
				c0-1.952,1.582-3.534,3.534-3.534C468.607,225.312,470.189,226.894,470.189,228.845z"/>
			<path style="fill:#FFFFFF;" d="M482.128,228.845c0,1.952-1.582,3.534-3.534,3.534s-3.534-1.582-3.534-3.534
				c0-1.952,1.582-3.534,3.534-3.534S482.128,226.894,482.128,228.845z"/>
			<path style="fill:#FFFFFF;" d="M494.066,228.845c0,1.952-1.582,3.534-3.534,3.534c-1.952,0-3.534-1.582-3.534-3.534
				c0-1.952,1.582-3.534,3.534-3.534C492.484,225.312,494.066,226.894,494.066,228.845z"/>
		</g>
		<g>
			<circle style="fill:#FFFFFF;" cx="442.777" cy="240.736" r="3.534"/>
			<circle style="fill:#FFFFFF;" cx="454.716" cy="240.736" r="3.534"/>
			<circle style="fill:#FFFFFF;" cx="466.655" cy="240.736" r="3.534"/>
			<circle style="fill:#FFFFFF;" cx="478.594" cy="240.736" r="3.534"/>
			<circle style="fill:#FFFFFF;" cx="490.533" cy="240.736" r="3.534"/>
		</g>
		<g>
			<circle style="fill:#FFFFFF;" cx="442.777" cy="252.626" r="3.534"/>
			<circle style="fill:#FFFFFF;" cx="454.716" cy="252.626" r="3.534"/>
			<circle style="fill:#FFFFFF;" cx="466.655" cy="252.626" r="3.534"/>
			<circle style="fill:#FFFFFF;" cx="478.594" cy="252.626" r="3.534"/>
			<circle style="fill:#FFFFFF;" cx="490.533" cy="252.626" r="3.534"/>
		</g>
		<g>
			<circle style="fill:#FFFFFF;" cx="442.777" cy="264.516" r="3.534"/>
			<circle style="fill:#FFFFFF;" cx="454.716" cy="264.516" r="3.534"/>
			<circle style="fill:#FFFFFF;" cx="466.655" cy="264.516" r="3.534"/>
			<circle style="fill:#FFFFFF;" cx="478.594" cy="264.516" r="3.534"/>
			<circle style="fill:#FFFFFF;" cx="490.533" cy="264.516" r="3.534"/>
		</g>
		<g>
			<circle style="fill:#FFFFFF;" cx="442.777" cy="276.406" r="3.534"/>
			<circle style="fill:#FFFFFF;" cx="454.716" cy="276.406" r="3.534"/>
			<circle style="fill:#FFFFFF;" cx="466.655" cy="276.406" r="3.534"/>
			<circle style="fill:#FFFFFF;" cx="478.594" cy="276.406" r="3.534"/>
			<circle style="fill:#FFFFFF;" cx="490.533" cy="276.406" r="3.534"/>
		</g>
		<g>
			<circle style="fill:#FFFFFF;" cx="442.777" cy="288.297" r="3.534"/>
			<circle style="fill:#FFFFFF;" cx="454.716" cy="288.297" r="3.534"/>
			<circle style="fill:#FFFFFF;" cx="466.655" cy="288.297" r="3.534"/>
			<circle style="fill:#FFFFFF;" cx="478.594" cy="288.297" r="3.534"/>
			<circle style="fill:#FFFFFF;" cx="490.533" cy="288.297" r="3.534"/>
		</g>
		<g>
			<circle style="fill:#FFFFFF;" cx="442.777" cy="300.187" r="3.534"/>
			<circle style="fill:#FFFFFF;" cx="454.716" cy="300.187" r="3.534"/>
			<circle style="fill:#FFFFFF;" cx="466.655" cy="300.187" r="3.534"/>
			<circle style="fill:#FFFFFF;" cx="478.594" cy="300.187" r="3.534"/>
			<circle style="fill:#FFFFFF;" cx="490.533" cy="300.187" r="3.534"/>
		</g>
		<g>
			<circle style="fill:#FFFFFF;" cx="442.777" cy="312.077" r="3.534"/>
			<circle style="fill:#FFFFFF;" cx="454.716" cy="312.077" r="3.534"/>
			<circle style="fill:#FFFFFF;" cx="466.655" cy="312.077" r="3.534"/>
			<circle style="fill:#FFFFFF;" cx="478.594" cy="312.077" r="3.534"/>
			<circle style="fill:#FFFFFF;" cx="490.533" cy="312.077" r="3.534"/>
		</g>
		<g>
			<circle style="fill:#FFFFFF;" cx="442.777" cy="323.968" r="3.534"/>
			<circle style="fill:#FFFFFF;" cx="454.716" cy="323.968" r="3.534"/>
			<circle style="fill:#FFFFFF;" cx="466.655" cy="323.968" r="3.534"/>
			<circle style="fill:#FFFFFF;" cx="478.594" cy="323.968" r="3.534"/>
			<circle style="fill:#FFFFFF;" cx="490.533" cy="323.968" r="3.534"/>
		</g>
		<g>
			<circle style="fill:#FFFFFF;" cx="442.777" cy="335.858" r="3.534"/>
			<circle style="fill:#FFFFFF;" cx="454.716" cy="335.858" r="3.534"/>
			<circle style="fill:#FFFFFF;" cx="466.655" cy="335.858" r="3.534"/>
			<circle style="fill:#FFFFFF;" cx="478.594" cy="335.858" r="3.534"/>
			<circle style="fill:#FFFFFF;" cx="490.533" cy="335.858" r="3.534"/>
		</g>
		<g>
			<g>
				<circle style="fill:#FFFFFF;" cx="324.736" cy="193.174" r="3.534"/>
				<circle style="fill:#FFFFFF;" cx="336.675" cy="193.174" r="3.534"/>
				<circle style="fill:#FFFFFF;" cx="348.614" cy="193.174" r="3.534"/>
				<circle style="fill:#FFFFFF;" cx="360.553" cy="193.174" r="3.534"/>
				<circle style="fill:#FFFFFF;" cx="372.492" cy="193.174" r="3.534"/>
			</g>
			<g>
				<circle style="fill:#FFFFFF;" cx="383.757" cy="193.174" r="3.534"/>
				<circle style="fill:#FFFFFF;" cx="395.696" cy="193.174" r="3.534"/>
				<circle style="fill:#FFFFFF;" cx="407.634" cy="193.174" r="3.534"/>
				<circle style="fill:#FFFFFF;" cx="419.573" cy="193.174" r="3.534"/>
				<circle style="fill:#FFFFFF;" cx="431.512" cy="193.174" r="3.534"/>
			</g>
			<g>
				<circle style="fill:#FFFFFF;" cx="324.736" cy="205.065" r="3.534"/>
				<circle style="fill:#FFFFFF;" cx="336.675" cy="205.065" r="3.534"/>
				<circle style="fill:#FFFFFF;" cx="348.614" cy="205.065" r="3.534"/>
				<circle style="fill:#FFFFFF;" cx="360.553" cy="205.065" r="3.534"/>
				<circle style="fill:#FFFFFF;" cx="372.492" cy="205.065" r="3.534"/>
			</g>
			<g>
				<circle style="fill:#FFFFFF;" cx="383.757" cy="205.065" r="3.534"/>
				<circle style="fill:#FFFFFF;" cx="395.696" cy="205.065" r="3.534"/>
				<circle style="fill:#FFFFFF;" cx="407.634" cy="205.065" r="3.534"/>
				<circle style="fill:#FFFFFF;" cx="419.573" cy="205.065" r="3.534"/>
				<circle style="fill:#FFFFFF;" cx="431.512" cy="205.065" r="3.534"/>
			</g>
			<g>
				<circle style="fill:#FFFFFF;" cx="324.736" cy="216.955" r="3.534"/>
				<circle style="fill:#FFFFFF;" cx="336.675" cy="216.955" r="3.534"/>
				<circle style="fill:#FFFFFF;" cx="348.614" cy="216.955" r="3.534"/>
				<circle style="fill:#FFFFFF;" cx="360.553" cy="216.955" r="3.534"/>
				<circle style="fill:#FFFFFF;" cx="372.492" cy="216.955" r="3.534"/>
			</g>
			<g>
				<circle style="fill:#FFFFFF;" cx="383.757" cy="216.955" r="3.534"/>
				<circle style="fill:#FFFFFF;" cx="395.696" cy="216.955" r="3.534"/>
				<circle style="fill:#FFFFFF;" cx="407.634" cy="216.955" r="3.534"/>
				<circle style="fill:#FFFFFF;" cx="419.573" cy="216.955" r="3.534"/>
				<circle style="fill:#FFFFFF;" cx="431.512" cy="216.955" r="3.534"/>
			</g>
			<g>
				<path style="fill:#FFFFFF;" d="M328.27,228.845c0,1.952-1.582,3.534-3.534,3.534c-1.952,0-3.534-1.582-3.534-3.534
					c0-1.952,1.582-3.534,3.534-3.534C326.688,225.312,328.27,226.894,328.27,228.845z"/>
				<path style="fill:#FFFFFF;" d="M340.209,228.845c0,1.952-1.582,3.534-3.534,3.534s-3.534-1.582-3.534-3.534
					c0-1.952,1.582-3.534,3.534-3.534S340.209,226.894,340.209,228.845z"/>
				<path style="fill:#FFFFFF;" d="M352.148,228.845c0,1.952-1.582,3.534-3.534,3.534s-3.534-1.582-3.534-3.534
					c0-1.952,1.582-3.534,3.534-3.534S352.148,226.894,352.148,228.845z"/>
				<path style="fill:#FFFFFF;" d="M364.087,228.845c0,1.952-1.582,3.534-3.534,3.534s-3.534-1.582-3.534-3.534
					c0-1.952,1.582-3.534,3.534-3.534S364.087,226.894,364.087,228.845z"/>
				<path style="fill:#FFFFFF;" d="M376.026,228.845c0,1.952-1.582,3.534-3.534,3.534c-1.952,0-3.534-1.582-3.534-3.534
					c0-1.952,1.582-3.534,3.534-3.534C374.443,225.312,376.026,226.894,376.026,228.845z"/>
			</g>
			<g>
				<path style="fill:#FFFFFF;" d="M387.29,228.845c0,1.952-1.582,3.534-3.534,3.534s-3.534-1.582-3.534-3.534
					c0-1.952,1.582-3.534,3.534-3.534S387.29,226.894,387.29,228.845z"/>
				<path style="fill:#FFFFFF;" d="M399.229,228.845c0,1.952-1.582,3.534-3.534,3.534s-3.534-1.582-3.534-3.534
					c0-1.952,1.582-3.534,3.534-3.534S399.229,226.894,399.229,228.845z"/>
				<path style="fill:#FFFFFF;" d="M411.168,228.845c0,1.952-1.582,3.534-3.534,3.534s-3.534-1.582-3.534-3.534
					c0-1.952,1.582-3.534,3.534-3.534S411.168,226.894,411.168,228.845z"/>
				<path style="fill:#FFFFFF;" d="M423.107,228.845c0,1.952-1.582,3.534-3.534,3.534c-1.952,0-3.534-1.582-3.534-3.534
					c0-1.952,1.582-3.534,3.534-3.534C421.525,225.312,423.107,226.894,423.107,228.845z"/>
				<path style="fill:#FFFFFF;" d="M435.046,228.845c0,1.952-1.582,3.534-3.534,3.534s-3.534-1.582-3.534-3.534
					c0-1.952,1.582-3.534,3.534-3.534S435.046,226.894,435.046,228.845z"/>
			</g>
			<g>
				<circle style="fill:#FFFFFF;" cx="324.736" cy="240.736" r="3.534"/>
				<circle style="fill:#FFFFFF;" cx="336.675" cy="240.736" r="3.534"/>
				<circle style="fill:#FFFFFF;" cx="348.614" cy="240.736" r="3.534"/>
				<circle style="fill:#FFFFFF;" cx="360.553" cy="240.736" r="3.534"/>
				<circle style="fill:#FFFFFF;" cx="372.492" cy="240.736" r="3.534"/>
			</g>
			<g>
				<circle style="fill:#FFFFFF;" cx="383.757" cy="240.736" r="3.534"/>
				<circle style="fill:#FFFFFF;" cx="395.696" cy="240.736" r="3.534"/>
				<circle style="fill:#FFFFFF;" cx="407.634" cy="240.736" r="3.534"/>
				<circle style="fill:#FFFFFF;" cx="419.573" cy="240.736" r="3.534"/>
				<circle style="fill:#FFFFFF;" cx="431.512" cy="240.736" r="3.534"/>
			</g>
			<g>
				<circle style="fill:#FFFFFF;" cx="324.736" cy="252.626" r="3.534"/>
				<circle style="fill:#FFFFFF;" cx="336.675" cy="252.626" r="3.534"/>
				<circle style="fill:#FFFFFF;" cx="348.614" cy="252.626" r="3.534"/>
				<circle style="fill:#FFFFFF;" cx="360.553" cy="252.626" r="3.534"/>
				<circle style="fill:#FFFFFF;" cx="372.492" cy="252.626" r="3.534"/>
			</g>
			<g>
				<circle style="fill:#FFFFFF;" cx="383.757" cy="252.626" r="3.534"/>
				<circle style="fill:#FFFFFF;" cx="395.696" cy="252.626" r="3.534"/>
				<circle style="fill:#FFFFFF;" cx="407.634" cy="252.626" r="3.534"/>
				<circle style="fill:#FFFFFF;" cx="419.573" cy="252.626" r="3.534"/>
				<circle style="fill:#FFFFFF;" cx="431.512" cy="252.626" r="3.534"/>
			</g>
			<g>
				<circle style="fill:#FFFFFF;" cx="324.736" cy="264.516" r="3.534"/>
				<circle style="fill:#FFFFFF;" cx="336.675" cy="264.516" r="3.534"/>
				<circle style="fill:#FFFFFF;" cx="348.614" cy="264.516" r="3.534"/>
				<circle style="fill:#FFFFFF;" cx="360.553" cy="264.516" r="3.534"/>
				<circle style="fill:#FFFFFF;" cx="372.492" cy="264.516" r="3.534"/>
			</g>
			<g>
				<circle style="fill:#FFFFFF;" cx="383.757" cy="264.516" r="3.534"/>
				<circle style="fill:#FFFFFF;" cx="395.696" cy="264.516" r="3.534"/>
				<circle style="fill:#FFFFFF;" cx="407.634" cy="264.516" r="3.534"/>
				<circle style="fill:#FFFFFF;" cx="419.573" cy="264.516" r="3.534"/>
				<circle style="fill:#FFFFFF;" cx="431.512" cy="264.516" r="3.534"/>
			</g>
			<g>
				<circle style="fill:#FFFFFF;" cx="324.736" cy="276.406" r="3.534"/>
				<circle style="fill:#FFFFFF;" cx="336.675" cy="276.406" r="3.534"/>
				<circle style="fill:#FFFFFF;" cx="348.614" cy="276.406" r="3.534"/>
				<circle style="fill:#FFFFFF;" cx="360.553" cy="276.406" r="3.534"/>
				<circle style="fill:#FFFFFF;" cx="372.492" cy="276.406" r="3.534"/>
			</g>
			<g>
				<circle style="fill:#FFFFFF;" cx="383.757" cy="276.406" r="3.534"/>
				<circle style="fill:#FFFFFF;" cx="395.696" cy="276.406" r="3.534"/>
				<circle style="fill:#FFFFFF;" cx="407.634" cy="276.406" r="3.534"/>
				<circle style="fill:#FFFFFF;" cx="419.573" cy="276.406" r="3.534"/>
				<circle style="fill:#FFFFFF;" cx="431.512" cy="276.406" r="3.534"/>
			</g>
			<g>
				<circle style="fill:#FFFFFF;" cx="324.736" cy="288.297" r="3.534"/>
				<circle style="fill:#FFFFFF;" cx="336.675" cy="288.297" r="3.534"/>
				<circle style="fill:#FFFFFF;" cx="348.614" cy="288.297" r="3.534"/>
				<circle style="fill:#FFFFFF;" cx="360.553" cy="288.297" r="3.534"/>
				<circle style="fill:#FFFFFF;" cx="372.492" cy="288.297" r="3.534"/>
			</g>
			<g>
				<circle style="fill:#FFFFFF;" cx="383.757" cy="288.297" r="3.534"/>
				<circle style="fill:#FFFFFF;" cx="395.696" cy="288.297" r="3.534"/>
				<circle style="fill:#FFFFFF;" cx="407.634" cy="288.297" r="3.534"/>
				<circle style="fill:#FFFFFF;" cx="419.573" cy="288.297" r="3.534"/>
				<circle style="fill:#FFFFFF;" cx="431.512" cy="288.297" r="3.534"/>
			</g>
			<g>
				<circle style="fill:#FFFFFF;" cx="324.736" cy="300.187" r="3.534"/>
				<circle style="fill:#FFFFFF;" cx="336.675" cy="300.187" r="3.534"/>
				<circle style="fill:#FFFFFF;" cx="348.614" cy="300.187" r="3.534"/>
				<circle style="fill:#FFFFFF;" cx="360.553" cy="300.187" r="3.534"/>
				<circle style="fill:#FFFFFF;" cx="372.492" cy="300.187" r="3.534"/>
			</g>
			<g>
				<circle style="fill:#FFFFFF;" cx="383.757" cy="300.187" r="3.534"/>
				<circle style="fill:#FFFFFF;" cx="395.696" cy="300.187" r="3.534"/>
				<circle style="fill:#FFFFFF;" cx="407.634" cy="300.187" r="3.534"/>
				<circle style="fill:#FFFFFF;" cx="419.573" cy="300.187" r="3.534"/>
				<circle style="fill:#FFFFFF;" cx="431.512" cy="300.187" r="3.534"/>
			</g>
			<g>
				<circle style="fill:#FFFFFF;" cx="324.736" cy="312.077" r="3.534"/>
				<circle style="fill:#FFFFFF;" cx="336.675" cy="312.077" r="3.534"/>
				<circle style="fill:#FFFFFF;" cx="348.614" cy="312.077" r="3.534"/>
				<circle style="fill:#FFFFFF;" cx="360.553" cy="312.077" r="3.534"/>
				<circle style="fill:#FFFFFF;" cx="372.492" cy="312.077" r="3.534"/>
			</g>
			<g>
				<circle style="fill:#FFFFFF;" cx="383.757" cy="312.077" r="3.534"/>
				<circle style="fill:#FFFFFF;" cx="395.696" cy="312.077" r="3.534"/>
				<circle style="fill:#FFFFFF;" cx="407.634" cy="312.077" r="3.534"/>
				<circle style="fill:#FFFFFF;" cx="419.573" cy="312.077" r="3.534"/>
				<circle style="fill:#FFFFFF;" cx="431.512" cy="312.077" r="3.534"/>
			</g>
			<g>
				<circle style="fill:#FFFFFF;" cx="324.736" cy="323.968" r="3.534"/>
				<circle style="fill:#FFFFFF;" cx="336.675" cy="323.968" r="3.534"/>
				<circle style="fill:#FFFFFF;" cx="348.614" cy="323.968" r="3.534"/>
				<circle style="fill:#FFFFFF;" cx="360.553" cy="323.968" r="3.534"/>
				<circle style="fill:#FFFFFF;" cx="372.492" cy="323.968" r="3.534"/>
			</g>
			<g>
				<circle style="fill:#FFFFFF;" cx="383.757" cy="323.968" r="3.534"/>
				<circle style="fill:#FFFFFF;" cx="395.696" cy="323.968" r="3.534"/>
				<circle style="fill:#FFFFFF;" cx="407.634" cy="323.968" r="3.534"/>
				<circle style="fill:#FFFFFF;" cx="419.573" cy="323.968" r="3.534"/>
				<circle style="fill:#FFFFFF;" cx="431.512" cy="323.968" r="3.534"/>
			</g>
			<g>
				<circle style="fill:#FFFFFF;" cx="324.736" cy="335.858" r="3.534"/>
				<circle style="fill:#FFFFFF;" cx="336.675" cy="335.858" r="3.534"/>
				<circle style="fill:#FFFFFF;" cx="348.614" cy="335.858" r="3.534"/>
				<circle style="fill:#FFFFFF;" cx="360.553" cy="335.858" r="3.534"/>
				<circle style="fill:#FFFFFF;" cx="372.492" cy="335.858" r="3.534"/>
			</g>
			<g>
				<circle style="fill:#FFFFFF;" cx="383.757" cy="335.858" r="3.534"/>
				<circle style="fill:#FFFFFF;" cx="395.696" cy="335.858" r="3.534"/>
				<circle style="fill:#FFFFFF;" cx="407.634" cy="335.858" r="3.534"/>
				<circle style="fill:#FFFFFF;" cx="419.573" cy="335.858" r="3.534"/>
				<circle style="fill:#FFFFFF;" cx="431.512" cy="335.858" r="3.534"/>
			</g>
			<g>
				<g>
					<circle style="fill:#FFFFFF;" cx="206.322" cy="193.174" r="3.534"/>
					<circle style="fill:#FFFFFF;" cx="218.261" cy="193.174" r="3.534"/>
					<circle style="fill:#FFFFFF;" cx="230.2" cy="193.174" r="3.534"/>
					<circle style="fill:#FFFFFF;" cx="242.139" cy="193.174" r="3.534"/>
					<circle style="fill:#FFFFFF;" cx="254.078" cy="193.174" r="3.534"/>
				</g>
				<g>
					<circle style="fill:#FFFFFF;" cx="206.322" cy="205.065" r="3.534"/>
					<circle style="fill:#FFFFFF;" cx="218.261" cy="205.065" r="3.534"/>
					<circle style="fill:#FFFFFF;" cx="230.2" cy="205.065" r="3.534"/>
					<circle style="fill:#FFFFFF;" cx="242.139" cy="205.065" r="3.534"/>
					<circle style="fill:#FFFFFF;" cx="254.078" cy="205.065" r="3.534"/>
				</g>
				<g>
					<circle style="fill:#FFFFFF;" cx="206.322" cy="216.955" r="3.534"/>
					<circle style="fill:#FFFFFF;" cx="218.261" cy="216.955" r="3.534"/>
					<circle style="fill:#FFFFFF;" cx="230.2" cy="216.955" r="3.534"/>
					<circle style="fill:#FFFFFF;" cx="242.139" cy="216.955" r="3.534"/>
					<circle style="fill:#FFFFFF;" cx="254.078" cy="216.955" r="3.534"/>
				</g>
				<g>
					<path style="fill:#FFFFFF;" d="M209.856,228.845c0,1.952-1.582,3.534-3.534,3.534s-3.534-1.582-3.534-3.534
						c0-1.952,1.582-3.534,3.534-3.534S209.856,226.894,209.856,228.845z"/>
					<path style="fill:#FFFFFF;" d="M221.795,228.845c0,1.952-1.582,3.534-3.534,3.534c-1.952,0-3.534-1.582-3.534-3.534
						c0-1.952,1.582-3.534,3.534-3.534C220.213,225.312,221.795,226.894,221.795,228.845z"/>
					<path style="fill:#FFFFFF;" d="M233.734,228.845c0,1.952-1.582,3.534-3.534,3.534c-1.952,0-3.534-1.582-3.534-3.534
						c0-1.952,1.582-3.534,3.534-3.534C232.152,225.312,233.734,226.894,233.734,228.845z"/>
					<path style="fill:#FFFFFF;" d="M245.673,228.845c0,1.952-1.582,3.534-3.534,3.534c-1.952,0-3.534-1.582-3.534-3.534
						c0-1.952,1.582-3.534,3.534-3.534C244.091,225.312,245.673,226.894,245.673,228.845z"/>
					<path style="fill:#FFFFFF;" d="M257.612,228.845c0,1.952-1.582,3.534-3.534,3.534c-1.952,0-3.534-1.582-3.534-3.534
						c0-1.952,1.582-3.534,3.534-3.534C256.03,225.312,257.612,226.894,257.612,228.845z"/>
				</g>
				<g>
					<circle style="fill:#FFFFFF;" cx="206.322" cy="240.736" r="3.534"/>
					<circle style="fill:#FFFFFF;" cx="218.261" cy="240.736" r="3.534"/>
					<circle style="fill:#FFFFFF;" cx="230.2" cy="240.736" r="3.534"/>
					<circle style="fill:#FFFFFF;" cx="242.139" cy="240.736" r="3.534"/>
					<circle style="fill:#FFFFFF;" cx="254.078" cy="240.736" r="3.534"/>
				</g>
				<g>
					<circle style="fill:#FFFFFF;" cx="206.322" cy="252.626" r="3.534"/>
					<circle style="fill:#FFFFFF;" cx="218.261" cy="252.626" r="3.534"/>
					<circle style="fill:#FFFFFF;" cx="230.2" cy="252.626" r="3.534"/>
					<circle style="fill:#FFFFFF;" cx="242.139" cy="252.626" r="3.534"/>
					<circle style="fill:#FFFFFF;" cx="254.078" cy="252.626" r="3.534"/>
				</g>
				<g>
					<circle style="fill:#FFFFFF;" cx="206.322" cy="264.516" r="3.534"/>
					<circle style="fill:#FFFFFF;" cx="218.261" cy="264.516" r="3.534"/>
					<circle style="fill:#FFFFFF;" cx="230.2" cy="264.516" r="3.534"/>
					<circle style="fill:#FFFFFF;" cx="242.139" cy="264.516" r="3.534"/>
					<circle style="fill:#FFFFFF;" cx="254.078" cy="264.516" r="3.534"/>
				</g>
				<g>
					<circle style="fill:#FFFFFF;" cx="206.322" cy="276.406" r="3.534"/>
					<circle style="fill:#FFFFFF;" cx="218.261" cy="276.406" r="3.534"/>
					<circle style="fill:#FFFFFF;" cx="230.2" cy="276.406" r="3.534"/>
					<circle style="fill:#FFFFFF;" cx="242.139" cy="276.406" r="3.534"/>
					<circle style="fill:#FFFFFF;" cx="254.078" cy="276.406" r="3.534"/>
				</g>
				<g>
					<circle style="fill:#FFFFFF;" cx="206.322" cy="288.297" r="3.534"/>
					<circle style="fill:#FFFFFF;" cx="218.261" cy="288.297" r="3.534"/>
					<circle style="fill:#FFFFFF;" cx="230.2" cy="288.297" r="3.534"/>
					<circle style="fill:#FFFFFF;" cx="242.139" cy="288.297" r="3.534"/>
					<circle style="fill:#FFFFFF;" cx="254.078" cy="288.297" r="3.534"/>
				</g>
				<g>
					<circle style="fill:#FFFFFF;" cx="206.322" cy="300.187" r="3.534"/>
					<circle style="fill:#FFFFFF;" cx="218.261" cy="300.187" r="3.534"/>
					<circle style="fill:#FFFFFF;" cx="230.2" cy="300.187" r="3.534"/>
					<circle style="fill:#FFFFFF;" cx="242.139" cy="300.187" r="3.534"/>
					<circle style="fill:#FFFFFF;" cx="254.078" cy="300.187" r="3.534"/>
				</g>
				<g>
					<g>
						<circle style="fill:#FFFFFF;" cx="265.716" cy="193.174" r="3.534"/>
						<circle style="fill:#FFFFFF;" cx="277.655" cy="193.174" r="3.534"/>
						<circle style="fill:#FFFFFF;" cx="289.594" cy="193.174" r="3.534"/>
						<circle style="fill:#FFFFFF;" cx="301.532" cy="193.174" r="3.534"/>
						<circle style="fill:#FFFFFF;" cx="313.471" cy="193.174" r="3.534"/>
					</g>
					<g>
						<circle style="fill:#FFFFFF;" cx="265.716" cy="205.065" r="3.534"/>
						<circle style="fill:#FFFFFF;" cx="277.655" cy="205.065" r="3.534"/>
						<circle style="fill:#FFFFFF;" cx="289.594" cy="205.065" r="3.534"/>
						<circle style="fill:#FFFFFF;" cx="301.532" cy="205.065" r="3.534"/>
						<circle style="fill:#FFFFFF;" cx="313.471" cy="205.065" r="3.534"/>
					</g>
					<g>
						<circle style="fill:#FFFFFF;" cx="265.716" cy="216.955" r="3.534"/>
						<circle style="fill:#FFFFFF;" cx="277.655" cy="216.955" r="3.534"/>
						<circle style="fill:#FFFFFF;" cx="289.594" cy="216.955" r="3.534"/>
						<circle style="fill:#FFFFFF;" cx="301.532" cy="216.955" r="3.534"/>
						<circle style="fill:#FFFFFF;" cx="313.471" cy="216.955" r="3.534"/>
					</g>
					<g>
						<path style="fill:#FFFFFF;" d="M269.25,228.845c0,1.952-1.582,3.534-3.534,3.534c-1.952,0-3.534-1.582-3.534-3.534
							c0-1.952,1.582-3.534,3.534-3.534C267.667,225.312,269.25,226.894,269.25,228.845z"/>
						<path style="fill:#FFFFFF;" d="M281.188,228.845c0,1.952-1.582,3.534-3.534,3.534c-1.952,0-3.534-1.582-3.534-3.534
							c0-1.952,1.582-3.534,3.534-3.534C279.606,225.312,281.188,226.894,281.188,228.845z"/>
						<path style="fill:#FFFFFF;" d="M293.127,228.845c0,1.952-1.582,3.534-3.534,3.534s-3.534-1.582-3.534-3.534
							c0-1.952,1.582-3.534,3.534-3.534S293.127,226.894,293.127,228.845z"/>
						<path style="fill:#FFFFFF;" d="M305.066,228.845c0,1.952-1.582,3.534-3.534,3.534s-3.534-1.582-3.534-3.534
							c0-1.952,1.582-3.534,3.534-3.534S305.066,226.894,305.066,228.845z"/>
						<path style="fill:#FFFFFF;" d="M317.005,228.845c0,1.952-1.582,3.534-3.534,3.534s-3.534-1.582-3.534-3.534
							c0-1.952,1.582-3.534,3.534-3.534S317.005,226.894,317.005,228.845z"/>
					</g>
					<g>
						<circle style="fill:#FFFFFF;" cx="265.716" cy="240.736" r="3.534"/>
						<circle style="fill:#FFFFFF;" cx="277.655" cy="240.736" r="3.534"/>
						<circle style="fill:#FFFFFF;" cx="289.594" cy="240.736" r="3.534"/>
						<circle style="fill:#FFFFFF;" cx="301.532" cy="240.736" r="3.534"/>
						<circle style="fill:#FFFFFF;" cx="313.471" cy="240.736" r="3.534"/>
					</g>
					<g>
						<circle style="fill:#FFFFFF;" cx="265.716" cy="252.626" r="3.534"/>
						<circle style="fill:#FFFFFF;" cx="277.655" cy="252.626" r="3.534"/>
						<circle style="fill:#FFFFFF;" cx="289.594" cy="252.626" r="3.534"/>
						<circle style="fill:#FFFFFF;" cx="301.532" cy="252.626" r="3.534"/>
						<circle style="fill:#FFFFFF;" cx="313.471" cy="252.626" r="3.534"/>
					</g>
					<g>
						<circle style="fill:#FFFFFF;" cx="265.716" cy="264.516" r="3.534"/>
						<circle style="fill:#FFFFFF;" cx="277.655" cy="264.516" r="3.534"/>
						<circle style="fill:#FFFFFF;" cx="289.594" cy="264.516" r="3.534"/>
						<circle style="fill:#FFFFFF;" cx="301.532" cy="264.516" r="3.534"/>
						<circle style="fill:#FFFFFF;" cx="313.471" cy="264.516" r="3.534"/>
					</g>
					<g>
						<circle style="fill:#FFFFFF;" cx="265.716" cy="276.406" r="3.534"/>
						<circle style="fill:#FFFFFF;" cx="277.655" cy="276.406" r="3.534"/>
						<circle style="fill:#FFFFFF;" cx="289.594" cy="276.406" r="3.534"/>
						<circle style="fill:#FFFFFF;" cx="301.532" cy="276.406" r="3.534"/>
						<circle style="fill:#FFFFFF;" cx="313.471" cy="276.406" r="3.534"/>
					</g>
					<g>
						<circle style="fill:#FFFFFF;" cx="265.716" cy="288.297" r="3.534"/>
						<circle style="fill:#FFFFFF;" cx="277.655" cy="288.297" r="3.534"/>
						<circle style="fill:#FFFFFF;" cx="289.594" cy="288.297" r="3.534"/>
						<circle style="fill:#FFFFFF;" cx="301.532" cy="288.297" r="3.534"/>
						<circle style="fill:#FFFFFF;" cx="313.471" cy="288.297" r="3.534"/>
					</g>
					<g>
						<circle style="fill:#FFFFFF;" cx="265.716" cy="300.187" r="3.534"/>
						<circle style="fill:#FFFFFF;" cx="277.655" cy="300.187" r="3.534"/>
						<circle style="fill:#FFFFFF;" cx="289.594" cy="300.187" r="3.534"/>
						<circle style="fill:#FFFFFF;" cx="301.532" cy="300.187" r="3.534"/>
						<circle style="fill:#FFFFFF;" cx="313.471" cy="300.187" r="3.534"/>
					</g>
					<g>
						<circle style="fill:#FFFFFF;" cx="265.716" cy="312.077" r="3.534"/>
						<circle style="fill:#FFFFFF;" cx="277.655" cy="312.077" r="3.534"/>
						<circle style="fill:#FFFFFF;" cx="289.594" cy="312.077" r="3.534"/>
						<circle style="fill:#FFFFFF;" cx="301.532" cy="312.077" r="3.534"/>
						<circle style="fill:#FFFFFF;" cx="313.471" cy="312.077" r="3.534"/>
					</g>
					<g>
						<circle style="fill:#FFFFFF;" cx="265.716" cy="323.968" r="3.534"/>
						<circle style="fill:#FFFFFF;" cx="277.655" cy="323.968" r="3.534"/>
						<circle style="fill:#FFFFFF;" cx="289.594" cy="323.968" r="3.534"/>
						<circle style="fill:#FFFFFF;" cx="301.532" cy="323.968" r="3.534"/>
						<circle style="fill:#FFFFFF;" cx="313.471" cy="323.968" r="3.534"/>
					</g>
					<g>
						<circle style="fill:#FFFFFF;" cx="265.716" cy="335.858" r="3.534"/>
						<circle style="fill:#FFFFFF;" cx="277.655" cy="335.858" r="3.534"/>
						<circle style="fill:#FFFFFF;" cx="289.594" cy="335.858" r="3.534"/>
						<circle style="fill:#FFFFFF;" cx="301.532" cy="335.858" r="3.534"/>
						<circle style="fill:#FFFFFF;" cx="313.471" cy="335.858" r="3.534"/>
					</g>
					<g>
						<g>
							<circle style="fill:#FFFFFF;" cx="206.322" cy="312.077" r="3.534"/>
							<circle style="fill:#FFFFFF;" cx="218.261" cy="312.077" r="3.534"/>
							<circle style="fill:#FFFFFF;" cx="230.2" cy="312.077" r="3.534"/>
							<circle style="fill:#FFFFFF;" cx="242.139" cy="312.077" r="3.534"/>
							<circle style="fill:#FFFFFF;" cx="254.078" cy="312.077" r="3.534"/>
						</g>
						<g>
							<circle style="fill:#FFFFFF;" cx="206.322" cy="323.968" r="3.534"/>
							<circle style="fill:#FFFFFF;" cx="218.261" cy="323.968" r="3.534"/>
							<circle style="fill:#FFFFFF;" cx="230.2" cy="323.968" r="3.534"/>
							<circle style="fill:#FFFFFF;" cx="242.139" cy="323.968" r="3.534"/>
							<circle style="fill:#FFFFFF;" cx="254.078" cy="323.968" r="3.534"/>
						</g>
						<g>
							<circle style="fill:#FFFFFF;" cx="206.322" cy="335.858" r="3.534"/>
							<circle style="fill:#FFFFFF;" cx="218.261" cy="335.858" r="3.534"/>
							<circle style="fill:#FFFFFF;" cx="230.2" cy="335.858" r="3.534"/>
							<circle style="fill:#FFFFFF;" cx="242.139" cy="335.858" r="3.534"/>
							<circle style="fill:#FFFFFF;" cx="254.078" cy="335.858" r="3.534"/>
						</g>
						<g>
							<circle style="fill:#FFFFFF;" cx="206.322" cy="347.748" r="3.534"/>
							<circle style="fill:#FFFFFF;" cx="218.261" cy="347.748" r="3.534"/>
							<circle style="fill:#FFFFFF;" cx="230.2" cy="347.748" r="3.534"/>
							<circle style="fill:#FFFFFF;" cx="242.139" cy="347.748" r="3.534"/>
							<circle style="fill:#FFFFFF;" cx="254.078" cy="347.748" r="3.534"/>
						</g>
						<g>
							<circle style="fill:#FFFFFF;" cx="265.716" cy="347.748" r="3.534"/>
							<circle style="fill:#FFFFFF;" cx="277.655" cy="347.748" r="3.534"/>
							<circle style="fill:#FFFFFF;" cx="289.594" cy="347.748" r="3.534"/>
							<circle style="fill:#FFFFFF;" cx="301.532" cy="347.748" r="3.534"/>
							<circle style="fill:#FFFFFF;" cx="313.471" cy="347.748" r="3.534"/>
						</g>
						<g>
							<circle style="fill:#FFFFFF;" cx="324.736" cy="347.748" r="3.534"/>
							<circle style="fill:#FFFFFF;" cx="336.675" cy="347.748" r="3.534"/>
							<circle style="fill:#FFFFFF;" cx="348.614" cy="347.748" r="3.534"/>
							<circle style="fill:#FFFFFF;" cx="360.553" cy="347.748" r="3.534"/>
							<circle style="fill:#FFFFFF;" cx="372.492" cy="347.748" r="3.534"/>
						</g>
						<g>
							<circle style="fill:#FFFFFF;" cx="383.757" cy="347.748" r="3.534"/>
							<circle style="fill:#FFFFFF;" cx="395.696" cy="347.748" r="3.534"/>
							<circle style="fill:#FFFFFF;" cx="407.634" cy="347.748" r="3.534"/>
							<circle style="fill:#FFFFFF;" cx="419.573" cy="347.748" r="3.534"/>
							<circle style="fill:#FFFFFF;" cx="431.512" cy="347.748" r="3.534"/>
						</g>
						<g>
							<circle style="fill:#FFFFFF;" cx="442.777" cy="347.748" r="3.534"/>
							<circle style="fill:#FFFFFF;" cx="454.716" cy="347.748" r="3.534"/>
							<circle style="fill:#FFFFFF;" cx="466.655" cy="347.748" r="3.534"/>
							<circle style="fill:#FFFFFF;" cx="478.594" cy="347.748" r="3.534"/>
							<circle style="fill:#FFFFFF;" cx="490.533" cy="347.748" r="3.534"/>
						</g>
						<g>
							<circle style="fill:#FFFFFF;" cx="206.322" cy="359.639" r="3.534"/>
							<circle style="fill:#FFFFFF;" cx="218.261" cy="359.639" r="3.534"/>
							<circle style="fill:#FFFFFF;" cx="230.2" cy="359.639" r="3.534"/>
							<circle style="fill:#FFFFFF;" cx="242.139" cy="359.639" r="3.534"/>
							<circle style="fill:#FFFFFF;" cx="254.078" cy="359.639" r="3.534"/>
						</g>
						<g>
							<circle style="fill:#FFFFFF;" cx="265.716" cy="359.639" r="3.534"/>
							<circle style="fill:#FFFFFF;" cx="277.655" cy="359.639" r="3.534"/>
							<circle style="fill:#FFFFFF;" cx="289.594" cy="359.639" r="3.534"/>
							<circle style="fill:#FFFFFF;" cx="301.532" cy="359.639" r="3.534"/>
							<circle style="fill:#FFFFFF;" cx="313.471" cy="359.639" r="3.534"/>
						</g>
						<g>
							<circle style="fill:#FFFFFF;" cx="324.736" cy="359.639" r="3.534"/>
							<circle style="fill:#FFFFFF;" cx="336.675" cy="359.639" r="3.534"/>
							<circle style="fill:#FFFFFF;" cx="348.614" cy="359.639" r="3.534"/>
							<circle style="fill:#FFFFFF;" cx="360.553" cy="359.639" r="3.534"/>
							<circle style="fill:#FFFFFF;" cx="372.492" cy="359.639" r="3.534"/>
						</g>
						<g>
							<circle style="fill:#FFFFFF;" cx="383.757" cy="359.639" r="3.534"/>
							<circle style="fill:#FFFFFF;" cx="395.696" cy="359.639" r="3.534"/>
							<circle style="fill:#FFFFFF;" cx="407.634" cy="359.639" r="3.534"/>
							<circle style="fill:#FFFFFF;" cx="419.573" cy="359.639" r="3.534"/>
							<circle style="fill:#FFFFFF;" cx="431.512" cy="359.639" r="3.534"/>
						</g>
						<g>
							<circle style="fill:#FFFFFF;" cx="442.777" cy="359.639" r="3.534"/>
							<circle style="fill:#FFFFFF;" cx="454.716" cy="359.639" r="3.534"/>
							<circle style="fill:#FFFFFF;" cx="466.655" cy="359.639" r="3.534"/>
							<circle style="fill:#FFFFFF;" cx="478.594" cy="359.639" r="3.534"/>
							<circle style="fill:#FFFFFF;" cx="490.533" cy="359.639" r="3.534"/>
						</g>
						<g>
							<path style="fill:#FFFFFF;" d="M209.856,371.529c0,1.952-1.582,3.534-3.534,3.534s-3.534-1.582-3.534-3.534
								c0-1.952,1.582-3.534,3.534-3.534S209.856,369.577,209.856,371.529z"/>
							<path style="fill:#FFFFFF;" d="M221.795,371.529c0,1.952-1.582,3.534-3.534,3.534c-1.952,0-3.534-1.582-3.534-3.534
								c0-1.952,1.582-3.534,3.534-3.534C220.213,367.995,221.795,369.577,221.795,371.529z"/>
							<path style="fill:#FFFFFF;" d="M233.734,371.529c0,1.952-1.582,3.534-3.534,3.534c-1.952,0-3.534-1.582-3.534-3.534
								c0-1.952,1.582-3.534,3.534-3.534C232.152,367.995,233.734,369.577,233.734,371.529z"/>
							<path style="fill:#FFFFFF;" d="M245.673,371.529c0,1.952-1.582,3.534-3.534,3.534c-1.952,0-3.534-1.582-3.534-3.534
								c0-1.952,1.582-3.534,3.534-3.534C244.091,367.995,245.673,369.577,245.673,371.529z"/>
							<path style="fill:#FFFFFF;" d="M257.612,371.529c0,1.952-1.582,3.534-3.534,3.534c-1.952,0-3.534-1.582-3.534-3.534
								c0-1.952,1.582-3.534,3.534-3.534C256.03,367.995,257.612,369.577,257.612,371.529z"/>
						</g>
						<g>
							<path style="fill:#FFFFFF;" d="M269.25,371.529c0,1.952-1.582,3.534-3.534,3.534c-1.952,0-3.534-1.582-3.534-3.534
								c0-1.952,1.582-3.534,3.534-3.534C267.667,367.995,269.25,369.577,269.25,371.529z"/>
							<path style="fill:#FFFFFF;" d="M281.188,371.529c0,1.952-1.582,3.534-3.534,3.534c-1.952,0-3.534-1.582-3.534-3.534
								c0-1.952,1.582-3.534,3.534-3.534C279.606,367.995,281.188,369.577,281.188,371.529z"/>
							<path style="fill:#FFFFFF;" d="M293.127,371.529c0,1.952-1.582,3.534-3.534,3.534s-3.534-1.582-3.534-3.534
								c0-1.952,1.582-3.534,3.534-3.534S293.127,369.577,293.127,371.529z"/>
							<path style="fill:#FFFFFF;" d="M305.066,371.529c0,1.952-1.582,3.534-3.534,3.534s-3.534-1.582-3.534-3.534
								c0-1.952,1.582-3.534,3.534-3.534S305.066,369.577,305.066,371.529z"/>
							<path style="fill:#FFFFFF;" d="M317.005,371.529c0,1.952-1.582,3.534-3.534,3.534s-3.534-1.582-3.534-3.534
								c0-1.952,1.582-3.534,3.534-3.534S317.005,369.577,317.005,371.529z"/>
						</g>
						<g>
							<path style="fill:#FFFFFF;" d="M328.27,371.529c0,1.952-1.582,3.534-3.534,3.534c-1.952,0-3.534-1.582-3.534-3.534
								c0-1.952,1.582-3.534,3.534-3.534C326.688,367.995,328.27,369.577,328.27,371.529z"/>
							<path style="fill:#FFFFFF;" d="M340.209,371.529c0,1.952-1.582,3.534-3.534,3.534s-3.534-1.582-3.534-3.534
								c0-1.952,1.582-3.534,3.534-3.534S340.209,369.577,340.209,371.529z"/>
							<path style="fill:#FFFFFF;" d="M352.148,371.529c0,1.952-1.582,3.534-3.534,3.534s-3.534-1.582-3.534-3.534
								c0-1.952,1.582-3.534,3.534-3.534S352.148,369.577,352.148,371.529z"/>
							<path style="fill:#FFFFFF;" d="M364.087,371.529c0,1.952-1.582,3.534-3.534,3.534s-3.534-1.582-3.534-3.534
								c0-1.952,1.582-3.534,3.534-3.534S364.087,369.577,364.087,371.529z"/>
							<path style="fill:#FFFFFF;" d="M376.026,371.529c0,1.952-1.582,3.534-3.534,3.534c-1.952,0-3.534-1.582-3.534-3.534
								c0-1.952,1.582-3.534,3.534-3.534C374.443,367.995,376.026,369.577,376.026,371.529z"/>
						</g>
						<g>
							<path style="fill:#FFFFFF;" d="M387.29,371.529c0,1.952-1.582,3.534-3.534,3.534s-3.534-1.582-3.534-3.534
								c0-1.952,1.582-3.534,3.534-3.534S387.29,369.577,387.29,371.529z"/>
							<path style="fill:#FFFFFF;" d="M399.229,371.529c0,1.952-1.582,3.534-3.534,3.534s-3.534-1.582-3.534-3.534
								c0-1.952,1.582-3.534,3.534-3.534S399.229,369.577,399.229,371.529z"/>
							<path style="fill:#FFFFFF;" d="M411.168,371.529c0,1.952-1.582,3.534-3.534,3.534s-3.534-1.582-3.534-3.534
								c0-1.952,1.582-3.534,3.534-3.534S411.168,369.577,411.168,371.529z"/>
							<path style="fill:#FFFFFF;" d="M423.107,371.529c0,1.952-1.582,3.534-3.534,3.534c-1.952,0-3.534-1.582-3.534-3.534
								c0-1.952,1.582-3.534,3.534-3.534C421.525,367.995,423.107,369.577,423.107,371.529z"/>
							<path style="fill:#FFFFFF;" d="M435.046,371.529c0,1.952-1.582,3.534-3.534,3.534s-3.534-1.582-3.534-3.534
								c0-1.952,1.582-3.534,3.534-3.534S435.046,369.577,435.046,371.529z"/>
						</g>
						<g>
							<path style="fill:#FFFFFF;" d="M446.311,371.529c0,1.952-1.582,3.534-3.534,3.534s-3.534-1.582-3.534-3.534
								c0-1.952,1.582-3.534,3.534-3.534S446.311,369.577,446.311,371.529z"/>
							<path style="fill:#FFFFFF;" d="M458.25,371.529c0,1.952-1.582,3.534-3.534,3.534s-3.534-1.582-3.534-3.534
								c0-1.952,1.582-3.534,3.534-3.534S458.25,369.577,458.25,371.529z"/>
							<path style="fill:#FFFFFF;" d="M470.189,371.529c0,1.952-1.582,3.534-3.534,3.534c-1.952,0-3.534-1.582-3.534-3.534
								c0-1.952,1.582-3.534,3.534-3.534C468.607,367.995,470.189,369.577,470.189,371.529z"/>
							<path style="fill:#FFFFFF;" d="M482.128,371.529c0,1.952-1.582,3.534-3.534,3.534s-3.534-1.582-3.534-3.534
								c0-1.952,1.582-3.534,3.534-3.534S482.128,369.577,482.128,371.529z"/>
							<path style="fill:#FFFFFF;" d="M494.066,371.529c0,1.952-1.582,3.534-3.534,3.534c-1.952,0-3.534-1.582-3.534-3.534
								c0-1.952,1.582-3.534,3.534-3.534C492.484,367.995,494.066,369.577,494.066,371.529z"/>
						</g>
						<g>
							<path style="fill:#FFFFFF;" d="M446.311,371.529c0,1.952-1.582,3.534-3.534,3.534s-3.534-1.582-3.534-3.534
								c0-1.952,1.582-3.534,3.534-3.534S446.311,369.577,446.311,371.529z"/>
							<path style="fill:#FFFFFF;" d="M458.25,371.529c0,1.952-1.582,3.534-3.534,3.534s-3.534-1.582-3.534-3.534
								c0-1.952,1.582-3.534,3.534-3.534S458.25,369.577,458.25,371.529z"/>
							<path style="fill:#FFFFFF;" d="M470.189,371.529c0,1.952-1.582,3.534-3.534,3.534c-1.952,0-3.534-1.582-3.534-3.534
								c0-1.952,1.582-3.534,3.534-3.534C468.607,367.995,470.189,369.577,470.189,371.529z"/>
							<path style="fill:#FFFFFF;" d="M482.128,371.529c0,1.952-1.582,3.534-3.534,3.534s-3.534-1.582-3.534-3.534
								c0-1.952,1.582-3.534,3.534-3.534S482.128,369.577,482.128,371.529z"/>
							<path style="fill:#FFFFFF;" d="M494.066,371.529c0,1.952-1.582,3.534-3.534,3.534c-1.952,0-3.534-1.582-3.534-3.534
								c0-1.952,1.582-3.534,3.534-3.534C492.484,367.995,494.066,369.577,494.066,371.529z"/>
						</g>
					</g>
				</g>
			</g>
		</g>
	</g>
</g>
<path style="fill:#F2EB27;" d="M379.421,204.707c0,2.097-3.142,3.796-7.017,3.796c-3.875,0-7.017-1.7-7.017-3.796
	c0-2.097,3.142-3.796,7.017-3.796C376.279,200.911,379.421,202.611,379.421,204.707z"/>
<path style="fill:#F2EB27;" d="M326.406,204.707c0,2.097-3.142,3.796-7.017,3.796s-7.017-1.7-7.017-3.796
	c0-2.097,3.142-3.796,7.017-3.796S326.406,202.611,326.406,204.707z"/>
<rect x="388.313" y="175.336" style="fill:#36599E;" width="8.001" height="31.787"/>
<path style="fill:#36599E;" d="M394.183,202.357h1.877c6.145,0,11.127-4.982,11.127-11.127v0c0-6.145-4.982-11.127-11.127-11.127
	h-1.877V202.357z"/>
<rect x="294.272" y="175.336" transform="matrix(-1 -1.224647e-16 1.224647e-16 -1 596.5443 382.4587)" style="fill:#36599E;" width="8.001" height="31.787"/>
<path style="fill:#36599E;" d="M296.403,202.357h-1.877c-6.146,0-11.128-4.982-11.128-11.127v0c0-6.145,4.982-11.127,11.128-11.127
	h1.877V202.357z"/>
<g>
	<g>
		<path style="fill:#36599E;" d="M395.314,189.521h-6v-8.073c0-29.205-18.265-52.966-40.716-52.966h-6.609
			c-22.451,0-40.716,23.761-40.716,52.966h-6c0-32.514,20.957-58.966,46.716-58.966h6.609c25.759,0,46.716,26.452,46.716,58.966
			V189.521z"/>
	</g>
</g>
<g>
	<g>
		<path style="fill:#36599E;" d="M332.574,230.352h-23.448c-6.811,0-12.354-5.542-12.354-12.354v-11.942h3v11.942
			c0,5.157,4.196,9.354,9.354,9.354h23.448V230.352z"/>
	</g>
</g>
<path style="fill:#0682B8;" d="M342.286,216.692c-1.482,0.243-3.012,0.225-4.534-0.014c-1.507-0.279-3.047-0.755-4.366-1.819
	c-0.65-0.528-1.262-1.24-1.541-2.173c-0.145-0.457-0.188-0.961-0.148-1.448c0.058-0.489,0.204-0.957,0.412-1.379
	c0.909-1.663,2.421-2.547,3.872-3.196c0.373-0.15,0.751-0.285,1.131-0.402l1.078-0.308c0.626-0.183,1.22-0.462,1.78-0.799
	c1.124-0.677,2.025-1.693,2.625-2.87c0.598-1.194,0.758-2.546,0.637-3.993c-0.086-1.432-0.446-2.859-0.946-4.272
	c0.893,1.207,1.54,2.616,1.916,4.119c0.368,1.467,0.445,3.206-0.168,4.751c-0.559,1.56-1.671,2.891-3.025,3.848
	c-0.686,0.471-1.448,0.825-2.239,1.082l-1.056,0.326c-0.327,0.107-0.645,0.233-0.96,0.361c-1.249,0.497-2.415,1.278-2.977,2.237
	c-0.594,0.933-0.272,2.03,0.645,2.957c0.92,0.906,2.224,1.567,3.572,2.032C339.353,216.211,340.8,216.495,342.286,216.692z"/>
<path style="fill:#AEE6FD;" d="M305.636,263.423L305.636,263.423c-11.304,0-21.632,6.402-26.66,16.526l-26.048,64.474
	l-39.388-53.854l-21.226,5.708l37.869,64.193c11.089,15.579,24.745,25.092,45.22-0.19l28.868-41.287L305.636,263.423z"/>
<path style="fill:#AEE6FD;" d="M388.313,263.423L388.313,263.423c11.304,0,21.632,6.402,26.66,16.526l21.914,94.613h-31.508
	l-15.702-55.57L388.313,263.423z"/>
<path style="fill:#AEE6FD;" d="M342.928,263.423h-43.291c-13.169,0-22.09,13.41-17.001,25.556l30.855,85.583h71.138l28.739-86.815
	c4.549-11.705-4.086-24.324-16.643-24.324H342.928z"/>
<path style="fill:#AEE6FD;" d="M396.314,293.423l6.455,18.993c4.004,11.78-4.755,24.007-17.196,24.007h-75.537
	c-12.564,0-20.997-12.894-15.962-24.405l8.135-18.595H396.314z"/>
<path style="fill:#FEFEFE;" d="M361.121,263.423L361.121,263.423c5.523,7.572,0.114,18.212-9.258,18.212h-15.035
	c-8.469,0-14.012-8.87-10.3-16.482l0.844-1.73C327.371,263.423,351.089,249.669,361.121,263.423z"/>
<polygon style="fill:#DAF7FB;" points="202.38,283.173 192.315,273.923 182.063,272.923 172.627,274.923 186.21,278.895 
	192.315,287.658 "/>
<polygon style="fill:#FEFEFE;" points="213.54,290.569 196.929,279.561 164.76,277.561 150.585,263.423 150.585,272.862 
	164.76,290.569 192.315,296.277 "/>
<path style="fill:#0682B8;" d="M378.421,191.229c-1.645-0.756-3.177-1.411-4.691-1.919c-1.512-0.505-2.997-0.815-4.452-0.858
	c-1.452-0.045-2.909,0.14-4.361,0.695c-0.767,0.182-1.444,0.613-2.233,0.91c-0.764,0.348-1.467,0.82-2.341,1.171
	c0.386-0.807,0.854-1.602,1.423-2.323c0.632-0.654,1.249-1.387,2.081-1.861c1.547-1.111,3.57-1.669,5.528-1.591
	c1.97,0.061,3.851,0.731,5.401,1.75C376.316,188.241,377.632,189.573,378.421,191.229z"/>
<path style="fill:#0682B8;" d="M329.463,191.229c-1.646-0.756-3.177-1.411-4.691-1.919c-1.512-0.505-2.997-0.815-4.452-0.858
	c-1.452-0.045-2.909,0.14-4.361,0.695c-0.767,0.182-1.444,0.613-2.233,0.91c-0.764,0.348-1.468,0.82-2.341,1.171
	c0.386-0.807,0.853-1.602,1.423-2.323c0.632-0.654,1.249-1.387,2.081-1.861c1.547-1.111,3.57-1.669,5.528-1.591
	c1.97,0.061,3.851,0.731,5.401,1.75C327.358,188.241,328.674,189.573,329.463,191.229z"/>
<path style="fill:#0682B8;" d="M336.595,232.423c1.921,0.872,4.062,0.916,6.088,0.691c2.04-0.238,4.021-0.854,5.841-1.742
	c1.816-0.899,3.458-2.113,4.789-3.588c1.334-1.478,2.276-3.251,2.868-5.126l1.023,1.116c-2.035,0.518-4.058,0.881-6.111,1.185
	c-2.051,0.277-4.113,0.497-6.185,0.575c-2.07,0.098-4.15,0.051-6.217-0.109c-2.067-0.168-4.126-0.519-6.117-1.072
	c2.072-0.014,4.105-0.055,6.137-0.159c2.031-0.126,4.051-0.275,6.069-0.48c2.016-0.224,4.031-0.435,6.04-0.722
	c2.006-0.267,4.027-0.58,6.001-0.92l1.484-0.256l-0.461,1.372c-0.706,2.104-1.893,4.048-3.44,5.616
	c-1.541,1.578-3.413,2.779-5.408,3.606c-1.994,0.837-4.127,1.291-6.262,1.368C340.616,233.827,338.4,233.537,336.595,232.423z"/>
<ellipse style="fill:#36599E;" cx="330.035" cy="228.264" rx="5.316" ry="3.089"/>
<path style="fill:#85D9F8;" d="M403.358,321.735l-11.135-32.457l1.805,8.186c-0.953,3.941-3.228,10.888-9.039,17.388
	c-10.506,11.751-24.646,13.183-28.103,13.436c-8.454-0.836-16.909-1.673-25.363-2.509c-16.636-1.645-29.313-15.638-29.313-32.355
	l0,0c-7.719,22-7.546,28.709-7.546,28.709c-4.004,11.78,4.755,24.007,17.197,24.007h67.854l5.317,28.423l10.793-30.578
	C403.309,339.839,407.148,330.396,403.358,321.735z"/>
<g>
	<path style="fill:#FFFFFF;" d="M170.345,136.245v11.945h13.809v-11.945h3.727v28.55h-3.727v-13.386h-13.809v13.386h-3.685v-28.55
		H170.345z"/>
	<path style="fill:#FFFFFF;" d="M196.224,155.221c0.084,5.041,3.304,7.116,7.031,7.116c2.669,0,4.278-0.466,5.676-1.059l0.636,2.669
		c-1.314,0.593-3.559,1.271-6.819,1.271c-6.312,0-10.082-4.151-10.082-10.336s3.643-11.056,9.615-11.056
		c6.693,0,8.472,5.889,8.472,9.658c0,0.763-0.084,1.355-0.127,1.736H196.224z M207.152,152.553c0.043-2.372-0.974-6.058-5.167-6.058
		c-3.771,0-5.422,3.474-5.719,6.058H207.152z"/>
	<path style="fill:#FFFFFF;" d="M215.368,134.72h3.728v30.074h-3.728V134.72z"/>
	<path style="fill:#FFFFFF;" d="M225.363,134.72h3.728v30.074h-3.728V134.72z"/>
	<path style="fill:#FFFFFF;" d="M253.913,154.374c0,7.582-5.253,10.886-10.209,10.886c-5.549,0-9.827-4.066-9.827-10.547
		c0-6.862,4.49-10.887,10.166-10.887C249.931,143.827,253.913,148.105,253.913,154.374z M237.647,154.586
		c0,4.489,2.583,7.878,6.227,7.878c3.558,0,6.227-3.346,6.227-7.963c0-3.474-1.737-7.879-6.142-7.879
		C239.553,146.622,237.647,150.689,237.647,154.586z"/>
	<path style="fill:#FFFFFF;" d="M257.892,162.634c0-1.525,1.059-2.626,2.499-2.626c1.525,0,2.499,1.1,2.499,2.626
		c0,1.482-0.974,2.626-2.499,2.626C258.909,165.26,257.892,164.117,257.892,162.634z M258.951,156.577l-0.593-20.332h4.066
		l-0.593,20.332H258.951z"/>
</g>
<path style="fill:#0591C4;" d="M368.412,147.582c0,0-16.593,22.931-58.709,25.528c-12.646,0.78-11.433-9.639-11.433-9.639
	c0.919,0.016,2.34-0.016,4.034-0.298c10.282-1.713,13.713-9.848,22.384-16.63c1.97-1.541,14.636-11.447,28.116-8.745
	C360.525,139.346,365.758,144.479,368.412,147.582z"/>
<rect x="439.45" y="88.776" style="fill:#FEFEFE;" width="194.329" height="123.953"/>
<polygon style="fill:#FEFEFE;" points="491.23,206.056 453.929,239.675 463.929,205.442 "/>
<linearGradient id="SVGID_00000139268784129906108980000017328173123383605382_" gradientUnits="userSpaceOnUse" x1="312.9997" y1="8.4652" x2="644.6661" y2="168.4649">
	<stop  offset="0" style="stop-color:#80BCF5"/>
	<stop  offset="1" style="stop-color:#A6D0F9"/>
</linearGradient>
<rect x="448.927" y="105.242" style="fill:url(#SVGID_00000139268784129906108980000017328173123383605382_);" width="167.002" height="18.156"/>
<linearGradient id="SVGID_00000015314350156206711070000010898485362692007061_" gradientUnits="userSpaceOnUse" x1="299.7954" y1="35.8377" x2="631.4618" y2="195.8374">
	<stop  offset="0" style="stop-color:#80BCF5"/>
	<stop  offset="1" style="stop-color:#A6D0F9"/>
</linearGradient>
<rect x="448.927" y="136" style="fill:url(#SVGID_00000015314350156206711070000010898485362692007061_);" width="138.002" height="10.134"/>
<linearGradient id="SVGID_00000150089661370061078230000014470325175469150373_" gradientUnits="userSpaceOnUse" x1="294.0797" y1="47.6866" x2="625.7471" y2="207.6868">
	<stop  offset="0" style="stop-color:#80BCF5"/>
	<stop  offset="1" style="stop-color:#A6D0F9"/>
</linearGradient>
<rect x="448.927" y="155.913" style="fill:url(#SVGID_00000150089661370061078230000014470325175469150373_);" width="160.002" height="10.134"/>
<linearGradient id="SVGID_00000131348880743072760010000016993295258864266934_" gradientUnits="userSpaceOnUse" x1="281.8307" y1="73.0774" x2="613.4976" y2="233.0774">
	<stop  offset="0" style="stop-color:#80BCF5"/>
	<stop  offset="1" style="stop-color:#A6D0F9"/>
</linearGradient>
<rect x="448.927" y="175.831" style="fill:url(#SVGID_00000131348880743072760010000016993295258864266934_);" width="114.405" height="10.902"/>
<ellipse transform="matrix(0.7071 -0.7071 0.7071 0.7071 -222.7529 201.4527)" style="fill:#FEFEFE;" cx="131.799" cy="369.613" rx="37.693" ry="37.693"/>
<polygon style="fill:#FEFEFE;" points="166.66,361.729 182.063,336.423 144.236,350.326 "/>
<g>
	<path style="fill:#AEE6FD;" d="M127.848,378.486l-0.121-1.58c-0.365-3.282,0.729-6.867,3.768-10.514
		c2.735-3.222,4.255-5.592,4.255-8.327c0-3.099-1.945-5.165-5.774-5.227c-2.188,0-4.619,0.729-6.138,1.885l-1.459-3.829
		c2.006-1.459,5.47-2.432,8.691-2.432c6.989,0,10.15,4.315,10.15,8.935c0,4.133-2.31,7.11-5.228,10.575
		c-2.674,3.16-3.646,5.834-3.464,8.934l0.061,1.58H127.848z M126.511,386.995c0-2.249,1.52-3.829,3.646-3.829
		c2.127,0,3.586,1.58,3.586,3.829c0,2.127-1.398,3.769-3.646,3.769C127.97,390.763,126.511,389.122,126.511,386.995z"/>
</g>
</svg>
