<?xml version="1.0" encoding="utf-8"?>
<!-- Generator: Adobe Illustrator 27.5.0, SVG Export Plug-In . SVG Version: 6.00 Build 0)  -->
<svg version="1.1" xmlns="http://www.w3.org/2000/svg" xmlns:xlink="http://www.w3.org/1999/xlink" x="0px" y="0px"
	 viewBox="0 0 1122 1122" style="enable-background:new 0 0 1122 1122;" xml:space="preserve">
<g id="BG">
	<g>
		<rect style="fill:#E5F5F9;" width="1122" height="1122"/>
		<circle style="opacity:0.37;fill:#FFFFFF;" cx="561" cy="561" r="454.546"/>
	</g>
</g>
<g id="Objects">
	<g>
		<g>
			<g>
				<path style="fill:#FFFFF5;" d="M614.656,1003.296H193.654V397.531h467.257V963.84
					C660.911,985.631,640.202,1003.296,614.656,1003.296z"/>
				<rect x="193.544" y="397.531" style="fill:#94AEBF;" width="466.477" height="28.124"/>
			</g>
			<g>
				<g>
					<path style="fill:#94AEBF;" d="M546.655,716.389c6.292,0,6.292-7.113,0-7.113c-78.048,0-156.097,0-234.145,0
						c-6.292,0-6.292,7.113,0,7.113l0,0H546.655z"/>
				</g>
			</g>
			<g>
				<path style="fill:#CDDBA6;" d="M407.754,445.16c-34.815,0-65.974,15.418-87.097,39.78l87.097,75.47l87.097-75.47
					C473.728,460.578,442.569,445.16,407.754,445.16z"/>
				<path style="fill:#A36652;" d="M530.127,543.521l-114.071,16.401v115.25c63.702,0,115.25-51.547,115.25-115.25
					C531.306,554.35,530.889,548.879,530.127,543.521z"/>
				<path style="fill:#B3D1E2;" d="M320.78,485.322c-41.058,48.706-34.868,121.342,13.839,162.399
					c4.26,3.591,8.712,6.798,13.301,9.669l60.98-97.788L320.78,485.322z"/>
				<path style="fill:#679BC6;" d="M408.741,675.007c-21.596,0.005-43.266-6.024-62.303-18.303l62.315-96.943L408.741,675.007z"/>
				<path style="fill:#F4D242;" d="M535.987,537.172c-3.19-22.428-12.826-42.752-26.974-59.069l-87.097,75.47L535.987,537.172z"/>
			</g>
			<g>
				<g>
					<rect x="248.587" y="866.184" style="fill:#679BC6;" width="45.625" height="109.897"/>
					<rect x="248.587" y="823.63" style="fill:#B3D1E2;" width="45.625" height="51.643"/>
				</g>
				<g>
					<rect x="548.955" y="871.141" style="fill:#679BC6;" width="45.625" height="109.897"/>
					<rect x="548.955" y="778.39" style="fill:#B3D1E2;" width="45.625" height="101.841"/>
				</g>
				<g>
					<rect x="448.832" y="862.465" style="fill:#679BC6;" width="45.625" height="116.094"/>
					<rect x="448.832" y="852.137" style="fill:#B3D1E2;" width="45.625" height="77.052"/>
				</g>
				<g>
					<rect x="348.71" y="822.029" style="fill:#679BC6;" width="45.625" height="155.911"/>
					<rect x="348.71" y="761.658" style="fill:#B3D1E2;" width="45.625" height="124.703"/>
				</g>
			</g>
			<g>
				<g>
					<path style="fill:#FFFFFF;" d="M211.367,419.546c-3.309,0-6-2.692-6-6c0-3.308,2.691-6,6-6c3.309,0,6,2.692,6,6
						C217.367,416.854,214.675,419.546,211.367,419.546z M211.367,408.546c-2.757,0-5,2.243-5,5c0,2.757,2.243,5,5,5
						c2.757,0,5-2.243,5-5C216.367,410.789,214.123,408.546,211.367,408.546z"/>
				</g>
				<g>
					<path style="fill:#FFFFFF;" d="M229.867,419.546c-3.309,0-6-2.692-6-6c0-3.308,2.691-6,6-6c3.309,0,6,2.692,6,6
						C235.867,416.854,233.175,419.546,229.867,419.546z M229.867,408.546c-2.757,0-5,2.243-5,5c0,2.757,2.243,5,5,5
						c2.757,0,5-2.243,5-5C234.867,410.789,232.623,408.546,229.867,408.546z"/>
				</g>
				<g>
					<path style="fill:#FFFFFF;" d="M248.367,419.546c-3.309,0-6-2.692-6-6c0-3.308,2.691-6,6-6c3.309,0,6,2.692,6,6
						C254.367,416.854,251.675,419.546,248.367,419.546z M248.367,408.546c-2.757,0-5,2.243-5,5c0,2.757,2.243,5,5,5
						c2.757,0,5-2.243,5-5C253.367,410.789,251.123,408.546,248.367,408.546z"/>
				</g>
			</g>
		</g>
		<path style="opacity:0.07;fill:#2E4661;" d="M906.223,971.796h-280.69v-433.5h306.755v407.435
			C932.288,960.126,920.618,971.796,906.223,971.796z"/>
		<g>
			<g>
				<path style="fill:#B3D1E2;" d="M916.095,952.637h-279.63V518.526h315.932v397.81
					C952.396,936.384,936.143,952.637,916.095,952.637z"/>
			</g>
			<rect x="669.996" y="553.188" style="fill:#F4F4F4;" width="255.754" height="161.727"/>
			<path style="fill:#CDDBA6;" d="M832.009,609.278c1.06,2.139,2.897,3.968,6.373,5.266c6.476,2.418,15.182,0.673,18.915-4.75
				c6.241-9.065,4.487-22.037,11.201-31.455c2.725-3.822,6.882-6.922,11.781-8.319c4.899-1.397,10.52-0.988,14.88,1.414
				c7.101,3.912,9.559,11.995,9.628,19.33c0.133,14.089-1.837,28.652-4.375,42.555c-1.228,6.727-3.119,13.638-7.994,18.954
				c-6.613,7.209-17.502,10.211-27.914,11.816c-26.346,4.06-53.369,1.578-79.97-0.915c-21.397-2.005-42.794-4.01-64.19-6.016
				c-6.031-0.565-23.791,0.347-27.402-3.832c-3.526-4.081-0.755-17.91,1.307-22.178c4.592-9.506,17.153-14.87,28.942-14.267
				c26.592,1.361,16.08-26.409,24.592-39.596c4.522-7.005,14.479-12.039,23.055-9.12c8.179,2.784,11.595,10.994,15.626,17.807
				c2.093,3.537,5.066,7.204,9.539,7.969c7.605,1.301,13.95-6.43,21.693-6.133c4.584,0.176,8.485,3.27,10.465,6.887
				C830.852,599.614,829.913,605.05,832.009,609.278z"/>
			<path style="fill:#679BC6;" d="M909.034,706.14c-0.011,0,0.042-11.64,0.044-12.279c0.062-17.371,0.06-34.742,0.081-52.112
				c0.02-16.598,1.389-33.19,1.119-49.746c-0.12-7.659-3.428-11.661-11.495-9.607c-7.941,2.022-15.205,6.735-20.203,13.239
				c-3.385,4.405-6.199,9.921-11.464,11.695c-9.41,3.171-17.109-7.427-25.559-12.642c-9.098-5.615-21.763-4.669-29.927,2.234
				c-9.866,8.343-12.129,22.767-20.479,32.628c-9.19,10.853-25.883,14.527-38.78,8.535c-5.298-2.461-9.852-6.297-15.074-8.915
				c-20.712-10.383-49.508,4.557-52.945,27.469v47.412C684.352,704.05,909.452,706.557,909.034,706.14z"/>
			<rect x="674.175" y="739.572" style="fill:#CDDBA6;" width="19.223" height="19.223"/>
			<rect x="674.175" y="767.989" style="fill:#679BC6;" width="19.223" height="19.223"/>
			<rect x="709.279" y="745.422" style="fill:#FFFFF5;" width="55.999" height="5.851"/>
			<rect x="708.443" y="776.347" style="fill:#FFFFF5;" width="55.999" height="5.851"/>
			<rect x="676.682" y="819.991" style="fill:#FFFFF5;" width="244.053" height="6.321"/>
			<rect x="676.682" y="838.352" style="fill:#FFFFF5;" width="108.654" height="86.61"/>
			<rect x="802.052" y="839.188" style="fill:#FFFFF5;" width="118.684" height="37.715"/>
			<rect x="800.798" y="886.829" style="fill:#FFFFF5;" width="118.684" height="37.715"/>
		</g>
		<g>
			<path style="fill:#CDDBA6;" d="M478.189,118.704H171.742c-1.181,0-2.138,1.043-2.138,2.33v162.342
				c0,40.023,29.777,72.469,66.51,72.469h127.061l51.953,72.89c1.389,1.948,4.459,0.991,4.495-1.401l1.067-71.489h57.5
				c1.181,0,2.138-1.043,2.138-2.33V121.034C480.328,119.747,479.37,118.704,478.189,118.704z"/>
			<g>
				<rect x="209.734" y="157.5" style="fill:#FFFFF5;" width="190.886" height="7.954"/>
				<rect x="209.734" y="218.146" style="fill:#FFFFF5;" width="227.672" height="7.954"/>
				<rect x="209.734" y="278.793" style="fill:#FFFFF5;" width="227.672" height="7.954"/>
			</g>
		</g>
		<path style="opacity:0.07;fill:#2E4661;" d="M775.589,464.964H528.195V334.297h282v96.06
			C810.195,449.47,794.701,464.964,775.589,464.964z"/>
		<g>
			<g>
				<path style="fill:#6A8678;" d="M779.714,452.461H538.879V281.744h225.52l48.298,51.011v84.453
					C812.696,436.678,797.93,452.461,779.714,452.461z"/>
				<polygon style="fill:#F4D242;" points="812.506,333.162 764.018,334.382 764.018,281.744 				"/>
			</g>
			<g>
				<rect x="604.924" y="326.049" style="fill:#F4F4F4;" width="153.642" height="7.316"/>
				<rect x="580.585" y="361.412" style="fill:#F4F4F4;" width="177.982" height="7.316"/>
				<rect x="580.585" y="396.775" style="fill:#F4F4F4;" width="177.982" height="7.316"/>
			</g>
		</g>
	</g>
</g>
</svg>
