<?xml version="1.0" encoding="utf-8"?>
<!-- Generator: Adobe Illustrator 27.5.0, SVG Export Plug-In . SVG Version: 6.00 Build 0)  -->
<svg version="1.1" xmlns="http://www.w3.org/2000/svg" xmlns:xlink="http://www.w3.org/1999/xlink" x="0px" y="0px"
	 viewBox="0 0 750 500" style="enable-background:new 0 0 750 500;" xml:space="preserve">
<g id="BACKGROUND">
	<rect style="fill:#FEECE8;" width="750" height="500"/>
	<rect y="390.558" style="fill:#F4D4D0;" width="750" height="109.442"/>
</g>
<g id="OBJECTS">
	<g>
		<g>
			<rect x="476.534" y="447.509" style="fill:#070908;" width="19.055" height="52.491"/>
			<rect x="683.256" y="447.509" style="fill:#070908;" width="19.055" height="52.491"/>
			<rect x="451.416" y="414.81" style="fill:#FFFFFF;" width="276.014" height="42.145"/>
			<polygon style="fill:#D25754;" points="490.947,456.955 471.096,456.955 451.416,414.81 471.266,414.81 			"/>
			<polygon style="fill:#D25754;" points="609.539,456.955 589.688,456.955 570.008,414.81 589.858,414.81 			"/>
			<polygon style="fill:#D25754;" points="648.368,456.955 628.518,456.955 608.838,414.81 628.688,414.81 			"/>
			<polygon style="fill:#D25754;" points="727.43,456.955 707.579,456.955 687.899,414.81 707.75,414.81 			"/>
			<polygon style="fill:#D25754;" points="687.899,456.955 668.049,456.955 648.368,414.81 668.219,414.81 			"/>
			<polygon style="fill:#D25754;" points="570.008,456.955 550.157,456.955 530.477,414.81 550.328,414.81 			"/>
			<polygon style="fill:#D25754;" points="530.477,456.955 510.627,456.955 490.947,414.81 510.797,414.81 			"/>
			<rect x="486.061" y="484.923" style="fill:#070908;" width="202.873" height="0.75"/>
			<rect x="486.061" y="480.397" style="fill:#070908;" width="202.873" height="0.75"/>
		</g>
		<g>
			<g>
				<g>
					<rect x="0.065" y="122.825" style="fill:#F4D4D0;" width="21.917" height="267.732"/>
					<rect x="0.065" y="99.855" style="fill:#F4D4D0;" width="16.983" height="22.97"/>
					<rect x="0.065" y="122.45" style="fill:#E8BDBA;" width="16.983" height="0.75"/>
					<rect x="0.065" y="135.501" style="fill:#FEECE8;" width="14.716" height="8.025"/>
					<rect x="0.065" y="154.281" style="fill:#FEECE8;" width="14.716" height="8.025"/>
					<rect x="0.065" y="173.062" style="fill:#FEECE8;" width="14.716" height="8.025"/>
					<rect x="0.065" y="191.843" style="fill:#FEECE8;" width="14.716" height="8.025"/>
					<rect x="0.065" y="210.623" style="fill:#FEECE8;" width="14.716" height="8.025"/>
					<rect x="0.065" y="229.404" style="fill:#FEECE8;" width="14.716" height="8.025"/>
					<rect x="0.065" y="248.184" style="fill:#FEECE8;" width="14.716" height="8.025"/>
					<rect x="0.065" y="266.965" style="fill:#FEECE8;" width="14.716" height="8.025"/>
					<rect x="0.065" y="285.794" style="fill:#FEECE8;" width="14.716" height="8.025"/>
					<rect x="0.065" y="304.575" style="fill:#FEECE8;" width="14.716" height="8.025"/>
					<rect x="0.065" y="323.356" style="fill:#FEECE8;" width="14.716" height="8.025"/>
					<rect x="0.065" y="342.136" style="fill:#FEECE8;" width="14.716" height="8.025"/>
					<rect x="0.065" y="360.256" style="fill:#FEECE8;" width="14.716" height="8.025"/>
				</g>
				<g>
					<path style="fill:#F4D4D0;" d="M686.083,126.104v264.454H750V126.104H686.083z M708.395,334.498h-9.564v-17.11h9.564V334.498z
						 M708.395,305.782h-9.564v-17.11h9.564V305.782z M708.395,277.066h-9.564v-17.11h9.564V277.066z M708.395,248.351h-9.564
						v-17.11h9.564V248.351z M708.395,219.635h-9.564v-17.11h9.564V219.635z M708.395,190.92h-9.564v-17.11h9.564V190.92z
						 M708.395,162.204h-9.564v-17.11h9.564V162.204z M726.55,334.498h-9.564v-17.11h9.564V334.498z M726.55,305.782h-9.564v-17.11
						h9.564V305.782z M726.55,277.066h-9.564v-17.11h9.564V277.066z M726.55,248.351h-9.564v-17.11h9.564V248.351z M726.55,219.635
						h-9.564v-17.11h9.564V219.635z M726.55,190.92h-9.564v-17.11h9.564V190.92z M726.55,162.204h-9.564v-17.11h9.564V162.204z
						 M744.706,334.498h-9.564v-17.11h9.564V334.498z M744.706,305.782h-9.564v-17.11h9.564V305.782z M744.706,277.066h-9.564
						v-17.11h9.564V277.066z M744.706,248.351h-9.564v-17.11h9.564V248.351z M744.706,219.635h-9.564v-17.11h9.564V219.635z
						 M744.706,190.92h-9.564v-17.11h9.564V190.92z M744.706,162.204h-9.564v-17.11h9.564V162.204z"/>
					<rect x="694.513" y="120.048" style="fill:#F4D4D0;" width="18.168" height="6.056"/>
					<rect x="694.513" y="125.729" style="fill:#E8BDBA;" width="18.168" height="0.75"/>
					<rect x="740.742" y="120.048" style="fill:#F4D4D0;" width="9.258" height="6.056"/>
					<rect x="740.741" y="125.729" style="fill:#E8BDBA;" width="9.259" height="0.75"/>
				</g>
				<g>
					<rect x="42.003" y="83.914" style="fill:#F4D4D0;" width="122.157" height="303.685"/>
					<rect x="59.328" y="68.876" style="fill:#F4D4D0;" width="87.507" height="15.038"/>
					<g>
						<rect x="54.226" y="95.481" style="fill:#FEECE8;" width="9.685" height="13.973"/>
						<rect x="71.831" y="95.481" style="fill:#FEECE8;" width="9.685" height="13.973"/>
						<rect x="89.436" y="95.481" style="fill:#FEECE8;" width="9.685" height="13.973"/>
						<rect x="107.041" y="95.481" style="fill:#FEECE8;" width="9.685" height="13.973"/>
						<rect x="124.647" y="95.481" style="fill:#FEECE8;" width="9.685" height="13.973"/>
						<rect x="142.252" y="95.481" style="fill:#FEECE8;" width="9.685" height="13.973"/>
						<rect x="54.226" y="121.456" style="fill:#FEECE8;" width="9.685" height="13.973"/>
						<rect x="71.831" y="121.456" style="fill:#FEECE8;" width="9.685" height="13.973"/>
						<rect x="89.436" y="121.456" style="fill:#FEECE8;" width="9.685" height="13.973"/>
						<rect x="107.041" y="121.456" style="fill:#FEECE8;" width="9.685" height="13.973"/>
						<rect x="124.647" y="121.456" style="fill:#FEECE8;" width="9.685" height="13.973"/>
						<rect x="142.252" y="121.456" style="fill:#FEECE8;" width="9.685" height="13.973"/>
					</g>
					<g>
						<rect x="54.226" y="164.503" style="fill:#FEECE8;" width="9.685" height="13.973"/>
						<rect x="71.831" y="164.503" style="fill:#FEECE8;" width="9.685" height="13.973"/>
						<rect x="89.436" y="164.503" style="fill:#FEECE8;" width="9.685" height="13.973"/>
						<rect x="107.041" y="164.503" style="fill:#FEECE8;" width="9.685" height="13.973"/>
						<rect x="124.647" y="164.503" style="fill:#FEECE8;" width="9.685" height="13.973"/>
						<rect x="142.252" y="164.503" style="fill:#FEECE8;" width="9.685" height="13.973"/>
						<rect x="54.226" y="190.477" style="fill:#FEECE8;" width="9.685" height="13.973"/>
						<rect x="71.831" y="190.477" style="fill:#FEECE8;" width="9.685" height="13.973"/>
						<rect x="89.436" y="190.477" style="fill:#FEECE8;" width="9.685" height="13.973"/>
						<rect x="107.041" y="190.477" style="fill:#FEECE8;" width="9.685" height="13.973"/>
						<rect x="124.647" y="190.477" style="fill:#FEECE8;" width="9.685" height="13.973"/>
						<rect x="142.252" y="190.477" style="fill:#FEECE8;" width="9.685" height="13.973"/>
					</g>
					<g>
						<rect x="54.226" y="233.525" style="fill:#FEECE8;" width="9.685" height="13.973"/>
						<rect x="71.831" y="233.525" style="fill:#FEECE8;" width="9.685" height="13.973"/>
						<rect x="89.436" y="233.525" style="fill:#FEECE8;" width="9.685" height="13.973"/>
						<rect x="107.041" y="233.525" style="fill:#FEECE8;" width="9.685" height="13.973"/>
						<rect x="124.647" y="233.525" style="fill:#FEECE8;" width="9.685" height="13.973"/>
						<rect x="142.252" y="233.525" style="fill:#FEECE8;" width="9.685" height="13.973"/>
						<rect x="54.226" y="259.499" style="fill:#FEECE8;" width="9.685" height="13.973"/>
						<rect x="71.831" y="259.499" style="fill:#FEECE8;" width="9.685" height="13.973"/>
						<rect x="89.436" y="259.499" style="fill:#FEECE8;" width="9.685" height="13.973"/>
						<rect x="107.041" y="259.499" style="fill:#FEECE8;" width="9.685" height="13.973"/>
						<rect x="124.647" y="259.499" style="fill:#FEECE8;" width="9.685" height="13.973"/>
						<rect x="142.252" y="259.499" style="fill:#FEECE8;" width="9.685" height="13.973"/>
					</g>
					<g>
						<rect x="54.226" y="302.546" style="fill:#FEECE8;" width="9.685" height="13.972"/>
						<rect x="71.831" y="302.546" style="fill:#FEECE8;" width="9.685" height="13.972"/>
						<rect x="89.436" y="302.546" style="fill:#FEECE8;" width="9.685" height="13.972"/>
						<rect x="107.041" y="302.546" style="fill:#FEECE8;" width="9.685" height="13.972"/>
						<rect x="124.647" y="302.546" style="fill:#FEECE8;" width="9.685" height="13.972"/>
						<rect x="142.252" y="302.546" style="fill:#FEECE8;" width="9.685" height="13.972"/>
						<rect x="54.226" y="328.52" style="fill:#FEECE8;" width="9.685" height="13.973"/>
						<rect x="71.831" y="328.52" style="fill:#FEECE8;" width="9.685" height="13.973"/>
						<rect x="89.436" y="328.52" style="fill:#FEECE8;" width="9.685" height="13.973"/>
						<rect x="107.041" y="328.52" style="fill:#FEECE8;" width="9.685" height="13.973"/>
						<rect x="124.647" y="328.52" style="fill:#FEECE8;" width="9.685" height="13.973"/>
						<rect x="142.252" y="328.52" style="fill:#FEECE8;" width="9.685" height="13.973"/>
					</g>
					<rect x="59.328" y="83.539" style="fill:#E8BDBA;" width="87.506" height="0.75"/>
				</g>
				<g>
					<rect x="237.977" y="120.776" style="fill:#F4D4D0;" width="122.722" height="226.357"/>
					<rect x="255.382" y="109.567" style="fill:#F4D4D0;" width="87.911" height="11.209"/>
					<rect x="255.382" y="120.401" style="fill:#E8BDBA;" width="87.911" height="0.75"/>
					<rect x="249.833" y="131.493" style="fill:#FEECE8;" width="99.007" height="6.785"/>
					<rect x="249.833" y="147.371" style="fill:#FEECE8;" width="99.007" height="6.785"/>
					<rect x="249.833" y="163.249" style="fill:#FEECE8;" width="99.007" height="6.785"/>
					<rect x="249.833" y="179.128" style="fill:#FEECE8;" width="99.007" height="6.785"/>
					<rect x="249.833" y="195.006" style="fill:#FEECE8;" width="99.007" height="6.785"/>
					<rect x="249.833" y="210.884" style="fill:#FEECE8;" width="99.007" height="6.785"/>
					<rect x="249.833" y="226.762" style="fill:#FEECE8;" width="99.007" height="6.785"/>
					<rect x="249.833" y="242.641" style="fill:#FEECE8;" width="99.007" height="6.785"/>
				</g>
			</g>
			<g>
				<path style="fill:#6C78B9;" d="M486.681,155.385v78.374h63.187v-78.374H486.681z M504.741,211.372h-8.56v-33.599h8.56V211.372z
					 M529.824,211.372h-23.099v-33.599h23.099V211.372z M540.369,211.372h-8.56v-33.599h8.56V211.372z"/>
				<path style="fill:#6C78B9;" d="M549.868,155.385v78.374h63.187v-78.374H549.868z M567.928,211.372h-8.56v-33.599h8.56V211.372z
					 M593.012,211.372h-23.099v-33.599h23.099V211.372z M603.556,211.372h-8.56v-33.599h8.56V211.372z"/>
				<path style="fill:#6C78B9;" d="M486.681,234.014v78.374h63.187v-78.374H486.681z M504.741,290.001h-8.56v-33.599h8.56V290.001z
					 M529.824,290.001h-23.099v-33.599h23.099V290.001z M540.369,290.001h-8.56v-33.599h8.56V290.001z"/>
				<path style="fill:#6C78B9;" d="M423.494,234.014v78.374h63.187v-78.374H423.494z M441.553,290.001h-8.56v-33.599h8.56V290.001z
					 M466.637,290.001h-23.099v-33.599h23.099V290.001z M477.181,290.001h-8.56v-33.599h8.56V290.001z"/>
				<path style="fill:#6C78B9;" d="M549.868,234.014v78.374h63.187v-78.374H549.868z M567.928,290.001h-8.56v-33.599h8.56V290.001z
					 M593.012,290.001h-23.099v-33.599h23.099V290.001z M603.556,290.001h-8.56v-33.599h8.56V290.001z"/>
				<path style="fill:#6C78B9;" d="M486.681,312.134v78.374h63.187v-78.374H486.681z M504.741,368.121h-8.56v-33.599h8.56V368.121z
					 M529.824,368.121h-23.099v-33.599h23.099V368.121z M540.369,368.121h-8.56v-33.599h8.56V368.121z"/>
				<path style="fill:#6C78B9;" d="M423.494,312.134v78.374h63.187v-78.374H423.494z M441.553,368.121h-8.56v-33.599h8.56V368.121z
					 M466.637,368.121h-23.099v-33.599h23.099V368.121z M477.181,368.121h-8.56v-33.599h8.56V368.121z"/>
				<path style="fill:#6C78B9;" d="M549.868,312.134v78.374h63.187v-78.374H549.868z M567.928,368.121h-8.56v-33.599h8.56V368.121z
					 M593.012,368.121h-23.099v-33.599h23.099V368.121z M603.556,368.121h-8.56v-33.599h8.56V368.121z"/>
				<polygon style="fill:#070908;" points="487.056,390.509 486.306,390.509 486.306,233.385 613.056,233.385 613.056,234.135 
					487.056,234.135 				"/>
				<rect x="423.494" y="311.759" style="fill:#070908;" width="189.562" height="0.75"/>
				<rect x="549.493" y="155.385" style="fill:#070908;" width="0.75" height="235.632"/>
				<rect x="493.583" y="210.997" style="fill:#070908;" width="49.815" height="0.75"/>
				<rect x="556.555" y="210.997" style="fill:#070908;" width="49.815" height="0.75"/>
				<rect x="493.583" y="289.626" style="fill:#070908;" width="49.815" height="0.75"/>
				<rect x="430.802" y="289.626" style="fill:#070908;" width="49.815" height="0.75"/>
				<rect x="556.555" y="289.626" style="fill:#070908;" width="49.815" height="0.75"/>
				<rect x="493.583" y="367.746" style="fill:#070908;" width="49.815" height="0.75"/>
				<rect x="430.802" y="367.746" style="fill:#070908;" width="49.815" height="0.75"/>
				<rect x="556.555" y="367.746" style="fill:#070908;" width="49.815" height="0.75"/>
			</g>
			<g>
				<rect x="19.519" y="340.535" style="fill:#070908;" width="6.445" height="48.601"/>
				<rect x="89.438" y="340.535" style="fill:#070908;" width="6.445" height="48.601"/>
				<rect x="11.024" y="387.599" style="fill:#070908;" width="23.437" height="3.077"/>
				<rect x="80.942" y="387.599" style="fill:#070908;" width="23.436" height="3.077"/>
				<rect x="11.024" y="326.934" style="fill:#FFFFFF;" width="93.355" height="17.531"/>
				<polygon style="fill:#D25754;" points="24.394,344.464 17.68,344.464 11.024,326.934 17.737,326.934 				"/>
				<polygon style="fill:#D25754;" points="64.505,344.464 57.791,344.464 51.134,326.934 57.848,326.934 				"/>
				<polygon style="fill:#D25754;" points="77.638,344.464 70.924,344.464 64.268,326.934 70.982,326.934 				"/>
				<polygon style="fill:#D25754;" points="104.379,344.464 97.665,344.464 91.008,326.934 97.722,326.934 				"/>
				<polygon style="fill:#D25754;" points="91.008,344.464 84.294,344.464 77.638,326.934 84.352,326.934 				"/>
				<polygon style="fill:#D25754;" points="51.134,344.464 44.421,344.464 37.764,326.934 44.478,326.934 				"/>
				<polygon style="fill:#D25754;" points="37.764,344.464 31.05,344.464 24.394,326.934 31.108,326.934 				"/>
				<rect x="22.742" y="364.461" style="fill:#070908;" width="68.617" height="0.75"/>
				<rect x="22.742" y="361.246" style="fill:#070908;" width="68.617" height="0.75"/>
			</g>
			<g>
				<rect x="390.183" y="85.678" style="fill:#070908;" width="238.443" height="0.75"/>
				<path style="fill:#070908;" d="M373.363,143.835v2.959c-0.305,0.875-1.029,1.633-2.026,2.316
					c-7.557,4.851-5.661,15.246,2.959,15.246c5.468,0,8.684-3.281,8.298-9.907c0.788-0.708,0.289-2.943-1.415-2.091
					c-1.769,0.901-1.737,6.529-5.886,6.594c-3.192,0.064-3.892-3.337-2.662-5.243c1.102-1.801,4.398-2.879,4.656-6.915v-2.959
					H373.363z"/>
				<path style="fill:#F2AD33;" d="M377.11,144.784h-3.805c-0.689,0-1.248-0.559-1.248-1.248v-4.951
					c0-0.689,0.559-1.248,1.248-1.248h3.805c0.689,0,1.248,0.559,1.248,1.248v4.951C378.358,144.225,377.8,144.784,377.11,144.784z"
					/>
				<rect x="360.028" y="81.075" style="fill:#070908;" width="30.155" height="9.956"/>
				<path style="fill:#F2AD33;" d="M396.565,57.176h-8.442h-14.02l-0.005-0.007l-0.01,0.007h-4.034l-0.01-0.007l-0.005,0.007h-0.034
					v0.046L354.846,77.79h-0.023l-3.035,4.15l36.335,0.049V82h331.575V57.176H396.565z M388.123,61.387h8.442h2.689l-11.01,14.977
					l-11.039-14.977H388.123z M372.071,61.509l12.048,16.281h-24.09L372.071,61.509z M396.565,77.79h-4.212l11.323-15.403
					l11.323,15.403H396.565z M408.098,61.493h22.645l-11.323,15.403L408.098,61.493z M423.843,77.79l11.323-15.403l11.323,15.403
					H423.843z M439.588,61.387h22.646L450.911,76.79L439.588,61.387z M455.333,77.79l11.323-15.403l11.323,15.403H455.333z
					 M471.078,61.493h22.645l-11.323,15.403L471.078,61.493z M486.823,77.79l11.323-15.403l11.323,15.403H486.823z M502.568,61.387
					h22.645L513.891,76.79L502.568,61.387z M518.313,77.79l11.323-15.403l11.323,15.403H518.313z M534.058,61.493h22.202v-0.106
					h0.542l-0.542,0.737v-0.028l-10.879,14.8L534.058,61.493z M549.901,77.79l11.323-15.403l11.323,15.403H549.901z M565.646,61.493
					h22.645l-11.323,15.403L565.646,61.493z M581.391,77.79l11.323-15.403l11.323,15.403H581.391z M597.136,61.387h22.645
					L608.459,76.79L597.136,61.387z M612.881,77.79l11.323-15.403l11.323,15.403H612.881z M628.626,61.493h22.646l-11.323,15.403
					L628.626,61.493z M644.371,77.79l11.323-15.403l11.323,15.403H644.371z M660.116,61.387h22.645L671.439,76.79L660.116,61.387z
					 M675.861,77.79l11.323-15.403l11.323,15.403H675.861z M691.606,61.493h22.646l-11.323,15.403L691.606,61.493z M718.629,77.79
					h-11.277l11.277-15.342V77.79z"/>
				<path style="fill:#F2AD33;" d="M648.954,18.303h-10.685l-7.705,42.714h24.994L648.954,18.303z M639.081,38.022l2.454-13.602
					h3.402l2.103,13.602H639.081z"/>
				<path style="fill:#F2AD33;" d="M625.356,111.488v249.027h35.41V111.488H625.356z M631.513,119.268l21.972,16.177l-21.972,16.177
					V119.268z M631.362,164.258l21.972,16.177l-21.972,16.177V164.258z M631.513,209.247l21.972,16.177l-21.972,16.177V209.247z
					 M631.362,254.237l21.972,16.177l-21.972,16.177V254.237z M631.513,299.226l21.972,16.177l-21.972,16.177V299.226z
					 M653.293,360.423h-21.931v-16.207l21.972,16.177L653.293,360.423z M654.76,354.074l-21.973-16.177l21.973-16.177V354.074z
					 M654.76,309.085l-21.973-16.177l21.973-16.177V309.085z M654.76,264.095l-21.973-16.177l21.973-16.177V264.095z
					 M654.76,219.106l-21.973-16.177l21.973-16.177V219.106z M654.76,174.116l-21.973-16.177l21.973-16.177V174.116z
					 M654.76,129.127l-21.885-16.112h21.885V129.127z"/>
				<rect x="618.363" y="105.747" style="fill:#070908;" width="49.395" height="7.306"/>
				<polygon style="fill:#070908;" points="587.138,366.731 587.138,386.231 587.138,391.017 605.823,391.017 613.218,386.231 
					672.904,386.231 680.299,391.017 698.984,391.017 698.984,386.231 698.984,366.731 				"/>
				<g>
					<path style="fill:#D25754;" d="M667.366,108.678h-48.61c-5.059,0-9.161-4.101-9.161-9.161V75.211
						c0-2.399,0.941-4.702,2.62-6.414l21.518-21.94c1.723-1.757,4.08-2.746,6.54-2.746h27.092c5.059,0,9.161,4.101,9.161,9.161
						v46.246C676.527,104.576,672.425,108.678,667.366,108.678z"/>
					<path style="fill:#FFFFFF;" d="M615.789,92.613V76.125c0-1.389,0.546-2.722,1.52-3.711l20.297-20.627
						c0.698-0.71,1.653-1.11,2.648-1.11h17.62v20.968l-5.484,2.943c-6.64,3.564-10.783,10.489-10.783,18.025l0,0H615.789z"/>
					<rect x="648.771" y="82.239" style="fill:#070908;" width="6.044" height="0.75"/>
					<rect x="609.596" y="99.142" style="fill:#070908;" width="66.931" height="0.75"/>
					<rect x="661.977" y="44.11" style="fill:#070908;" width="0.75" height="55.407"/>
					<rect x="615.789" y="89.673" style="fill:#070908;" width="26.016" height="0.75"/>
					<rect x="636.88" y="52.141" style="fill:#070908;" width="20.994" height="0.75"/>
				</g>
				<polyline style="fill:#D25754;" points="596.362,366.731 596.362,360.129 689.76,360.129 689.76,366.731 				"/>
				<path style="fill:#070908;" d="M633.721,47.404l-0.535-0.525l0.28-0.285c1.781-1.817,4.263-2.859,6.808-2.859h12.474v0.75
					h-12.474c-2.345,0-4.631,0.96-6.272,2.634L633.721,47.404z"/>
				<rect x="718.629" y="54.449" style="fill:#F2AD33;" width="7.922" height="30.28"/>
				<g>
					<rect x="367.322" y="88.511" style="fill:#070908;" width="0.75" height="39.201"/>
					<rect x="382.14" y="88.511" style="fill:#070908;" width="0.75" height="39.201"/>
				</g>
				<path style="fill:#070908;" d="M385.465,122.654c0-5.665-4.592-10.257-10.257-10.257c-5.665,0-10.257,4.592-10.257,10.257
					c0,1.103,0.179,2.164,0.501,3.16h-0.004l4.111,11.492c0.494,1.382,1.803,2.304,3.271,2.304h4.856
					c1.407,0,2.664-0.882,3.142-2.206l4.2-11.639l-0.045,0C385.294,124.782,385.465,123.738,385.465,122.654z"/>
				<circle style="fill:#F2AD33;" cx="375.208" cy="123.216" r="5.695"/>
				<path style="fill:#070908;" d="M375.207,126.479c-1.799,0-3.263-1.464-3.263-3.263c0-1.799,1.464-3.263,3.263-3.263
					c1.799,0,3.263,1.464,3.263,3.263C378.471,125.015,377.007,126.479,375.207,126.479z M375.207,120.703
					c-1.386,0-2.513,1.127-2.513,2.513c0,1.386,1.127,2.513,2.513,2.513c1.386,0,2.513-1.127,2.513-2.513
					C377.721,121.83,376.594,120.703,375.207,120.703z"/>
				<rect x="320.798" y="184.712" style="fill:#6C78B9;" width="107.975" height="11.767"/>
				<polygon style="fill:#070908;" points="425.614,185.048 375.164,159.85 325.162,185.047 324.824,184.377 375.162,159.011 
					425.95,184.377 				"/>
				<rect x="320.798" y="184.337" style="fill:#070908;" width="107.975" height="0.75"/>
				<rect x="372.071" y="61.134" style="fill:#070908;" width="242.213" height="0.75"/>
				<rect x="360.028" y="77.415" style="fill:#070908;" width="239.958" height="0.75"/>
				<rect x="679.646" y="61.134" style="fill:#070908;" width="38.983" height="0.75"/>
				<rect x="681.178" y="77.415" style="fill:#070908;" width="37.451" height="0.75"/>
				<rect x="718.254" y="55.495" style="fill:#070908;" width="0.75" height="27.915"/>
				<rect x="631.138" y="115.58" style="fill:#070908;" width="0.75" height="244.55"/>
				<rect x="654.385" y="122.303" style="fill:#070908;" width="0.75" height="237.827"/>
			</g>
			<rect y="390.183" style="fill:#070908;" width="750" height="0.75"/>
		</g>
		<g>
			<path style="fill:#FFFFFF;" d="M427.446,157.639c0.632-1.585,2.178-2.706,3.989-2.706c0.938,0,1.802,0.304,2.509,0.813
				c0.041-4.219,3.471-7.628,7.7-7.628c2.099,0,3.999,0.842,5.389,2.203c1.306-4.076,5.123-7.029,9.633-7.029
				c5.196,0,9.472,3.919,10.046,8.961c0.748-0.342,1.577-0.538,2.453-0.538c3.261,0,5.905,2.644,5.905,5.905
				c0,0.006-0.001,0.012-0.001,0.018H427.446z"/>
			<path style="fill:#FFFFFF;" d="M234.709,73.312c1.227-3.075,4.226-5.25,7.738-5.25c1.819,0,3.496,0.589,4.867,1.578
				c0.08-8.185,6.734-14.797,14.938-14.797c4.071,0,7.758,1.633,10.453,4.273c2.533-7.908,9.938-13.635,18.687-13.635
				c10.08,0,18.375,7.603,19.489,17.384c1.451-0.664,3.058-1.044,4.758-1.044c6.327,0,11.456,5.129,11.456,11.456
				c0,0.012-0.002,0.023-0.002,0.035H234.709z"/>
			<path style="fill:#FFFFFF;" d="M119.655,50.745c-0.359-3.966-3.688-7.074-7.747-7.074c-2.534,0-4.777,1.216-6.199,3.09
				c-0.728-5.363-5.313-9.501-10.877-9.501c-2.86,0-5.456,1.102-7.411,2.892c-1.042-8.372-8.179-14.853-16.834-14.853
				c-6.708,0-12.505,3.893-15.26,9.542c-2.187-1.544-4.85-2.46-7.73-2.46c-7.115,0-12.922,5.538-13.383,12.537
				c-1.215-0.785-2.66-1.246-4.215-1.246c-4.059,0-7.389,3.108-7.747,7.074H119.655z"/>
			<g>
				<path style="fill:#FFFFFF;" d="M571.564,34.488c-2.232,0-4.208,1.071-5.46,2.722c-0.641-4.725-4.681-8.37-9.581-8.37
					c-2.519,0-4.806,0.97-6.529,2.548c-0.918-7.375-7.205-13.084-14.829-13.084c-5.909,0-11.016,3.429-13.443,8.406
					c-1.927-1.36-4.272-2.167-6.81-2.167c-6.268,0-11.384,4.879-11.79,11.044c-1.071-0.692-2.344-1.098-3.713-1.098
					c-3.576,0-6.509,2.738-6.825,6.231h85.804C578.073,37.226,575.14,34.488,571.564,34.488z"/>
				<path style="fill:#FFFFFF;" d="M477.658,32.941c-3.598,0-6.643,2.368-7.663,5.63c-0.796-0.44-1.71-0.692-2.684-0.692
					c-2.081,0-3.89,1.147-4.842,2.84h23.204C485.54,36.402,482.007,32.941,477.658,32.941z"/>
			</g>
		</g>
		<g>
			<path style="fill:#6C78B9;" d="M145.789,245.826c-8.763-5.383-18.781-7.19-28.167-5.103
				c-10.588,2.356-19.487,9.439-25.716,20.453c-40.265,63.618-55.389,115.378-55.389,115.378
				c-8.094,20.151-3.966,35.321-0.029,41.773c5.671,9.293,16.107,14.717,27.235,14.153c1.316-0.066,2.616-0.212,3.899-0.438
				c11.714-2.058,21.926-10.616,27.839-23.553l64.476-107.863l0.1-0.18C172.232,276.427,161.201,255.294,145.789,245.826z"/>
			<path style="fill:#6C78B9;" d="M235.876,245.826c8.763-5.383,18.781-7.19,28.167-5.103c10.589,2.356,19.487,9.439,25.716,20.453
				c40.265,63.618,55.389,115.378,55.389,115.378c8.094,20.151,26.773,25.932,26.773,25.932s-33.916,24.446-38.859,26.889
				c-4.578,2.262-9.769,3.376-15.12,3.105c-1.316-0.066-2.616-0.212-3.899-0.438c-11.714-2.058-21.927-10.616-27.839-23.553
				L221.73,300.627l-0.1-0.18C209.434,276.427,220.464,255.294,235.876,245.826z"/>
			<g>
				<g>
					<path style="fill:#D25754;" d="M215.748,251.283c0,20.918-37.951,18.038-51.139-3.425v-68.115h51.139L215.748,251.283z"/>
					<path style="fill:#070908;" d="M164.341,184.991c-11.577-22.798-14.796-79.242,8.818-80.208l70.798,2.799
						c0,0,9.45,3.79-0.168,45.664L164.341,184.991z"/>
					<path style="fill:#D25754;" d="M164.61,185.106c2.753,6.191,6.503,12.106,10.693,17.369
						c8.324,10.458,18.572,15.887,31.894,16.507c9.839,0.458,19.049-1.988,25.754-9.695c13.372-15.37,12.031-35.366,12.139-54.571
						c0.071-12.605-0.018-25.214-0.268-37.817l-56.229-13.297l-13.5,7.709l-7.877,14.826l-2.449,15.955L164.61,185.106z"/>
					<path style="fill:#070908;" d="M168.167,161.32c8.633-1.823,10.319-23.936,11.517-40.627c0,0,34.119,12.284,64.573,0.247
						c8.873,0.148-16.357-45.423-81.889-10.185l-0.607,41.872L168.167,161.32z"/>
					<path style="fill:#D25754;" d="M169.399,155.72c-0.089-0.138-0.18-0.274-0.272-0.408c-0.996-1.454-2.219-2.862-3.748-3.737
						c-3.23-1.848-6.84-1.239-9.874,0.743c-12.199,8.999-0.594,35.444,12.674,32.612c5.336-2.198,6.695-7.807,6.204-13.173
						C173.908,166.558,172.278,160.161,169.399,155.72z"/>
					<path style="fill:#070908;" d="M162.988,174.707c-4.979-2.72-6.342-8.931-4.749-13.126c0.985-2.593,2.931-3.827,5.213-3.305
						l-0.168,0.731c-2.71-0.622-3.941,1.778-4.344,2.84c-1.292,3.401-0.479,9.533,4.407,12.202L162.988,174.707z"/>
					<path style="fill:#070908;" d="M186.866,212.904c8.19,4.809,17.453,7.234,28.882,5.639v8.828
						C195.285,226.218,186.866,212.904,186.866,212.904z"/>
					<path style="fill:#070908;" d="M194.3,162.489l-0.282-0.695c5.993-2.432,10.312-2.406,12.836,0.08l-0.526,0.534
						C204.036,160.152,199.989,160.178,194.3,162.489z"/>
					<g>
						<path style="fill:#070908;" d="M204.106,162.886c-0.006,1.503-1.204,2.716-2.676,2.71c-1.472-0.006-2.661-1.228-2.656-2.731
							c0.006-1.502,1.204-2.716,2.676-2.71C202.922,160.161,204.111,161.383,204.106,162.886z"/>
						<path style="fill:#070908;" d="M240.6,163.041c-0.005,1.478-1.184,2.672-2.633,2.667c-1.449-0.006-2.619-1.208-2.613-2.687
							s1.184-2.672,2.633-2.667C239.435,160.36,240.605,161.563,240.6,163.041z"/>
						<path style="fill:#070908;" d="M193.071,151.078c1.035-0.759,2.186-1.358,3.409-1.811c1.221-0.456,2.531-0.738,3.87-0.798
							c2.672-0.161,5.494,0.798,7.293,2.718c0.141,0.151,0.133,0.387-0.017,0.528c-0.106,0.1-0.261,0.123-0.389,0.076
							c-1.169-0.43-2.277-0.814-3.409-1.036c-1.125-0.24-2.261-0.325-3.41-0.309c-1.15,0.027-2.308,0.192-3.478,0.422
							c-1.171,0.234-2.341,0.559-3.554,0.867c-0.198,0.052-0.401-0.066-0.453-0.263
							C192.892,151.321,192.954,151.166,193.071,151.078z"/>
						<path style="fill:#070908;" d="M229.608,151.078c1.035-0.759,2.186-1.358,3.409-1.811c1.221-0.456,2.531-0.738,3.87-0.798
							c2.672-0.161,5.494,0.798,7.293,2.718c0.141,0.151,0.133,0.387-0.017,0.528c-0.106,0.1-0.26,0.123-0.389,0.076
							c-1.169-0.43-2.277-0.814-3.409-1.036c-1.125-0.24-2.261-0.325-3.41-0.309c-1.15,0.027-2.308,0.192-3.478,0.422
							c-1.17,0.234-2.341,0.559-3.554,0.867c-0.198,0.052-0.401-0.066-0.453-0.263C229.429,151.321,229.49,151.166,229.608,151.078z
							"/>
						<path style="fill:#070908;" d="M216.595,192.524c-1.457,0-2.962-0.311-4.506-0.936l0.281-0.695
							c2.867,1.159,5.584,1.172,8.075,0.038l0.311,0.683C219.423,192.221,218.032,192.524,216.595,192.524z"/>
						<path style="fill:#070908;" d="M218.565,187.001c-6.484,0-12.592-0.741-14.827-4.806l0.657-0.361
							c2.673,4.863,12.226,4.548,19.9,4.29l0.856-0.028l0.024,0.75l-0.855,0.028C222.43,186.937,220.481,187.001,218.565,187.001z"
							/>
						<path style="fill:#FFFFFF;" d="M208.306,169.067h-16.598c-3.307,0-5.998-2.69-5.998-5.998v-4.36
							c0-3.307,2.69-5.998,5.998-5.998h16.598c3.307,0,5.998,2.69,5.998,5.998v4.36
							C214.303,166.376,211.613,169.067,208.306,169.067z M191.708,153.712c-2.756,0-4.998,2.242-4.998,4.998v4.36
							c0,2.756,2.242,4.998,4.998,4.998h16.598c2.756,0,4.998-2.242,4.998-4.998v-4.36c0-2.756-2.242-4.998-4.998-4.998H191.708z"/>
						<path style="fill:#FFFFFF;" d="M244.842,169.067h-16.598c-3.307,0-5.997-2.69-5.997-5.998v-4.36
							c0-3.307,2.69-5.998,5.997-5.998h16.598c3.307,0,5.997,2.69,5.997,5.998v4.36C250.84,166.376,248.149,169.067,244.842,169.067
							z M228.245,153.712c-2.756,0-4.997,2.242-4.997,4.998v4.36c0,2.756,2.242,4.998,4.997,4.998h16.598
							c2.756,0,4.997-2.242,4.997-4.998v-4.36c0-2.756-2.242-4.998-4.997-4.998H228.245z"/>
						<path style="fill:#070908;" d="M215.076,178.319l-0.223-0.716c0.072-0.023,7.255-2.301,7.017-5.622
							c-0.254-3.537-7.824-17.678-7.901-17.82l0.661-0.355c0.315,0.587,7.723,14.425,7.988,18.121
							C222.899,175.838,215.396,178.22,215.076,178.319z"/>
						<path style="fill:#FFFFFF;" d="M213.31,156.486l-0.45-0.893c3.593-1.809,7.236-1.81,10.83,0l-0.45,0.893
							C219.899,154.804,216.65,154.803,213.31,156.486z"/>
						<rect x="171.012" y="158.087" style="fill:#FFFFFF;" width="15.198" height="1"/>
						<path style="fill:#070908;" d="M231.177,162.489l-0.282-0.695c5.994-2.432,10.312-2.405,12.836,0.08l-0.526,0.534
							C240.913,160.152,236.867,160.179,231.177,162.489z"/>
					</g>
					<path style="fill:#070908;" d="M164.61,184.992c0,0,5.496,0.84,7.376-2.893c-0.634,4.893-3.137,7.264-7.376,7.264V184.992z"/>
					<path style="fill:#070908;" d="M164.881,170.138c-2.767-2.604-6.076-1.281-6.215-1.225l-0.288-0.692
						c0.038-0.017,3.889-1.573,7.016,1.372L164.881,170.138z"/>
				</g>
				<g>
					<path style="fill:#F2AD33;" d="M150.355,145.521h41.987l22.274,7.354c9.266,2.51,48.89,1.109,51.226-1.387
						c1.721-2.045-4.101-6.469-8.478-8.605v-10.059h-2.777c0,0-5.8-50.007-52.688-50.007c-42.803,0-48.767,49.017-48.767,49.017
						h-2.777V145.521z"/>
					<polygon style="fill:#070908;" points="169.6,145.521 168.85,145.521 168.85,136.085 159.47,136.085 159.47,145.521 
						158.72,145.521 158.72,135.335 169.6,135.335 					"/>
					<polygon style="fill:#070908;" points="211.525,145.521 210.775,145.521 210.775,136.085 199.088,136.085 199.088,145.521 
						198.338,145.521 198.338,135.335 211.525,135.335 					"/>
					<path style="fill:#070908;" d="M222.19,146.186c-9.101,0-19.316-0.129-29.855-0.29l0.012-0.75
						c22.993,0.351,61.473,0.936,64.534-2.08c0.071-0.07,0.108-0.132,0.108-0.184h0.75c0,0.26-0.111,0.502-0.331,0.718
						C255.356,145.622,241.208,146.186,222.19,146.186z"/>
					<polygon style="fill:#070908;" points="251.694,136.946 250.944,136.946 250.944,132.449 254.586,132.449 254.586,133.199 
						251.694,133.199 					"/>
					<path style="fill:#F2AD33;" d="M197.095,83.034c11.637,0.708,20.768,8.221,27.757,21.55h11.477
						C227.875,84.507,207.337,77.169,197.095,83.034z"/>
					<path style="fill:#070908;" d="M180.819,89.495c3.332-0.191,6.72-0.003,9.985,0.858c3.255,0.848,6.376,2.397,8.911,4.657
						c2.528,2.266,4.471,5.122,5.84,8.191c1.377,3.075,2.214,6.348,2.729,9.646l-0.271,0.048c-0.69-3.248-1.641-6.443-3.046-9.423
						c-1.4-2.975-3.291-5.732-5.746-7.903c-2.421-2.214-5.432-3.703-8.583-4.613c-3.165-0.903-6.491-1.226-9.809-1.212
						L180.819,89.495z"/>
					<path style="fill:#070908;" d="M152.159,142.078l-0.749-0.038c0.164-3.234,0.62-6.693,1.355-10.28l0.734,0.15
						C152.772,135.46,152.321,138.881,152.159,142.078z"/>
					<path style="fill:#070908;" d="M236.895,104.96h-12.268l-0.106-0.201c-7.073-13.49-16.308-20.673-27.448-21.351l0.046-0.749
						c11.364,0.691,20.771,7.942,27.961,21.55h10.682c-4.119-9.447-10.397-14.888-14.977-17.802l0.402-0.633
						c4.754,3.025,11.301,8.718,15.49,18.665L236.895,104.96z"/>
				</g>
			</g>
			<path style="fill:#6C78B9;" d="M165.138,227.372c0,0-55.092,5.49-70.124,29.112c-3.638,17.837,0,243.516,0,243.516h179.531
				c0,0,21.046-222.582,13.315-243.516c-7.731-20.934-72.11-27.377-72.11-27.377C207.292,252.308,188.622,246.207,165.138,227.372z"
				/>
			<g>
				<circle style="fill:#FFFFFF;" cx="202.414" cy="250.01" r="1.721"/>
				<circle style="fill:#FFFFFF;" cx="202.414" cy="298.337" r="1.721"/>
				<circle style="fill:#FFFFFF;" cx="202.414" cy="346.664" r="1.721"/>
				<circle style="fill:#FFFFFF;" cx="202.414" cy="394.991" r="1.721"/>
				<circle style="fill:#FFFFFF;" cx="202.414" cy="443.318" r="1.721"/>
				<circle style="fill:#FFFFFF;" cx="202.414" cy="491.646" r="1.721"/>
			</g>
			<path style="fill:#F2AD33;" d="M180.091,290.856l-28.32-62.318c-21.591,2.757-50.725,11.34-60.395,29.722
				c0,0,21.552,29.419,1.353,115.235C93.58,436.607,95.013,500,95.013,500h92.906V327.007
				C187.919,314.536,185.25,302.209,180.091,290.856z"/>
			<path style="fill:#F2AD33;" d="M287.859,255.064c-7.731-20.934-61.721-25.363-61.721-25.363
				c-1.964,16.54-9.721,75.418-9.721,75.418V500h63.929C280.346,500,295.59,275.998,287.859,255.064z"/>
			<g>
				<path style="fill:#FFFFFF;" d="M177.143,470.345c-27.444,0.067-55.054-0.94-82.822-2.966c0.12,5.937,0.223,11.083,0.31,15.263
					c27.031,1.931,54.548,2.878,82.511,2.915V470.345z"/>
				<path style="fill:#FFFFFF;" d="M226.782,470.208v15.227c18.904-0.27,37.203-1.138,54.703-2.793
					c0.266-4.18,0.582-9.318,0.955-15.259C263.499,469.031,244.942,469.98,226.782,470.208z"/>
				<path style="fill:#FFFFFF;" d="M177.143,440.604c-28.524-0.092-56.334-1.035-83.382-2.89l0.272,14.711
					c27.816,1.824,55.522,2.811,83.11,2.897V440.604z"/>
				<path style="fill:#FFFFFF;" d="M226.782,440.376v14.872c18.992-0.232,37.851-1.157,56.567-2.824
					c0.21-3.113,0.623-10.355,0.868-14.711C264.531,439.012,245.382,439.902,226.782,440.376z"/>
			</g>
			<path style="fill:#6C78B9;" d="M164.61,213.788l-7.938,14.749c0,0,15.407,26.633,31.483,34.188l13.839-18.944
				C182.726,233.416,168.334,223.493,164.61,213.788z"/>
			<rect x="207.038" y="249.805" style="fill:#070908;" width="0.75" height="250.195"/>
			<rect x="197.04" y="250.01" style="fill:#070908;" width="0.75" height="249.99"/>
			<path style="fill:#6C78B9;" d="M201.994,243.782c6.416-2.986,11.14-7.516,13.754-14.675l0-8.053l5.43,8.805
				c0.749,11.458-2.312,19.99-7.847,26.625C209.67,251.757,205.953,247.264,201.994,243.782z"/>
			<g>
				<polygon style="fill:#FFFFFF;" points="409.782,414.81 178.842,414.81 237.977,221.054 468.916,221.054 				"/>
				<path style="fill:#070908;" d="M278.469,393.56h-65.556l6.254-20.493h65.557L278.469,393.56z M213.925,392.81h63.988
					l5.797-18.993h-63.988L213.925,392.81z"/>
				<path style="fill:#070908;" d="M396.19,393.56h-52.555l2.589-8.483h52.556L396.19,393.56z M344.648,392.81h50.987l2.131-6.983
					H346.78L344.648,392.81z"/>
				<polygon style="fill:#FEECE8;" points="243.884,290.02 229.532,337.045 370.81,337.045 385.163,290.02 				"/>
				<path style="fill:#070908;" d="M389.239,346.464h-115.73l0.147-0.484l19.954-65.379h115.73l-0.148,0.484L389.239,346.464z
					 M274.522,345.714h114.163l19.642-64.363H294.166L274.522,345.714z"/>
				<path style="fill:#070908;" d="M403.494,407.864H189.355l0.147-0.484l54.761-179.381h214.14l-0.148,0.484L403.494,407.864z
					 M190.368,407.114h212.572l54.45-178.365h-212.57L190.368,407.114z"/>
				<polygon style="fill:#070908;" points="216.967,290.803 216.25,290.582 237.699,220.679 338.156,220.679 338.156,221.429 
					238.254,221.429 				"/>
				<polygon style="fill:#070908;" points="410.06,415.185 355.48,415.185 355.48,414.435 409.503,414.435 421.298,375.676 
					422.015,375.895 				"/>
				<rect x="333.248" y="241.024" style="fill:#070908;" width="108.922" height="0.75"/>
				<rect x="361.11" y="253.641" style="fill:#070908;" width="77.146" height="0.75"/>
			</g>
			<path style="fill:#070908;" d="M188.218,263.275l-0.308-0.266c-9.667-8.33-19.982-19.53-31.533-34.241l0.59-0.463
				c11.398,14.516,21.583,25.6,31.126,33.87l13.872-18.99l11.358,12.725c5.595-6.727,8.112-15.481,7.48-26.03l0.749-0.045
				c0.654,10.922-2.017,19.969-7.937,26.891l-0.279,0.326l-11.314-12.676L188.218,263.275z"/>
			<g>
				<path style="fill:#D25754;" d="M440.696,313.532l-2.155,7.132c-1.193-0.742-2.592-1.361-4.779-2.169
					c0,0-11.899-5.062-16.341,1.52c-4.442,6.582-6.728,24.425-4.653,31.906c2.075,7.482,13.937,11.9,13.937,11.9
					C440.38,369.247,453.926,318.987,440.696,313.532z"/>
				<g>
					
						<rect x="425.181" y="316.553" transform="matrix(0.3542 -0.9352 0.9352 0.3542 -31.0643 609.1891)" style="fill:#070908;" width="0.75" height="21.068"/>
					
						<rect x="421.372" y="327.121" transform="matrix(0.5155 -0.8569 0.8569 0.5155 -84.4448 524.6759)" style="fill:#070908;" width="0.75" height="19.783"/>
					
						<rect x="419.092" y="337.917" transform="matrix(0.5607 -0.828 0.828 0.5607 -102.9311 499.7131)" style="fill:#070908;" width="0.75" height="17.884"/>
				</g>
			</g>
			<g>
				<g>
					<path style="fill:#D25754;" d="M165.343,329.337c5.86-7.049,23.798-23.677,46.881-24.218l-3.395,11.178
						c0,0,28.94,0.047,29.946,7.695c1.006,7.648-4.95,23.946-10.147,29.401c-5.197,5.456-47.335,16.266-47.335,16.266
						C159.415,373.085,146.055,352.469,165.343,329.337z"/>
					<g>
						
							<rect x="218.148" y="306.924" transform="matrix(0.0205 -0.9998 0.9998 0.0205 -113.1066 538.9718)" style="fill:#070908;" width="0.75" height="40.576"/>
						
							<rect x="201.374" y="336.703" transform="matrix(0.9984 -0.0574 0.0574 0.9984 -18.9816 13.1382)" style="fill:#070908;" width="35.796" height="0.749"/>
						
							<rect x="204.044" y="346.573" transform="matrix(0.9923 -0.1238 0.1238 0.9923 -41.2536 29.7652)" style="fill:#070908;" width="29.839" height="0.75"/>
					</g>
					<rect x="199.218" y="315.922" style="fill:#070908;" width="9.612" height="0.75"/>
				</g>
				<path style="fill:#6C78B9;" d="M84.029,428.029c34.956-15.076,69.469-34.696,103.613-58.086l-23.033-43.962
					c-42.149,11.053-79.258,24.261-110.712,39.889C9.834,386.238,38.093,449.833,84.029,428.029z"/>
				<path style="fill:#070908;" d="M54.061,366.209l-0.324-0.676c15.978-7.649,30.412-13.892,44.127-19.083l0.266,0.701
					C84.433,352.335,70.018,358.569,54.061,366.209z"/>
				<polygon style="fill:#070908;" points="176.054,377.473 153.777,333.824 154.445,333.482 176.722,377.131 				"/>
				<path style="fill:#FFFFFF;" d="M180.563,368.066c0,0.951-0.771,1.721-1.721,1.721c-0.95,0-1.721-0.77-1.721-1.721
					c0-0.95,0.77-1.721,1.721-1.721C179.792,366.346,180.563,367.116,180.563,368.066z"/>
			</g>
			<path style="fill:#070908;" d="M175.083,312.634c-0.721-6.008-4.075-12.752-4.109-12.819l-30.047-69.021l0.688-0.3l30.039,69.003
				c0.026,0.05,3.438,6.907,4.175,13.047L175.083,312.634z"/>
			<path style="fill:#070908;" d="M110.126,339.548l-0.742-0.108c4.65-32.273,2.174-73.342-11.557-89.392l0.57-0.487
				C112.272,265.78,114.8,307.107,110.126,339.548z"/>
			<rect x="176.746" y="383.314" style="fill:#070908;" width="0.75" height="116.687"/>
			<rect x="226.673" y="414.81" style="fill:#070908;" width="0.75" height="85.19"/>
		</g>
	</g>
</g>
</svg>
