<?xml version="1.0" encoding="utf-8"?>
<!-- Generator: Adobe Illustrator 27.5.0, SVG Export Plug-In . SVG Version: 6.00 Build 0)  -->
<svg version="1.1" id="Layer_2" xmlns="http://www.w3.org/2000/svg" xmlns:xlink="http://www.w3.org/1999/xlink" x="0px" y="0px"
	 viewBox="0 0 2400 2000" style="enable-background:new 0 0 2400 2000;" xml:space="preserve">
<g>
	<rect style="fill:#FFFFFF;" width="2400" height="2000"/>
	<g style="opacity:0.3;">
		<radialGradient id="SVGID_1_" cx="1259.9996" cy="1079.999" r="869.1656" gradientUnits="userSpaceOnUse">
			<stop  offset="0" style="stop-color:#F1995F"/>
			<stop  offset="0.1133" style="stop-color:#F4AB6C"/>
			<stop  offset="0.3027" style="stop-color:#F7C37E"/>
			<stop  offset="0.5046" style="stop-color:#F9D48B"/>
			<stop  offset="0.7253" style="stop-color:#FADE92"/>
			<stop  offset="1" style="stop-color:#FBE195"/>
		</radialGradient>
		<path style="fill:url(#SVGID_1_);" d="M1934.726,766.442c-177.027-11.805-332.453-101.239-559.695-296.508
			c-251.645-216.234-554.039-186.851-716.223-124.609C482.85,412.855,264.84,657.113,318.195,1086.511
			c42.113,338.937,285.906,608.094,630.746,725.962c232.479,79.46,591.558,71.96,881.125-120.762
			c257.093-171.113,381.992-450.297,379.906-701.633C2208.317,790.231,2111.754,778.246,1934.726,766.442z"/>
	</g>
	<g style="opacity:0.3;">
		
			<radialGradient id="SVGID_00000124854907257655161790000010976035860309652354_" cx="1380.0001" cy="860.0005" r="729.9997" gradientUnits="userSpaceOnUse">
			<stop  offset="0" style="stop-color:#A04973"/>
			<stop  offset="0.1457" style="stop-color:#B9587A"/>
			<stop  offset="0.3283" style="stop-color:#D06680"/>
			<stop  offset="0.5227" style="stop-color:#E17184"/>
			<stop  offset="0.7353" style="stop-color:#EB7786"/>
			<stop  offset="1" style="stop-color:#EE7987"/>
		</radialGradient>
		<path style="fill:url(#SVGID_00000124854907257655161790000010976035860309652354_);" d="M1922.004,358.859
			c-227.183-226.168-470.481-298.23-728.246-154.867c-257.765,143.359-642.471,592.609-520.474,929.407
			c121.996,336.796,248.441,456.527,450.168,456.601c201.728,0.073,696.005-52.54,898.85-545.626
			C2154.82,722.246,2149.187,585.031,1922.004,358.859z"/>
	</g>
	<g style="opacity:0.3;">
		
			<radialGradient id="SVGID_00000035516937434775796400000001915814089564668034_" cx="1120.0001" cy="999.9991" r="905.6765" gradientUnits="userSpaceOnUse">
			<stop  offset="0" style="stop-color:#296DC5"/>
			<stop  offset="0.0608" style="stop-color:#2D76CC"/>
			<stop  offset="0.2616" style="stop-color:#398EDF"/>
			<stop  offset="0.4754" style="stop-color:#429FEC"/>
			<stop  offset="0.709" style="stop-color:#47A9F4"/>
			<stop  offset="1" style="stop-color:#49ACF6"/>
		</radialGradient>
		<path style="fill:url(#SVGID_00000035516937434775796400000001915814089564668034_);" d="M2031.399,1030.656
			c-175.454-721.304-759.86-886.984-977.518-899.519C836.223,118.602,423,205.449,239.537,600.262
			c-194.26,418.051,125.127,656.574,408.162,642.124c283.037-14.444,436.789,30.84,601.82,346.481
			c165.035,315.641,430.063,333.231,590.593,210.473C2041.09,1645.649,2102.785,1324.14,2031.399,1030.656z"/>
	</g>
	<rect style="opacity:0.43;fill:#EEB5F3;" width="2400" height="2000"/>
</g>
<g>
	<g>
		<path style="fill:#FFFFFF;" d="M392.878,1534.41c-7.353-7.763-19.11-35.932-18.304-50.722s6.319-39.797,16.672-54.855
			c-15.058-13.834-101.913-80.266-104.871-83.224c-2.958-2.958-2.958-3.899,6.588-9.143c9.546-5.243,139.29-82.686,139.29-82.686
			s-32.268-500.556-32.806-510.102c-0.538-9.546-0.826-21.633,22.856-32.268c23.682-10.635,64.919-17.747,96.256-19.226
			c31.337-1.479,66.264,2.579,83.638,7.664c17.374,5.084,22.319,12.101,22.319,12.101s-8.202-125.173-8.202-132.164
			c0-6.991,0.269-16.537,19.63-24.47c19.361-7.932,47.864-15.327,93.174-14.252c45.31,1.076,74.754,14.655,79.46,18.42
			s45.713,37.511,45.713,37.511l1.882-31.461l77.309,69.376l-1.613,27.831l27.902,141.844l81.943-28.907l19.764-58.217
			l96.938-22.588l9.546-21.915l149.911-39.125l6.857-11.563l169.138-36.705l3.092,16.941l24.828,178.191
			c0,0,57.365,80.132,76.188,109.532c18.823,29.4,70.272,121.184,84.255,152.735c13.983,31.551,49.836,111.504,63.281,150.046
			c13.445,38.542,25.635,88.557,26.711,95.549c1.076,6.991-8.923,2.137-28.503,11.115c5.236,6.095,16.134,27.069,15.596,29.4
			c-0.538,2.331-16.134,6.812-16.134,6.812s8.873,24.304,8.884,27.67c0.012,3.366-14.576,5.988-15.786,6.324
			c-1.21,0.336,5.781,16.286,6.084,20.311s25.556,16.865,27.752,23.856c2.196,6.991,1.031,12.997,1.031,16.134
			c0,3.137-141.39-6.12-221.215,26.663c-4.302,14.917-26.89,78.746,13.266,91.653c40.156,12.907,132.856,35.76,139.322,42.278
			c6.466,6.517,14.533,13.788,13.189,16.073s-63.057-22.991-77.578-24.201c-14.521-1.21,26.352,52.704,28.772,60.771
			c2.42,8.067,1.345,10.353-5.781,5.244c-7.126-5.109-25.68-26.352-76.099-55.393c-50.419-29.041-72.334-34.688-70.452-58.755
			s2.151-60.906,1.748-66.553c-0.403-5.647-7.395-7.664-20.974,0.807c-13.579,8.47-50.15,29.444-52.839,34.419
			c-2.689,4.975-2.42,16-13.714,18.42c-11.294,2.42-37.646,3.361-41.142,0.538c-3.496-2.823,1.013-8.163-14.619-12.216
			c-15.632-4.053-63.362,0.813-70.622,0.599c-7.26-0.215-83.872,15.733-122.015,29.364s-107.027,43.879-124.237,55.957
			c-17.21,12.078-60.294,45.552-63.251,48.107c-2.958,2.554-4.437-0.538-7.126-8.336c-2.689-7.798-51.987-128.713-61.847-151.121
			c-9.86-22.408-40.156-87.841-42.665-92.86c-16.851,3.047-88.02,5.282-129.43,4.971c-41.411-0.31-131.026,173.975-141.163,184.174
			c-10.137,10.199-9.42,8.944-14.26,4.104C591.576,1580.044,403.446,1545.567,392.878,1534.41z"/>
		<path style="fill:#FFFFFF;" d="M737.992,1651.376c-6.873-0.52-10.89-5.917-10.218-12.385c0.672-6.468,3.899-16.82,10.218-20.854
			c6.319-4.033,14.655-6.174,18.823-2.28c4.168,3.894,4.168,7.389,6.454,6.852c2.286-0.538,12.907-6.517,27.697-8.905
			s36.301-3.288,53.377,3.212c17.075,6.5,26.621,9.996,28.638,11.34c2.017,1.344,3.899,10.086,2.151,12.774
			c-1.748,2.688-96.169,7.048-109.797,3.523C751.706,1641.129,747.269,1652.078,737.992,1651.376z"/>
		<path style="fill:#FFFFFF;" d="M779.268,1674.607c1.687,3.1,22.319,21.377,32.671,26.083c10.353,4.706,16.471,7.539,17.714,4.173
			c1.243-3.366-17.613-13.45-25.193-19.097C796.881,1680.12,775.013,1666.79,779.268,1674.607z"/>
		<g>
			<g>
				<path style="fill:#3E406D;" d="M383.396,1493.385c0.1-20.253,3.369-39.542,14.315-56.906c0.564-0.896,1.044-1.865,1.724-2.663
					c1.38-1.616,2.882-1.817,4.526-0.231c18.495,17.837,40.169,31.62,60.476,47.128c44.234,33.78,88.85,67.059,133.31,100.543
					c1.691,1.273,3.311,2.636,5.399,3.286c2.438,0.759,4.565,0.231,6.347-1.493c1.927-1.864,1.537-3.088-0.975-4.352
					c-1.559-0.785-3.018-1.813-4.411-2.877c-86.918-66.392-173.824-132.798-260.732-199.203
					c-11.232-8.582-22.465-17.163-33.698-25.744c-0.983-0.751-1.99-1.472-2.942-2.26c-3.694-3.054-3.595-4.561,0.509-7.013
					c15.013-8.967,30.037-17.913,45.055-26.871c55.37-33.025,110.763-66.013,166.052-99.172c3.473-2.083,5.626-1.817,8.78,0.468
					c88.706,64.272,177.487,128.441,266.264,192.615c2.218,1.603,4.132,3.727,7.509,2.854c1.778-0.46,3.421,0.889,3.996,2.781
					c0.63,2.072,0.033,3.947-1.874,5.054c-4.933,2.862-9.144,6.644-13.361,10.397c-28.375,25.257-57.902,49.207-85.43,75.43
					c-7.289,6.943-14.943,13.511-22.579,20.077c-2.176,1.87-3.238,3.842-3.496,6.699c-1.215,13.427-5.659,25.781-12.686,37.27
					c-7.483,12.236-17.366,21.827-30.567,27.629c-10.01,4.399-19.717,9.592-30.305,12.56c-10.761,3.016-21.779,4.616-32.956,4.728
					c-8.849,0.089-17.581,2.132-26.425,1.674c-16.063-0.832-31.939-2.381-47.328-7.964c-16.448-5.967-32.978-11.738-48.472-19.856
					c-21.663-11.351-39.284-27.476-53.088-47.699c-2.141-3.136-3.22-6.882-6.706-9.243c-1.757-1.19-1.952-4.073-2.418-6.312
					c-1.08-5.183-2.303-10.361-2.935-15.605C383.642,1503.862,383.657,1498.535,383.396,1493.385z M559.947,1370.26
					c-0.03-3.378-2.415-6.172-5.276-6.182c-2.676-0.01-4.854,2.289-4.936,5.21c-0.098,3.484,2.64,6.657,5.599,6.489
					C557.955,1375.628,559.974,1373.214,559.947,1370.26z"/>
				<path style="fill:#F9DC87;" d="M1149.856,920.311c11.77-9.198,26.041-11.171,40.071-13.764c2.758-0.51,5.478-1.313,8.354-1.304
					c2.623,0.008,5.133,0.176,6.196,2.958c1.061,2.778-0.509,4.697-2.695,6.244c-5.656,4.002-10.488,8.925-15.292,13.864
					c-9.496,9.763-18.376,20.027-25.493,31.709c-0.916,1.503-1.868,3.036-3.072,4.3c-3.186,3.344-7.282,2.602-8.619-1.84
					c-1.363-4.528-2.802-9.114-2.724-13.969c0.108-6.712,0.177-13.426,0.176-20.139c0-0.95,0.334-2.066-0.94-3.317
					c-5.807,11.047-12.096,21.632-12.151,34.503c-0.016,3.711,0.058,7.423,0.048,11.134c-0.013,5.082-1.876,6.473-6.468,4.596
					c-3.004-1.228-6.198-1.305-9.293-1.868c-3.8-0.691-7.715-1.083-11.574-1.042c-9.272,0.098-18.145-2.384-27.203-3.679
					c-15.26-2.182-29.733-7.394-44.615-11.014c-4.62-1.123-9.272-2.361-14.045-2.305c-3.042,0.035-4.762-1.421-5.592-3.9
					c-3.181-9.504-10.056-15.967-17.53-22.038c-2.536-2.06-5.234-3.871-6.14-7.623c-0.646-2.677-3.661-4.147-5.892-5.871
					c-4.781-3.694-10.307-6.141-15.494-9.147c-2.672-1.548-3.889-3.489-3.424-6.459c1.487-9.487,0.767-19.048,0.789-28.568
					c0.01-4.147,1.248-6.171,5.182-7.781c31.039-12.697,62.145-25.255,92.881-38.656c25.45-11.096,51.584-20.186,77.83-29.069
					c28.088-9.507,56.133-19.142,84.193-28.73c27.894-9.531,55.785-19.073,83.678-28.608c25.219-8.621,50.435-17.249,75.661-25.85
					c7.073-2.412,6.192-3.332,9.949,3.736c5.387,10.131,10.99,20.147,16.501,30.212c0.678,1.238,1.497,2.322,2.51,3.357
					c3.149,3.216,4.759,7.502,7.272,11.186c1.779,2.607-0.013,4.449-2.736,4.597c-6.299,0.344-11.447,5.82-16.808,8.305
					c-21.154,9.802-42.104,20.095-62.139,32.019c-24.724,14.714-48.877,30.323-71.508,48.221
					c-9.263,7.326-18.973,14.103-28.106,21.617c-0.679,0.559-1.765,0.903-2.062,1.602c-1.96,4.61-5.838,4.293-9.821,4.239
					c-4.776-0.065-9.542-1.101-14.235-0.899c-9.668,0.416-19.299,1.345-28.495,5.047c-15.054,6.061-27.242,15.419-35.712,29.399
					c-0.825,1.361-1.886,2.591-1.672,4.337c-0.429,0.128-0.651,0.436-0.411,0.683
					C1149.412,920.971,1149.723,920.742,1149.856,920.311z"/>
				<path style="fill:#F9DC87;" d="M966.16,818.903c0.304-8.275-0.719-6.65,7.02-9.431c35.711-12.836,71.414-25.691,107.139-38.487
					c22.266-7.975,44.582-15.813,66.848-23.789c34.894-12.5,69.763-25.068,104.645-37.598c10.299-3.7,20.598-7.398,30.918-11.038
					c2.626-0.927,4.347-2.559,5.847-4.969c12.873-20.688,25.959-41.243,38.825-61.936c2.11-3.393,4.615-5.307,8.597-6.124
					c29.347-6.024,58.659-12.222,87.971-18.412c21.38-4.515,42.754-9.059,64.109-13.69c4.156-0.901,5.5-2.152,6.391,4.143
					c3.233,22.846,6.886,45.631,10.276,68.455c3.364,22.649,6.585,45.319,9.903,67.975c1.736,11.85,3.54,23.69,5.335,35.531
					c0.157,1.033,0.645,2.004,0.252,3.104c-0.685,1.916-1.613,3.692-3.835,3.929c-2.185,0.233-4.103-0.966-4.444-2.996
					c-1.2-7.148-6.637-11.505-10.748-16.651c-3.293-4.123-6.927-7.997-10.245-12.128c-0.976-1.216-2.437-2.031-3.515-3.18
					c-1.589-1.693-3.218-1.908-5.175-0.691c-1.197,0.744-2.479,1.362-3.757,1.964c-4.176,1.966-7.288,0.544-8.263-4.004
					c-0.477-2.222-0.347-4.569-0.586-6.849c-0.917-8.761-1.897-17.516-2.807-26.278c-1.438-13.841-2.302-27.755-5.421-41.376
					c-0.992-4.333-1.581-4.814-5.686-3.426c-29.934,10.123-59.844,20.318-89.776,30.447c-21.41,7.245-42.851,14.395-64.263,21.633
					c-44.822,15.15-89.634,30.331-134.451,45.495c-24.415,8.261-48.841,16.488-73.248,24.774
					c-25.412,8.627-50.798,17.327-76.21,25.953c-15.039,5.105-30.104,10.132-45.159,15.189c-1.171,0.393-2.34,0.809-3.535,1.115
					c-2.025,0.52-3.014-0.303-2.96-2.412C966.19,821.731,966.16,820.316,966.16,818.903z"/>
				<path style="fill:#F9DC87;" d="M632.995,858.407c0,8.479,0.02,16.958-0.006,25.436c-0.021,6.985-2.742,9.07-9.302,6.747
					c-8.649-3.063-17.311-6.088-26.175-8.44c-14.724-3.907-29.712-5.436-44.975-5.693c-26.023-0.438-51.198,4.265-76.147,10.899
					c-18.52,4.925-35.961,12.523-52.894,21.39c-5.305,2.778-5.223,2.654-5.646-3.145c-0.897-12.294-1.975-24.574-3.013-36.857
					c-0.356-4.211-0.419-8.427-0.89-12.65c-1.132-10.147-1.548-20.372-2.485-30.545c-0.335-3.643,0.833-5.853,4.006-7.739
					c12.385-7.36,25.579-12.743,39.474-16.335c14.85-3.839,29.94-6.303,45.25-7.662c13.89-1.233,27.772-2.179,41.707-1.79
					c11.792,0.329,23.542,1.257,35.266,2.737c9.984,1.261,19.854,2.893,29.534,5.648c7.512,2.138,14.506,5.48,21.398,9.084
					c1.928,1.008,2.656,2.388,2.937,4.563C632.934,828.791,633.32,843.58,632.995,858.407z"/>
				<path style="fill:#3E406D;" d="M757.759,1644.095c-3.021,2.616-5.734,5.086-8.578,7.396c-3.006,2.441-6.021,2.544-9.236,0.417
					c-4.112-2.721-6.386-6.362-6.105-11.532c0.38-6.981,3.846-11.977,9.562-15.547c3.451-2.156,10.504-2.852,14.261,1.324
					c1.88,2.089,3.862,2.286,6.599,1.852c7.341-1.164,14.302-3.818,21.648-4.962c30.239-4.707,59.06-0.901,86.132,13.882
					c3.906,2.133,3.884,2.159,2.241,6.691c-0.174,0.481-0.268,1.014-0.283,1.526c-0.347,11.715-6.32,21.152-12.637,30.322
					c-3.087,4.48-6.964,8.43-10.61,12.506c-2.498,2.793-5.614,4.818-9.038,6.348c-4.306,1.924-8.497,1.983-12.642-0.557
					c-15.05-9.22-31.196-16.49-46.124-25.939c-6.286-3.978-12.318-8.241-17.58-13.524
					C762.403,1651.319,759.401,1648.361,757.759,1644.095z"/>
				<path style="fill:#3E406D;" d="M1555.057,1445.642c3.315,0.77,5.873-0.216,8.513-1.125c27.61-9.505,55.891-16.51,84.659-21.258
					c28.799-4.753,57.851-7.065,87.086-5.406c11.113,0.631,22.162,1.953,33.041,4.393c2.242,0.503,4.985,0.318,5.186,4.009
					c0.246,4.521-1.023,7.828-4.355,9.404c-2.151,1.017-4.458,1.094-6.754,0.982c-7.409-0.361-14.812-0.866-22.223-1.189
					c-15.023-0.655-30.025,0.123-45.03,0.75c-7.236,0.302-14.479,0.421-21.717,0.698c-2.975,0.114-6.036-0.18-8.796,1.412
					c-0.436,0.252-1.024,0.405-1.521,0.364c-14.253-1.184-28.051,2.117-41.89,4.531c-19.689,3.435-38.982,8.589-57.495,16.186
					c-5.298,2.174-10.183-0.822-8.453-6.644C1555.98,1450.489,1555.699,1448.269,1555.057,1445.642z"/>
				<path style="fill:#3E406D;" d="M1596.5,1427.751c18.071-6.608,36.522-11.907,55.147-16.744
					c18.44-4.789,37.013-8.775,55.753-12.144c9.373-1.685,18.645-3.953,28.07-5.412c1.214-0.188,2.421-0.526,3.58-0.94
					c3.104-1.109,4.253-2.728,3.828-6.006c-0.361-2.79-1.01-5.558-1.74-8.281c-2.383-8.889-0.288-12.362,8.779-14.289
					c1.019-0.216,2.053-0.358,3.501-0.606c-1.083-7.781-3.894-14.751-7.165-21.573c-0.533-1.111-1.295-2.13-1.702-3.28
					c-0.934-2.639-0.092-4.996,2.041-5.846c2.526-1.007,3.983,0.411,5.121,2.432c3.739,6.639,6.926,13.538,8.791,20.932
					c2.022,8.015,4.042,16.009,5.325,24.231c1.684,10.791,4.497,21.405,6.815,32.097c0.298,1.373,0.535,2.759,0.8,4.135
					c-1.428,1.135-2.83,0.356-4.09,0.092c-17.906-3.747-36.045-4.647-54.263-4.452c-39.243,0.419-77.638,6.821-115.55,16.562
					c-0.678,0.174-11.69,2.771-12.342,3.018C1586.848,1431.13,1596.859,1428.299,1596.5,1427.751z"/>
				<path style="fill:#F9DC87;" d="M863.966,583.654c3.04,2.514,5.651,4.555,8.13,6.744c15.321,13.525,30.623,27.073,45.909,40.638
					c4.481,3.976,8.825,8.109,13.365,12.016c2.207,1.899,3.208,4.038,2.923,6.93c-0.207,2.102,0.081,4.266-0.252,6.338
					c-0.774,4.817-5.404,6.6-9.063,3.459c-5.74-4.928-11.277-10.012-16.257-15.808c-6.888-8.017-14.833-15.07-22.988-21.826
					c-6.645-5.505-13.332-10.96-20.028-16.404c-2.326-1.891-3.664-4.058-3.385-7.26C862.73,593.784,861.83,588.965,863.966,583.654z
					"/>
				<path style="fill:#3E406D;" d="M1517.275,1468.662c-0.914-2.241-2.723-3.192-5.132-2.586c-1.19,0.3-2.347,0.764-3.483,1.24
					c-7.315,3.068-14.697,5.991-21.909,9.286c-9.775,4.466-19.839,8.446-28.73,14.598c-6.678,4.62-13.625,9.421-16.48,17.399
					c-2.373,6.631-9.508,10.113-22.564,12.802c-3.803,0.783-22.611,1.116-26.493,1.579c-4.506,0.538-4.514,0.474-5.652-3.85
					c-0.18-0.683-0.37-1.363-0.541-2.048c-1.679-6.72-2.52-7.371-9.54-8.606c-12.708-2.234-39.088-3.722-58.328-3.499
					c-19.241,0.222-81.497,7.43-83.883,8.079c-7.494,2.04-15,4.036-22.461,6.19c-2.496,0.721-56.842,16.787-60.192,20.628
					c-3.029,1.176-5.994,2.355-8.912,3.622c-26.885,11.676-53.401,24.141-79.017,38.414c-23.308,12.988-46.122,26.772-66.901,43.661
					c-6.127,4.98-6.176,4.92-3.312,12.248c1.323,3.384,1.707,3.483,4.804,1.152c1.128-0.849,2.257-1.704,3.329-2.623
					c15.304-13.131,31.785-24.702,48.219-36.329c14.598-10.328,30.03-19.286,46.408-26.429c16.656-7.264,33.541-14.01,50.582-20.343
					c3.141-1.167,6.312-2.268,9.233-3.96c0.376-0.218,0.705-0.46,1.05-0.694c20.093-5.958,60.254-17.923,61.541-18.26
					c6.829-1.791,13.641-3.648,20.484-5.386c2.735-0.695,5.575-0.991,8.292-1.742c3.28-0.906,45.826-9.24,76.48-11.285
					c-0.031-0.344,0.011-0.694,0.082-1.045c3.555-0.779,7.106-0.005,10.657,0.44c4.204,0.527,8.382,1.25,12.576,1.853
					c7.166,1.03,14.342,1.995,21.503,3.059c4.396,0.653,4.311,0.725,5.03,4.964c0.411,2.428,0.938,4.867,1.731,7.192
					c1.638,4.804,3.345,5.754,8.409,4.715c5.042-1.034,10.132-1.426,14.655-1.608c2.714,0,4.832,0.091,6.936-0.039
					c0.682-0.042,28.981-2.563,34.26-4.517c4.575-1.693,7.406-4.948,8.002-10.155c0.492-4.3,2.797-7.861,5.92-10.94
					c5.857-5.775,12.671-10.078,20.028-13.625c12.551-6.05,25.317-11.609,38.217-16.868c1.137-0.464,2.303-0.947,3.299-1.645
					C1517.211,1472.49,1518.129,1470.757,1517.275,1468.662z"/>
				<path style="fill:#3E406D;" d="M764.678,1659.674c4.77,4.134,9.651,8.329,14.495,12.568
					c13.579,11.883,27.721,22.927,44.469,30.132c1.799,0.774,3.359,1.93,4.813,3.227c0.817,0.729,1.498,1.557,1.063,2.744
					c-0.47,1.282-1.456,1.911-2.812,2.039c-1.302,0.123-2.405-0.406-3.522-0.943c-22.484-10.795-41.285-26.199-56.94-45.532
					c-0.772-0.953-1.39-2.031-2.081-3.05C763.912,1660.49,763.954,1660.186,764.678,1659.674z"/>
				<path style="fill:#3E406D;" d="M1313.412,1498.299c-2.871-2.839-72.89,2.467-76.009,2.689
					c-4.508,0.321-52.148,8.299-75.616,13.706c-1.297-0.267-2.906-0.204-4.937,0.258c-0.689,0.157-1.389,0.271-2.074,0.446
					c-29.781,7.627-59.193,16.463-88.175,26.729c-22.064,7.816-42.666,18.721-63.266,29.648c-3.273,1.736-6.662,3.251-9.947,4.967
					c-2.098,1.095-3.277,0.489-3.943-1.671c-0.311-1.009-0.762-1.977-1.168-2.955c-6.778-16.308-13.452-32.659-20.358-48.912
					c-20.382-47.967-43.488-94.685-65.446-141.927c-13.922-29.951-29.113-59.284-46.002-87.728
					c-8.922-15.027-17.614-30.269-25.185-46.003c-10.35-21.51-22.465-41.993-34.252-62.681
					c-7.433-13.045-14.674-26.212-23.133-38.645c-0.693-1.019-1.191-2.546-2.15-2.943c-3.326-1.375-4.337-4.443-5.875-7.15
					c-8.032-14.141-15.825-28.498-26.67-40.726c-13.305-15.001-23.548-32.229-35.799-47.981c-1.051-1.351-1.882-2.766-1.94-4.756
					c-0.082-2.81-1.524-3.744-4.218-2.833c-2.653,0.897-5.176,2.246-7.646,3.599c-3.891,2.131-3.931,2.269-1.039,5.664
					c11.697,13.739,22.489,28.171,33.053,42.787c13.675,18.92,25.63,38.968,38.46,58.441c20.521,31.147,39.323,63.33,57.702,95.762
					c12.804,22.593,24.412,45.83,36.531,68.792c13.188,24.989,26.516,49.885,38.321,75.587c14.225,30.971,28.19,62.06,41.64,93.365
					c16.448,38.281,32.064,76.92,48.078,115.389c2.709,6.508,5.607,12.937,8.656,19.951c1.224-0.803,1.975-1.255,2.683-1.767
					c19.201-13.891,39.162-26.555,59.759-38.304c33.841-19.303,68.745-36.186,105.731-48.593c0.829-0.278,1.523-0.515,2.139-0.738
					c0,0.001,0,0.002,0.001,0.003C1171.361,1526.345,1208.183,1507.532,1313.412,1498.299z"/>
			</g>
			<g>
				<path style="fill:#ED7372;" d="M714.695,947.543c0.187,2.865,2.034,4.156,3.526,5.56c4.924,4.634,8.649,10.261,12.992,15.374
					c1.429,1.682,2.556,3.653,1.178,5.781c-1.334,2.06-3.502,2.026-5.721,1.53c-4.395-0.982-8.77-0.714-13.125,0.359
					c-8.402,2.069-16.611,4.731-25.215,7.919c4.642,6.158,9.248,11.904,13.186,18.116c0.662,1.044,1.427,2.024,2.08,3.073
					c3.229,5.186,2.301,7.862-3.529,10.062c-1.484,0.56-3.038,0.933-4.553,1.416c-2.188,0.698-4.409,1.315-6.545,2.148
					c-5.857,2.281-5.843,2.318-2.116,7.312c3.973,5.325,3.427,7.531-2.706,10.535c-3.173,1.554-6.446,2.908-9.588,4.522
					c-3.169,1.628-3.236,1.936-1.397,4.749c3.19,4.88,5.867,10.289,9.871,14.39c4.346,4.451,7.575,9.669,11.676,14.226
					c8.311,9.233,15.269,19.429,21.737,30.004c10.056,16.443,20.971,32.312,32.5,47.755c11.645,15.598,21.818,32.138,32.024,48.694
					c14.477,23.484,27.229,47.932,41.044,71.781c6.992,12.071,12.323,25,17.978,37.763c11.312,25.53,23.859,50.467,37.927,74.615
					c1.221,2.096,3.129,4.182,1.506,6.793c-1.728,2.779-4.608,2.39-7.184,1.794c-4.169-0.964-7.97-0.301-11.847,1.364
					c-8.789,3.775-18.008,6.237-27.292,8.458c-8.152,1.95-16.491,1.726-24.772,2.184c-1.764,0.098-3.685-0.284-5.269,0.288
					c-5.339,1.926-9.464-0.203-13.793-3.037c-9.355-6.123-17.634-13.577-26.317-20.534c-2.384-1.91-4.37-4.547-8.188-2.254
					c-1.735,1.042-3.706-2.866-5.236-4.052c-6.423-4.98-12.872-7.719-19.174-12.85c-14.25-11.6-28.27-23.488-42.694-34.864
					c-5.649-4.455-12.053-7.986-18.269-11.676c-3.185-1.89-4.546-4.083-4.705-7.978c-0.795-19.407-1.899-38.803-3.074-58.192
					c-1.208-19.919-2.295-39.843-3.213-59.778c-0.893-19.404-2.079-38.795-3.127-58.191c-1.066-19.751-2.017-39.509-3.208-59.252
					c-1.202-19.92-2.174-39.85-3.243-59.777c-1.05-19.574-2.216-39.141-3.133-58.722c-0.918-19.58-2.096-39.147-3.15-58.721
					c-1.072-19.927-2.103-39.856-3.202-59.782c-1.312-23.802-2.722-47.599-4.006-71.403c-1.189-22.043-2.136-44.1-3.432-66.137
					c-1.171-19.921-2.273-39.842-3.209-59.776c-0.828-17.637-2.077-35.254-2.942-52.889c-0.656-13.359,0.042-14.088,11.684-21.157
					c10.392-6.309,22.069-9.45,33.906-11.687c16.165-3.055,32.494-4.874,48.978-4.288c12.176,0.433,24.281,1.838,36.362,3.431
					c11.205,1.478,22.322,3.383,33.365,5.807c8.135,1.786,15.959,4.497,23.794,7.225c3.573,1.244,5.037,3.363,5.124,7.454
					c0.649,30.572,0.427,61.155,1.119,91.719c0.62,27.393,0.351,54.79,0.987,82.175c1.13,48.605,0.332,97.214,0.747,145.818
					c0.032,3.805-1.114,6.018-4.473,7.971c-17.019,9.895-31.231,23.024-43.269,38.553c-0.974,1.257-1.921,2.537-2.927,3.768
					c-1.461,1.785-3.353,2.243-5.077,0.718c-1.491-1.319-2.981-1.68-4.824-1.451c-10.708,1.33-21.55,0.651-32.251,2.138
					C724.117,945.116,719.364,946.233,714.695,947.543z M773.44,627.224c0.013,0,0.025,0,0.038,0c0-9.536,0.049-19.072-0.022-28.608
					c-0.033-4.375-3.194-7.308-7.61-7.281c-1.588,0.009-3.179,0.065-4.763,0.185c-21.454,1.627-42.903,3.305-64.359,4.895
					c-16.359,1.213-32.728,2.285-49.088,3.489c-6.335,0.466-7.435,1.579-6.998,7.762c1.182,16.706,2.596,33.395,3.822,50.099
					c1.253,17.06,2.386,34.128,3.584,51.193c0.333,4.749,0.644,9.501,1.083,14.242c0.318,3.435,1.645,4.729,4.79,3.745
					c3.625-1.134,7.327-0.916,10.965-1.518c11.654-1.929,23.31-3.885,35.222-3.62c10.237,0.227,20.486-0.147,30.725,0.045
					c9.679,0.181,19.411-0.994,29.036,0.999c1.007,0.208,2.111-0.098,3.168-0.068c2.37,0.067,3.233-1.093,3.788-3.392
					c3-12.43,4.087-25.052,4.234-37.785c0.072-6.184-0.017-12.419,1.212-18.472c1.352-6.66,1.119-13.328,1.167-20.015
					C773.47,637.82,773.44,632.522,773.44,627.224z"/>
				<path style="fill:#C4E9F2;" d="M541.751,877.663c1.944,0,3.892,0.076,5.833-0.013c10.632-0.485,21.003,1.544,31.475,2.903
					c12.576,1.631,24.854,4.758,37.37,6.586c3.059,0.447,5.576,2.143,8.457,2.941c0.839,0.232,1.622,1.085,2.401,1.047
					c4.99-0.242,6.212,2.844,6.448,6.946c0.05,0.873,0.418,1.747,0.366,2.605c-0.56,9.198,0.661,18.353,1.434,27.442
					c0.655,7.706-0.185,15.532,1.65,23.141c0.122,0.508,0.147,1.058,0.113,1.582c-0.583,9.196,0.767,18.33,1.391,27.448
					c0.527,7.696-0.044,15.519,1.71,23.132c0.078,0.34,0.095,0.705,0.074,1.055c-0.538,9.018,0.714,17.991,1.424,26.913
					c0.642,8.056,0.196,16.172,1.595,24.215c0.958,5.508,0.8,11.25,0.996,16.842c0.316,8.987,0.897,17.98,1.613,26.906
					c0.632,7.882-0.054,15.873,1.684,23.668c0.114,0.512,0.149,1.057,0.121,1.582c-0.483,9.192,0.885,18.315,1.391,27.451
					c0.406,7.336,0.041,14.804,1.693,22.069c0.116,0.51,0.127,1.058,0.098,1.584c-0.519,9.37,0.92,18.658,1.323,27.987
					c0.524,12.123,1.465,24.238,2.124,36.367c0.592,10.886,1.165,21.807,2.21,32.639c0.692,7.175-0.082,14.45,1.642,21.561
					c0.661,2.726,0.513,5.607-2.534,7.448c-3.168,1.914-5.823,1.528-8.735-0.654c-12.824-9.607-25.74-19.092-38.636-28.605
					c-11.763-8.677-23.571-17.292-35.306-26.005c-17.106-12.702-34.175-25.454-51.237-38.214c-4.717-3.527-5.088-3.653-9.582-0.183
					c-1.502,1.16-2.914,2.162-4.765,1.284c-1.955-0.927-1.686-2.872-1.775-4.637c-0.55-10.917-0.734-21.859-1.309-32.757
					c-0.437-8.279-0.057-16.612-0.994-24.808c-0.968-8.472-0.171-16.955-1.021-25.349c-0.875-8.636-0.204-17.317-1.126-25.866
					c-0.857-7.948-0.145-15.898-0.981-23.76c-0.974-9.162-0.206-18.376-1.164-27.457c-0.783-7.421,0.064-14.879-0.982-22.162
					c-1.537-10.701,0.227-21.525-1.82-32.151c-0.099-0.514-0.087-1.059-0.064-1.587c0.603-13.779-1.486-27.481-1.167-41.253
					c0.041-1.755,0.151-3.529-0.503-5.241c-0.69-1.808-0.358-3.165,1.191-4.669c1.934-1.878,1.145-3.359-1.598-3.735
					c-2.896-0.397-5.579,0.779-8.324,1.275c-10.544,1.906-21.033,4.121-31.538,6.24c-1.379,0.278-2.727,0.71-4.106,0.991
					c-1.832,0.373-2.77,1.459-2.775,3.308c-0.007,2.474-0.42,5.06,0.152,7.4c1.158,4.733,9.312,163.745,9.301,163.921
					c-0.608,10.075,2.68,59.654,3.443,74.423c0.681,13.182,1.791,26.337,2.06,39.55c0.074,3.641-1.073,5.688-4.395,6.719
					c-4.137,1.283-7.303,4.197-10.854,6.465c-1.04,0.665-2.039,1.394-3.084,2.052c-4.026,2.534-5.161,1.768-5.178-2.904
					c-0.048-13.561-1.781-27.039-2.286-40.596c-0.385-10.351-15.965-257.78-17.066-269.133c-0.73-7.531,0.29-15.174-1.659-22.608
					c-0.741-2.824,0.922-4.607,3.373-5.887c5.794-3.028,11.596-6.07,17.78-8.195c10.832-3.722,21.427-8.214,32.619-10.793
					c8.555-1.971,17.176-3.716,25.834-5.165C512.189,878.514,526.895,876.983,541.751,877.663z"/>
				<path style="fill:#ED7372;" d="M828.45,893.718c-2.307-105.296-2.144-210.392-2.068-315.408c2.04-0.915,2.812,0.667,3.78,1.484
					c17.676,14.939,35.324,29.91,52.964,44.892c24.373,20.699,48.573,41.607,73.241,61.948c4.66,3.843,6.138,7.104,5.826,13.097
					c-1.052,20.282-1.151,40.613-1.686,60.923c-0.688,26.136-1.165,52.283-2.28,78.401c-0.648,15.181-0.23,30.388-1.447,45.548
					c-0.208,2.591-0.601,5.296,1.162,7.676c0.808,1.091,0.721,2.329-0.143,3.438c-1.021,1.311-2.434,1.41-3.838,0.987
					c-1.169-0.352-2.276-0.949-3.363-1.527c-23.677-12.574-48.981-16.723-75.447-14.146c-13.959,1.359-27.417,5.014-40.307,10.633
					c-1.618,0.705-3.246,1.387-4.887,2.035C829.661,893.818,829.277,893.718,828.45,893.718z"/>
				<path style="fill:#ED7372;" d="M1709.709,1598.909c-6.636-2.844-13.222-5.811-19.917-8.509
					c-15.764-6.351-31.944-11.341-48.706-14.312c-1.728-0.306-3.515-0.527-5.258-0.446c-3.454,0.16-5.089,3.372-2.664,5.843
					c2.592,2.641,4.167,6.021,7.148,8.401c3.022,2.412,5.175,5.767,6.682,9.432c5.441,13.232,10.901,26.457,16.343,39.689
					c0.19,0.462,0.26,0.974,0.654,2.508c-3.293-3.072-5.87-5.52-8.494-7.916c-13.874-12.673-29.406-23.157-44.662-34.025
					c-20.786-14.807-43.131-26.954-65.51-39.063c-4.669-2.526-9.197-5.254-13.553-8.295c-5.349-3.733-7.977-8.649-7.856-15.27
					c0.365-19.968,0.674-39.938,0.44-59.913c-0.308-26.331-1.963-52.579-4.102-78.818c-2.331-28.586-7.273-56.751-13.387-84.704
					c-3.128-14.302-7.648-28.294-11.297-42.489c-6.515-25.341-14.458-50.213-23.314-74.834
					c-7.117-19.785-15.316-39.148-22.357-58.953c-2.429-6.832-5.2-13.52-8.072-20.17c-16.244-37.612-37.188-72.441-61.756-105.194
					c-12.955-17.272-26.459-34.064-41.459-49.574c-20.386-21.08-43.893-37.688-71.293-48.607
					c-15.613-6.221-31.266-12.3-47.888-15.189c-20.737-3.604-41.178-2.953-60.859,5.539c-0.162,0.07-0.333,0.121-0.503,0.167
					c-1.893,0.509-4.279,2.524-5.435-0.413c-1.013-2.574,1.824-3.253,3.484-3.675c6.73-1.712,11.67-6.25,17.209-9.985
					c11.423-7.704,24.368-10.857,38.068-11.365c11.597-0.43,22.902,1.07,34.006,4.342c9.99,2.943,20.28,4.89,29.988,8.762
					c19.092,7.612,37.409,16.811,54.557,28.136c24.474,16.163,45.737,35.939,64.566,58.416
					c16.929,20.209,32.617,41.339,47.252,63.238c12.695,18.997,25.107,39.384,34.488,60.184c4.284,9.501,7.662,19.534,12.963,28.425
					c9.638,16.165,11.394,34.318,17.966,51.56c6.234,16.356,10.129,33.456,16.853,49.637c5.536,13.321,7.601,27.526,9.31,41.758
					c0.168,1.402,0.156,2.856,0.54,4.197c3.949,13.795,5.609,28.037,8.208,42.091c2.506,13.552,3.624,27.305,5.04,41.003
					c1.271,12.293,2.997,24.542,3.609,36.906c0.489,9.876,1.154,19.747,1.931,29.606c1.664,21.129,1.456,42.376,4.03,63.445
					c0.428,3.505,1.126,6.979,1.486,10.489c0.739,7.198,3.987,12.758,9.429,17.642c7.396,6.639,15.224,11.837,25.221,13.661
					c11.376,2.077,21.69,7.412,32.424,11.449c16.45,6.188,31.814,14.456,46.524,24.037c6.063,3.949,12.49,7.314,18.244,11.777
					c5.045,3.913,10.13,7.772,13.849,13.018c1.699,2.397,5.17,3.129,5.772,6.439L1709.709,1598.909z"/>
				<path style="fill:#C4E9F2;" d="M1045.622,1098.635c-1.672,1.085-2,2.964-3.012,4.375c-3.094,4.315-6.85,5.714-11.958,4.211
					c-3.562-1.049-6.95-2.524-10.341-4.038c-5.904-2.635-6.188-2.448-10.022,2.543c-7.839,10.203-16.394,19.796-25.103,29.251
					c-7.386,8.019-16.508,13.807-25.843,19.129c-13.701,7.812-28.21,13.778-43.807,16.701c-7.072,1.325-14.157,3.135-21.39,2.757
					c-20.873-1.092-41.132-4.673-60.219-13.962c-17.069-8.306-32.037-19.221-44.785-33.183
					c-12.748-13.962-22.063-30.04-28.721-47.709c-7.597-20.162-9.889-41.115-8.304-62.389c1.127-15.135,5.206-29.711,11.158-43.788
					c5.065-11.981,11.662-23.014,19.958-32.863c7.485-8.887,15.791-17.104,25.277-24.01c15.775-11.486,33.147-19.408,52.226-23.422
					c14.378-3.026,28.847-3.61,43.551-2.058c15.818,1.669,30.789,6.03,45.018,12.709c11.811,5.544,22.6,12.841,32.498,21.544
					c13.923,12.242,25.126,26.635,34.699,42.314c6.976,11.426,13.431,23.206,17.407,36.116c1.67,5.422,1.727,11.107,2.135,16.69
					c0.594,8.101-0.371,16.161-1.657,24.175c-0.56,3.493,1.079,5.884,4.492,7.207c3.944,1.53,7.758,3.51,11.816,4.598
					c4.021,1.077,5.67,3.643,5.474,7.245c-0.217,3.967,1.479,5.556,5.051,6.681c43.397,13.674,86.415,28.504,129.637,42.715
					c6.882,2.263,7.057,2.264,5.273,9.349c-1.514,6.015-4.044,11.66-7.473,16.866c-3.187,4.838-4.957,5.53-10.621,3.764
					c-9.255-2.885-18.476-5.883-27.717-8.815c-29.06-9.22-58.143-18.372-87.17-27.696
					C1057.153,1103.718,1051.127,1101.752,1045.622,1098.635z M892.933,1153.524c12.373,0.577,26.341-2.143,39.89-6.853
					c14.265-4.959,27.082-12.462,38.791-22.168c16.466-13.649,28.158-30.484,35.668-50.312c3.493-9.222,5.763-18.749,6.931-28.646
					c1.317-11.157,0.746-22.125-0.841-33.121c-1.492-10.34-4.671-20.158-8.771-29.788c-5.106-11.994-12.106-22.729-20.63-32.418
					c-12.264-13.94-26.937-24.778-43.869-32.562c-14.587-6.706-29.964-10.159-45.862-11.226
					c-10.203-0.685-20.422-0.097-30.488,2.021c-11.769,2.477-23.245,5.913-33.923,11.509c-12.57,6.588-23.891,14.871-33.679,25.276
					c-11.282,11.993-19.749,25.646-25.399,41.066c-3.219,8.786-5.189,17.843-6.459,27.146c-1.23,9.008-1.271,18.042-0.415,26.919
					c1.233,12.785,4.547,25.166,9.769,37.094c8.542,19.508,21.04,35.866,37.785,48.799
					C834.747,1144.27,861.138,1153.858,892.933,1153.524z"/>
				<path style="fill:#C4E9F2;" d="M411.941,807.071c-1.758-5.653-1.042-11.187-1.694-16.563
					c-0.997-8.219-0.193-16.547-1.833-24.697c-0.035-0.172-0.068-0.352-0.056-0.526c0.509-7.953-0.905-15.811-1.197-23.729
					c-0.364-9.866,4.396-16.421,12.669-20.773c14.636-7.7,30.427-11.859,46.564-15.031c7.758-1.525,15.588-2.522,23.373-3.822
					c3.794-0.634,7.679-0.856,11.52-1.253c15.993-1.652,32.09-1.799,48.091-0.972c18.586,0.961,37.145,2.986,54.926,9.17
					c5.527,1.922,10.704,4.574,15.514,7.893c3.046,2.102,4.625,4.895,4.951,8.83c0.814,9.811,1.497,19.625,2.165,29.446
					c0.643,9.464,1.842,18.893,1.99,28.396c0.041,2.649,1.115,5.12,1.052,7.835c-0.152,6.549-1.969,7.909-8.14,5.388
					c-9.644-3.94-19.564-7.002-29.663-9.484c-9.726-2.389-19.616-3.784-29.548-5.123c-13.684-1.845-27.389-2.344-41.113-1.831
					c-10.687,0.4-21.363,1.13-31.999,2.774c-10.958,1.693-21.844,3.546-32.526,6.499
					C441.506,793.778,426.364,798.95,411.941,807.071z"/>
				<path style="fill:#ED7372;" d="M1156.597,702.411c-4.202,11.261-8.331,22.331-12.465,33.4c-1.13,3.026-3.501,4.73-6.286,6.105
					c-9.235,4.561-19.06,7.518-28.861,10.47c-9.125,2.748-18.394,5.02-27.615,7.442c-2.26,0.594-4.428,1.096-5.423,3.624
					c-0.468,1.188-1.685,1.776-2.8,2.328c-3.166,1.566-6.342,3.112-9.516,4.66c-1.712,0.835-3.617,1.179-4.883-0.398
					c-1.849-2.302-3.583-1.547-5.534-0.422c-0.731,0.422-1.532,0.722-3.056,1.428c1.013-3.124,1.745-5.596,2.614-8.02
					c4.587-12.799,9.598-25.453,13.349-38.536c0.747-2.604,2.268-3.536,4.776-4.078c18.634-4.02,37.237-8.183,55.85-12.296
					c8.789-1.942,17.58-3.872,26.37-5.806C1154.126,702.09,1155.121,701.534,1156.597,702.411z"/>
				<path style="fill:#ED7372;" d="M1144.745,933.602c0,4.133,0.046,7.593-0.01,11.052c-0.112,6.919,0.592,13.683,2.769,20.324
					c1.542,4.704-0.67,8.694-5.254,10.579c-3.058,1.257-4.266,0.774-4.714-2.537c-1.238-9.159-1.318-18.296,1.753-27.186
					C1140.692,941.769,1141.994,937.634,1144.745,933.602z"/>
				<path style="fill:#ED7372;" d="M833.484,927.276c-1.489-3.815,0.149-5.388,2.825-6.792
					c13.466-7.072,27.795-11.391,42.886-12.663c26.976-2.274,52.339,2.992,75.499,17.48c1.197,0.749,2.428,1.463,3.534,2.332
					c2.258,1.775,2.027,3.533-0.617,4.637c-2.74,1.145-5.586,2.677-8.374,2.417c-6.147-0.572-12.279-1.315-18.426-1.891
					c-18.279-1.713-36.597-2.677-54.943-3.436c-12.531-0.518-25.066-0.263-37.583-0.908
					C836.643,928.368,835.178,926.624,833.484,927.276z"/>
			</g>
			<g>
				<path style="fill:#303030;" d="M1755.001,1342.851c-0.857-2.123-2.68-4.525-2.233-6.35c0.689-2.806,4.24-1.573,6.47-2.358
					c3.451-1.215,4.354-2.322,3.325-5.857c-1.084-3.726-2.444-7.364-4.406-10.763c-3.164-5.48-5.947-11.17-9.861-16.988
					c7.168-2.742,13.685-4.225,20.342-5.134c7.432-1.014,8.184-2.027,6.68-9.201c-0.073-0.346-0.122-0.697-0.207-1.04
					c-5.085-20.392-10.096-40.805-16.47-60.847c-11.039-34.713-24.794-68.387-38.56-102.082
					c-26.105-63.893-56.374-125.699-90.921-185.446c-30.467-52.69-63.067-103.926-101.517-151.24c-2.394-2.945-3.104-6.21-3.6-9.733
					c-1.895-13.468-3.834-26.93-5.787-40.391c-4.109-28.317-8.236-56.631-12.357-84.947c-3.001-20.625-5.959-41.256-9.029-61.87
					c-0.904-6.068-1.705-6.504-7.578-5.279c-0.345,0.072-0.677,0.208-1.022,0.281c-50.433,10.776-100.835,21.702-151.332,32.166
					c-8.138,1.686-14.771,4.18-18.034,12.334c-0.064,0.161-0.205,0.289-0.287,0.445c-0.96,1.848-2.453,2.679-4.526,3.198
					c-28.266,7.085-56.505,14.28-84.748,21.456c-19.172,4.871-38.311,9.871-57.531,14.541c-4.305,1.046-6.719,3.144-7.923,7.325
					c-1.169,4.065-3.018,7.933-4.21,11.993c-0.957,3.257-2.708,4.701-6.124,5.481c-29.27,6.684-58.461,13.711-87.737,20.369
					c-4.346,0.988-6.616,2.917-8.005,7.12c-5.542,16.77-11.462,33.414-17.07,50.163c-0.942,2.811-2.425,4.321-5.203,5.298
					c-22.828,8.028-45.605,16.198-68.406,24.303c-1.268,0.451-2.527,1.317-4.333,0.353c0-3.169-0.063-6.501,0.01-9.831
					c0.709-32.338,1.385-64.676,2.237-97.011c0.108-4.08-0.975-6.938-4.245-9.548c-7.595-6.062-14.781-12.634-22.338-18.745
					c-2.658-2.15-3.564-4.39-3.228-7.723c0.637-6.325,0.754-12.702,1.354-19.033c0.334-3.522-0.881-5.94-3.466-8.294
					c-24.05-21.895-48.002-43.899-71.99-65.863c-0.91-0.833-1.817-1.717-2.865-2.343c-2.123-1.267-3.751-0.545-4.316,1.88
					c-0.237,1.02-0.221,2.107-0.263,3.165c-0.27,6.887-0.501,13.776-0.805,20.661c-0.05,1.13,0.491,2.514-0.967,3.303
					c-1.819-0.436-2.927-1.893-4.247-2.998c-10.434-8.737-20.866-17.478-31.236-26.291c-5.712-4.855-11.961-8.659-19.006-11.341
					c-9.302-3.542-18.902-5.814-28.661-7.476c-24.523-4.178-49.216-4.89-73.975-2.99c-16.052,1.232-31.953,3.598-47.396,8.364
					c-7.959,2.456-15.678,5.483-22.515,10.401c-7.265,5.226-11.119,12.101-10.616,21.244c1.059,19.231,2.007,38.468,3.055,57.699
					c0.924,16.939,1.988,33.87,2.849,50.812c0.282,5.554,0.957,11.142,0.152,16.591c-1.315,0.447-2.02-0.185-2.764-0.608
					c-6.342-3.608-13.136-6.039-20.157-7.944c-12.16-3.299-24.583-5.049-37.098-5.941c-34.231-2.439-68.159-0.082-101.68,7.351
					c-14.518,3.219-28.73,7.453-41.953,14.482c-5.332,2.835-10.363,6.098-14.485,10.584c-2.942,3.202-5.074,6.854-5.265,11.294
					c-0.136,3.167-0.038,6.357,0.164,9.523c0.844,13.225,1.802,26.442,2.653,39.667c1.237,19.221,2.383,38.447,3.632,57.667
					c1.97,30.328,4.014,60.651,5.989,90.978c1.217,18.691,2.333,37.389,3.55,56.08c1.986,30.504,4.034,61.003,6.021,91.507
					c1.206,18.515,2.328,37.035,3.522,55.551c2.435,37.735,4.82,75.473,7.448,113.194c0.281,4.028-1.086,5.966-4.356,7.875
					c-21.824,12.737-43.53,25.675-65.292,38.52c-25.412,15-50.852,29.952-76.253,44.97c-5.349,3.162-5.399,4.609-0.544,8.339
					c5.606,4.307,11.247,8.569,16.873,12.851c27.701,21.09,55.414,42.164,83.092,63.285c5.345,4.078,5.348,4.202,2.007,9.818
					c-7.934,13.336-11.834,27.842-13.022,43.227c-1.352,17.519,3.428,33.591,11.266,48.935
					c10.921,21.383,26.756,38.626,46.123,52.492c44.053,31.541,93.187,44.778,147.138,39.206
					c19.319-1.995,37.846-7.301,54.844-16.917c28.683-16.224,48.189-38.976,50.646-73.359c0.175-2.449,1.418-3.806,3.109-5.182
					c6.305-5.134,12.548-10.343,18.856-15.473c0.882-0.717,1.602-1.974,3.196-1.508c1.027,1.363,0.666,3.002,0.681,4.534
					c0.103,10.273-0.797,20.474-2.369,30.617c-2.11,13.61-5.05,27.082-6.391,40.824c-1.036,10.605,1.032,20.368,6.574,29.428
					c3.539,5.785,7.933,10.896,13.151,15.156c4.328,3.533,6.693,7.063,6.419,13.285c-0.472,10.707,8.683,17.552,19.154,15.752
					c2.941-0.506,5.806-3.635,8.291-2.255c2.535,1.408,3.952,4.822,5.871,7.347c0.427,0.562,0.907,1.085,1.365,1.623
					c14.369,16.851,31.816,30.052,50.231,42.049c3.973,2.589,8.401,4.518,12.724,6.523c4.007,1.858,7.044,0.433,9.372-4.037
					c1.823-3.501,1.236-4.655-3.202-7.342c-6.952-4.209-13.847-8.515-20.731-12.836c-1.022-0.641-2.34-1.147-3.211-3.298
					c9.419,4.98,18.254,8.99,27.271,12.552c8.558,3.381,6.733,3.186,13.167-1.794c1.258-0.973,2.55-1.908,3.754-2.945
					c18.003-15.515,27.814-34.823,27.467-58.928c-0.047-3.267-1.197-5.231-4.121-6.628c-21.585-10.312-44.182-15.611-68.221-14.559
					c-13.07,0.572-25.454,3.793-37.558,8.441c-1.845,0.708-3.302,1.423-4.995-0.795c-5.958-7.805-15.191-7.306-21.485-4.137
					c-4.539,2.286-8.252,5.499-10.909,9.786c-1.37,2.21-2.444,2.569-4.428,0.718c-4.009-3.739-8.095-7.383-11.488-11.726
					c-6.814-8.718-10.078-18.453-9.152-29.623c0.629-7.588,1.67-15.102,3.067-22.567c3.45-18.435,6.565-36.914,5.495-55.765
					c-0.229-4.042,1.208-6.44,4.212-8.895c29.152-23.825,58.19-47.789,87.258-71.716c1.365-1.123,2.796-2.182,4.048-3.422
					c2.263-2.24,2.195-3.579,0.005-5.792c-1.055-1.065-2.874-1.446-3.147-3.636c6.532-0.704,13.036-1.016,19.373-2.604
					c16.789-4.206,33.603-8.309,50.414-12.422c4.81-1.177,4.821-1.13,6.981,3.514c0.372,0.801,0.741,1.604,1.113,2.405
					c21.732,46.79,42.454,94.017,61.935,141.795c13.47,33.036,27.84,65.705,40.458,99.09c0.25,0.661,0.446,1.352,0.777,1.97
					c1.83,3.408,4.201,3.97,7.323,1.736c0.716-0.512,1.364-1.124,2.023-1.712c37.018-32.96,78.769-58.514,123.716-79.064
					c3.131-1.431,91.558-33.481,94.266-34.191c11.621-3.047,23.231-6.141,35.047-8.323c47.517-8.774,94.3-8.276,104.902-8.059
					c4.753,0.097,9.486,0.965,14.24,1.327c2.618,0.199,3.819,1.548,3.949,4.01c0.159,3.02,0.782,5.96,1.559,8.857
					c1.37,5.109,3.271,6.854,8.578,6.949c5.822,0.105,11.693,0.133,17.475-0.553c20.556-2.437,38.042-6.836,43.892-8.887
					c5.666-1.985,6.719-3.065,6.151-8.818c-0.742-7.519,2.491-12.43,8.666-16.15c16.569-9.982,34.413-17.203,52.258-24.437
					c0.164-0.067,0.33-0.127,0.492-0.197c2.164-0.928,2.903,0.119,2.971,2.128c0.03,0.883,0.143,1.764,0.148,2.646
					c0.088,13.97-0.298,27.932-1.276,41.863c-0.371,5.295-0.784,10.577-0.613,15.877c0.183,5.667,2.139,10.671,5.984,14.926
					c2.86,3.165,5.888,6.129,9.558,8.331c8.03,4.817,15.886,9.985,24.204,14.246c13.23,6.778,26.079,14.135,38.554,22.213
					c24.649,15.961,48.91,32.414,70.259,52.761c1.277,1.217,2.646,2.347,4.04,3.429c1.462,1.135,3.057,1.823,4.869,0.691
					c1.876-1.172,1.726-2.999,1.308-4.729c-0.704-2.913-1.368-5.875-2.475-8.646c-7.413-18.556-15.372-36.854-26.36-53.657
					c-0.613-0.937-1.422-1.823-1.296-2.943c1.326-0.468,2.12-0.008,2.962,0.217c23.43,6.242,46.014,14.937,68.602,23.622
					c1.317,0.506,2.627,1.117,3.998,1.376c2.789,0.525,3.88-0.663,3.686-3.512c-0.199-2.934-2.092-4.824-3.993-6.645
					c-17.264-16.536-35.312-32.037-56.081-44.178c-20.242-11.833-41.701-20.795-63.818-28.348
					c-6.019-2.056-11.958-4.324-17.588-7.337c-8.724-4.668-14.445-11.623-16.946-21.303c-2.951-11.422-3.061-23.071-3.276-34.733
					c-0.041-2.178,0.927-3.243,2.952-3.655c1.209-0.246,2.389-0.634,3.586-0.945c31.82-8.25,63.849-15.54,96.464-19.877
					c24.729-3.288,49.575-5.124,74.548-3.928c10.41,0.498,20.803,1.352,31.202,2.07c5.62,0.387,7.789-1.295,7.883-6.55
					c0.066-3.706,0.126-7.461-0.364-11.12C1771.408,1394.662,1765.25,1368.234,1755.001,1342.851z M826.34,1703.489
					c0.23,0.149,0.251,0.621,0.529,1.374c-8.941-1.551-29.159-14.797-42.392-27.543c0.055,0.013,0.083,0.022,0.118,0.032
					c-0.104-0.063-0.201-0.192,0.046-0.409c0.105-0.092,0.351-0.172,0.44-0.115C798.844,1685.699,812.6,1694.581,826.34,1703.489z
					 M858.97,1672.687c-0.509,0.72-1.08,1.397-1.565,2.132c-1.125,1.706-2.383,1.687-3.988,0.579
					c-3.191-2.203-6.383-4.423-9.715-6.397c-19.522-11.562-40.179-20.466-62.112-26.37c-2.337-0.629-4.806-0.985-6.787-2.705
					c29.011,2.252,56.518,9.689,82.14,23.637C863.065,1666.897,863.078,1666.876,858.97,1672.687z M768.732,1623.501
					c11.298-4.236,22.877-7.221,35.004-7.825c21.769-1.083,42.51,3.071,62.36,11.962c6.766,3.031,6.858,3.153,5.323,11.354
					c-33.477-18.336-68.967-19.705-105.369-12.216C765.8,1624.143,767.556,1623.943,768.732,1623.501z M770.428,1631.007
					c26.422-4.81,52.62-4.756,78.398,3.826c6.211,2.068,12.172,4.694,17.858,7.933c4.611,2.627,4.657,2.671,3.106,7.948
					c-0.794,2.7-1.733,5.374-2.825,7.967c-1.454,3.455-1.575,3.468-4.969,1.56c-14.367-8.077-29.485-14.293-45.38-18.671
					c-15.72-4.33-31.758-6.488-47.997-7.398c-0.863-0.048-1.719-0.216-3.284-0.42
					C766.925,1631.302,768.853,1631.293,770.428,1631.007z M766.753,1643.725c25.91,6.759,50.856,15.94,73.945,29.715
					c3.757,2.242,7.55,4.47,10.799,7.641c-3.025,4.038-7.09,6.597-10.802,9.548c-1.672,1.33-3.33,0.636-4.979-0.074
					c-5.513-2.372-11.143-4.506-16.516-7.16c-19.059-9.415-37.205-20.283-53.213-34.429c-1.322-1.169-2.614-2.376-3.867-3.618
					c-0.345-0.341-0.502-0.872-0.907-1.61C763.146,1642.551,765.019,1643.272,766.753,1643.725z M748.013,1617.14
					c6.96-1.002,12.363,4.173,12.312,11.793c-0.06,8.95-7.197,18.103-15.848,20.325c-6.983,1.793-12.745-2.119-13.709-9.307
					C729.437,1630.028,738.102,1618.566,748.013,1617.14z M1754.785,1361.855c-0.475-2.182-1.602-4.251-0.978-6.636
					c7.392,21.313,12.399,43.172,15.911,65.779c-5.091,0.358-9.15-0.942-13.262-1.466c-34.096-4.341-67.988-2.812-101.809,2.886
					c-31.192,5.254-62.035,11.979-92.41,20.82c-0.841,0.245-1.695,0.471-2.559,0.609c-0.294,0.047-0.636-0.206-1.204-0.412
					c0.573-2.28,2.704-2.432,4.313-3.061c11.844-4.627,23.904-8.635,36.045-12.401c27.355-8.487,55.377-14.182,83.357-20.093
					c19.341-4.085,38.578-8.651,58.097-11.868c5.515-0.909,6.471-2.627,4.88-8.114c-1.609-5.544-3.422-11.029-5.165-16.602
					c3.504-1.636,7.108-1.67,10.484-2.608C1754.763,1367.499,1755.709,1366.101,1754.785,1361.855z M1562.118,1428.992
					c26.196-11.466,52.76-22.012,79.62-31.821c28.066-10.249,56.71-18.397,86.066-24.006c1.04-0.199,2.135-0.222,3.123-0.563
					c2.457-0.848,3.631,0.366,4.337,2.472c1.29,3.845,2.656,7.667,3.827,11.548c1.087,3.607,0.886,3.858-2.747,4.562
					c-9.18,1.778-18.432,3.234-27.538,5.325c-34.896,8.013-70.267,13.963-104.652,24.197c-13.705,4.08-27.259,8.581-40.679,13.508
					c-1.6,0.587-3.135,1.649-4.985,1.319C1557.672,1431.005,1557.648,1430.948,1562.118,1428.992z M1557.166,1422.391
					c-0.15-2.115-0.227-4.234-0.335-6.352c-0.026-0.53,0.026-1.076-0.089-1.586c-0.851-3.773,0.978-5.683,4.249-7.314
					c28.308-14.108,57.047-27.265,86.34-39.185c28.5-11.597,57.725-21.011,87.593-28.416c1.027-0.255,2.076-0.429,3.096-0.71
					c1.755-0.484,2.937-0.159,3.828,1.686c3.008,6.23,5.396,12.652,6.938,19.409c0.643,2.818-0.573,3.719-3.09,4.202
					c-10.578,2.029-21.152,4.083-31.688,6.311c-32.748,6.924-64.371,17.505-95.529,29.576c-18.773,7.274-37.456,14.77-55.915,22.815
					c-0.97,0.423-1.941,0.85-2.929,1.229C1558.05,1424.662,1557.276,1423.938,1557.166,1422.391z M1755.585,1324.899
					c1.628,3.711,1.366,3.958-2.627,4.822c-47.638,10.306-93.477,25.981-137.875,46.012c-18.347,8.278-36.678,16.581-54.653,25.649
					c-1.211,0.611-2.349,1.672-4.175,1.124c-1.02-2.35-0.589-5.048-0.964-7.607c-0.327-2.234,1.758-2.866,3.201-3.748
					c7.685-4.696,15.305-9.511,23.134-13.954c34.104-19.352,68.603-37.933,104.647-53.502c16.865-7.285,34.047-13.733,51.317-19.961
					c5.139-1.853,5.218-1.8,8.175,3.019C1749.367,1312.622,1752.817,1318.59,1755.585,1324.899z M1520.807,785.659
					c14.121,17.69,27.604,35.835,40.888,54.144c19.329,26.643,36.043,54.955,52.987,83.112
					c31.468,52.295,59.495,106.418,83.822,162.369c18.378,42.267,36.348,84.741,50.987,128.515
					c7.626,22.801,14.024,45.936,19.22,69.407c0.229,1.033,0.342,2.091,0.541,3.132c0.366,1.913-0.312,2.73-2.321,3.249
					c-53.403,13.783-103.011,36.785-151.398,62.676c-19.316,10.335-38.578,20.787-57.111,32.511
					c-1.003,0.635-1.944,1.575-3.558,1.227c-1.484-4.84-1.386-10.012-1.996-15.048c-2.358-19.464-4.614-38.94-7.715-58.303
					c-1.033-6.451-2.113-12.91-3.604-19.264c-0.686-2.925,0.103-4.569,2.282-6.315c8.154-6.532,16.858-12.286,25.563-18.009
					c27.553-18.114,56.726-33.133,87.477-45.058c9.232-3.58,18.736-6.321,28.246-9.041c1.349-0.386,2.711-0.818,3.956-1.45
					c1.231-0.625,1.706-1.811,1.175-3.143c-0.431-1.082-1.41-1.679-2.542-1.519c-1.564,0.221-3.106,0.635-4.636,1.044
					c-29.894,7.989-57.828,20.713-84.859,35.502c-19.552,10.697-38.377,22.58-55.987,36.305c-0.658,0.513-1.277,1.273-2.861,0.742
					c-1.079-4.432-2.24-9.172-3.387-13.916c-0.291-1.202-0.519-2.418-0.809-3.62c-2.148-8.898-2.237-9.025,5.129-14.01
					c39.342-26.629,81.26-47.797,127.481-59.766c2.393-0.62,4.816-1.119,7.214-1.722c1.852-0.466,3.512-1.37,2.987-3.59
					c-0.479-2.028-2.368-1.923-3.936-1.599c-3.976,0.82-7.963,1.642-11.871,2.729c-45.76,12.724-87.615,33.591-126.442,60.756
					c-1.13,0.791-2.08,1.965-3.7,1.987c-1.179-1.391-1.322-3.176-1.762-4.849c-6.427-24.428-13.343-48.714-21.232-72.715
					c-1.57-4.776-1.556-4.755,3-7.198c28.625-15.351,59.15-25.962,89.901-35.995c13.44-4.385,27.068-8.101,40.875-11.158
					c1.356-0.3,2.857-0.233,4.016-1.194c0.882-0.731,1.333-1.705,0.957-2.819c-0.29-0.857-0.954-1.491-1.918-1.63
					c-1.975-0.285-3.844,0.279-5.744,0.702c-26.788,5.963-52.685,14.784-78.395,24.241c-17.598,6.473-34.828,13.752-51.368,22.614
					c-0.779,0.417-1.592,0.772-2.356,1.213c-1.868,1.077-2.781,0.403-3.52-1.507c-2.802-7.247-5.777-14.427-8.614-21.661
					c-1.216-3.1-4.072-6.287-3.268-9.263c0.914-3.381,5.418-4.106,8.458-5.729c32.94-17.579,66.656-33.383,102.606-43.922
					c6.434-1.886,12.993-3.346,19.497-4.99c2.051-0.519,4.742-0.816,4.121-3.684c-0.637-2.941-3.249-1.991-5.29-1.571
					c-18.402,3.783-36.146,9.724-53.586,16.594c-25.016,9.853-49.245,21.401-72.818,34.326c-6.074,3.33-6.041,3.342-9.012-3.245
					c-16.017-35.511-34.116-69.856-57.085-101.448c-5.091-7.002-10.462-13.8-15.707-20.69c-2.425-3.185-2.447-3.211,1.018-5.519
					c11.94-7.952,24.584-14.674,37.504-20.831c27.651-13.176,56.067-24.289,86.088-30.903c2.235-0.492,4.435-1.189,6.604-1.927
					c1.468-0.499,2.475-1.583,1.943-3.238c-0.511-1.59-1.91-1.963-3.441-1.755c-0.694,0.094-1.362,0.368-2.05,0.521
					c-38.895,8.695-75.542,23.269-110.523,42.214c-7.003,3.792-13.683,8.103-20.279,12.545c-1.662,1.119-2.888,1.591-4.489-0.249
					c-8.122-9.332-16.361-18.562-24.536-27.848c-0.322-0.366-0.411-0.938-0.673-1.567c0.721-0.542,1.376-1.129,2.116-1.577
					c35.665-21.565,72.886-39.714,113.045-51.391c7.125-2.072,14.326-3.831,21.615-5.25c3.735-0.727,5.221-2.144,4.426-3.946
					c-1.185-2.685-3.544-1.818-5.544-1.412c-24.697,5.013-48.314,13.338-71.368,23.373c-22.231,9.677-43.607,20.993-64.332,33.558
					c-5.046,3.059-4.349,2.883-8.359-1.004c-6.854-6.641-14.302-12.585-21.673-18.039c-0.186-1.333,0.401-1.758,0.956-2.144
					c40.413-28.168,83.837-50.359,130.684-65.73c4.193-1.376,8.479-2.468,12.7-3.761c1.335-0.409,2.774-0.692,3.815-1.747
					c0.813-0.823,1.024-1.818,0.564-2.905c-0.39-0.919-1.193-1.38-2.102-1.304c-1.215,0.103-2.436,0.354-3.608,0.701
					c-39.998,11.86-78.069,28.099-113.634,50.033c-10.529,6.494-21.043,13.008-31.251,20.005c-3.98,2.728-3.513,2.878-7.304,0.096
					c-7.568-5.554-15.627-10.313-23.831-14.843c-1.219-0.673-2.597-1.17-3.451-2.428c0.433-1.746,2.055-2.309,3.305-3.185
					c48.104-33.703,99.953-59.836,156.141-77.192c1.68-0.519,3.359-1.086,4.96-1.807c1.009-0.455,1.62-1.415,1.383-2.604
					c-0.289-1.455-1.433-2.104-2.735-1.948c-1.737,0.209-3.459,0.677-5.141,1.187c-43.863,13.312-85.092,32.472-124.315,56.071
					c-12.119,7.292-24.005,14.954-35.413,23.311c-3.083,2.259-5.375,2.527-8.955,0.744c-18.869-9.397-38.526-16.75-59.136-21.402
					c-0.852-0.192-1.7-0.403-2.746-0.651c0.254-2.392,2.232-3.159,3.632-4.276c28.914-23.075,59.336-43.986,91.065-62.98
					c39.042-23.371,79.488-43.886,122.39-59.298c5.981-2.148,12.144-3.799,18.083-6.051c4.889-1.853,8.309-1.027,11.996,3.019
					C1499.881,760.801,1510.648,772.932,1520.807,785.659z M1168.484,678.281c1.117-3.16,2.699-4.79,6.073-5.637
					c43.828-11.018,87.612-22.208,131.412-33.339c1.671-0.425,3.378-0.705,5.01-1.04c0.863,1.748-0.325,2.603-0.927,3.543
					c-9.233,14.434-18.522,28.831-27.754,43.265c-1.283,2.006-2.804,3.41-5.148,4.242c-41.927,14.883-83.826,29.846-125.734,44.78
					c-0.648,0.231-1.35,0.31-2.372,0.537c-0.551-2.225,0.422-3.604,0.935-5.03C1156.135,712.49,1162.423,695.426,1168.484,678.281z
					 M1050.9,757.136c3.884-11.352,7.822-22.686,11.636-34.062c0.903-2.691,2.111-4.377,5.225-5.089
					c28.034-6.412,56.021-13.03,84.029-19.559c0.977-0.228,2.052-0.689,3.025,0.12c0.598,1.523-0.37,2.747-0.825,4.023
					c-3.738,10.47-7.651,20.879-11.235,31.4c-0.974,2.861-2.607,4.212-5.326,5.173c-28.782,10.174-57.526,20.453-86.278,30.712
					c-1.299,0.464-2.554,1.079-4.86,0.87C1047.966,765.783,1049.422,761.456,1050.9,757.136z M962.415,809.091
					c0.119-2.068,1.696-2.454,3.198-2.992c6.32-2.264,12.631-4.548,18.954-6.802c96.999-34.587,193.981-69.226,291.049-103.618
					c5.897-2.089,9.801-5.22,13.068-10.45c12.079-19.333,24.644-38.362,36.84-57.623c1.965-3.103,4.303-4.723,7.819-5.47
					c44.748-9.5,89.477-19.092,134.21-28.662c6.563-1.404,13.114-2.865,19.69-4.201c3.874-0.787,4.305-0.501,4.872,3.335
					c1.886,12.757,3.69,25.526,5.534,38.289c4.043,27.971,8.081,55.944,12.144,83.912c2.59,17.83,5.226,35.653,7.828,53.482
					c0.15,1.03,0.376,2.089-0.481,3.96c-7.431-9.024-15.032-16.885-22.534-24.839c-0.727-0.771-1.501-1.52-2.107-2.381
					c-3.805-5.404-8.627-7.28-15.135-5.144c-3.527,1.158-3.703,0.785-4.167-2.998c-2.879-23.495-5.789-46.987-8.566-70.495
					c-1.127-9.532-1.348-9.797-10.237-6.829c-147.434,49.224-294.866,98.452-442.3,147.677c-14.744,4.923-29.491,9.84-44.243,14.741
					c-1.642,0.546-3.327,0.965-5.587,1.614C961.838,818.456,962.146,813.775,962.415,809.091z M965.598,828.426
					c13.066-4.362,26.122-8.751,39.188-13.113c149.249-49.823,298.499-99.648,447.757-149.443c5.618-1.874,6.264-3.577,7.193,4.555
					c2.467,21.582,5.278,43.124,7.95,64.682c0.065,0.526,0.119,1.054,0.163,1.582c0.594,7.054,1.002,5.861-5.297,8.046
					c-10.684,3.706-21.251,7.711-31.685,12.067c-5.664,2.365-4.944,2.259-7.719-2.427c-9.905-16.721-19.801-33.448-29.704-50.17
					c-0.63-1.063-1.271-2.121-1.937-3.162c-1.084-1.694-2.593-2.324-4.55-1.719c-1.349,0.417-2.702,0.827-4.037,1.284
					c-98.246,33.617-196.547,67.073-294.68,101.016c-16.82,5.818-32.938,13.676-49.352,20.656
					c-24.706,10.507-49.388,21.07-74.078,31.613c-0.802,0.343-1.562,0.832-2.952,0.57c0-7.614,0.04-15.003-0.021-22.392
					C961.815,829.418,963.744,829.045,965.598,828.426z M960.462,894.031c0.326-4.571,0.617-24.03,0.496-29.152
					c-0.062-2.624,0.829-4.152,3.365-5.224c39.855-16.85,79.617-33.918,119.526-50.639c14.659-6.142,29.96-10.602,44.993-15.755
					c84.365-28.919,168.753-57.769,253.133-86.646c0.501-0.171,0.984-0.399,1.487-0.563c3.978-1.293,4.035-1.323,6.205,2.335
					c9.555,16.107,19.084,32.23,28.602,48.36c2.537,4.3,2.516,4.349-1.989,6.367c-33.919,15.199-66.445,32.978-97.916,52.724
					c-28.174,17.677-55.271,36.87-81.069,57.864c-2.969,2.416-5.85,3.414-9.62,3.216c-9.55-0.502-19.035,0.186-28.504,1.745
					c-19.352,3.186-35.84,11.455-48.877,26.311c-3.522,4.014-6.575,8.313-9.016,13.044c-5.681,11.008-10.948,22.168-13.194,34.505
					c-0.894,4.917-0.844,9.838-0.726,14.788c0.086,3.639-0.011,3.692-3.412,3.094c-31.827-5.598-63.653-11.206-95.481-16.8
					c-2.956-0.52-5.912-1.168-8.895-1.374c-2.777-0.192-4.434-1.446-5.883-3.753c-5.281-8.405-11.481-16.108-18.419-23.215
					c-9.189-9.413-19.373-17.582-30.801-24.093C961.444,899.449,960.213,897.522,960.462,894.031z M1219.637,989.482
					c1.171,0.839,2.402,0.47,3.359-0.485c0.998-0.994,1.905-2.084,2.808-3.169c15.542-18.65,32.722-35.675,51.109-51.5
					c3.828-3.295,3.838-3.264,8.19-0.786c7.687,4.379,14.968,9.384,22.23,14.415c0.987,0.683,2.158,1.234,2.592,2.569
					c-0.583,1.822-2.313,2.567-3.653,3.642c-20.849,16.719-40.559,34.683-59.09,53.938c-2.204,2.29-4.285,4.702-6.375,7.099
					c-1.014,1.163-1.506,2.516-0.16,3.737c1.382,1.254,2.696,0.444,3.732-0.578c1.758-1.735,3.341-3.648,5.083-5.402
					c19.575-19.7,40.001-38.458,61.763-55.734c4.144-3.29,4.184-3.281,8.262,0.315c6.747,5.951,12.723,12.638,18.789,19.052
					c-1.138,2.311-2.993,3.136-4.508,4.295c-22.655,17.336-44.035,36.042-62.435,57.958c-1.248,1.487-2.5,2.988-3.576,4.598
					c-0.832,1.244-1.078,2.709,0.3,3.802c1.4,1.109,2.686,0.454,3.743-0.642c0.979-1.015,1.854-2.132,2.764-3.214
					c19.096-22.729,41.255-42.138,64.859-59.999c2.239-1.694,3.828-1.965,5.724,0.337c2.357,2.86,5.104,5.41,7.362,8.341
					c12.946,16.797,26.193,33.421,37.645,51.272c19.884,30.992,47.816,90.444,49.563,95.412c1.052,2.994,2.014,6.027,3.238,8.949
					c0.857,2.048,0.306,3.268-1.465,4.392c-2.679,1.7-5.254,3.565-7.879,5.352c-14.163,9.643-33.412,24.31-41.098,32.221
					c-7.686,7.911-3.594,10.613,0.986,6.029c4.134-4.138,5.639-5.398,7.403-6.859c13.188-10.919,26.937-21.085,41.183-30.579
					c3.808-2.538,3.914-2.528,5.527,1.545c3.373,8.521,6.699,17.062,9.979,25.619c1.546,4.031,1.508,4.104-1.887,6.359
					c-9.725,6.461-32.94,22.916-38.587,27.936c-5.647,5.019-2.51,9.322,16.802-6.483c8.621-6.487,17.629-12.333,26.765-17.992
					c1.842,2.14,2.239,4.46,3.011,6.59c10.181,28.069,18.313,56.78,26.432,85.482c10.115,35.763,17.187,72.104,19.413,109.29
					c0.296,4.934,0.639,9.879,1.311,14.771c0.391,2.849-0.326,4.637-2.8,6.141c-4.072,2.474-7.923,5.309-11.945,7.869
					c-21.386,13.614-40.862,29.661-59.573,46.685c-5.763,5.243-18.433,16.278-25.69,26.995c-8.919-4.398-20.131-5.806-22.975-6.494
					c-19.385-4.695-44.25-10.782-97.224-17.488c-36.747-4.652-130.318,2.621-132.696,2.85c-4.745,0.456-9.493,0.909-14.248,1.241
					c-4.501,0.315-10.143,1.204-15.245,1.971c-35.869,5.398-71.03,13.943-105.89,23.825c-0.509,0.144-0.997,0.363-1.504,0.514
					c-5.238,1.553-5.299,1.576-7.282-3.37c-7.295-18.201-14.745-36.335-22.797-54.218c-39.042-86.703-80.92-172.004-126.317-255.566
					c-3.274-6.025-6.418-12.119-10.109-19.101c6.9,0.991,12.617,1.997,18.375,2.608c37.421,3.972,71.526-5.02,102.286-26.602
					c15.67-10.995,28.517-24.752,38.832-40.877c2.567-4.012,2.596-4.01,7.069-2.459c5.006,1.736,9.981,3.564,15.008,5.239
					c4.432,1.476,5.144,1.042,6.829-3.037c0.977-2.365,0.672-5.838,3.309-6.785c2.199-0.79,4.696,1.042,7.03,1.8
					c42.501,13.798,84.995,27.618,127.493,41.427c8.408,2.732,8.49,2.684,11.192-5.582c2.743-8.394,5.506-16.782,8.213-25.188
					c2.432-7.552,2.343-7.696-5.073-10.109c-31.406-10.221-62.814-20.434-94.219-30.655c-9.572-3.115-19.142-6.24-28.708-9.375
					c-1.471-0.482-3.135-0.61-4.354-2.333c5.546,0.102,10.686,1.383,15.849,2.283c20.192,3.522,40.282,7.511,59.794,13.969
					c1.16,0.384,2.403,0.605,3.622,0.7c1.099,0.085,2.15-0.313,2.512-1.506c0.403-1.331,0.02-2.528-1.266-3.126
					c-1.432-0.666-2.951-1.162-4.458-1.651c-19.543-6.337-39.63-10.331-59.828-13.834c-6.612-1.147-13.24-2.214-19.87-3.251
					c-1.863-0.292-3.461-0.531-3.374-3.055c0.085-2.442-1.947-3.14-3.766-3.857c-5.423-2.135-10.818-4.357-16.31-6.302
					c-2.729-0.967-3.895-2.315-3.708-5.394c0.309-5.105,0.099-10.243,0.064-15.368c-0.03-4.458-0.06-4.426,4.427-3.846
					c21.391,2.765,42.551,6.8,63.583,11.532c10.507,2.364,21.104,4.358,31.443,7.424c1.725,0.512,3.35,0.699,3.954-1.235
					c0.601-1.925-0.965-2.846-2.537-3.394c-1.998-0.696-4.014-1.369-6.065-1.879c-26.575-6.609-53.265-12.672-80.401-16.558
					c-4.022-0.576-8.046-1.143-12.081-1.604c-1.988-0.227-3.204-0.89-3.512-3.124c-2.358-17.14-7.851-33.295-15.522-48.752
					c-0.064-0.129,0.038-0.34,0.118-0.914c1.672-0.868,3.532-0.202,5.325,0.11c26.621,4.637,53.228,9.354,79.859,13.935
					c11.485,1.975,23.006,3.749,34.535,5.451c2.303,0.34,3.862,1.282,5.243,3.069c24.974,32.299,49.936,64.593,72.374,98.763
					c19.06,29.025,35.51,59.5,50.32,90.816c61.678,130.412,81.748,161.37,131.455,298.571c2.818,7.778,6.675,7.77,4.984-1.243
					s-63.942-170.689-145.902-328.281c-20.701-39.803-44.904-77.253-71.609-113.194c-11.701-15.748-23.82-31.172-35.909-46.62
					c-3.488-4.458-3.457-4.48-0.531-9.026c8.354-12.974,18.236-24.742,28.612-36.11c7.866-8.619,16.17-16.81,24.572-24.908
					c2.451-2.362,4.755-3.545,8.417-2.992c5.443,0.822,10.726,2.122,16.01,3.55c14.002,3.785,27.807,8.109,40.812,14.664
					c1.857,0.936,3.947,1.485,5.481,3.214c-0.571,2.067-2.451,2.951-3.855,4.182c-17.446,15.283-33.82,31.619-48.694,49.433
					c-1.018,1.219-2.071,2.43-2.912,3.769C1218.271,987.021,1218.242,988.483,1219.637,989.482z M1510.284,1448.851
					c-4.028,2.19-8.02,4.447-12.053,6.628c-25.835,13.973-50.336,29.904-72.484,49.297c-0.531,0.465-1.052,0.943-1.608,1.377
					c-0.901,0.705-1.919,1.081-2.854,0.19c-1.019-0.97-1.148-2.141-0.236-3.311c2.281-2.926,4.729-5.698,7.46-8.219
					c10.143-9.362,21.54-17.117,32.632-25.24c15.231-11.154,30.991-21.549,47.023-31.52c1.149-0.715,2.169-1.892,4.173-1.429
					c0.192,2.834,0.368,5.774,0.597,8.71C1513.089,1447.32,1511.721,1448.07,1510.284,1448.851z M1511.562,1456.919
					c-7.829,4.084-15.679,8.129-23.525,12.181c-0.471,0.243-0.957,0.469-2.095-0.518c8.981-4.972,17.696-9.797,26.406-14.62
					C1513.598,1455.994,1512.424,1456.469,1511.562,1456.919z M1437.285,1507.792c-0.199,4.728-3.162,5.452-7.458,6.325
					C1432.279,1511.069,1434.384,1509.401,1437.285,1507.792z M1507.671,1431.897c-23.613,14.801-46.722,30.33-68.712,47.479
					c-1.092,0.852-2.258,1.611-3.39,2.413c-0.197-0.293-0.394-0.587-0.591-0.88c23.379-21.904,48.26-41.857,75.982-58.479
					C1512.222,1428.988,1512.247,1429.028,1507.671,1431.897z M1286.798,1487.524c-15.9-0.636-45.573-0.758-71.012,0.392
					c-25.44,1.15-54.673,4.594-57.363,4.911c-5.744,0.679-11.492,1.328-17.242,1.944c-2.911,0.312-10.469,1.547-15.381,2.371
					c-39.102,6.555-77.477,15.927-114.703,29.723c-8.125,3.011-15.93,6.766-23.829,10.302c-4.825,2.159-4.929,2.139-6.575-2.822
					c-13.024-39.269-28.848-77.473-44.928-115.532c-21.384-50.611-44.724-100.353-69.437-149.441
					c-19.469-38.672-39.794-76.88-61.427-114.388c-0.87-1.508-2.013-2.917-2.342-5.255c2.109,0.248,3.208,1.489,4.497,2.337
					c10.984,7.224,22.646,13.086,35.175,17.068c3.479,1.105,5.582,3.013,7.295,6.184c34.098,63.116,66.993,126.838,97.889,191.595
					c17.271,36.197,34.132,72.568,50.002,109.4c4.408,10.23,7.789,20.841,11.917,31.17c2.27,5.68,3.31,6.3,9.158,4.457
					c29.015-9.143,58.696-15.56,88.441-21.707c7.258-1.5,14.559-2.963,21.938-3.701c92.938-9.298,137.735-6.143,152.31-5.906
					s21.462,1.91,27.68,2.638c24.272,2.843,45.093,7.06,58.147,10.014c10.422,2.358,20.809,4.869,31.212,7.311
					c-0.031,0.379-0.061,0.759-0.092,1.138c-6.652-0.301-13.217-1.496-19.75-2.661
					C1362.41,1496.218,1302.698,1488.16,1286.798,1487.524z M1231.92,1499.758c-24.902,2.484-70.718,11.072-72.849,11.551
					c-6.885,1.547-13.729,3.276-20.587,4.941c-2.358,0.573-10.113,2.642-13.042,3.483c-31.286,8.99-61.588,20.729-91.591,33.253
					c-13.375,5.583-26.333,12.074-39.021,19.089c-1.237,0.684-2.527,1.278-3.728,2.018c-1.807,1.113-2.921,0.585-3.685-1.284
					c-1.803-4.415-3.729-8.781-5.465-13.222c-25.433-65.044-54.844-128.322-85.765-190.879
					c-30.376-61.454-61.682-122.447-96.536-181.54c-22.188-37.62-45.886-74.265-71.086-109.923
					c-8.868-12.547-18.625-24.464-27.851-36.761c-3.921-5.227-7.51-10.702-11.277-16.044c-1.162-1.647-1.018-2.711,0.937-3.688
					c5.081-2.54,10.458-4.269,15.797-6.121c2.212-0.767,3.197,0.636,4.238,2.164c5.074,7.449,10.21,14.855,15.273,22.311
					c6.156,9.064,12.244,18.173,18.396,27.239c2,2.947,3.502,6.088,4.633,9.477c7.405,22.184,19.432,41.531,36.065,57.964
					c3.068,3.032,5.421,6.472,7.555,10.153c39.463,68.069,75.331,137.978,108.349,209.401
					c25.221,54.556,48.18,110.012,69.203,166.292c2.533,6.78,4.624,13.723,7.034,20.551c1.943,5.505,3.716,6.236,9.131,3.654
					c9.73-4.639,19.496-9.193,29.63-12.887c32.445-11.829,65.828-20.153,99.727-26.522c3.992-0.75,7.988-1.501,12.008-2.068
					c3.393-0.478,10.692-1.884,13.158-2.127c5.619-0.556,39.952-3.638,68.998-6.798c29.045-3.16,112.942-0.605,139.698,4.235
					C1308.796,1493.772,1256.821,1497.274,1231.92,1499.758z M1054.347,1055.411c-0.691,2.181-1.423,4.349-2.127,6.527
					c-4.333,13.398-8.643,26.803-13.025,40.185c-0.445,1.358-0.478,3.248-2.536,3.46c-3.445-1.202-6.77-2.358-10.092-3.521
					c-7.109-2.489-7.097-2.484-3.803-9.391c6.024-12.631,10.266-25.825,12.467-39.66c0.249-1.564,0.576-3.117,0.793-4.685
					c0.21-1.517,0.925-2.305,2.472-1.713c4.93,1.89,9.835,3.847,14.756,5.762C1054.808,1052.98,1054.749,1054.141,1054.347,1055.411
					z M1056.218,1067.274c0.405-1.257,0.899-2.296,2.453-2.22c1.05,0.338,2.058,0.658,3.063,0.985
					c43.153,14.008,86.307,28.012,129.457,42.033c4.482,1.456,4.514,1.52,3.144,5.801c-2.367,7.398-4.772,14.784-7.216,22.156
					c-1.419,4.281-1.481,4.306-5.963,2.853c-24.686-8.003-49.366-16.025-74.047-24.047c-17.964-5.839-35.926-11.688-53.888-17.533
					c-1.007-0.328-1.996-0.731-3.021-0.983c-2.133-0.526-2.911-1.666-2.184-3.866
					C1050.79,1084.072,1053.507,1075.674,1056.218,1067.274z M888.52,1171.433c-78.326-0.098-142.149-64.259-142.094-142.844
					c0.055-78.874,63.904-142.649,142.787-142.621c79.055,0.028,142.733,64.001,142.662,143.323
					C1031.805,1107.806,967.535,1171.532,888.52,1171.433z M747.519,984.651c-8.442-12.132-15.547-24.06-26.583-34.596
					c15.477-2.058,29.654-3.238,45.133-4.053C758.056,958.323,752.192,970.628,747.519,984.651z M738.239,980.611
					c1.989,3.916,5.46,7.289,6.597,11.37c1.092,3.918-1.257,8.214-1.905,12.38c-2.21,14.214-2.57,28.448-0.777,42.734
					c0.232,1.845,0.776,3.735-0.024,6.573c-16.077-23.155-30.46-46.567-48.917-67.56c2.756-1.942,5.03-2.402,7.2-2.987
					c9.367-2.525,18.802-4.764,28.308-6.726C733.107,975.49,736.106,976.41,738.239,980.611z M1398.458,1509.403
					c2.581,0.259,3.737,1.529,4.04,3.946c0.108,0.866,0.446,1.7,0.601,2.563c0.684,3.811,0.347,4.31-3.561,4.418
					c-2.799,0.077-5.611,0.211-8.407-0.315c-2.312-0.434-3.821-1.494-4.205-3.992c-0.397-2.584-1.005-5.135-1.679-8.491
					C1390.169,1508.248,1394.297,1508.986,1398.458,1509.403z M1141.745,945.31c0.613,5.958,1.659,11.912,4.255,17.354
					c1.913,4.008-0.823,6.302-2.632,8.925c-0.98,1.42-6.516,1.391-8.534,0.365c-1.358-0.69-1.268-1.986-1.509-3.153
					c-1.165-5.641-0.434-11.229,0.67-16.764c0.513-2.574,1.339-5.111,2.278-7.567c1.249-3.264,2.484-6.558,5.408-9.471
					C1141.681,938.438,1141.395,941.907,1141.745,945.31z M1151.496,959.957c-2.375-0.864-2.316-2.911-2.709-4.424
					c-2.146-8.254-2.735-16.671-2.297-25.181c0.242-4.696,2.225-8.351,5.814-11.379c8.273-6.982,18.234-9.785,28.535-11.664
					c5.646-1.03,11.382-1.47,18.463-0.656C1181.572,923.751,1165.434,940.844,1151.496,959.957z M859.036,570.919
					c2.135-0.112,2.904,1.258,3.878,2.147c21.878,19.991,43.708,40.034,65.617,59.99c2.003,1.825,2.997,3.63,2.705,6.404
					c-0.584,5.552-0.882,11.134-1.293,16.642c-2.134,0.426-2.959-0.965-3.959-1.812c-21.539-18.238-43.012-36.555-64.613-54.72
					c-2.588-2.176-3.586-4.413-3.348-7.718C858.523,584.894,858.716,577.914,859.036,570.919z M821.016,573.709
					c2.175-0.636,3.115,1.259,4.34,2.296c32.635,27.64,65.234,55.322,97.84,82.996c11.049,9.377,22.056,18.804,33.183,28.087
					c2.363,1.971,3.472,4.013,3.387,7.189c-0.95,35.682-1.809,71.368-2.611,107.054c-0.64,28.445-1.155,56.893-1.764,85.338
					c-0.059,2.76,0.27,5.602-1.014,8.871c-20.709-10.138-42.397-14.902-65.123-14.991c-22.608-0.088-44.067,5.038-64.535,14.563
					C823.193,889.948,819.891,594.429,821.016,573.709z M406.292,803.373c-1.206-18.69-2.363-37.383-3.548-56.075
					c-0.157-2.468-0.356-4.936-0.62-7.395c-0.697-6.487,1.476-11.76,6.457-15.972c4.082-3.452,8.593-6.203,13.386-8.503
					c13.955-6.695,28.756-10.771,43.844-13.864c29.954-6.14,60.243-7.882,90.714-6.154c15.897,0.901,31.647,3.116,46.831,8.265
					c5.202,1.764,10.206,3.938,14.725,7.15c2.159,1.535,3.352,3.33,3.504,6.111c1.29,23.64,2.7,47.273,4.057,70.909
					c0.081,1.395,0.011,2.798,0.011,4.498c-0.883,0.06-1.268,0.197-1.565,0.09c-30.802-11.085-62.798-13.081-95.108-12.228
					c-31.041,0.819-61.598,4.973-91.263,14.552c-9.777,3.157-19.223,7.081-28.108,12.29c-0.587,0.344-1.267,0.53-1.839,0.764
					C406.077,806.595,406.389,804.881,406.292,803.373z M412.688,901.913c-1.224-18.862-2.379-37.729-3.585-56.592
					c-0.507-7.932-0.862-15.884-1.732-23.778c-0.505-4.584,0.578-7.458,4.838-9.869c12.727-7.202,26.308-12.063,40.364-15.715
					c21.09-5.479,42.554-8.5,64.303-9.869c20.34-1.281,40.612-0.973,60.849,1.342c14.774,1.69,29.289,4.548,43.335,9.641
					c3.865,1.401,5.466,3.431,5.651,7.648c1.023,23.297,2.354,46.58,3.554,69.87c0.217,4.201,1.142,8.388,0.357,13.326
					c-36.188-13.921-73.201-15.612-110.659-12.443c-37.311,3.156-73.199,11.521-105.72,30.892
					C412.474,905.128,412.785,903.405,412.688,901.913z M426.27,1110.525c-2.126-32.97-4.26-65.939-6.411-98.907
					c-2.013-30.852-3.979-61.707-6.171-92.547c-0.29-4.08,0.835-6.43,4.34-8.585c17.366-10.673,36.278-17.361,55.918-22.206
					c30.247-7.461,60.978-10.067,92.039-8.318c18.747,1.056,37.237,3.911,55.035,10.255c2.162,0.771,4.255,1.756,6.446,2.419
					c2.951,0.893,4.192,2.739,4.312,5.808c0.283,7.238,0.808,14.465,1.191,21.699c1.224,23.115,2.373,46.234,3.653,69.346
					c1.904,34.401,3.933,68.796,5.835,103.197c1.327,23.994,2.488,47.998,3.8,71.993c1.621,29.639,3.326,59.274,4.985,88.911
					c0.73,13.054,1.457,26.11,2.129,39.167c0.136,2.621,0.02,5.255,0.02,8.599c-2.531-0.826-3.934-2.201-5.462-3.307
					c-41.649-30.167-83.284-60.353-124.921-90.535c-1.144-0.83-2.345-1.593-3.423-2.501c-2.335-1.966-4.672-2.156-7.264-0.452
					c-1.419,0.932-2.809,2.117-4.641,2.14c-1.243-1.769-0.766-3.588-0.827-5.28c-0.846-23.134-1.606-46.272-2.454-69.406
					c-1.296-35.319-2.651-70.635-3.969-105.953c-1.028-27.548-2.039-55.096-3.057-82.644c-0.02-0.53-0.005-1.063-0.055-1.589
					c-0.361-3.804-1.363-4.672-5.079-4c-3.822,0.69-7.608,1.579-11.408,2.388c-7.254,1.544-14.515,3.061-21.76,4.649
					c-6.516,1.428-6.611,1.514-6.335,7.982c0.46,10.769,0.967,21.536,1.537,32.3c0.953,17.997,1.975,35.99,2.963,53.985
					c1.637,29.815,3.291,59.629,4.896,89.445c0.902,16.762,1.691,33.53,2.582,50.293c0.835,15.703,1.642,31.408,2.683,47.098
					c0.24,3.61-0.582,5.82-3.943,7.659c-8.055,4.408-15.845,9.3-23.771,13.946c-4.146,2.43-4.418,2.27-4.755-2.7
					c-0.716-10.576-1.392-21.155-2.072-31.734C430.659,1178.934,428.475,1144.729,426.27,1110.525z M499.519,1212.224
					c-8.27,4.757-16.455,9.66-24.691,14.477c-0.413,0.241-1.003,0.18-1.896,0.32c-0.297-3.228-0.692-6.349-0.855-9.483
					c-1.251-23.999-2.425-48.002-3.685-72.001c-1.751-33.349-3.552-66.697-5.338-100.044c-1.398-26.113-2.8-52.226-4.212-78.338
					c-0.238-4.411-0.451-8.825-0.843-13.223c-0.217-2.431,0.79-3.536,3.073-4.011c9.164-1.906,18.303-3.932,27.47-5.822
					c3.296-0.68,3.482-0.515,3.634,3.096c0.421,10.064,0.747,20.132,1.115,30.198c1.383,37.793,2.785,75.584,4.149,113.378
					c1.172,32.495,2.296,64.992,3.459,97.488c0.227,6.357,0.501,12.714,0.823,19.067
					C501.829,1209.388,501.592,1211.031,499.519,1212.224z M676.209,1535.971c-3.823,18.892-13.293,34.44-27.877,46.939
					c-16.219,13.9-35.159,22.23-55.842,26.689c-40.73,8.78-80.111,3.433-118.31-12.216c-23.818-9.758-45.068-23.542-62.941-42.213
					c-14.517-15.165-25.45-32.432-31.014-52.924c-4.773-17.58-3.072-34.626,3.262-51.431c1.995-5.293,4.21-10.489,7.206-15.319
					c2.427-3.913,2.436-3.974,6.267-1.051c18.686,14.256,37.366,28.521,56.023,42.814c47.276,36.217,94.539,72.451,141.808,108.677
					c0.701,0.537,1.405,1.072,2.112,1.602c4.596,3.449,5.01,3.5,9.557-0.23c16.941-13.9,33.847-27.844,50.767-41.77
					c5.458-4.493,10.912-8.99,16.386-13.463c0.787-0.643,1.49-1.581,2.79-1.232C677.208,1532.572,676.552,1534.276,676.209,1535.971
					z M800.628,1420.519c-28.23,23.271-56.482,46.515-84.742,69.751c-0.777,0.639-1.492,1.588-3.029,1.12
					c-1.3-6.406-1.832-13.07-3.282-19.585c-4.041-18.169-12.191-34.236-24.488-48.131c-19.033-21.507-42.239-36.105-70.459-42.625
					c-14.638-3.381-29.374-6.171-44.137-8.871c-3.387-0.619-6.213-1.146-7.557-5.259c-1.237-3.781-4.503-6.29-8.773-6.788
					c-4.797-0.559-8.282,2.213-8.876,6.98c-0.732,5.864,3.622,12.343,9.315,13.81c3.225,0.831,6.084-0.004,8.06-2.617
					c1.391-1.84,2.744-2.22,4.952-1.78c17.319,3.449,34.826,6.262,51.719,11.385c39.125,11.865,67.669,35.8,82.134,74.857
					c3.578,9.659,4.842,19.869,5.916,30.08c0.306,2.913-0.464,4.898-2.813,6.822c-33.084,27.108-66.082,54.321-99.118,81.486
					c-3.263,2.682-3.326,2.628-7.548-0.589c-48.22-36.735-96.468-73.434-144.648-110.223
					c-53.236-40.65-106.411-81.381-159.596-122.099c-1.663-1.273-3.578-2.291-5.141-4.652c2.496-1.601,4.672-3.095,6.939-4.437
					c71.774-42.472,143.577-84.897,215.283-127.483c3.835-2.278,6.306-1.969,9.795,0.566
					c92.929,67.526,185.939,134.939,278.936,202.371c0.286,0.208,0.575,0.411,0.856,0.625
					C803.734,1417.825,803.799,1417.904,800.628,1420.519z M559.013,1373.447c-0.304,1.448-1.182,2.199-2.542,2.172
					c-3.214-0.062-6.776-5.145-5.726-8.235c0.532-1.567,1.677-2.196,3.322-1.822
					C556.963,1366.221,559.635,1370.481,559.013,1373.447z M819.159,1404.906c-5.801,0.668-11.598,1.266-17.445,0.869
					c-3.935-0.267-7.393-1.464-10.715-3.885c-42.281-30.804-84.637-61.506-127.053-92.125c-3.133-2.261-4.59-4.575-4.776-8.603
					c-1.174-25.416-2.694-50.817-4.093-76.223c-1.788-32.463-3.568-64.927-5.354-97.391c-1.388-25.229-2.784-50.458-4.171-75.688
					c-1.794-32.641-3.581-65.282-5.374-97.923c-1.415-25.759-2.824-51.518-4.258-77.276c-2.014-36.166-4.078-72.329-6.063-108.497
					c-1.2-21.876-2.243-43.761-3.439-65.637c-1.726-31.579-3.436-63.159-5.354-94.726c-0.514-8.47-0.495-16.968-1.235-25.408
					c-0.902-10.27,3.419-17.195,12.213-22.076c10.344-5.742,21.492-9.052,32.979-11.164c37.415-6.877,74.838-7.009,112.184,0.65
					c7.977,1.636,15.722,4.075,23.172,7.407c4.093,1.831,7.615,4.382,10.619,7.74c2.839,3.173,4.373,6.804,4.577,11.017
					c0.102,2.118,0.153,4.239,0.17,6.359c0.462,58.151,0.9,116.302,1.38,174.452c0.378,45.778,0.781,91.556,1.266,137.332
					c0.032,2.977-0.719,4.816-3.447,6.375c-16.459,9.401-30.541,21.628-42.2,36.574c-1.813,2.324-3.79,3.25-6.681,3.412
					c-16.23,0.911-32.401,2.554-48.565,4.255c-1.818,0.191-3.695,0.346-4.376,2.317c-0.607,1.755,0.734,3.026,1.825,4.134
					c4.712,4.788,9.523,9.486,13.34,15.06c0.876,1.279,2.18,2.341,2.373,4.61c-7.282,1.559-14.346,3.079-21.415,4.58
					c-6.226,1.323-12.369,2.948-18.398,4.99c-4.173,1.413-4.724,2.669-2.563,6.578c2.059,3.725,4.872,6.928,7.502,10.253
					c3.045,3.849,6.401,7.475,8.974,11.972c-1.37,1.516-3.181,1.723-4.788,2.208c-5.263,1.587-10.239,3.88-15.217,6.15
					c-3.355,1.529-3.541,2.482-1.819,5.701c1.578,2.949,3.846,5.506,5.074,8.864c-3.677,2.516-7.884,3.933-11.776,5.95
					c-7.045,3.652-7.218,4.553-2.376,10.918c26.971,35.454,52.755,71.721,76.83,109.238c24.551,38.258,46.453,78.021,68.814,117.536
					c1.748,3.088,2.118,6.272,2.137,9.669c0.199,35.174,0.43,70.348,0.657,105.522c0.021,3.358,0.012,6.718,0.125,10.074
					C822.5,1403.401,821.596,1404.626,819.159,1404.906z M872.12,1391.408c-13.357,3.323-26.709,6.668-40.078,9.942
					c-3.678,0.901-4.078,0.634-4.113-3.032c-0.34-34.793-0.628-69.586-0.914-104.379c-0.004-0.497,0.215-0.996,0.413-1.851
					c1.731,0.819,2.068,2.082,2.627,3.128c15.735,29.424,31.448,58.86,45.436,89.175
					C878.047,1389.928,878.047,1389.933,872.12,1391.408z M987.544,1629.421c-1.005-0.343-1.156-1.27-1.486-2.07
					c-13.67-33.147-27.188-66.358-41.049-99.424c-16.527-39.425-33.75-78.544-51.427-117.474
					c-23.763-52.334-50.209-103.252-78.405-153.308c-14.915-26.479-29.507-53.14-45.572-78.953
					c-19.051-30.612-38.658-60.849-59.871-90.031c-10.083-13.871-20.646-27.368-31.01-41.02c-2.407-3.171-2.426-3.262,0.905-4.992
					c3.133-1.628,6.388-3.021,9.536-4.622c1.533-0.779,2.671-0.628,3.595,0.844c0.187,0.299,0.409,0.577,0.625,0.857
					c45.58,58.994,85.755,121.511,122.1,186.564c31.381,56.167,60.437,113.537,88.563,171.366
					c17.611,36.211,34.625,72.739,50.393,109.809c9.54,22.427,18.552,45.08,27.798,67.632c0.335,0.817,0.615,1.657,0.969,2.466
					c2.235,5.115,3.549,5.64,8.364,2.95c41.397-23.127,85.599-39.418,130.641-53.665c6.666-2.109,13.091-3.671,14.697-4.053
					c7.179-1.705,14.321-3.57,21.521-5.178c1.679-0.375,7.168-1.604,9.129-2.099c0.028-0.007,45.605-8.42,74.218-11.809
					c28.612-3.389,29.133-2.698,50.617-3.523c21.484-0.825,49.881-1.345,62.25,4.302c-50.284-3.361-121.224,7.25-141.737,12.993
					c-20.513,5.743-52.134,16.755-54.102,17.5c-8.052,3.048-33.296,13.409-36.497,14.762c-17.259,7.296-34.049,15.59-50.516,24.529
					c-28.802,15.635-56.158,33.456-81.622,54.13C989.382,1628.543,988.75,1629.513,987.544,1629.421z M1512.303,1471.208
					c-0.802,0.363-1.645,0.632-2.47,0.943c-15.543,5.866-30.537,12.961-45.442,20.256c-4.461,2.184-8.478,5.062-12.423,8.054
					c-4.99,3.785-7.506,8.656-7.332,15.038c0.141,5.174-0.047,5.23-4.783,6.627c-5.244,1.547-17.492,4.9-36.698,7.822
					c-4.539,0.691-9.096,1.217-14.807,1.32c-8.931-0.039-9.007,2.258-10.986-10.189c-0.194-1.218-0.43-2.433-0.717-3.633
					c-1.09-4.563-1.547-4.736-6.359-5.521c-14.719-2.403-29.561-1.773-44.368-2.044c-1.412-0.026-2.825,0.015-4.235-0.039
					c-0.876-0.033-15.994,0.73-16.698,0.736c-0.14,0.037-32.893,3.631-65.707,9.329c-8.147,1.415-82.679,25.225-118.857,39.733
					c-33.686,13.509-64.818,32.325-94.071,54.018c-10.371,7.692-20.363,15.839-30.301,24.065c-0.681,0.563-1.303,1.202-2.015,1.72
					c-0.909,0.661-1.931,2.295-3.008,0.733c-0.901-1.307-2.234-3.045-0.657-4.788c1.061-1.171,2.326-2.167,3.553-3.177
					c23.818-19.599,49.408-36.565,76.412-51.433c16.26-8.953,48.574-25.743,92.898-43.485c1.055-0.422,48.033-15.641,51.215-16.309
					c43.123-9.062,106.315-19.28,161.038-10.468c3.882,0.625,6.318,2.288,6.678,6.676c0.381,4.647,3.373,7.04,7.976,7.808
					c3.173,0.53,6.332,0.681,9.495,0.498c20.803-1.206,30.383-5.438,34.264-6.414c4.405-1.109,7.115-3.963,8.242-8.118
					c1.687-6.219,5.738-10.342,10.89-13.769c17.711-11.779,36.593-21.296,56.255-29.326c0.49-0.2,0.97-0.453,1.481-0.564
					c0.932-0.204,2.125-1.143,2.696,0.308C1514,1468.978,1513.981,1470.45,1512.303,1471.208z M1576.964,1526.853
					c7.546,3.95,15.574,6.696,23.589,9.452c20.784,7.146,40.678,16.151,59.635,27.333c17.341,10.229,32.21,23.54,47.281,36.639
					c0.509,0.442,0.884,1.036,1.321,1.56c-0.148,0.311-0.296,0.622-0.444,0.933c-2.609-0.943-5.243-1.822-7.822-2.839
					c-19.576-7.715-39.545-14.243-59.808-19.886c-2.034-0.567-4.124-1.125-6.214-1.246c-2.916-0.169-4.179,1.873-2.995,4.525
					c0.353,0.79,0.969,1.467,1.495,2.173c6.668,8.961,12.37,18.49,17.123,28.605c4.432,9.432,9.29,18.667,13.059,28.402
					c0.484,1.251,1.54,2.459,0.696,3.959c-1.296,0.278-1.943-0.695-2.638-1.404c-6.591-6.713-14.13-12.279-21.544-18.009
					c-19.745-15.26-40.575-28.922-61.787-42.018c-3.004-1.855-6.069-3.653-9.252-5.167c-12.474-5.933-24.052-13.446-36.032-20.246
					c-0.461-0.261-0.901-0.558-1.352-0.838c-9.914-6.15-14.741-14.684-13.362-26.66c1.843-15.999,1.975-32.102,1.87-48.188
					c-0.135-20.858-1.407-41.666-2.826-62.476c-0.926-13.576-2.089-27.122-3.306-40.671c-2.95-32.853-9.901-64.921-18.705-96.628
					c-12.438-44.795-26.609-89.007-44.413-132.003c-2.768-6.684-4.896-13.631-7.537-20.372
					c-1.051-2.681-19.881-43.145-21.172-45.897c-1.198-2.553-2.635-5.007-4.118-7.411c-2.516-4.079-17.561-29.702-18.518-31.204
					c-11.89-18.654-25.156-36.355-38.759-53.738c-22.883-29.24-49.81-53.901-83.429-70.705
					c-18.153-9.073-37.065-16.041-56.847-19.895c-21.28-4.146-42.589-3.487-62.86,5.81c-0.464,0.213-0.981,0.314-2.016,0.637
					c0.233-2.338,1.772-3.504,2.984-4.753c8.058-8.31,17.902-13.998,28.747-17.432c16.18-5.122,32.954-6.83,49.765-4.138
					c12.192,1.952,24.054,5.593,35.704,9.855c29.316,10.725,55.894,26.235,80.484,45.335c9.808,7.618,18.576,16.288,27.126,25.267
					c45.17,47.433,78.705,102.265,104.815,162.09c18.955,43.431,31.913,88.672,43.541,134.422
					c8.767,34.494,14.285,69.515,18.255,104.842c2.074,18.456,2.9,36.981,4.265,55.478c1.47,19.925,1.202,39.908,2.69,59.821
					c0.527,7.056,1.28,14.056,2.931,20.964C1559.399,1512.906,1566.346,1521.295,1576.964,1526.853z M1769.711,1432.188
					c-0.526,1.48-1.952,1.352-3.157,1.291c-7.937-0.4-15.88-0.744-23.807-1.307c-18.385-1.306-36.728-0.508-55.062,0.911
					c-41.365,3.199-81.715,11.945-121.764,22.325c-0.854,0.222-1.714,0.536-2.581,0.573c-1.626,0.069-3.799,2.381-4.712-0.879
					c-0.96-3.426-0.148-4.969,3.097-5.964c15.371-4.712,30.94-8.699,46.627-12.183c20.342-4.517,40.788-8.526,61.45-11.337
					c15.778-2.146,31.622-3.24,51.226-3.052c12.464-0.551,28.416,1.366,44.346,3.617c1.427,0.201,2.879,0.386,3.854,1.494
					C1770.391,1428.999,1770.256,1430.655,1769.711,1432.188z"/>
				<path style="fill:#303030;" d="M1491.118,1282.913c-0.41-0.689-0.73-1.471-0.887-2.261c-0.126-0.636-0.188-1.283-0.265-1.927
					c-0.001-0.001-0.001-0.002-0.002-0.003c0.028,0.204,0.055,0.409,0.083,0.613c-0.036-0.259-0.121-0.506-0.186-0.758
					c-0.064-0.074-0.088-0.171-0.146-0.249c-15.568,10.993-30.176,23.159-43.334,37.084c-0.969,1.026-1.948,2.053-2.806,3.169
					c-0.708,0.922-0.729,1.983,0.085,2.901c0.82,0.926,1.921,1.019,2.874,0.407c1.021-0.656,1.925-1.53,2.781-2.406
					c13.028-13.321,27.226-25.17,42.327-35.886C1491.444,1283.385,1491.264,1283.158,1491.118,1282.913z"/>
				<path style="fill:#303030;" d="M1372.078,1010.668c-15.568,10.993-59.088,43.973-72.247,57.898
					c-0.969,1.026-1.948,2.053-2.806,3.169c-0.708,0.922-0.729,1.983,0.085,2.901c0.82,0.926,1.921,1.019,2.874,0.407
					c1.021-0.656,1.925-1.53,2.781-2.406c13.028-13.321,56.138-45.984,71.239-56.7
					C1373.807,1015.725,1372.135,1010.746,1372.078,1010.668z"/>
				<path style="fill:#303030;" d="M1500.835,1316.086c-0.657-1.773-1.008-3.633-1.48-5.46
					c-12.076,9.165-23.484,19.144-33.971,30.242c-0.969,1.026-1.948,2.053-2.806,3.169c-0.708,0.922-0.729,1.983,0.085,2.901
					c0.82,0.926,1.921,1.019,2.874,0.407c1.021-0.656,1.925-1.53,2.781-2.406c10.184-10.412,21.096-19.908,32.579-28.688
					C1500.88,1316.195,1500.849,1316.146,1500.835,1316.086z"/>
				<path style="fill:#303030;" d="M773.3,654.725c-0.582,23.003-1.059,42.252-1.563,61.5c-0.169,6.469-0.802,7.078-7.482,7.342
					c-30.886,1.222-61.773,2.427-92.659,3.653c-4.235,0.168-8.465,0.558-12.7,0.59c-3.66,0.028-4.297-0.516-4.705-4.213
					c-0.678-6.14-1.161-12.304-1.604-18.467c-1.949-27.125-3.853-54.254-5.777-81.382c-0.362-5.108-0.855-10.211-1.071-15.325
					c-0.156-3.709,0.344-4.326,4.107-4.668c10.727-0.974,21.468-1.789,32.207-2.627c26.935-2.101,53.871-4.184,80.807-6.26
					c2.465-0.19,4.938-0.383,7.408-0.395c3.814-0.019,4.566,0.734,4.676,4.681c0.068,2.469-0.075,4.945-0.151,7.417
					C774.262,623.874,773.722,641.177,773.3,654.725z M767.902,658.465c0.014,0,0.027,0.001,0.041,0.001
					c0.462-18.016,0.935-36.033,1.378-54.05c0.116-4.702,0.022-4.689-4.713-4.309c-16.02,1.286-32.043,2.544-48.068,3.772
					c-20.076,1.54-40.158,3.021-60.233,4.571c-5.183,0.4-5.328,0.646-5.014,5.69c0.022,0.353,0.054,0.705,0.08,1.057
					c1.711,23.251,3.429,46.502,5.131,69.754c0.786,10.746,1.494,21.497,2.333,32.239c0.41,5.253,0.507,5.212,5.571,5.006
					c19.77-0.807,39.541-1.598,59.313-2.38c12.181-0.482,24.364-0.917,36.545-1.408c5.963-0.24,5.962-0.275,6.256-6.423
					c0.034-0.706,0.055-1.413,0.073-2.119C767.031,692.732,767.466,675.598,767.902,658.465z"/>
				<path style="fill:#303030;" d="M1107.342,1164.974c24.399-0.492,48.747-0.003,72.923,3.876
					c14.993,2.406,30.054,4.401,44.86,7.865c1.368,0.32,2.81,0.369,4.014,1.237c1.166,0.84,1.474,1.979,1.016,3.261
					c-0.402,1.126-1.405,1.639-2.529,1.488c-1.746-0.236-3.471-0.643-5.196-1.019c-43.036-9.389-86.526-13.493-130.557-11.104
					c-17.987,0.976-36.002,1.519-53.907,3.79c-27.891,3.538-55.449,8.795-82.742,15.497c-2.743,0.674-5.502,1.28-8.238,1.978
					c-1.817,0.463-3.782,0.826-4.434-1.412c-0.69-2.369,1.29-2.812,3.081-3.287c16.044-4.265,32.178-8.123,48.468-11.363
					c35.466-7.053,71.318-10.115,107.416-10.801C1103.458,1164.942,1105.401,1164.974,1107.342,1164.974z"/>
				<path style="fill:#303030;" d="M1133.874,1221.622c24.399-0.492,48.747-0.003,72.923,3.877
					c14.993,2.406,30.054,4.401,44.86,7.865c1.368,0.32,2.81,0.369,4.014,1.237c1.166,0.84,1.474,1.979,1.016,3.261
					c-0.402,1.126-1.405,1.639-2.529,1.488c-1.746-0.236-3.471-0.643-5.196-1.019c-43.036-9.389-86.526-13.493-130.557-11.104
					c-17.987,0.976-36.002,1.519-53.907,3.79c-27.891,3.538-55.449,8.795-82.742,15.497c-2.743,0.674-5.502,1.28-8.238,1.978
					c-1.817,0.463-3.782,0.826-4.434-1.412c-0.69-2.369,1.29-2.812,3.081-3.287c16.044-4.265,32.178-8.123,48.468-11.363
					c35.466-7.053,71.318-10.115,107.415-10.801C1129.99,1221.59,1131.932,1221.622,1133.874,1221.622z"/>
				<path style="fill:#303030;" d="M1186.937,1334.918c24.399-0.492,48.747-0.003,72.923,3.876
					c14.993,2.406,30.054,4.401,44.86,7.865c1.368,0.32,2.81,0.369,4.014,1.237c1.166,0.84,1.474,1.979,1.016,3.261
					c-0.402,1.126-1.405,1.639-2.529,1.488c-1.746-0.236-3.471-0.643-5.196-1.019c-43.036-9.389-86.526-13.493-130.557-11.104
					c-17.987,0.976-36.002,1.519-53.907,3.79c-27.891,3.538-55.449,8.795-82.742,15.497c-2.743,0.674-5.502,1.28-8.238,1.978
					c-1.817,0.463-3.782,0.826-4.434-1.412c-0.69-2.369,1.29-2.812,3.081-3.287c16.044-4.265,32.178-8.123,48.468-11.363
					c35.466-7.053,71.318-10.115,107.416-10.801C1183.052,1334.886,1184.995,1334.918,1186.937,1334.918z"/>
				<path style="fill:#303030;" d="M1213.468,1391.566c24.399-0.492,48.747-0.003,72.923,3.876
					c14.993,2.406,30.054,4.401,44.86,7.865c1.369,0.32,2.81,0.369,4.014,1.237c1.166,0.84,1.474,1.979,1.016,3.261
					c-0.402,1.126-1.405,1.639-2.529,1.488c-1.746-0.236-3.471-0.643-5.196-1.019c-43.035-9.389-86.526-13.493-130.557-11.104
					c-17.987,0.976-36.002,1.519-53.907,3.79c-27.891,3.538-55.449,8.794-82.742,15.497c-2.743,0.674-5.502,1.28-8.238,1.978
					c-1.817,0.463-3.782,0.826-4.434-1.412c-0.69-2.369,1.29-2.812,3.081-3.288c16.044-4.265,32.178-8.123,48.468-11.363
					c35.466-7.053,71.318-10.115,107.416-10.801C1209.584,1391.534,1211.526,1391.566,1213.468,1391.566z"/>
				<path style="fill:#303030;" d="M889.118,901.968c71.031,0.458,127.172,57.144,126.73,127.96
					c-0.435,69.756-57.791,126.178-128.274,125.336c-71.391-0.853-125.766-59.276-125.132-127.946
					C763.083,958.071,820.124,901.523,889.118,901.968z M967.235,1045.402c12.366,0.274,24.742-0.189,37.103,0.661
					c4.907,0.338,5.042,0.17,5.389-4.78c0.358-5.108,0.948-10.21,0.728-15.349c-0.293-6.849-0.278-6.842-6.914-7.386
					c-1.053-0.086-2.102-0.255-3.146-0.425c-8.725-1.421-17.504-2.253-26.327-2.848c-9.35-0.631-18.722-0.625-28.063-1.219
					c-24.944-1.586-49.792-0.452-74.621,2.04c-8.79,0.883-17.561,1.818-26.273,3.315c-3.87,0.665-7.173-1.474-7.82-4.673
					c-0.561-2.772,1.635-5.969,5.121-7.11c2.005-0.656,4.097-1.177,6.189-1.411c17.56-1.964,35.145-3.648,52.828-3.984
					c15.556-0.295,31.109,0.042,46.65,0.622c18.714,0.698,37.418,1.663,56.03,3.878c4.161,0.495,4.428,0.371,3.525-3.747
					c-5.134-23.395-16.2-43.562-33.144-60.502c-1.293-1.293-2.686-2.182-4.591-2.324c-2.993-0.223-5.968-0.668-8.958-0.943
					c-18.293-1.682-36.578-3.43-54.908-4.731c-28.4-2.015-56.805-3.153-85.282-2.278c-4.179,0.128-7.362,1.464-10.422,4.183
					c-28.17,25.032-42.359,56.323-42.492,94.021c-0.014,4.001,0.811,7.556,2.798,11.092c15.408,27.416,30.707,54.892,46.491,82.097
					c1.942,3.347,4.396,5.823,7.639,7.808c25.573,15.656,53.295,22.029,82.81,16.857c49.588-8.689,82.081-37.732,97.884-85.463
					c1.805-5.453,1.6-5.596-4.014-5.769c-20.856-0.643-41.697-0.419-62.535,0.811c-18.348,1.083-36.669,2.321-54.838,5.226
					c-3.138,0.502-6.285,1.054-9.448,1.262c-3.83,0.252-6.237-1.593-6.593-4.622c-0.327-2.789,1.387-5.101,4.849-5.951
					c3.425-0.84,6.922-1.403,10.404-1.986C911.074,1047.119,939.142,1046.114,967.235,1045.402z M825.433,925.554
					c1.658,1.513,2.942,1.08,4.105,1.073c16.262-0.093,32.514,0.024,48.77,0.752c22.429,1.005,44.777,2.999,67.139,4.861
					c2.112,0.176,4.216,0.438,6.326,0.632c1.769,0.162,2.407-0.709,2.663-2.444c0.511-3.471-1.446-5.027-4.114-6.538
					c-29.944-16.958-61.504-20.896-94.657-11.785C845.065,915.019,835.066,919.387,825.433,925.554z M804.786,1115.721
					c0.351-0.208,0.702-0.416,1.053-0.624c-11.28-19.969-22.56-39.938-33.84-59.906c-0.339,0.192-0.679,0.384-1.018,0.576
					C776.408,1079.026,787.695,1099,804.786,1115.721z M963.181,933.379c-0.572-1.486-1.511-2.333-3.07-2.139
					c-0.158,0.02-0.433,1.001-0.272,1.369C960.565,934.264,961.807,934.035,963.181,933.379z"/>
			</g>
		</g>
	</g>
	<g>
		<path style="fill:#FFFFFF;" d="M1931.678,651.982c0.924-18.451,9.701-105.803-101.357-137.369
			c-106.684-30.323-156.262,49.771-165.771,81.846c-9.508,32.075-4.502,67.679,6.614,85.374
			c11.116,17.695,18.565,24.862,20.003,29.395c1.437,4.532-3.097,8.517-5.022,14.362c-1.925,5.845-13.947,25.819-16.29,31.163
			c-2.343,5.344-5.198-1.403-8.896,1.037c-3.698,2.44-12.55,1.397-14.447,10.256c-1.896,8.859-1.317,16.092-1.684,18.374
			c-6.386,3.583-12.689,5.322-13.258,11.523c-0.568,6.201,1.659,14.743,2.618,16.916c-3.032,5.281-8.513,17.223-0.607,28.169
			c-2.886,7.41-4.384,15.147-4.469,24.172s3.548,16.538,14.05,21.097c10.503,4.56,89.084-129.992,103.253-145.601
			C1760.585,727.087,1930.908,667.357,1931.678,651.982z"/>
		<path style="fill:#F9DC87;" d="M1802.517,527.883c50.21,6.659,89.1,30.731,114.344,75.304
			c5.675,10.021,9.763,20.879,11.848,32.294c2.773,15.185-1.533,29.635-6.56,43.475c-13.397,36.88-39.899,61.364-75.548,76.557
			c-0.83,0.354-1.784,0.976-2.555,0.827c-12.128-2.346-23.036,3.946-34.726,4.861c-9.475,0.741-18.746,0.801-27.737-2.515
			c-4.214-1.555-7.199-1.443-9.908,2.956c-6.826,11.086-14.101,21.899-21.278,32.766c-2.459,3.723-4.164,7.171-1.258,11.653
			c2.166,3.339,0.895,7.039-0.737,10.416c-2.755,5.7-5.059,11.49-6.648,17.706c-2.351,9.198-8.559,15.989-16.593,20.814
			c-3.995,2.399-7.339,5.256-10.055,8.948c-4.718,6.412-11.152,10.172-18.819,11.726c-3.706,0.751-6.802,2.235-9.564,4.78
			c-5.667,5.22-12.579,8.28-19.598,11.224c-5.98,2.508-11.934,1.404-17.898,0.508c-4.537-0.681-5.545-4.621-5.879-8.176
			c-0.54-5.745-0.367-11.683,2.839-16.74c2.054-3.24,2.218-5.586,0.065-8.942c-2.996-4.67-4.041-10.086-2.941-15.719
			c0.174-0.89-0.089-2.182,0.426-2.641c6.359-5.666,4.251-12.587,3.407-19.544c-0.529-4.358,1.17-8.581,4.897-11.182
			c3.842-2.68,4.841-6.115,3.781-10.258c-0.992-3.878,0.687-7.23,1.883-10.526c1.655-4.56,5.227-8.065,10.299-7.341
			c5.179,0.74,7.008-2.011,8.975-5.665c9.038-16.793,18.205-33.516,27.241-50.31c3.948-7.339,3.906-7.431-1.792-14.211
			c-12.272-14.6-21.714-30.812-25.556-49.572c-7.504-36.64,1.679-69.041,27.288-96.246c18.803-19.975,42.066-32.303,69.313-36.635
			C1783.071,526.951,1792.735,526.724,1802.517,527.883z"/>
		<path style="fill:#303030;" d="M1809.356,504.784c44.468,5.607,83.074,25.836,109.285,66.19
			c36.013,55.446,22.793,125.933-30.646,164.918c-29.67,21.645-63.193,30.139-99.59,26.48c-7.758-0.78-12.238,1.122-16.063,7.861
			c-5.525,9.735-12.018,18.924-18.164,28.303c-1.871,2.855-2.63,5.275-1.533,9.095c2.785,9.699,0.749,18.69-7.423,25.394
			c-2.75,2.257-4.431,4.634-4.802,8.267c-0.637,6.254-4.399,10.652-9.829,13.311c-3.949,1.934-6.79,4.297-8.884,8.376
			c-4.074,7.94-11.685,11.276-20.057,12.468c-4.804,0.684-8.111,2.749-11.508,6.175c-11.481,11.577-25.081,18.109-41.846,14.274
			c-13.647-3.122-22.237-14.349-22.13-28.407c0.046-6.083,0.568-12.164,3.506-17.672c1.551-2.907,1.604-5.433,0.049-8.483
			c-3.932-7.715-4.74-15.701,0.027-23.403c1.712-2.766,0.925-5.149,0.2-7.774c-2.54-9.19-0.358-16.957,7.722-22.283
			c3.363-2.217,3.763-4.852,3.919-8.384c0.619-14,5.865-20.919,19.538-24.907c6.611-1.928,11.084-5.128,13.747-11.741
			c3.046-7.564,6.88-14.861,10.938-21.951c2.841-4.963,2.277-8.511-1.344-12.926c-14.323-17.463-23.738-37.404-26.832-59.827
			c-6.657-48.237,10.532-87.015,48.825-116.187C1735.991,509.452,1770.149,501.967,1809.356,504.784z M1834.278,656.24
			c4.755-1.023,8.133-3.731,11.936-5.422c2.593-1.153,5.318-2.312,7.333,0.588c1.851,2.664,0.61,5.195-1.355,7.371
			c-1.829,2.025-3.68,4.029-5.537,6.027c-40.662,43.747-81.34,87.478-121.952,131.271c-2.362,2.547-5.631,4.593-6.27,8.868
			c2.751,0.841,5.293,1.837,7.929,2.384c8.592,1.782,10.76,0.773,15.617-6.738c8.065-12.47,16.138-24.934,24.225-37.389
			c1.32-2.033,2.86-3.932,4.073-6.025c2.444-4.217,5.783-5.643,10.656-4.652c4.436,0.902,9.015,1.281,13.549,1.486
			c35.669,1.617,67.877-7.871,95.268-31.165c24.509-20.843,38.348-47.598,39.752-79.86c1.429-32.835-10.036-61.43-32.559-85.116
			c-31.403-33.024-70.521-47.291-115.719-44.175c-28.911,1.993-55.106,12.09-76.848,31.579
			c-32.386,29.03-45.198,65.167-36.493,108.133c3.859,19.051,12.515,36.04,25.295,50.729c4.928,5.663,6.585,10.922,2.471,17.96
			c-8.249,14.115-14.115,29.517-22.845,43.389c-1.697,2.696-1.899,4.981-0.109,7.504c2.746,3.87,4.927,8.308,10.085,10.348
			c1.024-2.528,2.062-4.7,2.8-6.969c13.766-42.35,27.496-84.713,41.235-127.072c5.515-17.002,10.996-34.014,16.587-50.99
			c0.927-2.815,1.812-6.265,5.832-5.816c3.637,0.405,4.817,3.523,5.304,6.561c1.007,6.279,1.425,12.658,2.584,18.903
			c0.799,4.301-0.109,9.081,2.76,12.877c2.904-0.318,4.69-2.092,6.691-3.397c7.364-4.804,14.592-9.822,22.054-14.466
			c3.415-2.125,6.688-6.768,11.201-4.063c4.939,2.96,2.2,8.298,1.793,12.569c-0.777,8.142-2.17,16.224-3.094,24.355
			c-0.249,2.198-1.442,4.702,0.543,6.679c2.889,0.359,4.811-1.363,6.916-2.413c6.781-3.382,13.384-7.135,20.256-10.312
			c5.205-2.406,8.002-0.338,8.125,5.44C1834.438,648.524,1833.245,651.799,1834.278,656.24z M1746.839,618.326
			c-1.531,4.04-2.475,6.255-3.218,8.535c-7.778,23.886-15.523,47.783-23.278,71.677c-9.063,27.923-18.145,55.84-27.166,83.777
			c-0.913,2.826-3.235,6.18-1.488,8.631c3.397,4.765,8.938,7.237,14.339,9.04c3.384,1.13,5.038-2.771,6.997-4.873
			c36.96-39.668,73.858-79.395,110.754-119.124c1.221-1.315,2.286-2.775,3.801-4.63c-8.016-4.731-2.244-12.69-4.39-19.783
			c-4.427,2.265-8.144,4.16-11.856,6.066c-5.119,2.628-10.113,5.543-15.383,7.819c-5.466,2.361-8.347,0.381-7.956-5.512
			c0.522-7.851,1.716-15.656,2.426-23.498c0.368-4.068,1.659-8.17,0.471-12.873c-3.268,0.509-5.337,2.291-7.525,3.728
			c-7.342,4.822-14.571,9.821-21.999,14.505c-6.853,4.322-9.763,2.95-11.08-4.95C1749.355,631.27,1749.584,625.459,1746.839,618.326
			z M1744.199,815.672c-19.033,3.972-35.156-2.642-50.457-11.616c-15.57-9.132-28.919-20.614-34.311-39.025
			c-8.343,5.835-10.445,10.83-8.265,18.997c1.997,7.484,6.094,13.834,11.352,19.425c12.601,13.398,28.004,22.067,45.823,26.282
			c8.312,1.966,16.822,2.618,25.093-0.477C1739.316,827.058,1743.874,823.612,1744.199,815.672z M1731.33,840.735
			c-1.951-0.329-2.823-0.615-3.692-0.603c-34.169,0.432-60.653-13.914-80.224-41.621c-2.951-4.178-5.172-4.039-7.913,0.171
			c-2.27,3.485-1.622,7.021-0.291,10.45c2.346,6.042,6.347,10.982,11.106,15.307c12.11,11.004,26.232,18.267,41.944,22.637
			c8.562,2.381,17.188,3.621,26.025,2.103C1723.365,848.306,1728.274,846.988,1731.33,840.735z M1712.756,859.476
			c-30.447-2.267-55.041-13.877-75.989-35.219c-2.245,9.449,1.475,15.586,6.46,20.858c14.294,15.12,32.053,22.482,52.852,21.91
			C1701.697,866.87,1707.409,865.777,1712.756,859.476z M1681.622,875.536c-15.328-3.156-28.38-9.052-39.644-18.642
			c-0.459-0.391-0.937-0.763-1.434-1.102c-1.533-1.044-2.74-0.735-3.687,0.866c-5.716,9.662,0.224,25.739,11.003,29.751
			C1658.74,890.459,1673.188,886.098,1681.622,875.536z"/>
		<path style="fill:#303030;" d="M1835.66,373.543c-3.411,25.501-6.807,51.003-10.252,76.499c-0.473,3.503-0.383,8.323-5.492,7.623
			c-5.119-0.702-3.746-5.405-3.294-8.87c4.93-37.818,9.951-75.625,14.906-113.44c1.613-12.306,3.047-24.636,4.674-36.94
			c0.921-6.965,3.359-10.405,6.366-9.059c4.896,2.192,3.139,6.558,2.65,10.337c-3.186,24.616-6.414,49.227-9.628,73.839
			C1835.613,373.536,1835.636,373.539,1835.66,373.543z"/>
		<path style="fill:#303030;" d="M2065.076,659.423c-20.054-2.919-40.108-5.839-60.161-8.757c-0.599-0.087-1.199-0.163-1.797-0.256
			c-2.982-0.464-5.471-1.818-5.098-5.157c0.374-3.341,3.05-4.198,6.098-3.825c6.006,0.736,12.018,1.435,18.007,2.297
			c29.638,4.268,59.269,8.585,88.903,12.881c1.496,0.217,3.011,0.329,4.495,0.609c3.066,0.577,5.031,2.225,4.49,5.596
			c-0.493,3.076-2.933,3.702-5.491,3.406c-7.813-0.904-15.618-1.899-23.404-3.016c-8.682-1.245-17.34-2.662-26.008-4.003
			C2065.098,659.272,2065.087,659.347,2065.076,659.423z"/>
		<path style="fill:#303030;" d="M2005.501,417.759c-0.238,2.248-1.671,3.858-3.023,5.482
			c-22.292,26.773-44.593,53.538-66.916,80.284c-0.959,1.149-2.053,2.242-3.261,3.115c-1.606,1.159-3.421,1.276-5.013-0.089
			c-1.53-1.311-2.062-3.11-1.137-4.889c0.967-1.858,2.206-3.615,3.549-5.23c21.697-26.085,43.422-52.148,65.176-78.185
			c1.344-1.609,2.873-3.117,4.532-4.39c1.248-0.957,2.824-0.9,4.249,0.021C2005.081,414.798,2005.543,416.155,2005.501,417.759z"/>
		<path style="fill:#303030;" d="M1676.479,490.074c-0.029,2.861-3.073,4.697-5.933,3.593c-2.131-0.822-3.17-2.739-4.423-4.422
			c-20.259-27.21-40.524-54.416-60.741-81.657c-4.087-5.507-4.574-8.698-1.586-10.091c4.657-2.171,6.472,1.839,8.557,4.629
			c20.304,27.176,40.542,54.402,60.814,81.602C1674.618,485.675,1676.222,487.515,1676.479,490.074z"/>
		<path style="fill:#303030;" d="M1607.146,568.983c-0.997,2.697-2.905,4.064-5.646,3.459c-1.73-0.382-3.348-1.368-4.952-2.208
			c-27.361-14.332-54.715-28.676-82.057-43.044c-2.136-1.123-4.279-2.291-6.219-3.712c-1.589-1.164-2.08-3.043-1.312-4.896
			c0.965-2.331,3.005-2.954,5.26-2.319c1.725,0.486,3.374,1.319,4.977,2.153c28.206,14.677,56.392,29.391,84.606,44.052
			C1604.596,563.919,1607.141,565.403,1607.146,568.983z"/>
	</g>
</g>
</svg>
