<?xml version="1.0" encoding="utf-8"?>
<!-- Generator: Adobe Illustrator 27.5.0, SVG Export Plug-In . SVG Version: 6.00 Build 0)  -->
<svg version="1.1" xmlns="http://www.w3.org/2000/svg" xmlns:xlink="http://www.w3.org/1999/xlink" x="0px" y="0px"
	 viewBox="0 0 590 500" style="enable-background:new 0 0 590 500;" xml:space="preserve">
<g id="BACKGROUND">
	<rect style="fill:#C4F3FF;" width="590" height="500"/>
</g>
<g id="OBJECTS">
	<g>
		<g>
			
				<linearGradient id="SVGID_1_" gradientUnits="userSpaceOnUse" x1="297.2327" y1="439.0555" x2="297.2327" y2="121.0579" gradientTransform="matrix(0.994 -0.1092 0.1092 0.994 -26.0327 33.99)">
				<stop  offset="0" style="stop-color:#80EAFF"/>
				<stop  offset="0.028" style="stop-color:#7CE9FF"/>
				<stop  offset="0.4785" style="stop-color:#47D5F8"/>
				<stop  offset="0.816" style="stop-color:#26CAF4"/>
				<stop  offset="1" style="stop-color:#19C5F2"/>
			</linearGradient>
			<path style="fill:url(#SVGID_1_);" d="M525.747,172.977c-7.963-66.074-68.165-113.957-134.339-106.876
				c-19.936,2.133-38.229,8.945-53.912,19.223c-17.701,11.6-40.39,13.027-58.991,2.935c-17.34-9.408-37.599-13.854-58.681-11.655
				c-55.223,5.762-95.819,55.632-90.218,110.872c0.078,0.773,0.165,1.543,0.26,2.31c2.657,21.396-7.395,42.182-25.068,54.531
				c-26.268,18.355-41.676,50.463-36.867,84.684c6.257,44.519,49.238,79.073,94.062,75.621c0.677-0.052,1.35-0.112,2.022-0.178
				c32.88-3.277,65.834,3.601,95.529,18.095c20.055,9.789,43.029,14.205,66.853,11.587c46.623-5.124,84.224-35.837,100.356-76.614
				c11.486-29.034,29.739-54.949,54.087-74.495C512.651,257.48,531.003,216.585,525.747,172.977z"/>
			<path style="fill:none;stroke:#FFFFFF;stroke-width:1.02;stroke-miterlimit:10;" d="M534.203,168.79
				C524.398,99.249,460.005,48.852,390.51,56.305c-20.936,2.245-40.043,9.415-56.327,20.232
				c-18.38,12.209-42.229,13.711-62.024,3.089c-18.453-9.902-39.871-14.582-62.012-12.266
				c-57.998,6.064-99.649,58.552-92.565,116.691c0.099,0.813,0.207,1.624,0.324,2.431c3.258,22.519-6.874,44.396-25.209,57.393
				c-27.251,19.318-42.776,53.111-36.977,89.129c7.544,46.856,53.526,83.224,100.628,79.59c0.711-0.055,1.419-0.117,2.124-0.188
				c34.535-3.448,69.367,3.79,100.932,19.044c21.319,10.302,45.594,14.951,70.612,12.195c48.96-5.393,87.872-37.718,103.973-80.635
				c11.464-30.558,30.116-57.833,55.321-78.405C522.239,257.729,540.674,214.687,534.203,168.79z"/>
		</g>
		<g>
			<g>
				<g>
					<path style="fill:none;stroke:#FFFFFF;stroke-width:2;stroke-linecap:round;stroke-linejoin:round;stroke-miterlimit:10;" d="
						M428.632,191.758c0,3.425-2.777,6.202-6.202,6.202c-3.425,0-6.202-2.777-6.202-6.202c0-3.425,2.777-6.202,6.202-6.202
						C425.855,185.556,428.632,188.333,428.632,191.758z"/>
					<path style="fill:none;stroke:#FFFFFF;stroke-width:2;stroke-linecap:round;stroke-linejoin:round;stroke-miterlimit:10;" d="
						M451.895,205.813c0,3.425-2.777,6.202-6.202,6.202c-3.425,0-6.202-2.777-6.202-6.202c0-3.425,2.777-6.202,6.202-6.202
						C449.118,199.611,451.895,202.388,451.895,205.813z"/>
				</g>
				
					<line style="fill:none;stroke:#FFFFFF;stroke-width:2;stroke-linecap:round;stroke-linejoin:round;stroke-miterlimit:10;" x1="423.797" y1="212.015" x2="444.325" y2="185.556"/>
			</g>
			<g>
				<g>
					
						<circle style="fill:none;stroke:#FFFFFF;stroke-width:2;stroke-linecap:round;stroke-linejoin:round;stroke-miterlimit:10;" cx="116.004" cy="323.913" r="4.962"/>
					<path style="fill:none;stroke:#FFFFFF;stroke-width:2;stroke-linecap:round;stroke-linejoin:round;stroke-miterlimit:10;" d="
						M139.576,335.157c0,2.74-2.221,4.962-4.962,4.962c-2.74,0-4.962-2.221-4.962-4.962c0-2.74,2.221-4.962,4.962-4.962
						C137.355,330.195,139.576,332.417,139.576,335.157z"/>
				</g>
				
					<line style="fill:none;stroke:#FFFFFF;stroke-width:2;stroke-linecap:round;stroke-linejoin:round;stroke-miterlimit:10;" x1="117.098" y1="340.119" x2="133.52" y2="318.952"/>
			</g>
			<g>
				<g>
					
						<circle style="fill:none;stroke:#FFFFFF;stroke-width:1.8;stroke-linecap:round;stroke-linejoin:round;stroke-miterlimit:10;" cx="227.528" cy="103.742" r="4.465"/>
					
						<path style="fill:none;stroke:#FFFFFF;stroke-width:1.8;stroke-linecap:round;stroke-linejoin:round;stroke-miterlimit:10;" d="
						M248.743,113.861c0,2.466-1.999,4.466-4.465,4.466c-2.466,0-4.465-1.999-4.465-4.466c0-2.466,1.999-4.465,4.465-4.465
						C246.744,109.396,248.743,111.395,248.743,113.861z"/>
				</g>
				
					<line style="fill:none;stroke:#FFFFFF;stroke-width:1.8;stroke-linecap:round;stroke-linejoin:round;stroke-miterlimit:10;" x1="228.513" y1="118.327" x2="243.293" y2="99.276"/>
			</g>
		</g>
		<g>
			<g>
				<path style="fill:#FFFFFF;" d="M488.585,129.281c0.276-1.204,0.421-2.458,0.421-3.742c0-9.398-7.614-17.011-17.011-17.011
					c-3.27,0-6.323,0.921-8.919,2.523c0.486-1.755,0.754-3.597,0.754-5.504c0-11.341-9.194-20.535-20.535-20.535
					c-10.521,0-19.186,7.918-20.383,18.121c-2.182-1.573-4.851-2.516-7.751-2.516c-7.331,0-13.27,5.946-13.27,13.277
					c0,0.798,0.08,1.574,0.218,2.328c-0.761-0.131-1.537-0.217-2.335-0.217c-7.331,0-13.27,5.946-13.27,13.277H488.585z"/>
				<g>
					<path style="fill:#B3F1FF;" d="M478.787,129.281c0.223-0.852,0.34-1.739,0.34-2.647c0-6.649-6.146-12.036-13.732-12.036
						c-2.64,0-5.104,0.651-7.2,1.785c0.392-1.242,0.609-2.545,0.609-3.894c0-8.024-7.422-14.529-16.577-14.529
						c-8.493,0-15.488,5.602-16.454,12.821c-1.762-1.113-3.916-1.78-6.257-1.78c-5.918,0-10.712,4.207-10.712,9.394
						c0,0.564,0.064,1.113,0.176,1.647c-0.615-0.092-1.241-0.154-1.885-0.154c-5.918,0-10.712,4.207-10.712,9.394H478.787z"/>
				</g>
			</g>
			<g>
				<g>
					<path style="fill:#FFFFFF;" d="M201.079,195.134c0.306-1.451,0.463-2.964,0.463-4.511c0-12.02-9.738-21.758-21.758-21.758
						c-3.899,0-7.562,1.032-10.735,2.832c-0.883-11.653-10.612-20.832-22.492-20.832c-12.466,0-22.572,10.105-22.572,22.571
						c0,1.574,0.158,3.095,0.463,4.572c-2.386-1.582-5.254-2.5-8.331-2.5c-8.348,0-15.123,6.766-15.123,15.115
						c0,1.573,0.236,3.086,0.682,4.511H201.079z"/>
				</g>
				<g>
					<g>
						<path style="fill:#B3F1FF;" d="M193.195,195.134c0.257-1.035,0.39-2.114,0.39-3.218c0-8.575-8.197-15.522-18.315-15.522
							c-3.282,0-6.365,0.736-9.036,2.021c-0.743-8.313-8.933-14.861-18.933-14.861c-10.493,0-18.999,7.209-18.999,16.102
							c0,1.123,0.133,2.208,0.39,3.262c-2.009-1.129-4.422-1.784-7.012-1.784c-7.027,0-12.73,4.827-12.73,10.783
							c0,1.122,0.199,2.201,0.574,3.218H193.195z"/>
					</g>
				</g>
			</g>
		</g>
		<polygon style="fill:#F24671;" points="551.55,282.685 526.29,272.435 509.65,312.995 437.68,312.995 423.4,347.795 
			351.43,347.795 337.15,382.605 265.19,382.605 250.9,417.405 178.94,417.405 164.65,452.215 92.69,452.215 78.41,487.015 
			0,487.015 0,468.625 66.07,468.625 80.35,433.815 152.32,433.815 166.6,399.015 238.57,399.015 252.85,364.205 324.81,364.205 
			339.1,329.405 411.06,329.405 425.35,294.595 497.31,294.595 509.24,265.525 483.98,255.275 536.62,222.495 		"/>
		<g>
			
				<path style="fill:none;stroke:#070EE6;stroke-width:2.228;stroke-linecap:round;stroke-linejoin:round;stroke-miterlimit:10;" d="
				M308.282,159.516"/>
			<line style="fill:none;" x1="365.86" y1="253.795" x2="325.18" y2="270.145"/>
			<g>
				<g>
					<path style="fill:#C47C45;" d="M325.18,270.145l-11.87,81.31h-12.49c0,0-1.93-36.81-1-51.08c0.19-3.03,4.88-11.14,4.88-11.14
						l0.69-11.14L325.18,270.145z"/>
					<path style="fill:#C47C45;" d="M404.71,259.195l-16.75,57.61h-12.49c0,0,0.96-33.68,2.76-46.94c0.32-2.34,4.21-8.45,4.21-8.45
						l-16.58-7.62l28.823-11.692c0,0,1.477,0.849,2.987,1.682C403.304,246.895,406.51,253.025,404.71,259.195z"/>
				</g>
				<g>
					<path style="fill:#1973F2;" d="M394.683,242.103l-28.823,11.692l-40.68,16.35l-19.79,7.95l2.92-46.72v-17.3
						c0-5.94,1.49-11.8,4.34-17.01l2.66-4.88c0,0,22.89,2.3,41.74,1.36l0.17,26.64L394.683,242.103z"/>
					<path style="fill:#0F4899;" d="M324.563,241.577c0,0,27.116-12.969,32.657-21.392L324.563,241.577z"/>
				</g>
				<g>
					<g>
						<path style="fill:#0F4899;" d="M330.52,362.395c-0.19,0.91-1,1.79-2.17,1.79h-29.28l1.75-12.73l18.76,6.83
							c1.22,0.44,2.53,0.35,3.63-0.21l6.33,2.35C330.43,360.775,330.7,361.605,330.52,362.395z"/>
						<path style="fill:#C47C45;" d="M323.21,358.075c-1.1,0.56-2.41,0.65-3.63,0.21l-18.76-6.83h12.49l5.19,4.05l1.99,1.56
							L323.21,358.075z"/>
					</g>
					<g>
						<path style="fill:#0F4899;" d="M405.165,327.745c-0.19,0.91-1,1.79-2.17,1.79h-29.28l1.75-12.73l18.76,6.83
							c1.22,0.44,2.53,0.35,3.63-0.21l6.33,2.35C405.075,326.125,405.345,326.955,405.165,327.745z"/>
						<path style="fill:#C47C45;" d="M397.855,323.425c-1.1,0.56-2.41,0.65-3.63,0.21l-18.76-6.83h12.49l5.19,4.05l1.99,1.56
							L397.855,323.425z"/>
					</g>
				</g>
				<line style="fill:none;" x1="368.388" y1="216.697" x2="411.4" y2="241.861"/>
			</g>
			<g>
				<path style="fill:#0F4899;" d="M356.88,163.535c0,0,1.74-3.395,0.959-6.347c-0.798-3.016-5.929-6.734-7.508-8.104
					c-4.737-4.11-11.309-5.734-17.931-5.749c-5.09-0.01-10.63,0.72-15.33,2.77c-5.49,2.39-8.73,7.32-8.76,13.31
					c0,0.01,7,32.77,7,32.77s10.749,7.657,24.855,10.785c0,0,0.033-9.29,0.033-9.293c4.336,0.11,8.87,0.135,13.282,0.007v8.934
					l3.588-5.648L356.88,163.535z"/>
				<g>
					<g>
						<path style="fill:#FFFFFF;" d="M340.2,193.685c-0.57-27.09-4.32-39.86-6.94-45.54c-1.18-2.54-3.62-4.25-6.41-4.51
							c1.86-0.21,3.74-0.3,5.55-0.3c4.03,0.01,8.03,0.61,11.62,2.01c0.01,0,0.01,0,0.02,0.01c1.09,0.74,2,1.69,2.5,2.79
							c2.63,5.68,6.37,18.45,6.94,45.53"/>
					</g>
					<g>
						<g>
							<path style="fill:#9DE3F2;" d="M341.977,149.513c2.01,3.191,3.156,6.854,3.978,10.523c0.796,3.692,1.18,7.44,1.554,11.178
								c0.299,3.747,0.536,7.496,0.65,11.251c0.074,3.734,0.237,7.555-0.086,11.221c0.08-0.384,0.017-0.914,0.015-1.363
								l-0.051-1.405l-0.142-2.81c-0.088-1.873-0.191-3.745-0.312-5.616c-0.233-3.741-0.463-7.483-0.82-11.211
								c-0.31-3.731-0.704-7.46-1.37-11.131c-0.334-1.835-0.771-3.653-1.326-5.437C343.518,152.928,342.863,151.167,341.977,149.513
								z"/>
						</g>
						<g>
							<path style="fill:#9DE3F2;" d="M334.828,152.152c0.47-0.555,0.999-0.952,1.549-1.292c0.547-0.35,1.128-0.608,1.717-0.846
								c0.6-0.208,1.207-0.398,1.849-0.495c0.638-0.107,1.298-0.158,2.016-0.053l0.035,0.094l-3.548,1.389l-3.583,1.296
								L334.828,152.152z"/>
						</g>
						<g>
							<path style="fill:#9DE3F2;" d="M341.987,149.464c0.531-0.259,1.03-0.352,1.518-0.386c0.49-0.044,0.961,0.009,1.428,0.082
								c0.461,0.105,0.919,0.229,1.358,0.451c0.441,0.211,0.871,0.48,1.27,0.914l-0.019,0.098l-2.797-0.482l-2.778-0.579
								L341.987,149.464z"/>
						</g>
					</g>
				</g>
			</g>
			<g>
				<path style="fill:#0F4899;" d="M315.06,193.116c0.202-0.981-0.586-2.396-1.104-3.007c-3.343-3.946-6.968-7.921-10.297-11.66
					c-0.954-1.075-1.893-2.15-2.763-3.192c0.426-0.283,5.379-3.34,7.525-4.585c4.26-2.517,13.21-7.832,13.21-7.832
					c3.435-2.18,5.445-18.464,1.903-18.7c-0.846-0.057-5.238,1.096-9.738,3.011c-5.163,2.197-9.984,4.585-14.831,7.387
					c-2.402,1.423-4.785,2.937-7.185,4.694c-4.021,2.944-8.434,6.48-9.905,11.457c-0.713,2.412-0.565,4.952,0.403,7.271
					c1.024,2.454,2.837,4.53,4.776,6.314c2.372,2.182,4.67,3.834,7.024,5.404c2.334,1.568,9.659,5.567,10.772,6.121L315.06,193.116z
					"/>
				<g>
					<path style="fill:#C47C45;" d="M290.653,206.77l-1.071-2.781c-0.541-1.403-1.558-3.772-0.188-4.449
						c0.971-0.48,2.325,0.457,2.926,1.429c0.197-1.19,1.038-3.107,2.15-5.371c0.489-0.995,1.669-1.461,2.774-1.377l0.728-1.543
						c0.467-0.833,1.717-1.257,2.534-0.764c0,0,0.273-1.961,2.002-2.133c0.718-0.071,1.62,0.488,1.624,1.306l-0.029,3.975
						c1.521-1.135,2.902-2.111,3.967-2.76c5.096-3.103,6.989,0.815,6.989,0.815s-2.149,5.669-8.325,10.485l0,0
						c-0.941,0.637-1.987,1.103-3.09,1.375l-4.956,1.221c-0.653,0.161-1.343,0.018-1.879-0.388l0,0c0,0-3.255,1.511-4.334,1.912
						C291.742,207.994,290.935,207.5,290.653,206.77z"/>
					<g>
						<path style="fill:#993C21;" d="M300.48,192.158l-0.284,4.152l-0.003-0.027l1.115,3.792c0.006,0.019-0.005,0.039-0.024,0.045
							c-0.014,0.004-0.029-0.001-0.038-0.011l-0.01-0.012c-0.23-0.274-0.385-0.571-0.579-0.856
							c-0.167-0.293-0.328-0.589-0.464-0.892c-0.289-0.601-0.51-1.222-0.714-1.848c-0.025-0.078-0.034-0.157-0.028-0.234
							l0.001-0.014c0.055-0.691,0.139-1.381,0.292-2.065c0.07-0.342,0.164-0.683,0.265-1.023c0.135-0.337,0.224-0.678,0.397-1.013
							l0.007-0.013c0.009-0.018,0.031-0.025,0.049-0.015C300.473,192.131,300.48,192.145,300.48,192.158z"/>
					</g>
					<g>
						<path style="fill:#993C21;" d="M297.281,194.23c-0.448,1.627-0.877,3.259-1.341,4.881l-0.007-0.055l1.927,3.28
							c0.01,0.017,0.004,0.039-0.013,0.05c-0.013,0.008-0.029,0.006-0.04-0.002l-0.011-0.009c-0.269-0.209-0.484-0.449-0.722-0.676
							c-0.233-0.23-0.44-0.475-0.646-0.722c-0.404-0.497-0.783-1.009-1.12-1.546c-0.091-0.146-0.115-0.314-0.08-0.47l0.011-0.047
							c0.189-0.823,0.467-1.621,0.766-2.414c0.167-0.391,0.333-0.783,0.531-1.165c0.212-0.378,0.409-0.761,0.672-1.125l0.008-0.011
							c0.012-0.016,0.035-0.02,0.051-0.008C297.28,194.2,297.284,194.216,297.281,194.23z"/>
					</g>
					<g>
						<path style="fill:#993C21;" d="M292.358,200.964l0.191,1.563l-0.021-0.037c1.46,1.063,2.877,2.183,4.305,3.289
							c0.016,0.012,0.019,0.035,0.006,0.051c-0.009,0.012-0.024,0.016-0.037,0.013l-0.015-0.004
							c-0.478-0.118-0.918-0.285-1.338-0.478c-0.415-0.2-0.807-0.43-1.189-0.673c-0.752-0.503-1.447-1.081-2.07-1.753l-0.116-0.125
							c-0.057-0.062-0.084-0.142-0.08-0.22c0.013-0.266,0.048-0.534,0.095-0.803c0.063-0.271,0.094-0.539,0.193-0.814l0.006-0.016
							c0.007-0.019,0.027-0.028,0.046-0.021C292.347,200.94,292.356,200.952,292.358,200.964z"/>
					</g>
				</g>
				<g>
					<path style="fill:#1973F2;" d="M308.402,170.639l6.586-3.948l6.624-3.884c0.018-0.01,0.04-0.004,0.051,0.013
						c0.009,0.015,0.006,0.034-0.007,0.046l-0.006,0.006c-0.477,0.451-0.995,0.83-1.492,1.248l-1.561,1.132
						c-1.049,0.74-2.153,1.389-3.228,2.084c-1.128,0.607-2.224,1.268-3.378,1.83l-1.742,0.826c-0.604,0.236-1.186,0.509-1.809,0.712
						l-0.008,0.003c-0.02,0.006-0.04-0.004-0.047-0.024C308.38,170.666,308.387,170.648,308.402,170.639z"/>
				</g>
			</g>
			<g>
				<g>
					<path style="fill:#C47C45;" d="M341.977,149.513c-5.074-4.819-14.119-5.98-14.119-5.98l0.938-12.665h11.538v13.126
						L341.977,149.513z"/>
					<path style="fill:#993C21;" d="M340.332,130.87v9.576c-8.262-1.108-9.001-9.291-9.027-9.576c0-0.005,0-0.005,0-0.005
						L340.332,130.87z"/>
				</g>
				<g>
					<path style="fill:#C47C45;" d="M351.518,123.272c-0.905-1.13-2.828-3.963-2.829-3.964l0.011-4.296
						c-0.004-0.368-0.025-0.729-0.055-1.091c-0.201-2.376-1.063-4.578-2.401-6.405c-2.313-3.154-6.035-5.218-10.224-5.229
						c-6.989-0.015-12.71,5.69-12.725,12.679l-0.005,6.955c-0.016,8.728,7.159,14.988,15.847,15.904
						c9.274,0.978,9.523-4.262,9.528-9.504l0.008-3.347L351.518,123.272z"/>
					<g>
						<path style="fill:#601222;" d="M344.151,120.969L344.151,120.969c0.419,0,0.761-0.343,0.761-0.761v-2.735
							c0-0.419-0.342-0.761-0.761-0.761l0,0c-0.419,0-0.761,0.342-0.761,0.761v2.735
							C343.389,120.626,343.732,120.969,344.151,120.969z"/>
						<path style="fill:#FFFFFF;" d="M348.605,127.637c-0.712,1.504-2.474,2.411-4.353,2.116c-2.179-0.348-3.704-2.184-3.493-4.152
							L348.605,127.637z"/>
					</g>
					<g>
						<path style="fill:#601222;" d="M344.321,104.652c-0.111,0-0.218,0.017-0.324,0.033c-1.955-1.749-5.516-3.812-11.057-3.028
							c-13.879,1.962-11.742,16.534-10.388,23.17c0.957,4.695,6.056,8.576,6.056,8.576s4.771-6.108,4.365-12.952
							c0.235,0.083,0.485,0.137,0.749,0.137c1.245,0,2.255-1.01,2.255-2.255c0-0.917-0.549-1.703-1.335-2.055
							c1.199-0.053,2.157-1.033,2.157-2.245c0-0.467-0.142-0.902-0.386-1.262c0.126,0.022,0.254,0.039,0.386,0.039
							c1.246,0,2.255-1.01,2.255-2.255c0-0.206-0.036-0.402-0.088-0.591c0.339,0.203,0.73,0.327,1.154,0.327
							c1.246,0,2.255-1.01,2.255-2.255c0-0.002-0.001-0.004-0.001-0.007c0.39,0.675,1.111,1.135,1.947,1.135
							c1.245,0,2.255-1.01,2.255-2.255C346.576,105.661,345.567,104.652,344.321,104.652z"/>
						<path style="fill:#601222;" d="M327.808,107.622c-0.124-1.048-1.042-1.834-2.194-2.001c0.71-0.917,0.827-2.115,0.188-2.961
							c-0.644-0.838-1.832-1.047-2.904-0.614c0.147-1.148-0.359-2.241-1.341-2.641c-0.982-0.4-2.113,0.016-2.815,0.939
							c-0.453-1.068-1.447-1.75-2.497-1.597c-1.044,0.144-1.805,1.085-1.945,2.232c-0.933-0.686-2.139-0.774-2.967-0.111
							c-0.827,0.663-1.008,1.852-0.542,2.918c-1.158-0.125-2.237,0.414-2.616,1.399c-0.139,0.358-0.166,0.723-0.104,1.085
							c0.038,0.235,0.115,0.455,0.225,0.669c0.194,0.399,0.504,0.754,0.89,1.04c-1.056,0.478-1.721,1.49-1.543,2.528
							c0.172,1.046,1.122,1.784,2.279,1.902c-0.662,0.949-0.723,2.15-0.043,2.961c0.674,0.812,1.872,0.97,2.926,0.478
							c-0.097,1.159,0.467,2.227,1.462,2.583c1.001,0.355,2.107-0.119,2.768-1.075c0.504,1.045,1.532,1.685,2.566,1.488
							c0.7-0.134,1.252-0.613,1.569-1.268c0.054-0.114,0.107-0.235,0.146-0.36c0.159,0.073,0.323,0.132,0.49,0.176
							c0.648,0.173,1.323,0.086,1.863-0.308c0.856-0.62,1.093-1.806,0.679-2.888c1.147,0.175,2.25-0.312,2.68-1.28
							c0.423-0.973,0.026-2.107-0.88-2.833C327.227,109.648,327.934,108.677,327.808,107.622z"/>
					</g>
					<g>
						<path style="fill:#C47C45;" d="M325.96,124.727c2.011,2.147,5.175,2.452,7.065,0.681c1.891-1.771,1.793-4.948-0.219-7.095
							c-2.012-2.147-5.175-2.452-7.065-0.681C323.85,119.404,323.948,122.58,325.96,124.727z"/>
						<path style="fill:#993C21;" d="M326.906,119.319c0,0,4.2-0.412,4.752,3.953L326.906,119.319z"/>
					</g>
				</g>
			</g>
			<g>
				<path style="fill:#0F4899;" d="M357.261,160.736c2.693-0.876,5.376-1.785,8.067-2.71c2.85-1.011,5.703-2.02,8.586-3.113
					c1.445-0.556,2.886-1.118,4.411-1.753c3.799-1.624,7.599-3.76,8.685-8.066c0.76-3.012,0.142-6.14-0.507-9.112
					c-0.995-4.56-2.452-9.049-4.094-13.414c-1.076-2.861-2.255-5.677-3.579-8.446c-1.326-2.772-2.739-5.496-4.447-8.165
					c-0.809-1.244-2.377-2.076-3.973-2.128c-2.596-0.086-4.603,1.911-4.689,4.507c-0.208,6.188,0.311,12.2,0.991,18.085
					c0.35,2.939,1.444,10.671,1.444,10.671c-0.321,0.126-6.406,2.489-9.17,3.525c-4.464,1.716-9.179,3.501-13.641,5.287
					L357.261,160.736z"/>
				<g>
					<path style="fill:#C47C45;" d="M346.366,109.287c0.299-0.364,0.743-0.566,1.183-0.705c0.001,0,3.965-1.63,6.49-2.471
						c2.689-0.896,6.024-1.646,7.686-1.826c4.39-0.472,8.686-0.456,8.686-0.456s2.414,1.486,2.419,5.256
						c0.004,3.584-2.678,4.424-2.678,4.424c-2.111,0.547-4.604,0.35-7.836-1.537l-0.952,0.064l-5.847,1.375
						c-0.609,0.17-1.38,0.117-1.967-0.273l-1.163,0.273c-0.694,0.193-1.596,0.099-2.199-0.456c-0.823,0.575-1.835,0.735-2.745,0.219
						c-1.001-0.566-1.431-1.616-1.44-2.736C345.999,110.025,346.099,109.612,346.366,109.287z"/>
					<g>
						<path style="fill:#993C21;" d="M358.47,106.225l-4.575,1.409l0.01-0.004c-1.394,0.723-2.801,1.42-4.207,2.12l-0.005,0.002
							c-0.285,0.102-0.385,0.396-0.382,0.701c-0.016,0.301,0.004,0.605,0.064,0.901c0.115,0.593,0.401,1.153,0.837,1.575
							c0.015,0.014,0.015,0.038,0.001,0.052c-0.012,0.012-0.03,0.015-0.045,0.007l-0.008-0.004c-0.56-0.318-0.97-0.904-1.201-1.544
							c-0.105-0.325-0.176-0.663-0.188-1.014c0.007-0.174-0.03-0.342,0.094-0.656c0.117-0.269,0.333-0.479,0.591-0.599l-0.043,0.019
							c0.678-0.399,1.36-0.79,2.059-1.148c0.345-0.188,0.697-0.362,1.052-0.53c0.356-0.167,0.702-0.351,1.066-0.502l0.081-0.034
							l0.022-0.007c0.774-0.196,1.555-0.37,2.345-0.512c0.791-0.142,1.593-0.245,2.409-0.302l0.008-0.001
							c0.02-0.002,0.038,0.014,0.04,0.034C358.497,106.204,358.486,106.219,358.47,106.225z"/>
					</g>
					<g>
						<path style="fill:#993C21;" d="M362.228,107.182l-4.574,1.41l0.011-0.004c-1.393,0.725-2.806,1.411-4.21,2.115l-0.004,0.002
							c-0.201,0.079-0.346,0.263-0.365,0.487c-0.036,0.224-0.044,0.454-0.022,0.68c0.04,0.453,0.217,0.894,0.512,1.242
							c0.013,0.016,0.011,0.039-0.004,0.052c-0.013,0.011-0.031,0.012-0.044,0.003l-0.009-0.006
							c-0.41-0.274-0.682-0.747-0.822-1.253c-0.076-0.255-0.088-0.521-0.082-0.792c-0.008-0.109,0.053-0.386,0.164-0.539
							c0.115-0.171,0.276-0.306,0.46-0.394l-0.038,0.017c1.331-0.849,2.715-1.591,4.141-2.252l0.044-0.02
							c0.02-0.009,0.041-0.017,0.062-0.022c0.774-0.195,1.554-0.373,2.344-0.516c0.793-0.135,1.595-0.238,2.415-0.281l0.009,0
							c0.02-0.001,0.038,0.015,0.039,0.035C362.255,107.162,362.244,107.177,362.228,107.182z"/>
					</g>
					<g>
						<path style="fill:#993C21;" d="M348.601,113.523c-0.606,0.26-1.386,0.136-1.966-0.271c-0.613-0.394-1.011-1.072-1.179-1.749
							c-0.071-0.344-0.107-0.689-0.092-1.027c0.027-0.36,0.098-0.758,0.32-1.096c0.444-0.736,1.244-0.9,1.854-0.834l0.016,0.002
							c0.02,0.002,0.034,0.02,0.032,0.04c-0.002,0.015-0.012,0.026-0.025,0.03c-0.55,0.173-1.109,0.476-1.342,1.01
							c-0.232,0.526-0.16,1.142-0.034,1.699c0.128,0.562,0.406,1.097,0.842,1.482c0.429,0.385,0.99,0.639,1.575,0.64
							c0.02,0,0.036,0.016,0.036,0.036c0,0.015-0.009,0.028-0.022,0.033L348.601,113.523z"/>
					</g>
				</g>
				<g>
					<path style="fill:#1973F2;" d="M368.152,137.055c1.514-0.276,3.07,0.182,4.445,0.822c0.704,0.311,1.364,0.707,1.979,1.159
						c0.294,0.213,0.649,0.499,0.848,0.612c0.235,0.134,0.426,0.141,0.491,0.093c0.068-0.035,0.181-0.154,0.24-0.356
						c0.055-0.199,0.028-0.434-0.069-0.618c-0.127-0.354-0.879-0.626-1.492-0.894c-0.651-0.258-1.351-0.454-2.059-0.618
						c-0.705-0.207-1.428-0.34-2.156-0.521l-0.008-0.002c-0.02-0.005-0.032-0.025-0.027-0.045c0.004-0.017,0.02-0.029,0.038-0.028
						c1.476,0.071,2.956,0.235,4.384,0.647c0.357,0.102,0.705,0.237,1.044,0.394c0.329,0.164,0.68,0.368,0.87,0.715
						c0.394,0.639,0.277,1.681-0.505,2.01c-0.385,0.147-0.799,0.012-1.114-0.186c-0.319-0.214-0.59-0.453-0.884-0.677
						c-0.588-0.441-1.195-0.86-1.842-1.21c-1.279-0.695-2.707-1.26-4.175-1.225c-0.021,0.001-0.038-0.015-0.04-0.036
						C368.121,137.075,368.135,137.059,368.152,137.055z"/>
				</g>
			</g>
			<g>
				<path style="fill:#1973F2;" d="M356.847,163.518c0.621-1.33,1.039-2.773,1.121-4.24c0.036-0.731-0.02-1.473-0.227-2.172
					c-0.203-0.7-0.602-1.331-1.033-1.921c-0.859-1.193-1.93-2.222-3.017-3.215c-1.095-0.99-2.256-1.902-3.385-2.858
					c-0.016-0.013-0.018-0.037-0.004-0.052c0.012-0.014,0.031-0.017,0.047-0.008l0.007,0.004c0.653,0.368,1.27,0.775,1.909,1.165
					c0.613,0.423,1.217,0.861,1.816,1.313c1.177,0.931,2.273,1.975,3.234,3.212c0.441,0.646,0.859,1.336,1.081,2.17
					c0.204,0.801,0.271,1.614,0.153,2.395c-0.103,0.78-0.298,1.529-0.559,2.244c-0.307,0.701-0.622,1.389-1.076,1.998
					c-0.01,0.018-0.033,0.025-0.051,0.014C356.846,163.558,356.842,163.535,356.847,163.518z"/>
			</g>
		</g>
		<g>
			<g>
				<path style="fill:#0F4899;" d="M284.879,360.444c0.888,0.348,1.161,1.181,0.979,1.969c-0.194,0.913-1.005,1.786-2.169,1.786
					l-29.284,0.006l1.753-12.736h12.491l7.179,5.609L284.879,360.444z"/>
				<path style="fill:#0F4899;" d="M191.019,395.008c0.888,0.348,1.161,1.181,0.979,1.969c-0.194,0.913-1.005,1.786-2.169,1.786
					l-10.011,0.002l-16.724-9.579l7.854-10.179l10.809,5.211l0.211,7.424L191.019,395.008z"/>
			</g>
			<polygon style="fill:#9DE3F2;" points="220.6,174.505 220.6,177.655 207.23,177.655 207.23,174.035 			"/>
			
				<path style="fill:none;stroke:#070EE6;stroke-width:2.228;stroke-linecap:round;stroke-linejoin:round;stroke-miterlimit:10;" d="
				M188.974,194.182"/>
			<g>
				<path style="fill:#1973F2;" d="M285.34,302.155c-0.99,5.3-2.44,12.5-4.32,21.42c-3.17,15.1-6.41,29.75-6.41,29.75l-22.55-2.16
					c4.53-20.41,9.85-45.14,11.77-55.78c-9.61-4.77-30.938-16.124-48.254-25.258l-3.176,0.518c1.01,16.17,2.14,50.79,0.16,58.13
					c-1.43,5.3-16.81,38.72-25.86,58.17l-20.29-9.45c11.02-23.68,23.14-50.39,24.54-54.56c1.28-5.51-0.97-31.88-1.95-54.47
					c-0.17-3.84-0.29-16.95-0.34-24.16c7.43,0.58,31.36,2.14,49.17,0.17l0.06,11.88c45.54,22.67,46,24.4,47.92,28.17
					C287.79,288.425,287.31,291.635,285.34,302.155z"/>
				<g>
					<path style="fill:#00469D;" d="M212.392,270.596l4.685-0.815l4.701-0.717l0.016,0.099c-0.725,0.477-1.477,0.787-2.24,1.038
						c-0.76,0.261-1.537,0.424-2.316,0.567c-0.785,0.111-1.573,0.203-2.377,0.197c-0.802,0.004-1.614-0.05-2.453-0.269
						L212.392,270.596z"/>
				</g>
				<g>
					<defs>
						<path id="SVGID_00000110463154589983354780000014930260873715256988_" d="M237.83,244.475c-17.81,1.97-41.74,0.41-49.17-0.17
							c0-0.69,0-1.32-0.01-1.89c-0.01-0.9-0.01-1.81-0.01-2.73c8.38,0.61,31.46,1.97,49.16,0.2L237.83,244.475z"/>
					</defs>
					<use xlink:href="#SVGID_00000110463154589983354780000014930260873715256988_"  style="overflow:visible;fill:#0F4899;"/>
					<clipPath id="SVGID_00000095330299661551020710000013805028297608190596_">
						<use xlink:href="#SVGID_00000110463154589983354780000014930260873715256988_"  style="overflow:visible;"/>
					</clipPath>
					<g style="clip-path:url(#SVGID_00000095330299661551020710000013805028297608190596_);">
						<rect x="194.275" y="238.747" style="fill:#1973F2;" width="4.085" height="8.042"/>
						<rect x="206.573" y="238.747" style="fill:#1973F2;" width="4.085" height="8.042"/>
						<rect x="218.871" y="238.747" style="fill:#1973F2;" width="4.085" height="8.042"/>
						<rect x="229.169" y="238.747" style="fill:#1973F2;" width="4.085" height="8.042"/>
					</g>
				</g>
			</g>
			<path style="fill:#FFFFFF;" d="M237.8,239.885c-17.7,1.77-49.16-0.2-49.16-0.2s-1.951-2.748-1.945-4.673
				c0.007-2.326,1.972-7.219,1.984-9.511c0.093-17.381,0.321-31.402,0.321-31.426c0.03-5.99,3.27-10.91,8.76-13.3
				c4.71-2.05,10.24-2.79,15.33-2.78c8.84,0.02,17.57,2.91,22,10.73c0.19,0.35,0.38,0.7,0.55,1.05c1.27,2.62,1.93,5.51,1.93,8.42
				l0.165,29.892c0,0,1.964,5.921,1.763,7.946C239.395,237.081,237.8,239.885,237.8,239.885z"/>
			<g>
				<path style="fill:#9DE3F2;" d="M204.552,226.792c1.281-0.187,2.573-0.211,3.867-0.259c1.29,0.016,2.58,0.077,3.869,0.158
					c2.575,0.194,5.118,0.628,7.656,1.075c1.258,0.283,2.511,0.585,3.759,0.912l0.935,0.251l0.881,0.21
					c0.595,0.106,1.192,0.215,1.8,0.294c1.217,0.148,2.465,0.142,3.711,0.026c1.256-0.064,2.507-0.281,3.758-0.558l0.01-0.002
					c0.027-0.006,0.053,0.011,0.059,0.037c0.005,0.024-0.008,0.049-0.031,0.057c-2.402,0.899-4.982,1.335-7.549,1.214
					c-1.284-0.049-2.558-0.325-3.788-0.647c-1.243-0.296-2.492-0.566-3.744-0.817c-5.004-1.009-10.081-1.798-15.193-1.853
					c-0.027,0-0.049-0.023-0.049-0.05c0-0.025,0.019-0.045,0.043-0.049L204.552,226.792z"/>
			</g>
			<g>
				<g>
					<polygon style="fill:#FF9C96;" points="207.654,176.791 208.488,165.534 220.026,165.534 220.026,178.662 218.722,183.311 
											"/>
					<path style="fill:#D66565;" d="M220.024,165.536v9.576c-8.262-1.108-9.001-9.291-9.027-9.576c0-0.005,0-0.005,0-0.005
						L220.024,165.536z"/>
				</g>
				<g>
					<path style="fill:#FF9C96;" d="M231.211,157.938c-0.905-1.13-2.828-3.964-2.828-3.964l0.011-4.296
						c-0.004-0.368-0.025-0.73-0.055-1.091c-0.201-2.376-1.063-4.578-2.401-6.405c-2.313-3.154-6.036-5.218-10.224-5.229
						c-6.989-0.015-12.71,5.69-12.725,12.679l-0.005,6.955c-0.016,8.728,7.159,14.988,15.847,15.904
						c9.274,0.978,9.523-4.262,9.528-9.504l0.008-3.347L231.211,157.938z"/>
					<g>
						<path style="fill:#601222;" d="M223.843,155.635L223.843,155.635c0.419,0,0.761-0.343,0.761-0.761v-2.735
							c0-0.419-0.342-0.761-0.761-0.761l0,0c-0.419,0-0.761,0.342-0.761,0.761v2.735
							C223.082,155.292,223.424,155.635,223.843,155.635z"/>
						<path style="fill:#FFFFFF;" d="M228.297,162.303c-0.712,1.504-2.474,2.411-4.353,2.116c-2.179-0.348-3.704-2.184-3.493-4.152
							L228.297,162.303z"/>
					</g>
					<path style="fill:#0F4899;" d="M226.35,138.725l1.085-3.479c0,0-9.002,0.726-14.777,1.707
						c-13.819,2.348-11.47,16.072-10.117,22.708c0.957,4.695,5.759,8.407,5.759,8.407s4.754-6.108,4.349-12.952
						c0,0,3.074-3.935,3.041-5.508c-0.025-1.214-2.602-2.938-2.521-4.149c0.218-3.268,3.351-3.016,12.642-3.447
						c2.582-0.798,3.539-3.554,3.539-3.554L226.35,138.725z"/>
					<g>
						<path style="fill:#FF9C96;" d="M205.652,159.393c2.012,2.147,5.175,2.452,7.066,0.681c1.891-1.771,1.793-4.948-0.219-7.095
							c-2.012-2.147-5.175-2.452-7.065-0.681C203.542,154.07,203.64,157.246,205.652,159.393z"/>
						<path style="fill:#D66565;" d="M206.599,153.985c0,0,4.2-0.412,4.752,3.953L206.599,153.985z"/>
					</g>
				</g>
			</g>
			<g>
				<g>
					<polygon style="fill:#FFFFFF;" points="207.232,174.039 216.568,176.672 215.913,183.901 206.061,178.489 					"/>
					<path style="fill:#9DE3F2;" d="M216.605,176.676c0.057,0.613,0.063,1.22,0.086,1.83c0.034,0.61,0.003,1.215,0,1.822
						c-0.013,0.606-0.008,1.214-0.036,1.819l-0.118,1.811l-0.062,0.949l-0.863-0.457c-0.828-0.438-1.677-0.838-2.477-1.328
						l-2.429-1.414c-0.803-0.483-1.579-1.018-2.369-1.524c-0.78-0.526-1.548-1.072-2.294-1.661l0.036-0.066l9.867,5.386
						l-0.099,0.053l0.684-7.226L216.605,176.676z"/>
					<polygon style="fill:#9DE3F2;" points="216.568,176.672 218.722,183.311 216.098,181.858 					"/>
				</g>
				<g>
					<polygon style="fill:#9DE3F2;" points="219.568,176.672 218.722,183.311 220.689,179.991 					"/>
					<polygon style="fill:#FFFFFF;" points="221.714,179.592 220.589,183.733 219.57,176.675 220.602,174.501 					"/>
					<path style="fill:#9DE3F2;" d="M220.678,182.65c-0.28-2.005-0.621-4-1.108-5.975c0.108,2.386,0.41,4.744,0.785,7.092
						l0.183,1.145l0.279-1.117c0.347-1.388,0.658-2.786,0.897-4.203C221.33,180.601,220.996,181.624,220.678,182.65z"/>
				</g>
			</g>
			<g>
				<path style="fill:#FFFFFF;" d="M168.054,235.934c1.48-5.17,3.994-18.803,5.285-28.847c0.739-0.229,9.508-2.697,9.508-2.697
					c5.987-1.67,12.071-3.44,17.965-5.572l0.076-0.026c3.891-1.404,6.348-5.426,5.644-9.652c-0.792-4.76-5.294-7.977-10.054-7.185
					c-6.428,1.07-12.632,2.638-18.869,4.533c-3.126,0.929-4.577,1.488-7.761,2.689c-4.063,1.533-9.07,3.229-11.4,7.18
					c-2.523,4.278-1.952,10.481-1.969,15.265c-0.029,3.258-0.119,16.413-0.044,22.78L168.054,235.934z"/>
				<g>
					<path style="fill:#9DE3F2;" d="M187.251,203.104c2.287-0.673,4.568-1.366,6.837-2.097c2.277-0.707,4.54-1.454,6.788-2.251
						c0.019-0.007,0.04,0.003,0.047,0.023c0.006,0.017-0.001,0.035-0.015,0.044l-0.008,0.005c-2.072,1.283-4.312,2.157-6.586,2.895
						c-2.286,0.702-4.612,1.275-7.043,1.454l-0.008,0.001c-0.02,0.001-0.038-0.014-0.04-0.034
						C187.223,203.124,187.234,203.109,187.251,203.104z"/>
				</g>
				<g>
					<path style="fill:#0F4899;" d="M183.508,299.907l-56.196-6.094c-1.983-0.215-3.416-1.997-3.201-3.98l3.889-35.857
						c0.215-1.983,1.997-3.416,3.98-3.201l56.196,6.094c1.983,0.215,3.416,1.997,3.201,3.98l-3.888,35.857
						C187.273,298.689,185.491,300.122,183.508,299.907z"/>
					<g>
						<path style="fill:#0F4899;" d="M174.496,255.386l-2.309-0.25l0.852-7.854l-24.221-2.626l-0.852,7.853l-2.309-0.25l0.932-8.588
							c0.045-0.419,0.251-0.797,0.581-1.063c0.33-0.265,0.744-0.382,1.162-0.341l25.691,2.787c0.421,0.046,0.798,0.252,1.063,0.581
							c0.266,0.33,0.387,0.744,0.341,1.165L174.496,255.386z"/>
					</g>
				</g>
				<g>
					<path style="fill:#FF9C96;" d="M156.436,234.403c-2.014,3.83-2.748,6.596-3.189,9.919c-0.326,2.462,0.454,4.332,1.375,4.651
						c1.126,0.389,2.744-0.88,2.744-0.88s0.939,1.747,1.84,1.805c1.062,0.068,2.182-1.187,2.182-1.187s0.924,1.66,1.95,1.636
						c1.085-0.025,2.06-1.059,2.06-1.059s0.76,1.573,2.409,0.992c2.676-0.943,2.712-5.957,2.712-5.957s2.605-3.273,1.764-5.284
						c-0.839-2.003-4.207-3.096-4.229-3.103L156.436,234.403z"/>
					<g>
						<g>
							<path style="fill:#D66565;" d="M170.441,240.352c0.123,0.162,0.178,0.326,0.27,0.489l0.159,0.492
								c0.104,0.328,0.127,0.658,0.148,0.989c-0.004,0.331-0.008,0.662-0.095,0.995l-0.132,0.5
								c-0.082,0.168-0.128,0.335-0.241,0.503l-0.011,0.016c-0.008,0.013-0.026,0.016-0.038,0.008
								c-0.008-0.005-0.012-0.013-0.012-0.022l-0.085-1.983l-0.024-1.985c0-0.015,0.012-0.028,0.027-0.028
								c0.009,0,0.017,0.004,0.022,0.011L170.441,240.352z"/>
						</g>
						<g>
							<path style="fill:#D66565;" d="M153.916,243.699c0.22,0.37,0.44,0.735,0.685,1.073c0.253,0.329,0.519,0.653,0.803,0.872
								c0.148,0.117,0.28,0.159,0.418,0.188c0.164,0.036,0.335,0.039,0.506,0.015c0.333-0.042,0.704-0.212,0.955-0.405
								c0.154-0.118,0.361-0.119,0.513-0.016l0.011,0.008c0.289,0.196,0.608,0.392,0.92,0.551c0.308,0.16,0.648,0.297,0.88,0.315
								c0.577,0.036,1.295-0.236,1.862-0.558c0.217-0.123,0.485-0.07,0.64,0.114l0.013,0.016c0.208,0.246,0.478,0.507,0.738,0.685
								c0.131,0.089,0.264,0.16,0.38,0.2c0.145,0.035,0.143,0.051,0.311,0.038c0.322-0.025,0.654-0.113,0.978-0.236
								c0.318-0.123,0.655-0.296,0.92-0.473l0.008-0.005c0.213-0.142,0.496-0.099,0.658,0.092c0.158,0.186,0.437,0.439,0.735,0.533
								c0.291,0.106,0.679,0.135,0.961,0.025c0.313-0.107,0.633-0.337,0.913-0.604c0.278-0.273,0.542-0.576,0.784-0.899l0.003-0.005
								c0.01-0.014,0.029-0.016,0.043-0.006c0.012,0.009,0.016,0.026,0.009,0.039c-0.19,0.359-0.416,0.696-0.675,1.009
								c-0.262,0.306-0.559,0.602-0.935,0.776c-0.766,0.334-1.708,0.087-2.254-0.542l0.069,0.009
								c-0.638,0.448-1.364,0.785-2.147,0.886c-0.411,0.077-0.805-0.134-1.112-0.361c-0.315-0.237-0.586-0.519-0.828-0.827
								l0.069,0.014c-0.668,0.358-1.406,0.65-2.186,0.604c-0.393-0.041-0.742-0.216-1.076-0.392
								c-0.335-0.181-0.654-0.386-0.965-0.606l0.056-0.001c-0.357,0.253-0.77,0.421-1.205,0.467
								c-0.427,0.052-0.903-0.048-1.221-0.362c-0.323-0.294-0.555-0.664-0.765-1.036c-0.205-0.377-0.38-0.769-0.528-1.172
								c-0.006-0.016,0.002-0.033,0.018-0.039c0.014-0.005,0.029,0.001,0.037,0.013L153.916,243.699z"/>
						</g>
						<g>
							<path style="fill:#D66565;" d="M157.579,245.788l-0.061,1.155l-0.122,1.151c-0.001,0.013-0.013,0.023-0.027,0.021
								c-0.005-0.001-0.01-0.003-0.014-0.007l-0.021-0.02c-0.111-0.105-0.154-0.205-0.233-0.308l-0.123-0.3
								c-0.079-0.2-0.078-0.393-0.074-0.586c0.028-0.191,0.057-0.382,0.167-0.567l0.168-0.277c0.094-0.089,0.152-0.181,0.277-0.268
								l0.023-0.016c0.011-0.008,0.026-0.005,0.034,0.006C157.578,245.778,157.579,245.783,157.579,245.788z"/>
						</g>
						<g>
							<path style="fill:#D66565;" d="M161.752,246.176l-0.136,1.273l-0.197,1.265c-0.002,0.014-0.015,0.023-0.029,0.021
								c-0.006-0.001-0.011-0.004-0.015-0.008l-0.018-0.02c-0.104-0.121-0.14-0.233-0.212-0.351l-0.103-0.336
								c-0.066-0.224-0.052-0.437-0.036-0.65c0.041-0.21,0.082-0.419,0.204-0.618l0.186-0.298c0.099-0.094,0.164-0.194,0.294-0.284
								l0.022-0.015c0.011-0.008,0.027-0.005,0.035,0.006C161.751,246.165,161.753,246.171,161.752,246.176z"/>
						</g>
						<g>
							<path style="fill:#D66565;" d="M165.767,246.471l-0.139,1.413l-0.2,1.406c-0.002,0.014-0.015,0.024-0.029,0.022
								c-0.007-0.001-0.013-0.005-0.017-0.009l-0.015-0.02c-0.104-0.132-0.14-0.255-0.212-0.383l-0.103-0.37
								c-0.066-0.246-0.051-0.483-0.035-0.719c0.041-0.233,0.083-0.467,0.206-0.69l0.187-0.335c0.1-0.107,0.164-0.218,0.295-0.322
								l0.02-0.015c0.011-0.009,0.027-0.007,0.036,0.004C165.766,246.458,165.768,246.465,165.767,246.471z"/>
						</g>
					</g>
				</g>
				<g>
					<path style="fill:#9DE3F2;" d="M156.411,228.549c2.232-0.214,4.412-0.041,6.58,0.227c2.163,0.307,4.313,0.707,6.413,1.49
						l0.008,0.003c0.019,0.007,0.029,0.029,0.022,0.048c-0.006,0.016-0.023,0.026-0.039,0.024l-6.501-0.822l-6.491-0.896
						c-0.02-0.003-0.034-0.021-0.032-0.042c0.002-0.017,0.016-0.03,0.033-0.032L156.411,228.549z"/>
				</g>
			</g>
			<g>
				<path style="fill:#9DE3F2;" d="M218.722,183.311c0.839,3.698,1.564,7.422,2.186,11.164c0.647,3.738,1.183,7.496,1.59,11.273
					c0.418,3.774,0.746,7.569,0.714,11.388c-0.029,3.789-0.026,7.578-0.119,11.367l-0.061-0.197
					c0.583,0.931,1.057,1.891,1.441,2.907c0.368,1.011,0.652,2.095,0.589,3.199c-0.051,1.081-0.249,2.133-0.493,3.169
					c-0.247,1.035-0.561,2.051-0.933,3.044c0.286-1.02,0.512-2.055,0.701-3.092c0.178-1.038,0.307-2.088,0.291-3.127
					c-0.015-1.022-0.304-2.024-0.695-2.981c-0.399-0.951-0.906-1.881-1.479-2.724c-0.039-0.058-0.059-0.123-0.061-0.189l0-0.008
					c-0.093-3.789-0.09-7.578-0.119-11.367c-0.052-3.762-0.336-7.53-0.691-11.292c-0.381-3.76-0.844-7.516-1.314-11.272
					L218.722,183.311z"/>
			</g>
			<g>
				<path style="fill:#FFFFFF;" d="M236.865,195.821c2.693-0.876,6.484-2.239,9.175-3.165c2.85-1.01,5.703-2.02,8.586-3.113
					c1.445-0.556,2.886-1.118,4.411-1.753c3.799-1.624,7.599-3.76,8.685-8.066c0.76-3.012,0.142-6.141-0.507-9.112
					c-0.995-4.56-2.451-9.049-4.094-13.414c-1.076-2.861-2.255-5.677-3.579-8.446c-1.326-2.772-2.739-5.496-4.447-8.166
					c-0.809-1.244-2.377-2.076-3.973-2.128c-2.596-0.086-4.603,1.911-4.689,4.507c-0.208,6.188,0.311,12.2,0.991,18.085
					c0.35,2.939,1.444,10.671,1.444,10.671c-0.321,0.125-6.406,2.489-9.17,3.525c-4.464,1.716-9.334,3.552-13.796,5.338
					L236.865,195.821z"/>
				<g>
					<path style="fill:#9DE3F2;" d="M246.444,148.582c2.19,0.722,4.675,0.584,6.725-0.459c1.024-0.511,1.931-1.299,2.469-2.318
						c0.551-1.012,0.703-2.204,0.563-3.348c-0.003-0.02,0.012-0.039,0.032-0.041c0.018-0.002,0.034,0.008,0.04,0.025l0.002,0.007
						c0.395,1.116,0.425,2.454-0.116,3.636c-0.51,1.199-1.525,2.128-2.648,2.706c-2.264,1.129-5.027,1.092-7.092-0.136l-0.006-0.004
						c-0.018-0.01-0.023-0.033-0.013-0.051C246.41,148.583,246.428,148.577,246.444,148.582z"/>
				</g>
				<g>
					<path style="fill:#FF9C96;" d="M227.078,143.917c0.299-0.364,0.743-0.567,1.183-0.705c0.001,0,3.965-1.631,6.49-2.471
						c2.689-0.896,6.024-1.646,7.686-1.826c4.39-0.472,8.686-0.456,8.686-0.456s2.414,1.486,2.419,5.256
						c0.005,3.584-2.679,4.424-2.679,4.424c-2.111,0.547-4.604,0.35-7.836-1.537l-0.952,0.064l-5.847,1.375
						c-0.609,0.17-1.38,0.117-1.967-0.274l-1.163,0.274c-0.694,0.193-1.597,0.099-2.199-0.456c-0.823,0.575-1.835,0.735-2.745,0.219
						c-1.001-0.566-1.431-1.616-1.44-2.736C226.712,144.655,226.811,144.242,227.078,143.917z"/>
					<g>
						<path style="fill:#D66565;" d="M239.182,140.855l-4.575,1.409l0.01-0.004c-1.394,0.723-2.801,1.42-4.207,2.12l-0.005,0.002
							c-0.285,0.102-0.385,0.396-0.382,0.701c-0.016,0.301,0.004,0.605,0.064,0.901c0.115,0.593,0.401,1.153,0.837,1.575
							c0.015,0.014,0.015,0.038,0.001,0.052c-0.012,0.012-0.031,0.015-0.045,0.007l-0.008-0.004
							c-0.559-0.318-0.97-0.904-1.201-1.544c-0.105-0.325-0.176-0.662-0.188-1.014c0.007-0.174-0.03-0.343,0.094-0.656
							c0.117-0.269,0.333-0.479,0.591-0.599l-0.043,0.019c0.678-0.399,1.36-0.79,2.059-1.148c0.345-0.188,0.697-0.361,1.052-0.53
							c0.356-0.167,0.702-0.351,1.066-0.503l0.081-0.034l0.022-0.007c0.774-0.196,1.555-0.37,2.346-0.512
							c0.791-0.142,1.593-0.245,2.409-0.302l0.008-0.001c0.02-0.001,0.038,0.014,0.04,0.034
							C239.21,140.834,239.198,140.85,239.182,140.855z"/>
					</g>
					<g>
						<path style="fill:#D66565;" d="M242.94,141.813l-4.574,1.411l0.011-0.004c-1.393,0.725-2.806,1.411-4.21,2.115l-0.004,0.002
							c-0.201,0.079-0.346,0.263-0.365,0.487c-0.036,0.224-0.044,0.454-0.021,0.68c0.04,0.453,0.216,0.894,0.512,1.242
							c0.013,0.015,0.011,0.039-0.004,0.052c-0.013,0.011-0.031,0.012-0.044,0.003l-0.008-0.006
							c-0.41-0.274-0.682-0.747-0.822-1.253c-0.076-0.255-0.088-0.521-0.082-0.792c-0.008-0.109,0.053-0.386,0.164-0.539
							c0.115-0.172,0.276-0.306,0.46-0.394l-0.038,0.017c1.331-0.849,2.715-1.591,4.141-2.252l0.044-0.02
							c0.02-0.009,0.041-0.017,0.061-0.022c0.774-0.195,1.554-0.374,2.344-0.516c0.793-0.134,1.595-0.238,2.415-0.281l0.009-0.001
							c0.02-0.001,0.038,0.015,0.039,0.035C242.967,141.792,242.956,141.808,242.94,141.813z"/>
					</g>
					
						<path style="fill:none;stroke:#D66565;stroke-width:0.75;stroke-linecap:round;stroke-linejoin:round;stroke-miterlimit:10;" d="
						M251.123,138.459"/>
					<g>
						<path style="fill:#D66565;" d="M228.136,147.837c-0.448,0.028-0.914-0.135-1.243-0.451c-0.353-0.3-0.571-0.722-0.698-1.147
							c-0.102-0.439-0.122-0.866-0.01-1.305c0.092-0.451,0.421-0.902,0.865-1.041l0.021-0.007c0.018-0.006,0.037,0.005,0.043,0.023
							c0.003,0.011,0.001,0.023-0.006,0.031c-0.463,0.591-0.366,1.415-0.189,2.103c0.171,0.709,0.613,1.357,1.255,1.728
							c0.016,0.009,0.022,0.03,0.012,0.047c-0.006,0.01-0.016,0.016-0.027,0.017L228.136,147.837z"/>
					</g>
				</g>
				<g>
					<path style="fill:#9DE3F2;" d="M248.865,171.685c1.521-0.262,3.081,0.186,4.467,0.822c0.709,0.309,1.373,0.705,1.996,1.155
						c0.287,0.208,0.664,0.509,0.863,0.628c0.237,0.148,0.442,0.161,0.513,0.118c0.068-0.037,0.179-0.139,0.243-0.341
						c0.059-0.196,0.041-0.434-0.054-0.622c-0.123-0.358-0.86-0.633-1.482-0.903c-0.653-0.261-1.356-0.458-2.068-0.623
						c-0.708-0.208-1.435-0.342-2.166-0.523l-0.008-0.002c-0.02-0.005-0.032-0.025-0.027-0.045c0.004-0.018,0.02-0.029,0.038-0.028
						c1.484,0.072,2.971,0.237,4.406,0.653c0.358,0.105,0.709,0.238,1.047,0.401c0.332,0.162,0.678,0.381,0.864,0.732
						c0.192,0.338,0.248,0.748,0.161,1.127c-0.08,0.376-0.335,0.747-0.729,0.87c-0.393,0.124-0.802-0.023-1.112-0.231
						c-0.316-0.221-0.589-0.455-0.885-0.682c-0.595-0.438-1.205-0.86-1.858-1.207c-1.291-0.69-2.726-1.248-4.202-1.224
						c-0.021,0.001-0.038-0.016-0.039-0.036C248.833,171.705,248.847,171.688,248.865,171.685z"/>
				</g>
			</g>
		</g>
	</g>
</g>
</svg>
