<?xml version="1.0" encoding="utf-8"?>
<!-- Generator: Adobe Illustrator 27.5.0, SVG Export Plug-In . SVG Version: 6.00 Build 0)  -->
<svg version="1.1" id="Capa_1" xmlns="http://www.w3.org/2000/svg" xmlns:xlink="http://www.w3.org/1999/xlink" x="0px" y="0px"
	 viewBox="0 0 428.839 420.971" style="enable-background:new 0 0 428.839 420.971;" xml:space="preserve">
<rect x="0" y="0" style="fill:#F27295;" width="428.839" height="420.971"/>
<g>
	
		<path style="fill:none;stroke:#3F4469;stroke-width:1.5;stroke-linecap:round;stroke-linejoin:round;stroke-dasharray:3.0751,4.1001;" d="
		M350.913,225.382c0,78.833-63.906,142.739-142.739,142.739S65.432,304.215,65.432,225.382c0-78.833,63.908-142.741,142.742-142.741
		S350.913,146.549,350.913,225.382z"/>
</g>
<g>
	
		<rect x="87.93" y="285.467" style="fill:#FFD03F;stroke:#3F4469;stroke-width:1.5;stroke-linecap:round;stroke-linejoin:round;stroke-miterlimit:10;" width="253.601" height="134.603"/>
	<g>
		
			<polygon style="fill:#5564AE;stroke:#3B4063;stroke-width:1.5;stroke-linecap:round;stroke-linejoin:round;stroke-miterlimit:10;" points="
			340.908,283.515 87.309,283.515 214.752,174.094 		"/>
		<path style="fill:#C0CED5;" d="M308.971,283.515c-20.957-21.728-42.335-43.592-66.335-61.606
			c-12.923-9.7-27.511-20.087-44.105-21.691c-4.792-0.462-9.771-0.503-14.574,0.317l30.795-26.441l126.156,109.421H308.971z"/>
	</g>
	<g>
		
			<polygon style="fill:#E6E7E8;stroke:#3B4063;stroke-width:1.5;stroke-linecap:round;stroke-linejoin:round;stroke-miterlimit:10;" points="
			309.083,405.98 118.095,405.98 118.095,163.642 283.999,163.642 309.083,189.407 		"/>
		<path style="fill:#DCE6EB;" d="M299.725,179.945c-0.046,3.996,0.795,160.611,0.657,174.455c-0.064,6.652,0.543,31.043-1.37,36.087
			c-1.157,3.047-3.126,4.905-6.388,5.411c-5.028,0.782-121.525,0.598-174.529,0.633v9.45h190.988V189.407L299.725,179.945z"/>
		<g>
			<g>
				
					<rect x="135.311" y="303.517" style="fill:#8CC0E8;stroke:#3B4063;stroke-width:1.5;stroke-linecap:round;stroke-linejoin:round;stroke-miterlimit:10;" width="156.558" height="10.02"/>
				
					<rect x="135.311" y="326.479" style="fill:#8CC0E8;stroke:#3B4063;stroke-width:1.5;stroke-linecap:round;stroke-linejoin:round;stroke-miterlimit:10;" width="156.558" height="10.02"/>
				
					<rect x="135.311" y="349.443" style="fill:#8CC0E8;stroke:#3B4063;stroke-width:1.5;stroke-linecap:round;stroke-linejoin:round;stroke-miterlimit:10;" width="156.558" height="10.018"/>
				
					<rect x="135.311" y="372.404" style="fill:#8CC0E8;stroke:#3B4063;stroke-width:1.5;stroke-linecap:round;stroke-linejoin:round;stroke-miterlimit:10;" width="156.558" height="10.018"/>
			</g>
			<g>
				<g>
					<g>
						<rect x="135.311" y="309.086" style="fill:#A6CADB;" width="156.558" height="4.451"/>
					</g>
					<g>
						<rect x="135.311" y="332.189" style="fill:#A6CADB;" width="156.558" height="4.311"/>
					</g>
					<g>
						<rect x="135.311" y="354.732" style="fill:#A6CADB;" width="156.558" height="4.728"/>
					</g>
					<g>
						<rect x="135.311" y="377.276" style="fill:#A6CADB;" width="156.558" height="5.146"/>
					</g>
				</g>
			</g>
			<g>
				
					<rect x="136.564" y="232.963" style="fill:none;stroke:#3B4063;stroke-width:1.5;stroke-linecap:round;stroke-linejoin:round;stroke-miterlimit:10;" width="154.052" height="59.006"/>
				
					<line style="fill:none;stroke:#3B4063;stroke-width:1.5;stroke-linecap:round;stroke-linejoin:round;stroke-miterlimit:10;" x1="193.063" y1="239.641" x2="193.063" y2="290.853"/>
				
					<rect x="136.513" y="232.441" style="fill:#43486F;stroke:#3B4063;stroke-width:1.5;stroke-linecap:round;stroke-linejoin:round;stroke-miterlimit:10;" width="154.155" height="13.325"/>
				<rect x="136.513" y="238.95" style="fill:#ADBCC5;" width="154.155" height="6.816"/>
			</g>
		</g>
		<g>
			<rect x="144.544" y="215.779" style="fill:#43486F;" width="49.889" height="2.504"/>
			<rect x="144.544" y="189.168" style="fill:#43486F;" width="49.889" height="2.503"/>
			<g>
				<g>
					<path style="fill:#43486F;" d="M173.347,205.441L173.347,205.441l-4.624-11.294c-0.265-0.648-0.897-1.072-1.599-1.072h-1.255
						c-0.702,0-1.334,0.423-1.6,1.072l-4.62,11.288c-0.002,0.004-0.003,0.008-0.008,0.013l-2.828,6.913
						c-0.363,0.883,0.061,1.892,0.942,2.252c0.215,0.088,0.437,0.13,0.652,0.13c0.681,0,1.326-0.405,1.6-1.072l2.389-5.832h8.202
						l2.386,5.832c0.364,0.882,1.371,1.306,2.252,0.942c0.884-0.36,1.306-1.369,0.945-2.252L173.347,205.441z M163.809,204.385
						l2.688-6.563l2.687,6.563H163.809z"/>
					<path style="fill:#43486F;" d="M193.338,193.331c-0.771-0.565-1.85-0.396-2.413,0.37l-5.337,7.282l-4.889-7.228
						c-0.535-0.79-1.607-0.997-2.396-0.461c-0.79,0.533-0.999,1.606-0.464,2.396l5.582,8.25l-5.961,8.134
						c-0.564,0.768-0.396,1.848,0.371,2.412c0.309,0.226,0.666,0.335,1.02,0.335c0.53,0,1.055-0.246,1.395-0.706l5.23-7.138
						l4.792,7.083c0.335,0.495,0.878,0.761,1.433,0.761c0.333,0,0.669-0.097,0.964-0.298c0.791-0.533,0.998-1.606,0.462-2.396
						l-5.483-8.107l6.065-8.276C194.273,194.975,194.106,193.895,193.338,193.331z"/>
					<path style="fill:#43486F;" d="M158.498,196.689c0.953,0,1.726-0.772,1.726-1.728c0-0.954-0.773-1.724-1.726-1.724H146.49
						c-0.955,0-1.728,0.77-1.728,1.724c0,0.956,0.773,1.728,1.728,1.728h4.274v16.057c0,0.953,0.775,1.727,1.728,1.727
						c0.954,0,1.728-0.774,1.728-1.727v-16.057H158.498z"/>
				</g>
			</g>
		</g>
		
			<rect x="204.633" y="197.904" style="fill:#8CC0E8;stroke:#3B4063;stroke-width:1.5;stroke-linecap:round;stroke-linejoin:round;stroke-miterlimit:10;" width="75.565" height="16.91"/>
		<rect x="204.633" y="207.499" style="fill:#A6CADB;" width="75.565" height="7.315"/>
		
			<polygon style="fill:#CDCFD0;stroke:#3B4063;stroke-width:1.5;stroke-linecap:round;stroke-linejoin:round;stroke-miterlimit:10;" points="
			283.828,163.559 283.791,189.336 309.083,189.407 		"/>
	</g>
	
		<polygon style="fill:#FFD03F;stroke:#3F4469;stroke-width:1.5;stroke-linecap:round;stroke-linejoin:round;stroke-miterlimit:10;" points="
		270.783,420.07 214.423,378.6 158.335,420.07 	"/>
	
		<polygon style="fill:#FFD03F;stroke:#3F4469;stroke-width:1.5;stroke-linecap:round;stroke-linejoin:round;stroke-miterlimit:10;" points="
		158.486,420.07 214.426,378.798 87.93,285.467 87.93,420.07 	"/>
	
		<polygon style="fill:#FFD03F;stroke:#3F4469;stroke-width:1.5;stroke-linecap:round;stroke-linejoin:round;stroke-miterlimit:10;" points="
		340.92,420.07 340.92,285.467 214.423,378.798 270.363,420.07 	"/>
	<path style="fill:#E3D3BE;" d="M320.366,420.07h21.164V285.467l-10.363,6.49l-10.966,7.467
		C320.179,304.471,321.129,401.017,320.366,420.07z"/>
</g>
<g>
	<path style="fill:#E6E7E8;stroke:#3B4063;stroke-width:1.5;stroke-linecap:round;stroke-linejoin:round;stroke-miterlimit:10;" d="
		M139.268,128.948c0,20.785-16.849,37.634-37.634,37.634C80.85,166.582,64,149.733,64,128.948c0-20.785,16.85-37.634,37.635-37.634
		C122.42,91.314,139.268,108.163,139.268,128.948z"/>
	<g>
		<path style="fill:#FFFFFF;" d="M124.49,130.034c0,12.751-10.337,23.088-23.088,23.088c-12.751,0-23.088-10.337-23.088-23.088
			c0-12.751,10.337-23.089,23.088-23.089C114.153,106.945,124.49,117.283,124.49,130.034z"/>
		
			<path style="fill:#F05382;stroke:#3B4063;stroke-width:1.5;stroke-linecap:round;stroke-linejoin:round;stroke-miterlimit:10;" d="
			M126.979,129.822c0,14.15-11.471,25.621-25.621,25.621c-14.149,0-25.62-11.47-25.62-25.621c0-14.149,11.471-25.62,25.62-25.62
			C115.508,104.203,126.979,115.673,126.979,129.822z"/>
		
			<path style="fill:#FFFFFF;stroke:#3F4469;stroke-width:1.5;stroke-linecap:round;stroke-linejoin:round;stroke-miterlimit:10;" d="
			M122.827,129.822c0,11.857-9.611,21.468-21.469,21.468c-11.856,0-21.467-9.611-21.467-21.468c0-11.856,9.611-21.468,21.467-21.468
			C113.215,108.354,122.827,117.966,122.827,129.822z"/>
		<path style="fill:#CBDAE3;" d="M101.358,108.381c-11.841,0-21.441,9.599-21.441,21.441c0,11.843,9.6,21.442,21.441,21.442
			c11.844,0,21.442-9.6,21.442-21.442C122.8,117.98,113.202,108.381,101.358,108.381z M101.358,148.721
			c-10.437,0-18.897-8.461-18.897-18.898c0-10.437,8.461-18.898,18.897-18.898c10.437,0,18.899,8.461,18.899,18.898
			C120.257,140.259,111.795,148.721,101.358,148.721z"/>
		<path style="fill:#E0D0D8;" d="M101.358,104.23c-14.134,0-25.592,11.458-25.592,25.592c0,14.136,11.458,25.593,25.592,25.593
			c14.136,0,25.593-11.458,25.593-25.593C126.951,115.688,115.494,104.23,101.358,104.23z M101.358,153.6
			c-13.132,0-23.777-10.645-23.777-23.778c0-13.132,10.645-23.777,23.777-23.777c13.132,0,23.779,10.646,23.779,23.777
			C125.137,142.955,114.49,153.6,101.358,153.6z"/>
		<g>
			<g>
				<g>
					<g>
						<g>
							<path style="fill:#43486F;" d="M101.358,115.511c-0.29,0-0.525-0.235-0.525-0.525v-4.103c0-0.29,0.235-0.525,0.525-0.525
								c0.291,0,0.528,0.235,0.528,0.525v4.103C101.886,115.276,101.649,115.511,101.358,115.511z"/>
						</g>
					</g>
					<g>
						<g>
							<path style="fill:#43486F;" d="M101.358,149.288c-0.29,0-0.525-0.236-0.525-0.526v-4.103c0-0.291,0.235-0.526,0.525-0.526
								c0.291,0,0.528,0.235,0.528,0.526v4.103C101.886,149.052,101.649,149.288,101.358,149.288z"/>
						</g>
					</g>
				</g>
				<g>
					<g>
						<g>
							<path style="fill:#43486F;" d="M86.523,130.348h-4.104c-0.29,0-0.524-0.235-0.524-0.526c0-0.29,0.235-0.525,0.524-0.525
								h4.104c0.289,0,0.524,0.236,0.524,0.525C87.047,130.113,86.812,130.348,86.523,130.348z"/>
						</g>
					</g>
					<g>
						<g>
							<path style="fill:#43486F;" d="M120.298,130.348h-4.103c-0.29,0-0.525-0.235-0.525-0.526c0-0.29,0.235-0.525,0.525-0.525
								h4.103c0.292,0,0.525,0.236,0.525,0.525C120.824,130.113,120.59,130.348,120.298,130.348z"/>
						</g>
					</g>
				</g>
			</g>
		</g>
		<g>
			<rect x="101.063" y="129.423" style="fill:#3B4063;" width="14.052" height="0.272"/>
			<path style="fill:#3B4063;" d="M103.03,129.557c0-0.981-0.795-1.777-1.776-1.777c-0.155,0-0.305,0.022-0.448,0.06l-5.503-8.677
				l-1.1,0.697l5.551,8.751c-0.175,0.274-0.275,0.598-0.275,0.945c0,0.869,0.624,1.591,1.449,1.744v12.466h0.79V131.27
				C102.475,131.065,103.03,130.376,103.03,129.557z"/>
		</g>
	</g>
</g>
<g>
	
		<ellipse transform="matrix(0.2298 -0.9732 0.9732 0.2298 69.484 275.9308)" style="fill:#E6E7E8;stroke:#3B4063;stroke-width:1.5;stroke-linecap:round;stroke-linejoin:round;stroke-miterlimit:10;" cx="209.069" cy="94.067" rx="37.634" ry="37.634"/>
	<g>
		
			<rect x="184.292" y="73.934" style="fill:#E6E7E8;stroke:#3B4063;stroke-width:1.5;stroke-linecap:round;stroke-linejoin:round;stroke-miterlimit:10;" width="48.525" height="39.625"/>
		<path style="fill:#CBDAE3;" d="M230.481,73.892c0.134,2.661,0.153,23.728,0.246,27.241c0.047,1.817,0.166,8.082-1.021,9.312
			c-1.144,1.185-4.296,0.883-6.313,0.829c-2.69-0.073-39.101-0.28-39.101-0.28v2.565h48.525V73.934L230.481,73.892z"/>
		
			<rect x="184.292" y="73.934" style="fill:#F05382;stroke:#3B4063;stroke-width:1.5;stroke-linecap:round;stroke-linejoin:round;stroke-miterlimit:10;" width="48.525" height="11.866"/>
		<path style="fill:#E0D0D8;" d="M231.276,73.934c-0.074,1.2,0.177,6.78-0.575,7.96c-0.867,1.361-2.54,1.402-3.998,1.479
			c-2.885,0.149-31.161-0.017-42.412-0.052v2.479h48.525V73.934H231.276z"/>
		<g>
			<g>
				<g>
					
						<path style="fill:#8CC0E8;stroke:#3B4063;stroke-width:1.5;stroke-linecap:round;stroke-linejoin:round;stroke-miterlimit:10;" d="
						M189.309,75.268c-0.72-0.031-1.285-0.622-1.285-1.343c0-0.741,0.605-1.344,1.345-1.344c0.686,0,1.286,0.6,1.341,1.323h0.837
						c-0.057-1.175-1.044-2.161-2.178-2.161c-1.204,0-2.181,0.979-2.181,2.182c0,1.17,0.914,2.128,2.084,2.179
						c0.006,0,0.013,0.001,0.018,0.001c0.223,0,0.408-0.176,0.418-0.399C189.719,75.474,189.541,75.279,189.309,75.268z"/>
				</g>
			</g>
			<g>
				<g>
					
						<path style="fill:#8CC0E8;stroke:#3B4063;stroke-width:1.5;stroke-linecap:round;stroke-linejoin:round;stroke-miterlimit:10;" d="
						M194.255,75.268c-0.721-0.031-1.285-0.622-1.285-1.343c0-0.741,0.603-1.344,1.344-1.344c0.686,0,1.287,0.6,1.342,1.323h0.837
						c-0.056-1.175-1.044-2.161-2.179-2.161c-1.203,0-2.181,0.979-2.181,2.182c0,1.17,0.915,2.128,2.084,2.179
						c0.007,0,0.013,0.001,0.02,0.001c0.223,0,0.409-0.176,0.417-0.399C194.666,75.474,194.486,75.279,194.255,75.268z"/>
				</g>
			</g>
			<g>
				<g>
					
						<path style="fill:#8CC0E8;stroke:#3B4063;stroke-width:1.5;stroke-linecap:round;stroke-linejoin:round;stroke-miterlimit:10;" d="
						M199.201,75.268c-0.72-0.031-1.284-0.622-1.284-1.343c0-0.741,0.604-1.344,1.345-1.344c0.686,0,1.286,0.6,1.342,1.323h0.837
						c-0.056-1.175-1.045-2.161-2.178-2.161c-1.203,0-2.182,0.979-2.182,2.182c0,1.17,0.916,2.128,2.086,2.179
						c0.005,0,0.012,0.001,0.018,0.001c0.221,0,0.408-0.176,0.417-0.399C199.611,75.474,199.432,75.279,199.201,75.268z"/>
				</g>
			</g>
		</g>
		<g>
			<g>
				<g>
					
						<path style="fill:#8CC0E8;stroke:#3B4063;stroke-width:1.5;stroke-linecap:round;stroke-linejoin:round;stroke-miterlimit:10;" d="
						M227.629,75.303c0.721-0.031,1.285-0.622,1.285-1.343c0-0.741-0.604-1.344-1.344-1.344c-0.687,0-1.286,0.599-1.342,1.323
						h-0.837c0.056-1.175,1.045-2.16,2.179-2.16c1.202,0,2.181,0.979,2.181,2.181c0,1.171-0.915,2.128-2.083,2.179
						c-0.009,0-0.014,0.001-0.021,0.001c-0.223,0-0.408-0.176-0.417-0.4C227.221,75.509,227.399,75.313,227.629,75.303z"/>
				</g>
			</g>
			<g>
				<g>
					
						<path style="fill:#8CC0E8;stroke:#3B4063;stroke-width:1.5;stroke-linecap:round;stroke-linejoin:round;stroke-miterlimit:10;" d="
						M222.684,75.303c0.719-0.031,1.284-0.622,1.284-1.343c0-0.741-0.602-1.344-1.344-1.344c-0.686,0-1.286,0.599-1.341,1.323
						h-0.837c0.056-1.175,1.045-2.16,2.179-2.16c1.203,0,2.182,0.979,2.182,2.181c0,1.171-0.917,2.128-2.087,2.179
						c-0.005,0-0.012,0.001-0.017,0.001c-0.224,0-0.409-0.176-0.419-0.4C222.274,75.509,222.454,75.313,222.684,75.303z"/>
				</g>
			</g>
			<g>
				<g>
					
						<path style="fill:#8CC0E8;stroke:#3B4063;stroke-width:1.5;stroke-linecap:round;stroke-linejoin:round;stroke-miterlimit:10;" d="
						M217.738,75.303c0.72-0.031,1.285-0.622,1.285-1.343c0-0.741-0.603-1.344-1.345-1.344c-0.687,0-1.287,0.599-1.341,1.323h-0.838
						c0.057-1.175,1.047-2.16,2.18-2.16c1.204,0,2.182,0.979,2.182,2.181c0,1.171-0.917,2.128-2.085,2.179
						c-0.006,0-0.012,0.001-0.018,0.001c-0.223,0-0.408-0.176-0.419-0.4C217.328,75.509,217.507,75.313,217.738,75.303z"/>
				</g>
			</g>
		</g>
		<g>
			<g>
				
					<rect x="187.368" y="89.902" style="fill:#8CC0E8;stroke:#3B4063;stroke-width:1.5;stroke-linecap:round;stroke-linejoin:round;stroke-miterlimit:10;" width="4.914" height="4.339"/>
				
					<rect x="194.716" y="89.902" style="fill:#8CC0E8;stroke:#3B4063;stroke-width:1.5;stroke-linecap:round;stroke-linejoin:round;stroke-miterlimit:10;" width="4.914" height="4.339"/>
				
					<rect x="202.064" y="89.902" style="fill:#8CC0E8;stroke:#3B4063;stroke-width:1.5;stroke-linecap:round;stroke-linejoin:round;stroke-miterlimit:10;" width="4.913" height="4.339"/>
				
					<rect x="209.413" y="89.902" style="fill:#8CC0E8;stroke:#3B4063;stroke-width:1.5;stroke-linecap:round;stroke-linejoin:round;stroke-miterlimit:10;" width="4.914" height="4.339"/>
				
					<rect x="216.763" y="89.902" style="fill:#8CC0E8;stroke:#3B4063;stroke-width:1.5;stroke-linecap:round;stroke-linejoin:round;stroke-miterlimit:10;" width="4.912" height="4.339"/>
				
					<rect x="224.11" y="89.902" style="fill:#8CC0E8;stroke:#3B4063;stroke-width:1.5;stroke-linecap:round;stroke-linejoin:round;stroke-miterlimit:10;" width="4.913" height="4.339"/>
			</g>
		</g>
		<g>
			<g>
				
					<rect x="187.368" y="97.277" style="fill:#8CC0E8;stroke:#3B4063;stroke-width:1.5;stroke-linecap:round;stroke-linejoin:round;stroke-miterlimit:10;" width="4.914" height="4.339"/>
				
					<rect x="194.716" y="97.277" style="fill:#8CC0E8;stroke:#3B4063;stroke-width:1.5;stroke-linecap:round;stroke-linejoin:round;stroke-miterlimit:10;" width="4.914" height="4.339"/>
				
					<rect x="202.064" y="97.277" style="fill:#8CC0E8;stroke:#3B4063;stroke-width:1.5;stroke-linecap:round;stroke-linejoin:round;stroke-miterlimit:10;" width="4.913" height="4.339"/>
				
					<rect x="209.413" y="97.277" style="fill:#8CC0E8;stroke:#3B4063;stroke-width:1.5;stroke-linecap:round;stroke-linejoin:round;stroke-miterlimit:10;" width="4.914" height="4.339"/>
				
					<rect x="216.763" y="97.277" style="fill:#8CC0E8;stroke:#3B4063;stroke-width:1.5;stroke-linecap:round;stroke-linejoin:round;stroke-miterlimit:10;" width="4.912" height="4.339"/>
				
					<rect x="224.11" y="97.277" style="fill:#8CC0E8;stroke:#3B4063;stroke-width:1.5;stroke-linecap:round;stroke-linejoin:round;stroke-miterlimit:10;" width="4.913" height="4.339"/>
			</g>
		</g>
		<g>
			<g>
				
					<rect x="187.347" y="104.89" style="fill:#8CC0E8;stroke:#3B4063;stroke-width:1.5;stroke-linecap:round;stroke-linejoin:round;stroke-miterlimit:10;" width="4.913" height="4.34"/>
				
					<rect x="194.694" y="104.89" style="fill:#8CC0E8;stroke:#3B4063;stroke-width:1.5;stroke-linecap:round;stroke-linejoin:round;stroke-miterlimit:10;" width="4.913" height="4.34"/>
				
					<rect x="202.043" y="104.89" style="fill:#8CC0E8;stroke:#3B4063;stroke-width:1.5;stroke-linecap:round;stroke-linejoin:round;stroke-miterlimit:10;" width="4.913" height="4.34"/>
				
					<rect x="209.391" y="104.89" style="fill:#8CC0E8;stroke:#3B4063;stroke-width:1.5;stroke-linecap:round;stroke-linejoin:round;stroke-miterlimit:10;" width="4.915" height="4.34"/>
				
					<rect x="216.741" y="104.89" style="fill:#8CC0E8;stroke:#3B4063;stroke-width:1.5;stroke-linecap:round;stroke-linejoin:round;stroke-miterlimit:10;" width="4.912" height="4.34"/>
				
					<rect x="224.089" y="104.89" style="fill:#8CC0E8;stroke:#3B4063;stroke-width:1.5;stroke-linecap:round;stroke-linejoin:round;stroke-miterlimit:10;" width="4.913" height="4.34"/>
			</g>
		</g>
		<g>
			<g>
				<rect x="187.368" y="92.393" style="fill:#CBDAE3;" width="4.914" height="1.849"/>
				<rect x="194.716" y="92.393" style="fill:#CBDAE3;" width="4.914" height="1.849"/>
				<rect x="202.064" y="92.393" style="fill:#CBDAE3;" width="4.913" height="1.849"/>
				<rect x="209.413" y="92.393" style="fill:#CBDAE3;" width="4.914" height="1.849"/>
				<rect x="216.763" y="92.393" style="fill:#CBDAE3;" width="4.912" height="1.849"/>
				<rect x="224.11" y="92.393" style="fill:#CBDAE3;" width="4.913" height="1.849"/>
			</g>
		</g>
		<g>
			<g>
				<rect x="187.368" y="99.745" style="fill:#CBDAE3;" width="4.914" height="1.872"/>
				<rect x="194.716" y="99.745" style="fill:#CBDAE3;" width="4.914" height="1.872"/>
				<rect x="202.064" y="99.745" style="fill:#CBDAE3;" width="4.913" height="1.872"/>
				<rect x="209.413" y="99.745" style="fill:#CBDAE3;" width="4.914" height="1.872"/>
				<rect x="216.763" y="99.745" style="fill:#CBDAE3;" width="4.912" height="1.872"/>
				<rect x="224.11" y="99.745" style="fill:#CBDAE3;" width="4.913" height="1.872"/>
			</g>
		</g>
		<g>
			<g>
				<rect x="187.347" y="107.341" style="fill:#CBDAE3;" width="4.913" height="1.889"/>
				<rect x="194.694" y="107.341" style="fill:#CBDAE3;" width="4.913" height="1.889"/>
				<rect x="202.043" y="107.341" style="fill:#CBDAE3;" width="4.913" height="1.889"/>
				<rect x="209.391" y="107.341" style="fill:#CBDAE3;" width="4.915" height="1.889"/>
				<rect x="216.741" y="107.341" style="fill:#CBDAE3;" width="4.912" height="1.889"/>
				<rect x="224.089" y="107.341" style="fill:#CBDAE3;" width="4.913" height="1.889"/>
			</g>
		</g>
	</g>
</g>
<g>
	
		<ellipse transform="matrix(0.2117 -0.9773 0.9773 0.2117 129.4161 418.3456)" style="fill:#E6E7E8;stroke:#3B4063;stroke-width:1.5;stroke-linecap:round;stroke-linejoin:round;stroke-miterlimit:10;" cx="324.04" cy="128.948" rx="37.634" ry="37.634"/>
	<g>
		<g>
			
				<path style="fill:#F05382;stroke:#3B4063;stroke-width:1.5;stroke-linecap:round;stroke-linejoin:round;stroke-miterlimit:10;" d="
				M327.376,109.394c0,0,2.357-7.286,7.468-7.286c0,0-0.366,7.695,1.628,9.99L327.376,109.394z"/>
			<path style="fill:#E0D0D8;" d="M332.005,104.78c0.645-1.031,1.394-2.011,2.359-2.65c-4.779,0.435-6.988,7.264-6.988,7.264
				l2.813,0.836C330.318,108.295,330.873,106.59,332.005,104.78z"/>
		</g>
		<path style="fill:none;stroke:#3B4063;stroke-width:1.5;stroke-linecap:round;stroke-linejoin:round;stroke-miterlimit:10;" d="
			M299.326,127.672c0,0-2.547-2.366-6.067-0.485c-3.517,1.88-0.121,4.671,1.881,3.093c2.001-1.577-0.487-6.02-6.129-4.442"/>
		<path style="fill:#263642;" d="M339.59,122.424c0,0.931-0.754,1.686-1.684,1.686c-0.933,0-1.687-0.755-1.687-1.686
			c0-0.931,0.754-1.686,1.687-1.686C338.836,120.738,339.59,121.493,339.59,122.424z"/>
		
			<path style="fill:#F05382;stroke:#3B4063;stroke-width:1.5;stroke-linecap:round;stroke-linejoin:round;stroke-miterlimit:10;" d="
			M351.394,123.695c0,0-4.022,1.03-4.434,0c-3.906-9.779-11.738-15.162-23.542-15.162c-16.577,0-25.128,9.184-24.927,20.506
			c0.179,10.173,5.881,15.317,9.04,17.708c1.532,1.159,0.786,7.37,0.786,7.37l9.266,0.022c0,0,0.002-4.135,0.52-4.824
			c0.58-0.773,5.161-0.69,5.74-0.055c0.823,0.901,0.442,4.879,0.442,4.879h9.563c0,0-0.358-4.783,0.76-6.315
			c1.221-1.672,8.984-0.828,12.2-13.332c0.287-1.117,4.585-0.499,4.585-0.499V123.695z"/>
		<path style="fill:#3B4063;" d="M339.66,122.238c0,1.052-0.853,1.905-1.906,1.905c-1.051,0-1.904-0.854-1.904-1.905
			c0-1.052,0.853-1.905,1.904-1.905C338.807,120.333,339.66,121.186,339.66,122.238z"/>
		<path style="fill:none;stroke:#3B4063;stroke-width:1.5;stroke-linecap:round;stroke-linejoin:round;stroke-miterlimit:10;" d="
			M314.361,112.575c1.502-0.566,5.21-1.646,10.026-0.835"/>
		<g>
			<path style="fill:#E0D0D8;" d="M311.207,152.611c0,0,0.746-6.21-0.786-7.37c-3.159-2.391-8.859-7.535-9.04-17.708
				c-0.12-6.693,2.827-12.631,8.676-16.371c-7.752,3.498-11.684,10.206-11.547,17.916c0.181,10.173,5.881,15.317,9.041,17.708
				c1.532,1.159,0.787,7.37,0.787,7.37l9.265,0.022c0,0,0-0.689,0.036-1.553L311.207,152.611z"/>
			<path style="fill:#E0D0D8;" d="M327.175,152.633c0,0,0.456-5.571-6.474-3.832c1.382-0.026,2.851,0.156,3.162,0.497
				c0.823,0.902,0.441,4.88,0.441,4.88h9.564c0,0-0.048-0.649-0.054-1.545H327.175z"/>
		</g>
		<g>
			
				<path style="fill:#5564AE;stroke:#3B4063;stroke-width:1.5;stroke-linecap:round;stroke-linejoin:round;stroke-miterlimit:10;" d="
				M353.171,128.762c0,2.89-0.801,5.231-1.788,5.231c-0.986,0-1.787-2.342-1.787-5.231c0-2.89,0.801-5.231,1.787-5.231
				C352.37,123.53,353.171,125.872,353.171,128.762z"/>
			<path style="fill:#AAC8D8;" d="M352.432,132.815c-0.986,0-1.787-2.342-1.787-5.231c0-1.578,0.24-2.988,0.617-3.948
				c-0.917,0.223-1.638,2.467-1.638,5.21c0,2.889,0.8,5.23,1.788,5.23c0.447,0,0.856-0.486,1.171-1.284
				C352.532,132.806,352.483,132.815,352.432,132.815z"/>
		</g>
	</g>
</g>
<g>
	<path style="fill:#E6E7E8;stroke:#3B4063;stroke-width:1.5;stroke-linecap:round;stroke-linejoin:round;stroke-miterlimit:10;" d="
		M113.583,235.036c0,20.785-16.849,37.634-37.634,37.634c-20.785,0-37.635-16.849-37.635-37.634
		c0-20.785,16.85-37.634,37.635-37.634C96.734,197.401,113.583,214.251,113.583,235.036z"/>
	<g>
		
			<path style="fill:#FFD03F;stroke:#3F4469;stroke-width:1.5;stroke-linecap:round;stroke-linejoin:round;stroke-miterlimit:10;" d="
			M100.501,234.06c0,13.841-11.221,25.06-25.06,25.06c-13.842,0-25.062-11.219-25.062-25.06c0-13.841,11.22-25.062,25.062-25.062
			C89.28,208.998,100.501,220.219,100.501,234.06z"/>
		<g>
			<path style="fill:#3F4469;" d="M94.454,234.058c0,10.501-8.511,19.015-19.012,19.015c-10.501,0-19.015-8.513-19.015-19.015
				c0-10.501,8.514-19.014,19.015-19.014C85.942,215.044,94.454,223.558,94.454,234.058z"/>
			<path style="fill:#FFD03F;" d="M76.099,232.08c-1.902-0.105-4.169-0.576-4.169-2.209c0-1.841,1.279-2.897,3.51-2.897
				c1.936,0,3.511,1.302,3.511,2.897h5.626c0-3.214-2.871-5.926-6.76-6.724v-2.135h-4.728v2.089
				c-4.092,0.712-6.787,3.297-6.787,6.77c0,3.491,3.676,5.949,9.363,6.267c2.749,0.153,3.286,0.926,3.286,2.209
				c0,1.304-1.619,2.895-3.511,2.895c-1.934,0-3.51-1.298-3.51-2.895h-5.627c0,3.221,2.884,5.939,6.787,6.732v2.027h4.728v-2.055
				c3.8-0.843,6.76-3.614,6.76-6.704C84.577,234.665,81.486,232.382,76.099,232.08z"/>
		</g>
		<path style="fill:#F4FBFE;" d="M91.648,214.961c-3.209-2.542-5.434-3.542-5.434-3.542s-27.028,38.136-28.69,40.146
			c1.156,1.182,3.063,2.635,4.43,3.572C62.876,253.599,91.648,214.961,91.648,214.961z"/>
		<path style="fill:#F4FBFE;" d="M95.967,219.717c0,0-0.727-1.407-2.386-3.208c0,0-27.515,37.309-29.185,39.846
			c2.471,1.245,3.525,1.453,3.525,1.453L95.967,219.717z"/>
	</g>
</g>
<g>
	<path style="fill:#E6E7E8;stroke:#3B4063;stroke-width:1.5;stroke-linecap:round;stroke-linejoin:round;stroke-miterlimit:10;" d="
		M387.982,235.036c0,20.785-16.85,37.634-37.635,37.634c-20.784,0-37.633-16.849-37.633-37.634
		c0-20.785,16.849-37.634,37.633-37.634C371.132,197.401,387.982,214.251,387.982,235.036z"/>
	<g>
		
			<rect x="327.603" y="211.604" style="fill:#E6E7E8;stroke:#3B4063;stroke-width:1.5;stroke-linecap:round;stroke-linejoin:round;stroke-miterlimit:10;" width="46.584" height="47.411"/>
		<g>
			
				<rect x="329.948" y="226.874" style="fill:#FFD03F;stroke:#3F4469;stroke-width:1.5;stroke-linecap:round;stroke-linejoin:round;stroke-miterlimit:10;" width="6.856" height="2.044"/>
			
				<rect x="338.62" y="226.874" style="fill:#FFD03F;stroke:#3F4469;stroke-width:1.5;stroke-linecap:round;stroke-linejoin:round;stroke-miterlimit:10;" width="6.855" height="2.044"/>
			
				<rect x="347.293" y="226.874" style="fill:#8CC0E8;stroke:#3B4063;stroke-width:1.5;stroke-linecap:round;stroke-linejoin:round;stroke-miterlimit:10;" width="6.856" height="2.044"/>
			
				<rect x="355.966" y="226.874" style="fill:#8CC0E8;stroke:#3B4063;stroke-width:1.5;stroke-linecap:round;stroke-linejoin:round;stroke-miterlimit:10;" width="6.855" height="2.044"/>
			
				<rect x="364.638" y="226.874" style="fill:#8CC0E8;stroke:#3B4063;stroke-width:1.5;stroke-linecap:round;stroke-linejoin:round;stroke-miterlimit:10;" width="6.856" height="2.044"/>
		</g>
		
			<rect x="330.097" y="232.247" style="fill:#F05382;stroke:#3B4063;stroke-width:1.5;stroke-linecap:round;stroke-linejoin:round;stroke-miterlimit:10;" width="4.646" height="4.646"/>
		
			<rect x="337.478" y="232.247" style="fill:#F05382;stroke:#3B4063;stroke-width:1.5;stroke-linecap:round;stroke-linejoin:round;stroke-miterlimit:10;" width="4.646" height="4.646"/>
		
			<rect x="344.86" y="232.247" style="fill:#F05382;stroke:#3B4063;stroke-width:1.5;stroke-linecap:round;stroke-linejoin:round;stroke-miterlimit:10;" width="4.647" height="4.646"/>
		
			<rect x="352.243" y="232.247" style="fill:#8CC0E8;stroke:#3B4063;stroke-width:1.5;stroke-linecap:round;stroke-linejoin:round;stroke-miterlimit:10;" width="4.646" height="4.646"/>
		
			<rect x="359.624" y="232.247" style="fill:#8CC0E8;stroke:#3B4063;stroke-width:1.5;stroke-linecap:round;stroke-linejoin:round;stroke-miterlimit:10;" width="4.647" height="4.646"/>
		
			<rect x="367.007" y="232.247" style="fill:#8CC0E8;stroke:#3B4063;stroke-width:1.5;stroke-linecap:round;stroke-linejoin:round;stroke-miterlimit:10;" width="4.647" height="4.646"/>
		
			<rect x="330.097" y="238.524" style="fill:#F05382;stroke:#3B4063;stroke-width:1.5;stroke-linecap:round;stroke-linejoin:round;stroke-miterlimit:10;" width="4.646" height="4.646"/>
		
			<rect x="337.478" y="238.524" style="fill:#F05382;stroke:#3B4063;stroke-width:1.5;stroke-linecap:round;stroke-linejoin:round;stroke-miterlimit:10;" width="4.646" height="4.646"/>
		
			<rect x="344.86" y="238.524" style="fill:#F05382;stroke:#3B4063;stroke-width:1.5;stroke-linecap:round;stroke-linejoin:round;stroke-miterlimit:10;" width="4.647" height="4.646"/>
		
			<rect x="352.243" y="238.524" style="fill:#8CC0E8;stroke:#3B4063;stroke-width:1.5;stroke-linecap:round;stroke-linejoin:round;stroke-miterlimit:10;" width="4.646" height="4.646"/>
		
			<rect x="359.624" y="238.524" style="fill:#8CC0E8;stroke:#3B4063;stroke-width:1.5;stroke-linecap:round;stroke-linejoin:round;stroke-miterlimit:10;" width="4.647" height="4.646"/>
		
			<rect x="367.007" y="238.524" style="fill:#8CC0E8;stroke:#3B4063;stroke-width:1.5;stroke-linecap:round;stroke-linejoin:round;stroke-miterlimit:10;" width="4.647" height="4.646"/>
		
			<rect x="330.097" y="244.802" style="fill:#F05382;stroke:#3B4063;stroke-width:1.5;stroke-linecap:round;stroke-linejoin:round;stroke-miterlimit:10;" width="4.646" height="4.647"/>
		
			<rect x="337.478" y="244.802" style="fill:#F05382;stroke:#3B4063;stroke-width:1.5;stroke-linecap:round;stroke-linejoin:round;stroke-miterlimit:10;" width="4.646" height="4.647"/>
		
			<rect x="344.86" y="244.802" style="fill:#F05382;stroke:#3B4063;stroke-width:1.5;stroke-linecap:round;stroke-linejoin:round;stroke-miterlimit:10;" width="4.647" height="4.647"/>
		
			<rect x="352.243" y="244.802" style="fill:#8CC0E8;stroke:#3B4063;stroke-width:1.5;stroke-linecap:round;stroke-linejoin:round;stroke-miterlimit:10;" width="4.646" height="4.647"/>
		
			<rect x="359.624" y="244.802" style="fill:#8CC0E8;stroke:#3B4063;stroke-width:1.5;stroke-linecap:round;stroke-linejoin:round;stroke-miterlimit:10;" width="4.647" height="4.647"/>
		
			<rect x="367.007" y="244.802" style="fill:#8CC0E8;stroke:#3B4063;stroke-width:1.5;stroke-linecap:round;stroke-linejoin:round;stroke-miterlimit:10;" width="4.647" height="4.647"/>
		
			<rect x="330.097" y="251.079" style="fill:#8CC0E8;stroke:#3B4063;stroke-width:1.5;stroke-linecap:round;stroke-linejoin:round;stroke-miterlimit:10;" width="4.646" height="4.647"/>
		
			<rect x="337.478" y="251.079" style="fill:#8CC0E8;stroke:#3B4063;stroke-width:1.5;stroke-linecap:round;stroke-linejoin:round;stroke-miterlimit:10;" width="4.646" height="4.647"/>
		
			<rect x="344.86" y="251.079" style="fill:#8CC0E8;stroke:#3B4063;stroke-width:1.5;stroke-linecap:round;stroke-linejoin:round;stroke-miterlimit:10;" width="4.647" height="4.647"/>
		
			<rect x="352.243" y="251.079" style="fill:#8CC0E8;stroke:#3B4063;stroke-width:1.5;stroke-linecap:round;stroke-linejoin:round;stroke-miterlimit:10;" width="4.646" height="4.647"/>
		
			<rect x="359.624" y="251.079" style="fill:#8CC0E8;stroke:#3B4063;stroke-width:1.5;stroke-linecap:round;stroke-linejoin:round;stroke-miterlimit:10;" width="4.647" height="4.647"/>
		
			<rect x="367.007" y="251.079" style="fill:#8CC0E8;stroke:#3B4063;stroke-width:1.5;stroke-linecap:round;stroke-linejoin:round;stroke-miterlimit:10;" width="4.647" height="4.647"/>
		<g>
			<g>
				<g>
					<rect x="329.948" y="227.793" style="fill:#D0CCAE;" width="6.856" height="1.125"/>
				</g>
				<g>
					<rect x="338.62" y="227.793" style="fill:#D0CCAE;" width="6.855" height="1.125"/>
				</g>
				<rect x="347.293" y="227.793" style="fill:#BFD1DB;" width="6.856" height="1.125"/>
				<rect x="355.966" y="227.793" style="fill:#BFD1DB;" width="6.855" height="1.125"/>
				<rect x="364.638" y="227.793" style="fill:#BFD1DB;" width="6.856" height="1.125"/>
			</g>
		</g>
		<rect x="330.097" y="234.566" style="fill:#C5A4B5;" width="4.646" height="2.327"/>
		<rect x="337.478" y="234.566" style="fill:#C5A4B5;" width="4.646" height="2.327"/>
		<rect x="344.86" y="234.566" style="fill:#C5A4B5;" width="4.647" height="2.327"/>
		<rect x="352.243" y="234.566" style="fill:#BFD1DB;" width="4.646" height="2.327"/>
		<rect x="359.624" y="234.566" style="fill:#BFD1DB;" width="4.647" height="2.327"/>
		<rect x="367.007" y="234.566" style="fill:#BFD1DB;" width="4.647" height="2.327"/>
		<rect x="330.097" y="241.009" style="fill:#C5A4B5;" width="4.646" height="2.161"/>
		<rect x="337.478" y="241.009" style="fill:#C5A4B5;" width="4.646" height="2.161"/>
		<rect x="344.86" y="241.009" style="fill:#C5A4B5;" width="4.647" height="2.161"/>
		<rect x="352.243" y="241.009" style="fill:#BFD1DB;" width="4.646" height="2.161"/>
		<rect x="359.624" y="241.009" style="fill:#BFD1DB;" width="4.647" height="2.161"/>
		<rect x="367.007" y="241.009" style="fill:#BFD1DB;" width="4.647" height="2.161"/>
		<rect x="330.097" y="247.204" style="fill:#C5A4B5;" width="4.646" height="2.245"/>
		<rect x="337.478" y="247.204" style="fill:#C5A4B5;" width="4.646" height="2.245"/>
		<rect x="344.86" y="247.204" style="fill:#C5A4B5;" width="4.647" height="2.245"/>
		<rect x="352.243" y="247.204" style="fill:#BFD1DB;" width="4.646" height="2.245"/>
		<rect x="359.624" y="247.204" style="fill:#BFD1DB;" width="4.647" height="2.245"/>
		<rect x="367.007" y="247.204" style="fill:#BFD1DB;" width="4.647" height="2.245"/>
		<rect x="330.097" y="253.564" style="fill:#BFD1DB;" width="4.646" height="2.162"/>
		<rect x="337.478" y="253.564" style="fill:#BFD1DB;" width="4.646" height="2.162"/>
		<rect x="344.86" y="253.564" style="fill:#BFD1DB;" width="4.647" height="2.162"/>
		<rect x="352.243" y="253.564" style="fill:#BFD1DB;" width="4.646" height="2.162"/>
		<rect x="359.624" y="253.564" style="fill:#BFD1DB;" width="4.647" height="2.162"/>
		<rect x="367.007" y="253.564" style="fill:#BFD1DB;" width="4.647" height="2.162"/>
		<path style="fill:#CBDAE3;" d="M369.773,211.604c0.282,3.341,0.162,6.697,0.057,10.049c-0.126,3.98-0.087,7.961-0.087,11.943
			c0,3.963,0,7.925-0.072,11.888c-0.033,1.852-0.11,3.705-0.078,5.557c0.016,0.923-0.032,2.481-0.511,2.955
			c-0.748,0.741-3.651,1.013-8.69,1.095c-3.749,0.062-25.14-0.018-32.79-0.023v3.947h46.584v-47.411H369.773z"/>
		
			<rect x="327.603" y="211.604" style="fill:#43486F;stroke:#3B4063;stroke-width:1.5;stroke-linecap:round;stroke-linejoin:round;stroke-miterlimit:10;" width="46.584" height="12.555"/>
		
			<rect x="330.039" y="213.368" style="fill:#8CC0E8;stroke:#3B4063;stroke-width:1.5;stroke-linecap:round;stroke-linejoin:round;stroke-miterlimit:10;" width="41.712" height="9.027"/>
		<path style="fill:#D0DBE1;" d="M370.003,211.604c0.017,0.432,0.453,4.866-0.028,6.525c-0.451,1.555-1.73,2.167-3.284,2.259
			c-2.171,0.129-4.367,0.153-6.546,0.153c0,0-31.524-0.422-32.542-0.417v4.034h46.584v-12.555H370.003z"/>
	</g>
</g>
</svg>
