<?xml version="1.0" encoding="utf-8"?>
<!-- Generator: Adobe Illustrator 27.5.0, SVG Export Plug-In . SVG Version: 6.00 Build 0)  -->
<svg version="1.1" xmlns="http://www.w3.org/2000/svg" xmlns:xlink="http://www.w3.org/1999/xlink" x="0px" y="0px"
	 viewBox="0 0 1122 1122" style="enable-background:new 0 0 1122 1122;" xml:space="preserve">
<g id="Bg">
	<rect style="fill:#BDD7D2;" width="1122" height="1122"/>
</g>
<g id="Color">
	<path style="fill:#4B9583;" d="M651.604,303.765l-30.048,33.653l-176.679,94.95c0,0-24.037,9.616-28.844,14.423
		c-4.809,4.807-4.809,44.47-6.01,49.278c-1.202,4.807-1.202,106.968-1.202,106.968L210.509,832.598c0,0,4.807,22.837,15.625,31.249
		c10.818,8.414,162.256,110.575,162.256,110.575h174.274l234.369-289.657l-63.699-54.085c0,0,28.844-21.633,25.239-48.076
		c0,0,8.414-30.048,7.212-58.892c0,0,42.065-27.644,44.469-73.316l12.019-10.816l13.221,19.23l34.855-52.883l30.048,7.211
		c0,0,82.931-123.794,94.948-153.842c0,0-85.334-75.72-163.456-111.776c-78.124-36.056-153.843,0-153.843,0l-51.681,90.141
		l28.846,21.635l-19.23,31.249L651.604,303.765z"/>
	<path style="fill:#F4CB78;" d="M733.332,630.68c0,0,0.607-0.488,1.505-1.252c-20.064-8.971-38.378-20.298-57.213-32.537
		c-10.211-6.634-23.476-14.344-32.286-18.648c-1.537-0.75-2.477-1.202-3.184-1.476c-1.679,0.688-3.634,1.023-5.406,1.594
		c-14.373,12.962-38.799,24.196-44.862,42.627c-1.135,3.442-3.02,6.274-5.321,8.629c-0.458,0.609-0.912,1.216-1.37,1.824
		c-0.075,0.099-0.168,0.171-0.242,0.268l-1.048,1.362c-4.642,8.301-5.17,18.287-6.82,28.618c-0.786,4.912-4.409,8.599-8.847,10.699
		c-2.245,4.488-4.807,8.832-8.081,12.838c-0.991,1.214-2.111,2.227-3.192,3.297c-13.084,16.425-34.879,24.457-56.514,20.555
		c-13.81-2.489-15.463-20.078-7.659-29.008c0.451-0.516,1.028-0.885,1.519-1.353c0.451-0.66,0.782-1.4,1.341-1.984
		c1.065-1.112,3.232-2.582,5.431-4.112c0.749-0.682,1.6-1.267,2.243-2.051c3.262-3.956,5.104-8.394,9.007-11.948
		c0.532-0.485,1.135-0.665,1.69-1.071c8.832-30.412,10.735-60.289,10.604-92.938c-0.027-6.614,2.558-11.984,6.534-15.901
		c4.173-9.358,9.568-21.896,11.473-29.985c0.607-2.576,1.548-4.726,2.619-6.689c0.609-2.375,1.328-4.743,2.016-7.115
		c-8.557-4.984-17.171-9.761-24.049-17.083c-0.759,0.677-1.444,1.389-2.327,2.012c-2.506,1.768-5.216,3.84-7.915,5.907
		c-0.436,3.36-2.128,6.711-5.649,9.637c-7.093,5.899-11.971,13.695-18.524,20.148c-6.332,6.233-13.348,11.643-19.566,18.016
		c-10.824,11.097-21.588,21.836-34.08,30.679c-0.488,0.482-0.932,1.02-1.429,1.49c-1.35,1.278-2.768,2.312-4.217,3.2
		c-3.743,4.76-7.424,9.57-11.124,14.382c-2.761,3.586-6.056,5.991-9.562,7.601c0,1.318,0,2.121,0,2.121L210.509,832.598
		c0,0,4.809,22.837,15.625,31.249c10.818,8.412,162.256,110.575,162.256,110.575h174.274l234.369-289.657L733.332,630.68z"/>
	<path style="fill:#F4CB78;" d="M831.887,147.519c-78.12-36.056-153.842,0-153.842,0l-51.681,90.141l28.846,21.635l-19.23,31.248
		l13.985,11.835c12.587-1.458,26.227,0.802,40.165,8.351c1.023,0.555,2.045,1.109,3.07,1.664c6.741,1.472,13.421,3.958,19.806,7.868
		c11.286,6.912,21.495,13.981,31.086,21.197c1.046,0.625,2.222,0.973,3.229,1.679c20.151,14.144,33.876,28.451,48.579,47.931
		c4.11,5.445,7.99,11.043,11.856,16.662c3.082,4.478,17.734,23.448,3.901,6.135c9.486,11.873,15.82,23.374,18.519,37.208
		l5.318,7.735l34.855-52.885l30.046,7.212c0,0,82.931-123.794,94.948-153.842C995.344,259.296,910.01,183.576,831.887,147.519z"/>
	<polygon style="fill:#F4F3F2;" points="355.388,716.928 253.203,834.364 392.391,938.675 490.155,819.563 	"/>
</g>
<g id="Line">
	<g>
		<g>
			<g>
				<path style="fill:#5D5D5D;" d="M515.846,496.068c-86.252,84.727-168.754,172.98-244.154,267.677
					c-21.472,26.969-43.378,53.999-62.816,82.502c-0.25,0.366,0.053,0.65,0.401,0.682c-0.053,0.188-0.018,0.401,0.189,0.612
					c25.794,26.108,56.215,48.614,86.03,69.827c29.383,20.906,60.272,41.808,92.566,57.928c3.116,1.556,6.212-2.594,2.948-4.56
					c-15.503-9.34-31.513-17.801-46.937-27.305c-15.416-9.498-30.534-19.457-45.453-29.723
					c-30.517-20.995-58.688-44.695-88.099-67.121c-0.148-0.113-0.314-0.154-0.477-0.159c19.21-23.452,37.324-47.82,56.408-71.383
					c19.317-23.854,38.921-47.48,58.916-70.762c39.055-45.479,79.52-89.745,121.307-132.702
					c23.831-24.501,47.984-48.747,72.88-72.16C521.999,497.121,518.034,493.918,515.846,496.068z"/>
			</g>
			<g>
				<path style="fill:#5D5D5D;" d="M656.166,973.292c-12.741-1.06-25.567-0.317-38.318-0.296
					c-12.773,0.023-25.545,0.046-38.318,0.067c-25.309,0.044-50.618,0.09-75.926,0.134c-50.855,0.088-101.709,0.236-152.564,0.436
					c-28.85,0.113-57.727-0.191-86.569,1.142c-0.65,0.031-0.651,1.636,0,1.667c50.819,2.349,101.729,1.202,152.562,1.402
					c50.855,0.198,101.708,0.204,152.562,0.293c14.429,0.026,28.857,0.052,43.286,0.076c14.402,0.026,28.898,0.91,43.285-0.287
					C657.975,977.776,657.978,973.443,656.166,973.292z"/>
			</g>
			<g>
				<path style="fill:#5D5D5D;" d="M799.623,677.531C735.369,754.447,671.17,831.41,607.074,908.458
					c-8.984,10.799-17.885,21.678-26.744,32.582c-9.03,11.115-18.529,22.16-26.131,34.319c-0.412,0.657,0.569,1.206,1.074,0.746
					c10.084-9.233,19.276-19.602,28.189-30.199c-6.05,7.587-12.102,15.172-18.129,22.779c-0.502,0.635,0.648,1.132,1.112,0.586
					c61.608-72.642,122.033-146.285,182.602-219.792c17.06-20.703,35.064-40.891,51.291-62.25c0.24-0.316,0.374-0.634,0.427-0.947
					c1.577-1.888,3.154-3.775,4.731-5.663C808.185,677.4,802.092,674.576,799.623,677.531z"/>
			</g>
			<g>
				<path style="fill:#5D5D5D;" d="M394.684,936.003c-11.01-8.332-24.017-14.624-35.631-22.157
					c-12.768-8.281-25.294-16.924-37.554-25.942c-23.604-17.363-46.087-36.015-68.101-55.341c-0.456-0.4-1.215,0.191-0.74,0.666
					c20.865,20.844,43.536,40.049,67.149,57.716c11.2,8.38,22.631,16.454,34.271,24.213c12.14,8.089,24.893,17.735,38.314,23.519
					C393.999,939.369,396.544,937.412,394.684,936.003z"/>
			</g>
			<g>
				<path style="fill:#5D5D5D;" d="M347.61,726.547c-16.069,16.683-30.757,34.926-45.979,52.386
					c-14.728,16.892-29.459,33.783-43.585,51.187c-0.126,0.157,0.16,0.328,0.285,0.197c16.041-16.813,31.458-34.193,46.897-51.556
					c14.909-16.768,30.632-33.121,44.687-50.611C350.945,726.868,348.627,725.491,347.61,726.547z"/>
			</g>
			<g>
				<path style="fill:#5D5D5D;" d="M477.585,806.717c-7.962-8.388-18.93-15.034-28.105-22.077
					c-9.817-7.535-19.655-15.057-29.602-22.422c-18.887-13.981-37.466-28.956-57.312-41.555c-0.229-0.145-0.534,0.166-0.317,0.369
					c17.592,16.398,37.287,30.973,56.092,45.953c9.318,7.424,18.719,14.751,28.137,22.048c9.042,7.005,18.08,15.657,28.085,21.21
					C476.859,811.518,479.53,808.766,477.585,806.717z"/>
			</g>
			<g>
				<path style="fill:#5D5D5D;" d="M486.097,820.961c-16.014,17.52-30.664,36.461-45.852,54.699
					c-15.605,18.737-31.217,37.476-45.979,56.891c-0.122,0.16,0.162,0.329,0.285,0.197c16.226-17.388,31.699-35.448,47.147-53.528
					c15.879-18.585,32.59-36.738,47.591-56.043C490.677,821.393,487.477,819.453,486.097,820.961z"/>
			</g>
			<g>
				<path style="fill:#5D5D5D;" d="M475.738,819.11c-33.813,0.628-67.623,1.449-101.433,2.236
					c-2.263-13.056-4.632-26.096-6.947-39.145c-1.539-8.676-3.152-17.337-4.789-25.997c-1.617-8.553-2.68-17.558-5.438-25.818
					c-0.287-0.859-1.728-0.692-1.725,0.252c0.04,16.768,4.17,34.362,6.68,50.926c2.016,13.308,3.985,26.625,6.046,39.927
					c-16.369,0.378-32.741,0.755-49.104,1.328c-8.629,0.302-17.255,0.692-25.883,1.042c-8.016,0.325-16.961-0.188-24.69,2.14
					c-0.682,0.206-0.662,1.11,0.029,1.287c7.407,1.899,15.795,1.121,23.395,1.113c8.635-0.009,17.27,0.014,25.904-0.026
					c17.105-0.079,34.213-0.419,51.315-0.735c0.253,1.609,0.5,3.218,0.756,4.826c2.642,16.509,5.268,33.02,7.967,49.519
					c1.426,8.71,2.852,17.421,4.276,26.133c1.168,7.133,1.421,15.245,4.607,21.763c0.828,1.696,4.318,1.328,4.58-0.647
					c0.981-7.359-1.492-15.343-2.696-22.637c-1.438-8.711-2.878-17.421-4.316-26.133c-2.803-16.97-5.689-33.926-8.551-50.885
					c-0.116-0.685-0.238-1.368-0.354-2.053c31.664-0.576,63.33-1.138,94.993-1.845c0.442,0.168,0.964,0.253,1.583,0.204
					c1.312-0.107,2.622-0.212,3.933-0.317C480.32,825.21,480.277,819.024,475.738,819.11z"/>
			</g>
			<g>
				<path style="fill:#5D5D5D;" d="M351.65,718.486c-17.221,19.017-33.798,38.687-50.824,57.893
					c-16.377,18.472-34.272,36.525-48.611,56.65c-0.458,0.642,0.58,1.191,1.075,0.746c18.637-16.782,34.841-36.837,51.622-55.447
					c16.9-18.741,34.31-37.091,51.006-56.002C358.449,719.459,354.021,715.866,351.65,718.486z"/>
			</g>
			<g>
				<path style="fill:#5D5D5D;" d="M495.22,815.006c-23.589-17.159-47.118-34.399-70.676-51.599
					c-11.62-8.484-23.229-16.993-34.928-25.365c-10.465-7.49-21.461-17.556-33.841-21.565c-0.255-0.082-0.549,0.207-0.386,0.451
					c7.16,10.741,20.467,18.332,30.636,26.015c11.453,8.65,23.002,17.185,34.56,25.695c23.142,17.04,46.351,33.99,69.569,50.925
					C493.474,821.984,498.902,817.684,495.22,815.006z"/>
			</g>
			<g>
				<path style="fill:#5D5D5D;" d="M487.814,814.184c-15.478,20.967-30.243,42.149-47.12,62.089
					c-8.605,10.166-17.472,20.098-26.403,29.979c-4.162,4.604-8.39,9.148-12.654,13.659c-3.576,3.784-7.67,7.49-10.879,11.682
					c-10.188-8.429-21.324-15.914-31.928-23.789l-35.134-26.091c-11.367-8.442-22.733-16.883-34.1-25.324
					c-5.521-4.099-11.097-8.124-16.665-12.16c-5.599-4.06-11.411-8.824-17.775-11.623c-0.988-0.435-2.962,0.537-1.954,1.758
					c8.416,10.195,21.464,18.066,31.983,25.994c11.63,8.769,23.262,17.537,34.894,26.306c11.29,8.51,22.581,17.02,33.87,25.532
					c11.473,8.649,22.694,17.995,34.708,25.873c2.661,1.745,6.343-1.595,4.72-4.109c9.306-6.389,17.357-16.008,25.147-23.898
					c9.186-9.306,17.943-19.038,26.435-28.977c17.235-20.173,34.721-41.268,49.002-63.667
					C496.379,813.628,490.204,810.947,487.814,814.184z"/>
			</g>
			<g>
				<path style="fill:#5D5D5D;" d="M548.713,503.616c-4.952-3.111-18.3-11.577-23.383-14.423c-1.086-0.608-2.634,0.831-1.511,1.763
					c4.607,3.822,17.71,12.934,22.544,16.506C547.039,506.137,547.848,504.839,548.713,503.616z"/>
			</g>
			<g>
				<path style="fill:#5D5D5D;" d="M799.073,674.766c-7.432-6.622-16.457-11.78-24.659-17.4l-27.434-18.798
					c-17.584-12.051-35.17-24.101-52.756-36.151c-15.239-10.442-30.496-20.859-45.768-31.254c-1.917,1.254-3.88,2.449-5.89,3.554
					c30.45,20.944,60.919,41.863,91.406,62.753c10.2,6.99,20.4,13.978,30.598,20.967c10.055,6.889,19.992,15.03,30.822,20.624
					C798.077,680.447,801.752,677.153,799.073,674.766z"/>
			</g>
			<g>
				<path style="fill:#5D5D5D;" d="M521.47,486.738c-44.855,41.985-87.323,86.868-128.842,132.126
					c-41.225,44.936-81.178,91.052-119.539,138.46c-11.036,13.637-21.893,27.426-32.489,41.408
					c-10.326,13.625-22.693,27.402-30.458,42.663c-0.268,0.529,0.433,0.981,0.854,0.592c0.151-0.14,0.293-0.293,0.445-0.435
					c-0.183,0.252-0.224,0.572,0.026,0.904c10.79,14.276,24.542,26.856,37.673,38.942c13.52,12.442,27.551,24.287,42.11,35.497
					c28.924,22.271,59.793,42.814,92.26,59.575c2.198,1.133,4.56-0.197,4.903-2.532c0.177-1.217,0.355-2.434,0.534-3.651
					c0.45-3.065-4.899-3.674-5.937-1.026c-30.612-17.247-60.219-35.718-88.246-57.018c-14.348-10.903-28.332-22.326-41.847-34.243
					c-13.518-11.92-26.05-25.067-39.801-36.689l-0.011,0.014c-0.4-0.368-1.025-0.291-1.428-0.005
					c10.517-9.922,19.047-22.471,28.156-33.667c9.607-11.807,19.257-23.58,28.91-35.352c19.851-24.211,39.853-48.292,60.266-72.032
					c39.851-46.349,81.079-91.514,123.607-135.419c24.191-24.974,49.121-49.171,73.719-73.734
					C529.446,488.009,524.398,483.997,521.47,486.738z"/>
			</g>
			<g>
				<path style="fill:#5D5D5D;" d="M418.914,944.623c-1.574-2.115-4.267-3.358-6.459-4.777c-2.605-1.687-5.185-3.521-8.049-4.745
					c-0.686-0.293-1.44,0.384-0.877,1.023c2.022,2.301,4.565,4.124,6.956,6.02c2.091,1.658,4.087,3.703,6.634,4.58
					C418.259,947.116,419.735,945.729,418.914,944.623z"/>
			</g>
			<g>
				<path style="fill:#5D5D5D;" d="M429.575,934.699c-6.163,0.432-11.463-2.108-14.449-7.656c-0.273-0.508-1.188-0.189-1.029,0.39
					c1.842,6.745,9.015,11.306,15.911,10.146C431.806,937.278,431.358,934.574,429.575,934.699z"/>
			</g>
			<g>
				<path style="fill:#5D5D5D;" d="M444.092,920.718c-2.085-1.73-4.536-3.061-6.817-4.514c-2.469-1.572-4.951-3.245-7.626-4.446
					c-0.395-0.178-0.848,0.232-0.512,0.596c1.952,2.12,4.313,3.894,6.561,5.689c2.105,1.682,4.145,3.541,6.444,4.949
					C443.534,923.845,445.523,921.903,444.092,920.718z"/>
			</g>
			<g>
				<path style="fill:#5D5D5D;" d="M457.753,905.141c-1.978-1.85-4.572-3.113-6.869-4.525c-2.512-1.543-4.96-3.21-7.685-4.354
					c-0.459-0.194-0.959,0.253-0.586,0.682c1.908,2.184,4.247,3.924,6.476,5.765c2.077,1.714,4.089,3.715,6.469,4.992
					C457.175,908.566,459.295,906.582,457.753,905.141z"/>
			</g>
			<g>
				<path style="fill:#5D5D5D;" d="M467.381,887.785c-3.799-2.863-8.159-5.123-12.352-7.348c-0.842-0.447-2.05,0.638-1.17,1.365
					c3.61,2.98,7.33,6.111,11.376,8.486C466.765,891.185,469.023,889.024,467.381,887.785z"/>
			</g>
			<g>
				<path style="fill:#5D5D5D;" d="M476.556,872.275c-2.678-1.729-5.313-3.688-8.161-5.121c-0.621-0.313-1.321,0.378-0.805,0.938
					c2.137,2.318,4.734,4.278,7.113,6.344C476.223,875.757,478.432,873.486,476.556,872.275z"/>
			</g>
			<g>
				<path style="fill:#5D5D5D;" d="M483.05,858.444c-0.621,0.075-1.241,0.151-1.862,0.226c-1.385,0.169-1.388,2.381,0,2.55
					c0.621,0.075,1.241,0.151,1.862,0.227c0.99,0.12,2.19-0.314,2.19-1.502C485.24,858.767,484.043,858.322,483.05,858.444z"/>
			</g>
		</g>
		<g>
			<path style="fill:#5D5D5D;" d="M656.529,299.613c-13.86,11.353-27.318,25.782-38.825,39.918
				c-33.744,15.649-67.336,31.33-100.125,49.137c-26.583,14.437-53.708,29.27-78.932,46.571
				c-19.596,2.892-32.872,23.111-27.915,42.617c0.435,1.705,3.235,1.045,2.91-0.723c-1.807-9.845,0.094-18.923,4.784-26.181
				c1.969-5.457,7.478-8.901,12.422-11.603c0.869-0.476,1.766-0.892,2.678-1.273c0.845-0.391,1.704-0.764,2.591-1.098
				c-0.119,0.082-0.235,0.169-0.354,0.253c2.879-0.964,5.907-1.56,8.975-1.966c25.303-14.792,50.222-30.328,76.025-44.216
				c34.23-18.422,69.229-36.133,105.165-50.684c2.635-1.068,0.209-4.748-2.251-3.607c-0.564,0.262-1.126,0.523-1.69,0.784
				c13.288-10.426,26.756-22.417,37.693-34.977C661.617,300.344,658.553,297.954,656.529,299.613z"/>
		</g>
		<g>
			<path style="fill:#5D5D5D;" d="M827.554,440.853c-11.522-29.363-27.319-59.833-57.332-86.785
				c-27.235-24.458-68.18-47.263-112.301-53.513c-0.47-0.067-0.442,0.352,0.005,0.455c44.346,10.06,82.946,30.696,109.984,56.427
				c27.405,26.084,42.273,54.724,53.081,82.789C821.914,442.622,828.539,443.364,827.554,440.853z"/>
		</g>
		<g>
			<path style="fill:#5D5D5D;" d="M804.902,450.706c-3.341,21.402-11.742,39.07-26.395,54.387
				c-15.512,16.218-34.743,27.179-54.876,35.747c-39.953,17.002-84.05,26.647-116.146,58.907
				c-13.114,13.181-27.513,33.465-26.825,53.699c0.006,0.15,0.206,0.125,0.246,0.012c3.56-10.098,6.228-20.063,11.688-29.309
				c5.19-8.786,11.812-16.631,19.087-23.549c16.23-15.434,35.889-25.701,56.153-33.969c31.661-12.919,65.866-22.087,94.171-41.809
				c-0.351,0.349-0.576,0.837-0.56,1.458c0.94,36.718-14.652,70.939-44.303,90.89c-0.319,0.215,0.029,0.618,0.326,0.45
				c30.424-17.286,51.175-54.687,48.128-91.654c-0.137-1.676-1.873-2.118-3.056-1.522c7.383-5.194,14.365-11.104,20.781-18.011
				c13.621-14.662,25.128-34.397,25.78-55.508C809.174,448.581,805.246,448.497,804.902,450.706z"/>
		</g>
		<g>
			<path style="fill:#5D5D5D;" d="M570.99,408.184c-6.886,9.739-11.293,21.597-14.091,33.122
				c-2.559,10.543-5.173,23.535-2.794,34.248c0.433,1.949,3.404,1.334,3.596-0.439c0.639-5.899-0.107-11.965,0.302-17.92
				c0.4-5.823,1.2-11.614,2.44-17.319c2.402-11.049,6.698-21.123,11.06-31.496C571.629,408.085,571.143,407.967,570.99,408.184z"/>
		</g>
		<g>
			<path style="fill:#5D5D5D;" d="M579.894,594.54c-0.078-0.201-0.421-0.148-0.399,0.082c1.333,14.705,2.191,29.073-0.082,43.714
				c-2.32,14.929-7.944,27.435-14.066,40.871c-1.4,3.07,2.872,4.372,4.476,2.057C585.7,658.338,590.078,620.88,579.894,594.54z"/>
		</g>
		<g>
			<path style="fill:#5D5D5D;" d="M707.955,551.283c-0.102-0.226-0.566-0.326-0.621,0c-1.641,9.851-1.054,18.571-6.521,27.578
				c-5.01,8.254-11.904,12.356-20.087,16.84c-1.499,0.822-0.396,2.942,1.162,2.483c8.53-2.515,16.346-9.748,21.051-17.138
				C708.051,573.014,712.076,560.435,707.955,551.283z"/>
		</g>
		<g>
			<path style="fill:#5D5D5D;" d="M572.39,666.846c-10.032,17.282-23.409,31.283-42.81,36.564
				c-9.236,2.513-20.263,3.517-29.544,0.616c-6.906-2.158-11.716-7.375-9.439-15.335c1.714-5.992,6.534-10.024,10.744-14.151
				c12.202-11.961,18.124-27.306,20.59-44.301c1.623-11.182,1.861-22.515,2.201-33.799c0.342-11.342,1.2-23.037,0.107-34.342
				c-0.017-0.183-0.328-0.252-0.365-0.046c-4.568,26.233-0.242,53.761-7.435,79.609c-3.596,12.924-9.994,22.935-19.555,31.927
				c-5.998,5.641-12.864,12.983-11.059,22.204c3.805,19.413,35.715,15.169,48.268,11.087c18.126-5.893,34.722-20.105,40.894-39.012
				C575.486,666.343,573.116,665.594,572.39,666.846z"/>
		</g>
		<g>
			<path style="fill:#5D5D5D;" d="M559.143,459.818c-4.496,17.571-9.279,34.6-15.881,51.532
				c-6.793,17.421-14.466,34.573-20.595,52.241c-0.352,1.016,1.396,1.615,1.838,0.699c8.205-16.968,15.263-34.611,22.491-52.014
				c6.846-16.482,14.11-34.078,15.349-52.067C562.462,458.505,559.549,458.23,559.143,459.818z"/>
		</g>
		<g>
			<path style="fill:#5D5D5D;" d="M756.593,575.168c-0.098-0.389-0.836-0.326-0.792,0.096c1.171,10.895-0.769,21.919-5.76,31.699
				c-2.445,4.789-5.466,9.361-9.173,13.265c-3.457,3.641-7.853,6.021-11.373,9.497c-1.675,1.655,0.168,4.531,2.408,3.723
				c9.802-3.537,17.761-14.939,21.772-24.117C758.407,598.499,759.434,586.626,756.593,575.168z"/>
		</g>
		<g>
			<path style="fill:#5D5D5D;" d="M412.855,469.321c-0.012-0.339-0.523-0.322-0.563,0c-2.722,21.934-2.734,43.815-2.404,65.894
				c0.334,22.225,0.217,44.524,1.072,66.733c0.117,3.058,5.234,3.081,5.23,0C416.133,557.786,414.389,513.447,412.855,469.321z"/>
		</g>
		<g>
			<path style="fill:#5D5D5D;" d="M818.269,421.437c-0.471-2.022-3.857-1.926-4.385,0c-1.313,4.796-1.386,9.733-3.032,14.514
				c-1.946,5.66-4.497,11.01-8.412,15.565c-0.137,0.16,0.078,0.31,0.227,0.204C811.864,445.29,821.077,433.493,818.269,421.437z"/>
		</g>
		<g>
			<path style="fill:#5D5D5D;" d="M835.915,450.091c-21.498-58.927-67.249-108.837-124.743-134.4
				c-15.248-6.781-31.556-12.549-48.245-14.173c-8.83-3.406-19.087-5.597-28.245-7.118c-0.182-0.189-0.351-0.383-0.535-0.57
				c-0.073-0.075-0.209,0.014-0.157,0.11c0.067,0.128,0.142,0.252,0.211,0.38c-0.415-0.069-0.843-0.145-1.252-0.211
				c-0.365-0.058-0.726,0.432-0.294,0.628c0.772,0.352,1.575,0.706,2.37,1.058c1.374,2.491,2.809,4.932,4.34,7.343
				c1.72,2.712,3.364,5.762,5.696,7.987c1.084,1.037,2.878-0.163,2.211-1.536c-1.519-3.128-4.339-5.924-6.588-8.56
				c-1.307-1.533-2.635-3.021-3.988-4.492c9.158,3.987,19.553,7.799,29.026,9.311c0.616,0.099,1.226-0.177,1.623-0.593
				c16.772,5.655,33.318,11.145,49.233,19.218c17.116,8.681,33.122,19.465,47.63,32.026c27.931,24.179,50.397,54.834,64.067,89.191
				c-5.341-2.158-11.441-3.799-16.668-4.435c-0.982-0.12-1.67,0.915-0.729,1.556c5.452,3.709,13.107,7.035,19.639,8.693
				C831.684,454.45,837.071,453.259,835.915,450.091z"/>
		</g>
		<g>
			<path style="fill:#5D5D5D;" d="M653.088,260.301c-7.26,10.4-15.277,21.091-20.816,32.523c-0.214,0.442,0.375,0.862,0.728,0.505
				c9.077-9.21,16.61-20.412,24.153-30.889C658.858,260.072,654.638,258.08,653.088,260.301z"/>
		</g>
		<g>
			<path style="fill:#5D5D5D;" d="M872.383,397.26c-5.984,8.991-11.682,18.05-18.367,26.561
				c-6.596,8.396-14.241,15.956-20.752,24.382c-0.512,0.662,0.581,1.101,1.074,0.746c8.429-6.087,15.681-14.522,22.26-22.533
				c7.029-8.559,13.842-17.647,19.154-27.383C876.917,396.897,873.628,395.39,872.383,397.26z"/>
		</g>
		<g>
			<path style="fill:#5D5D5D;" d="M902.783,410.7c-2.677-8.565-7.842-16.689-12.416-24.358
				c-4.906-8.228-10.212-16.212-15.916-23.909c-10.969-14.798-23.247-28.649-36.712-41.219
				c-27.408-25.585-59.435-46.688-94.093-61.061c-19.811-8.214-40.002-13.889-61.137-17.331c-0.143-0.024-0.22,0.174-0.064,0.209
				c72.417,16.576,138.014,57.44,183.281,116.515c6.21,8.106,12.033,16.522,17.426,25.192c5.55,8.923,9.834,18.774,15.698,27.455
				C900.021,413.928,903.504,413.008,902.783,410.7z"/>
		</g>
		<g>
			<path style="fill:#5D5D5D;" d="M900.315,413.554c-8.467-3.094-18.869-6.12-27.942-6.166c-0.139,0-0.186,0.163-0.072,0.236
				c7.639,4.797,18.17,7.69,26.91,9.526C901.749,417.684,902.81,414.466,900.315,413.554z"/>
		</g>
		<g>
			<path style="fill:#5D5D5D;" d="M881.671,381.376c-1.749,1.571-2.587,3.976-3.595,6.062c-0.973,2.016-2.112,4.093-2.553,6.299
				c-0.104,0.52,0.528,0.798,0.907,0.476c1.751-1.484,3.085-3.466,4.435-5.307c1.348-1.838,3.174-3.759,3.697-6.015
				C884.942,381.254,882.839,380.328,881.671,381.376z"/>
		</g>
		<g>
			<path style="fill:#5D5D5D;" d="M684.422,244.27c-8.315-4.209-19.361-4.905-28.576-5.17c-10.351-0.299-20.368,1.033-30.482,3.142
				c-0.157,0.032-0.079,0.23,0.064,0.209c10.029-1.453,20.34-1.482,30.418-0.45c9.408,0.964,18.4,4.113,27.713,5.138
				C685.19,247.318,685.881,245.008,684.422,244.27z"/>
		</g>
		<g>
			<path style="fill:#5D5D5D;" d="M655.974,258.615c-8.864-6.413-20.299-11.365-30.496-15.259c-0.215-0.082-0.584,0.175-0.316,0.369
				c8.719,6.308,19.038,13.035,29.105,16.88C655.432,261.051,657.416,259.659,655.974,258.615z"/>
		</g>
		<g>
			<path style="fill:#5D5D5D;" d="M668.518,239.25c-2.75,1.827-4.415,5.063-6.291,7.735c-1.44,2.05-4.586,5.103-4.217,7.76
				c0.026,0.191,0.174,0.27,0.357,0.244c2.84-0.396,5.182-3.828,7.093-5.759c2.269-2.297,5.297-4.543,6.546-7.568
				C672.777,239.794,669.98,238.278,668.518,239.25z"/>
		</g>
		<g>
			<path style="fill:#5D5D5D;" d="M677.003,149.029c-5.544,6.781-9.633,15.182-14.176,22.671
				c-4.617,7.612-9.236,15.225-13.854,22.838c-9.166,15.109-19.282,30.139-26.917,46.093c-0.612,1.277,1.153,2.045,1.946,1.023
				c11.132-14.36,20.299-30.557,29.976-45.919c4.751-7.543,9.501-15.086,14.252-22.628c4.569-7.255,10.026-14.443,13.516-22.279
				C682.995,148.026,678.458,147.249,677.003,149.029z"/>
		</g>
		<g>
			<path style="fill:#5D5D5D;" d="M979.313,290.894c-7.25,9.335-13.329,19.839-19.84,29.706
				c-6.787,10.285-13.558,20.581-20.308,30.892c-13.188,20.147-27.437,40.074-39.078,61.161c-0.532,0.965,0.894,1.551,1.495,0.787
				c14.922-19.023,27.787-39.95,41.259-60.014c6.637-9.887,13.256-19.787,19.858-29.697c6.779-10.178,14.368-20.205,20.331-30.88
				C984.365,290.458,980.797,288.982,979.313,290.894z"/>
		</g>
		<g>
			<path style="fill:#5D5D5D;" d="M556.471,477.776c-2.526-8.486-6.683-16.104-8.434-24.929c-1.844-9.297-2.065-18.75-1.101-28.155
				c0.014-0.125-0.212-0.149-0.236-0.029c-1.928,9.401-2.401,18.957-1.164,28.489c1.104,8.503,2.934,18.632,7.92,25.768
				C554.374,480.233,557.002,479.559,556.471,477.776z"/>
		</g>
		<g>
			<path style="fill:#5D5D5D;" d="M633.147,826.377c-40.128-28.948-80.396-57.707-120.599-86.55
				c-20.113-14.429-40.257-28.814-60.393-43.211c-9.283-6.637-18.67-13.128-28.099-19.56c-10.41-7.099-21.121-15.407-32.634-20.569
				c-0.151-0.067-0.322,0.088-0.195,0.229c8.379,9.199,19.686,16.642,29.586,24.124c9.556,7.223,19.177,14.356,28.893,21.365
				c19.709,14.217,39.413,28.443,59.147,42.63c39.824,28.629,79.588,57.342,119.486,85.868
				C631.497,832.962,636.661,828.91,633.147,826.377z"/>
		</g>
		<g>
			<path style="fill:#5D5D5D;" d="M588.837,845.127c0.419-0.795,0.413-1.809-0.36-2.677c-3.535-3.965-8.4-7.017-12.666-10.168
				c-3.846-2.84-7.694-5.806-12.103-7.711c1.1-2.279-2.539-4.24-4.305-2.5c-10.081,9.939-18.664,21.753-27.771,32.587
				c-9.854,11.727-19.709,23.453-29.564,35.18c-19.334,23.006-38.982,46.015-57.022,70.057c-0.621,0.828,0.816,1.682,1.453,1.01
				c12.245-12.918,24.028-26.331,35.652-39.868c2.402,3.82,6.605,6.773,10.002,9.63c3.855,3.244,7.618,7.118,12.065,9.505
				c0.082,0.044,0.166,0.072,0.249,0.107c-7.49,8.522-15.362,17.025-21.612,26.422c-0.27,0.407,0.354,0.729,0.665,0.461
				c10.29-8.881,19.114-19.755,28.253-29.79c8.637-9.482,17.264-18.972,25.866-28.487c17.775-19.663,35.491-39.38,53.064-59.226
				C592.439,847.695,590.757,845.384,588.837,845.127z M533.395,906.791c-8.679,10.009-17.325,20.047-25.968,30.089
				c-0.06-0.079-0.113-0.159-0.186-0.235c-3.416-3.617-8.33-6.265-12.423-9.085c-3.762-2.591-7.693-5.762-12.082-7.2
				c7.467-8.699,14.87-17.447,22.286-26.15c1.917-2.248,3.825-4.504,5.739-6.753c2.898,3.386,6.601,6.132,10.021,8.939
				c4.081,3.349,8.368,7.609,13.267,9.643C533.833,906.291,533.613,906.541,533.395,906.791z M536.933,902.73
				c-3.387-3.772-8.294-6.341-12.549-9.016c-4.104-2.579-8.211-5.455-12.707-7.334c7.438-8.75,14.87-17.504,22.306-26.256
				c0.645-0.76,1.309-1.516,1.964-2.275c3.314,3.003,7.154,5.345,10.879,7.824c4.711,3.136,9.469,6.462,14.56,8.946l0.021,0.008
				C553.229,883.976,545.076,893.349,536.933,902.73z M564.471,871.143c-0.023-0.017-0.037-0.035-0.061-0.052
				c-8.028-5.618-17.946-11.295-27.434-14.434c8.946-10.264,18.565-20.377,26.336-31.46c2.649,4.054,6.407,7.325,9.93,10.596
				c3.843,3.566,7.624,7.552,12.116,10.294c0.282,0.172,0.567,0.279,0.848,0.336C578.933,854.64,571.699,862.889,564.471,871.143z"
				/>
		</g>
		<g>
			<path style="fill:#5D5D5D;" d="M477.625,968.947c-2.948-3.529-7.598-5.664-11.502-8.031c-4.232-2.567-8.397-5.202-13.186-6.569
				c-0.089-0.024-0.2,0.073-0.137,0.16c2.823,3.926,6.709,6.759,10.503,9.7c3.625,2.809,7.296,6.328,11.643,7.879
				C476.58,972.668,478.961,970.545,477.625,968.947z"/>
		</g>
		<g>
			<path style="fill:#5D5D5D;" d="M654.802,303.086c-0.31-3.695-4.65-6.1-7.77-4.585l-1.575-0.538
				c-0.862-0.296-1.986-0.009-2.826,0.596c-2.58-2.376-5.329-4.527-8.295-5.917c-0.333-0.156-0.909,0.079-0.753,0.522
				c1.882,5.345,6.422,10.191,10.388,14.554c-5.477,4.577-9.968,10.494-14.632,15.824c-4.016,4.586-8.547,9.199-11.966,14.345
				c-14.094,6.549-27.754,14.158-41.524,21.306c-17.014,8.83-34.014,17.688-51.022,26.534l-49.886,25.944
				c-8.309,4.321-16.587,8.698-24.812,13.177c-4.051,2.205-8.362,4.357-12.469,6.787c-8.893,0.046-17.667,7.499-21.73,14.838
				c-7.731,13.961-5.913,32.483-6.064,47.839c-0.183,18.501-0.621,36.999-0.567,55.503c0.027,9.25,0.111,18.506,0.277,27.752
				c0.084,4.627,0.238,9.251,0.365,13.877c0.117,4.316-0.288,8.769,1.502,12.744c0.212,0.468,0.836,0.467,1.048,0
				c2.814-6.189,1.614-14.836,1.821-21.574c0.233-7.566,0.288-15.137,0.392-22.706c0.217-15.98,0.127-31.957-0.079-47.937
				c-0.194-14.905-1.501-30.459-0.05-45.302c0.734-7.517,2.585-15.286,7.412-21.286c2.048-2.547,4.226-4.371,6.578-5.684
				c2.876-0.647,5.696-1.588,8.466-2.718c1.778-0.262,3.643-0.409,5.614-0.479c1.519-0.055,2.699-1.832,1.937-2.982
				c2.462-1.215,4.894-2.463,7.299-3.642c8.422-4.13,16.775-8.414,25.099-12.733c17.017-8.83,34.034-17.661,51.05-26.491
				c16.639-8.634,33.281-17.258,49.915-25.902c16.044-8.336,32.532-16.183,47.981-25.605c1.771-0.854,3.537-1.72,5.292-2.596
				c4.79-2.385,9.962-4.514,14.051-8.01c0.274-0.235-0.049-0.551-0.323-0.5c-5.394,0.988-10.473,3.631-15.469,5.827
				c-0.249,0.11-0.497,0.221-0.747,0.331c-0.659-0.468-1.592-0.648-2.536-0.25c-0.743,0.313-1.476,0.651-2.216,0.971
				c3.293-3.003,6.407-6.247,9.54-9.28c4.957-4.799,10.488-9.456,14.626-15.048c1.716-0.174,3.428-1.563,2.734-3.32
				c0.519-0.16,1.025-0.418,1.496-0.802c0.307-0.249,0.49-0.54,0.615-0.843C654.037,305.169,654.897,304.224,654.802,303.086z"/>
		</g>
		<g>
			<path style="fill:#5D5D5D;" d="M901.537,413.278c0.119-0.435,0.154-0.923,0.055-1.475c-0.458-2.587-2.445-4.247-4.777-4.815
				c0.49-1.034,0.519-2.295-0.232-3.662c-18.582-33.859-45.386-64.338-74.396-89.617c-29.529-25.733-63.65-47.631-100.378-61.517
				c-14.53-5.493-31.133-10.371-47.095-9.633c-0.4-1.678-2.42-2.815-4.237-1.763c-1.258,0.73-2.432,1.624-3.555,2.608
				c-0.587,0.101-1.171,0.209-1.755,0.329c-0.001-0.052,0.011-0.11,0.003-0.16c0.134-0.31,0.218-0.634,0.238-0.962
				c0.159-0.198,0.319-0.393,0.477-0.592c0.648-0.811-0.496-1.652-1.316-1.408c-0.319-0.259-0.726-0.456-1.238-0.55
				c-8.431-1.537-18.111,0.136-26.772,0.692c-0.741-0.108-1.37-0.206-1.829-0.299c-1.888-0.381-3.267,0.814-3.604,2.172
				c-2.393-1.612-4.781-3.232-7.224-4.768c-0.13-0.081-0.383,0.044-0.311,0.214c2.428,5.722,6.363,10.337,11.135,14.312
				c3.917,3.261,9.073,7.139,14.304,8.248c-1.396,2.545-2.785,5.074-4.219,7.516c-4.549,7.743-9.219,15.53-12.182,24.042
				c-0.058,0.166,0.194,0.273,0.302,0.159c6.555-6.941,11.629-15.068,16.756-23.082c0.023-0.035,0.046-0.069,0.067-0.102
				c0.063-0.037,0.125-0.073,0.183-0.121c2.147-1.726,3.889-3.797,5.597-5.925c1.92-1.579,3.826-3.177,5.69-4.836
				c3.033-2.701,6.799-5.629,9.755-8.922c14.94,1.496,29.567,4.147,43.976,9.355c18.413,6.656,35.985,15.928,52.697,26.069
				c31.621,19.186,60.234,43.485,84.292,71.581c9.515,11.112,17.969,22.843,25.995,34.931c-3.729,4.101-5.943,10.137-9.027,14.557
				c-0.631,0.907-0.185,2.245,0.788,2.707l0.009,0.003c-0.636,0.099-1.267,0.229-1.893,0.41c-0.134,0.038-0.223,0.214-0.093,0.317
				c3.891,3.143,9.245,3.92,14.01,5.108c5.824,1.452,11.797,3.139,17.795,3.557C902.463,418.16,903.247,414.904,901.537,413.278z"/>
		</g>
		<g>
			<path style="fill:#5D5D5D;" d="M990.636,264.518c-0.148,0.284-0.297,0.566-0.447,0.848c-0.055,0.105-0.011,0.262,0.127,0.279
				c-3.041-0.392-9.617,15.158-10.962,17.59c-3.522,6.37-7.141,12.69-10.754,19.009c-7.413,12.968-15.184,25.768-23.201,38.372
				c-7.812,12.28-15.919,24.377-24.414,36.197c-4.247,5.908-8.586,11.749-13.017,17.522c-4.568,5.948-10.148,11.676-13.596,18.355
				c-1.922,3.721,2.866,6.378,5.782,4.016c5.589-4.527,9.813-10.805,14.197-16.454c4.696-6.053,9.291-12.186,13.782-18.391
				c8.759-12.102,17.141-24.473,25.019-37.165c7.885-12.703,15.185-25.695,22.004-39c3.259-6.361,6.309-12.812,9.265-19.32
				c3.098-6.822,6.732-13.758,7.929-21.205C992.5,264.243,991.117,263.607,990.636,264.518z"/>
		</g>
		<g>
			<path style="fill:#5D5D5D;" d="M878.076,389.404c-4.667,3.56-7.287,10.098-10.452,14.96c-3.688,5.666-7.388,11.336-11.351,16.816
				c-8.194,11.332-17.363,21.955-27.246,31.844c-3.242,3.242,2.132,7.549,5.079,4.571c9.965-10.081,19.032-20.891,27.042-32.591
				c4.022-5.873,7.828-11.884,11.107-18.204c2.58-4.972,6.861-11.333,6.645-17.089C878.883,389.283,878.369,389.18,878.076,389.404z
				"/>
		</g>
		<g>
			<path style="fill:#5D5D5D;" d="M829.404,440.408c-1.354-0.241-2.523-0.683-3.494-1.359c-0.978-1.486-1.957-2.973-2.934-4.458
				c-0.52-0.788-1.29-1.266-2.132-1.476c0.389-1.075,0.692-2.161,0.762-3.351c0.006-0.105-0.143-0.174-0.227-0.117
				c-1.403,0.975-2.481,2.167-3.528,3.517c-0.136,0.176-0.278,0.336-0.415,0.506c-0.577,0.371-1.042,0.877-1.284,1.51
				c-0.085,0.096-0.169,0.191-0.255,0.284c-2.211,0.145-4.06,2.41-3.604,4.208c-0.538,1.473,0.259,3.081,2.016,3.561
				c2.997,0.819,6,1.627,8.997,2.458c1.574,0.743,3.305,1.191,5.111,1.28C832.407,447.166,833.58,441.114,829.404,440.408z"/>
		</g>
		<g>
			<path style="fill:#5D5D5D;" d="M832.401,453.022c-0.763-0.648-1.614-1.185-2.51-1.656c-0.053-0.598-0.316-1.173-0.863-1.618
				c-2.524-2.051-6.077-2.716-9.143-3.706c-1.217-0.392-2.651-0.982-4.102-1.398c-0.012-0.11-0.015-0.223-0.029-0.331
				c-0.229-1.887-1.894-3.149-3.622-3.409c1.269-1.629,2.495-3.291,3.605-5.047c1.115-1.763-1.542-3.261-2.892-2.007
				c-10.177,9.451-16.541,22.142-25.227,32.807c-0.095,0.117,0.122,0.212,0.209,0.11c4.735-5.547,10.163-10.566,15.333-15.798
				c0.133,0.845,1.086,1.511,1.958,0.93c0.599-0.398,1.112-0.86,1.597-1.348c-0.921,5.562-1.569,11.168-3.316,16.647
				c-2.658,8.336-6.421,16.285-11.162,23.638c-6.642,10.301-15.32,20.127-25.071,28.16c-2.783-1.367-6.843-0.316-6.57,3.37
				c0.04,0.531,0.067,1.055,0.101,1.583c-1.615,1.142-3.251,2.239-4.908,3.27c-0.194,0.122-0.06,0.429,0.163,0.348
				c1.653-0.596,3.264-1.24,4.853-1.908c1.014,18.483-1.196,35.66-10.284,52.397c-8.475,15.609-20.687,26.535-33.985,37.499
				c-0.534-0.217-1.061-0.453-1.601-0.642c-0.271-0.096-0.576,0.223-0.409,0.477c0.256,0.39,0.555,0.758,0.83,1.138
				c-0.929,0.763-1.861,1.525-2.797,2.291c-0.169,0.137,0.027,0.368,0.204,0.317c1.228-0.348,2.436-0.753,3.63-1.194
				c4.54,5.646,10.987,10.298,16.337,14.941c6.706,5.821,13.634,11.397,20.597,16.907c6.991,5.533,14.031,11.004,21.046,16.505
				c5.544,4.348,11.092,9.605,17.136,13.522c-61.759,76.017-124.139,151.528-185.968,227.488
				c-8.902,10.937-17.757,21.902-26.517,32.951c-8.679,10.946-17.824,21.754-25.192,33.648c-1.397,2.254,1.971,4.194,3.697,2.567
				c0.885-0.834,1.758-1.682,2.631-2.533c0.336,0.541,0.904,0.979,1.47,1.156c10.477,3.288,22.659,2.253,33.526,2.266
				c12.233,0.014,24.466-0.134,36.697-0.249c11.81-0.11,23.622-0.242,35.433-0.297c12.446-0.056,24.336-0.799,36.697-1.922
				c1.728-0.156,1.72-2.273,0-2.443c-11.935-1.187-23.4-2.063-35.431-2.224c-12.234-0.162-24.466-0.401-36.699-0.621
				c-11.81-0.214-23.619-0.426-35.431-0.554c-9.748-0.105-20.63-1.029-30.426,0.891c0.418-0.969,0.833-1.975,1.022-3.008
				c13.616-14.36,25.922-30.34,38.407-45.477c15.802-19.161,31.631-38.3,47.374-57.51c31.469-38.399,62.94-76.797,94.409-115.196
				c17.912-21.856,35.841-43.694,53.842-65.477c0.823-0.996,1.074-1.967,0.932-2.843c0.676-1.322,0.61-2.998-0.761-4.542
				c-5.991-6.747-14.943-11.783-22.183-17.17c-7.186-5.349-14.341-10.744-21.571-16.03c-6.003-4.388-12.042-8.731-18.182-12.927
				c7.642-4.318,13.827-12.526,17.404-19.808c4.525-9.207,9.045-23.981,5.03-34.056c-0.445-1.118-1.293-1.838-2.257-2.178
				c7.551-15.699,12.338-34.312,10.188-51.355c-0.04-0.311-0.111-0.602-0.206-0.878c11.228-6.181,20.656-14.585,28.405-25.591
				c5.222-7.42,9.483-15.541,12.584-24.069c2.17-5.972,4.568-13.188,5.294-20.075c0.465,0.232,0.932,0.462,1.382,0.692
				c4.141,2.115,8.474,4.888,13.16,5.216C832.663,457.826,834.364,454.689,832.401,453.022z M754.395,591.495
				c-0.657,5.615-2.294,11.213-4.645,16.346c-3.518,7.682-8.846,13.325-13.924,19.549c-5.271-3.61-10.734-7.744-16.546-10.607
				c14.823-6.52,26.908-19.953,35.091-33.606C754.523,585.937,754.721,588.709,754.395,591.495z"/>
		</g>
		<g>
			<path style="fill:#5D5D5D;" d="M284.859,746.672c26.865-32.138,54.442-63.659,82.714-94.566
				c15.911-17.394,32.172-34.446,48.349-51.591c3.036-3.218,0.688-7.02-2.487-7.988c-0.172-11.248-2.544-22.839-3.258-34.054
				c-0.756-11.89-1.013-23.796-0.91-35.709c0.102-11.896,0.744-23.764,1.557-35.629c0.877-12.823,0.872-26.285,2.893-38.948
				c0.017-0.105-0.152-0.146-0.175-0.043c-2.734,12.291-6.538,24-8.399,36.542c-1.812,12.214-2.896,24.518-3.531,36.848
				c-0.633,12.297-0.677,24.634-0.269,36.94c0.409,12.257,0.114,25.985,3.404,37.858c0.094,0.343,0.239,0.644,0.404,0.924
				c-56.07,58.593-109.588,120.305-159.813,183.949c-14.557,18.445-30.746,37.144-42.166,57.745
				c-0.564,1.019,0.066,1.966,0.947,2.297c-0.034,0.11-0.079,0.216-0.111,0.326c-0.214,0.74-0.192,1.379-0.029,1.931
				c-0.02,0.067-0.041,0.134-0.063,0.2c-0.868,2.722,2.163,4.337,4.453,3.686c3.706,4.935,8.207,9.37,12.41,13.859
				c6.428,6.865,13.192,13.416,20.069,19.831c13.968,13.027,28.51,25.695,43.784,37.17c25.939,19.486,53.368,36.285,82.404,50.47
				c-3.756,0.061-7.507,0.165-11.205,0.157c-10.572-0.02-21.144,0.053-31.715,0.102c-10.147,0.046-20.307,0.018-30.447,0.395
				c-9.544,0.355-20.314-0.226-29.41,3.037c-0.819,0.293-0.817,1.223,0,1.519c8.734,3.152,18.974,2.663,28.141,3.041
				c10.563,0.435,21.146,0.451,31.716,0.523c10.148,0.069,20.298,0.169,30.446,0.172c10.021,0.003,20.433,0.811,30.374-0.461
				c2.022-0.259,3.069-1.919,3.163-3.643c0.883-1.614,0.641-3.605-1.754-4.771c-33.659-16.375-66.185-35.989-96.185-58.383
				c-14.858-11.09-29.276-22.521-42.961-35.047c-6.947-6.358-13.682-12.936-20.394-19.538c-4.728-4.652-9.114-9.616-14.072-13.926
				c1.954-3.183,3.889-6.381,5.751-9.611c0.778-1.348-0.346-2.706-1.613-2.94c9.864-11.191,18.907-23.285,28.321-34.696
				C258.4,778.643,271.551,762.592,284.859,746.672z"/>
		</g>
	</g>
</g>
</svg>
